<svg width="115" height="115" viewBox="0 0 115 115" fill="none" xmlns="http://www.w3.org/2000/svg">
<path d="M69.6002 65.0259C70.0099 64.9597 70.5561 65.0136 70.834 65.1915C74.5253 67.555 78.853 67.9204 82.9301 69.0583C85.8926 69.8851 88.458 71.2353 90.2904 73.8073C92.3363 76.6792 91.6589 78.6054 88.2966 79.593C86.6032 80.0903 84.9233 79.8901 83.2155 79.7664C84.0313 84.9445 82.7731 86.0222 77.4302 84.8194C76.9678 87.3119 75.0777 88.3855 72.6907 87.2609C69.1024 85.5702 67.2901 82.4043 66.2592 78.7423C66.1128 78.2226 66.0057 77.3991 66.8053 77.125C67.5067 76.8845 67.8203 77.512 68.1277 77.9614C69.198 79.526 70.1818 81.1519 71.2973 82.6824C72.0632 83.7333 72.8646 84.84 74.5512 85.0842C74.1244 83.3393 73.2648 82.0542 72.3201 80.7603C71.6785 79.8815 70.6417 78.5632 71.6303 77.7118C72.5194 76.946 73.2592 78.4639 74.0116 79.0339C75.6804 80.2978 77.2506 81.6875 79.3837 82.1827C80.4946 82.4406 80.8519 82.0949 80.4641 81.0674C79.9517 79.7093 79.4461 78.3788 78.0447 77.5532C76.8956 76.8763 75.9876 75.8847 75.6853 74.4629C75.4757 73.4779 75.9053 73.2602 76.6819 73.5785C77.8535 74.0586 78.9869 74.6346 80.1244 75.1943C82.6888 76.456 85.3375 77.0121 88.298 76.3589C87.196 74.2384 85.4704 73.2063 83.4717 72.6569C80.781 71.9173 78.0514 71.3164 75.333 70.6795C73.5223 70.2554 71.8227 69.5945 70.2487 68.5891C69.1593 67.8932 68.3312 67.0955 68.685 65.5389C68.7484 65.2617 69.255 65.0817 69.6002 65.0259Z" fill="#080808"/>
<path d="M53.0646 51.8878C56.8524 49.9443 65.7854 43.6408 68.8517 45.6477C71.1459 47.0661 66.1491 51.2366 60.5908 54.3337C66.2421 51.3726 67.4455 51.158 69.1824 52.2089C71.4896 53.7016 62.7322 58.0114 62.7322 58.0114" stroke="black" stroke-width="17" stroke-linecap="round" stroke-linejoin="round"/>
<path d="M53.5542 56.7019C57.9416 56.4513 65.2878 56.8194 69.9469 55.8452C73.8555 54.9704 84.7382 54.281 87.0177 56.3452C88.9446 58.0875 82.0049 59.8181 75.3659 60.1549C82.1287 59.8904 83.3647 60.3159 84.7979 61.9994C86.4978 63.9949 75.9422 63.9363 75.9422 63.9363C75.9422 63.9363 80.7664 64.7688 81.8185 66.2467C82.6158 67.3651 79.3004 67.3718 74.3842 67.1853C67.895 66.9397 65.2339 66.1675 65.2339 66.1675" fill="white"/>
<path d="M53.5542 56.7019C57.9416 56.4513 65.2878 56.8194 69.9469 55.8452C73.8555 54.9704 84.7382 54.281 87.0177 56.3452C88.9446 58.0875 82.0049 59.8181 75.3659 60.1549C82.1287 59.8904 83.3647 60.3159 84.7979 61.9994C86.4978 63.9949 75.9422 63.9363 75.9422 63.9363C75.9422 63.9363 80.7664 64.7688 81.8185 66.2467C82.6158 67.3651 79.3004 67.3718 74.3842 67.1853C67.895 66.9397 65.2339 66.1675 65.2339 66.1675" stroke="black" stroke-width="17" stroke-linecap="round" stroke-linejoin="round"/>
<path d="M56.4421 74.706C58.5048 74.8121 60.4742 74.4274 62.3886 73.6641C63.3958 73.2625 64.5136 73.1148 64.9644 74.3728C65.3901 75.5605 64.3825 76.0605 63.4814 76.4138C54.9063 79.7758 41.9264 76.3741 38.4134 65.0078C37.589 62.3408 36.6588 58.9218 38.6739 58.9837C39.3398 59.0043 39.6048 59.5321 39.6713 60.1695C40.4433 67.5698 45.1878 72.7775 52.4759 74.3282C53.7971 74.6092 55.1146 74.6572 56.4421 74.706Z" fill="#080808"/>
<path d="M47.1572 77.6063C47.1993 78.3288 46.9641 78.7646 46.51 79.0538C45.9779 79.3925 45.4992 79.1944 45.2233 78.706C44.9614 78.2425 44.7868 78.1105 44.2389 78.3767C43.5821 78.6958 42.9238 78.4892 42.8634 77.6492C42.8208 77.0552 42.6329 76.949 42.0852 76.9565C41.4056 76.9658 40.9946 76.5063 41.1442 75.8485C41.3347 75.0113 41.8667 74.3754 42.784 74.238C43.5259 74.1268 43.8219 74.5092 43.7458 75.2336C43.7024 75.6478 43.8233 75.781 44.2549 75.5634C44.9785 75.1986 45.312 75.4826 45.2942 76.2714C45.2876 76.5655 45.233 76.9128 45.7576 76.5811C47.4195 75.5305 46.7533 77.3049 47.1572 77.6063Z" fill="#080808"/>
<path d="M55.5144 80.6808C55.482 79.0793 56.2081 78.5638 57.5073 79.0922C57.7644 79.1967 57.9248 79.8164 58.3066 79.1564C58.6928 78.4885 59.3287 78.3485 59.8549 78.958C60.3547 79.5368 60.6679 80.2883 60.1921 81.0314C59.6801 81.831 59.0754 81.6439 58.484 81.0495C57.8306 80.3926 57.8337 81.2608 57.6295 81.4813C57.2329 81.9092 56.7769 82.0471 56.27 81.8765C55.64 81.6646 55.4813 81.1212 55.5144 80.6808Z" fill="#080808"/>
<path d="M54.5543 80.1305C54.4888 80.9839 54.2635 81.5367 53.4432 81.5277C52.723 81.5197 52.4708 81.0677 52.4777 80.4138C52.4863 79.5993 52.8648 79.0838 53.7112 79.0877C54.5037 79.0914 54.5087 79.7217 54.5543 80.1305Z" fill="#080808"/>
<path d="M38.7603 34.2603C32.3031 34.2603 27.0686 40.0096 27.0686 47.1019C27.0686 54.1942 32.3031 59.9436 38.7603 59.9436C45.2175 59.9436 50.452 54.1942 50.452 47.1019C50.452 40.0096 45.2175 34.2603 38.7603 34.2603Z" fill="white"/>
<path d="M33.9726 60.4612C32.9877 60.1571 31.9949 59.6165 31.3957 58.6378C31.1493 58.2353 31.0036 57.83 31.3492 57.4164C31.6864 57.013 32.1476 56.9702 32.5536 57.2127C34.4429 58.3404 36.2629 58.9162 38.463 58.9838C39.1289 59.0044 39.5654 59.5728 39.4796 60.2079C39.3343 61.2829 37.1302 61.4362 33.9726 60.4612Z" fill="#080808"/>
<path d="M52.151 47.2882C51.7428 50.4381 50.761 54.6959 46.5108 57.3045C45.916 57.6696 45.132 58.4208 44.5374 57.5359C44.0542 56.8168 44.9233 56.3605 45.3769 55.8474C48.5729 52.2326 50.3511 48.1574 48.7795 43.3104C47.3092 38.7759 43.8332 36.6181 39.2659 35.984C38.6374 35.8968 37.9906 35.8744 37.3856 35.704C36.6853 35.507 36.0514 35.1008 36.1891 34.2374C36.3139 33.4546 36.8528 33.0581 37.6729 33.055C44.9918 33.0273 52.4271 37.924 52.151 47.2882Z" fill="#080808"/>
<path d="M26.0957 47.2148C25.9998 44.5958 26.8869 42.654 27.9538 40.7864C28.2791 40.2171 28.7015 39.4632 29.5718 39.9019C30.4748 40.3569 29.8082 41.0404 29.6104 41.537C28.6954 43.8355 27.7542 46.0974 28.439 48.6711C28.6225 49.3608 28.4842 50.1482 27.5329 50.2307C26.6491 50.3074 26.3305 49.6319 26.2167 48.9096C26.1089 48.2246 26.1152 47.5218 26.0957 47.2148Z" fill="#080808"/>
<path d="M28.2343 55.9675C27.6615 55.8262 26.9017 55.7121 26.199 55.4469C25.303 55.1086 24.7355 54.4002 24.708 53.4251C24.6832 52.5442 25.3429 52.1111 26.0546 51.7521C27.8267 50.8584 29.6949 50.2509 31.6512 49.9571C33.4562 49.6861 35.0896 50.514 35.3911 51.8405C35.8228 53.7393 34.4416 54.4181 33.0796 55.0393C31.605 55.7118 29.9764 55.6431 28.2343 55.9675Z" fill="#FED638"/>
<path d="M33.1333 36.0602C31.3535 35.5255 29.8988 33.8874 30.2385 32.7922C30.4662 32.058 31.0188 31.8131 31.7127 31.9517C32.8355 32.176 34.843 34.842 34.5463 35.6629C34.2633 36.446 33.6872 36.2228 33.1333 36.0602Z" fill="#080808"/>
<path d="M29.4675 35.4599C30.6265 35.8977 31.7192 36.3896 32.6591 37.149C32.9933 37.419 33.3482 37.8121 33.1166 38.2779C32.9021 38.7093 32.3935 38.8447 31.958 38.7331C30.416 38.3378 28.9819 37.6836 27.7381 36.6761C27.4617 36.4522 27.0873 36.0555 27.39 35.7044C27.9794 35.0203 28.7698 35.3482 29.4675 35.4599Z" fill="#080808"/>
<path d="M36.7217 47.6564C35.5904 47.6304 35.1293 47.08 35.156 46.1057C35.1798 45.2381 35.656 44.6162 36.4987 44.595C37.387 44.5727 38.0348 45.0598 38.0407 46.084C38.0464 47.0548 37.5885 47.5962 36.7217 47.6564Z" fill="#080808"/>
<path d="M32.9976 46.6521C32.828 47.3596 32.5135 47.9758 31.6493 47.9218C30.9226 47.8764 30.4509 47.3663 30.4848 46.6847C30.5206 45.9643 30.9313 45.3054 31.7935 45.4002C32.4478 45.4723 32.9473 45.8795 32.9976 46.6521Z" fill="#080808"/>
</svg>
