<svg width="307" height="251" viewBox="0 0 307 251" fill="none" xmlns="http://www.w3.org/2000/svg">
<path d="M289.849 0H17.1508C7.67869 0 0 7.69702 0 17.1918V233.808C0 243.303 7.67869 251 17.1508 251H289.849C299.321 251 307 243.303 307 233.808V17.1918C307 7.69702 299.321 0 289.849 0Z" fill="white"/>
<path d="M0 17.1918C0 7.69702 7.6787 0 17.1508 0H289.849C299.322 0 307 7.69702 307 17.1918V45.5582H0V17.1918Z" fill="#FED758"/>
<path d="M106.772 28.5727C106.068 28.5727 105.409 28.4535 104.796 28.2151C104.184 27.9676 103.649 27.6237 103.191 27.1836C102.743 26.7435 102.386 26.2117 102.12 25.5882C101.855 24.9648 101.723 24.2725 101.723 23.5115C101.723 22.7505 101.855 22.0582 102.12 21.4347C102.395 20.802 102.761 20.2656 103.218 19.8255C103.676 19.3762 104.206 19.0278 104.81 18.7803C105.423 18.5327 106.068 18.4089 106.744 18.4089C107.477 18.4089 108.108 18.5144 108.638 18.7253C109.169 18.9361 109.617 19.2066 109.982 19.5367C110.349 19.8576 110.632 20.2106 110.833 20.5957C111.044 20.9808 111.19 21.3476 111.272 21.696L109.228 22.3424C109.192 22.1774 109.118 21.9894 109.008 21.7785C108.908 21.5677 108.761 21.3705 108.569 21.1871C108.377 20.9946 108.13 20.8387 107.828 20.7195C107.536 20.5912 107.175 20.527 106.744 20.527C106.415 20.527 106.086 20.5865 105.756 20.7058C105.427 20.825 105.13 21.0083 104.865 21.2559C104.6 21.4943 104.384 21.8015 104.22 22.1774C104.055 22.5533 103.973 22.998 103.973 23.5115C103.973 23.9699 104.051 24.3779 104.206 24.7355C104.362 25.0931 104.568 25.3957 104.823 25.6432C105.089 25.8908 105.386 26.0788 105.715 26.2071C106.054 26.3355 106.406 26.3997 106.772 26.3997C107.193 26.3997 107.554 26.3401 107.856 26.2209C108.158 26.0925 108.41 25.9366 108.61 25.7533C108.812 25.5607 108.967 25.359 109.077 25.1481C109.196 24.9373 109.278 24.7447 109.324 24.5705L111.396 25.1619C111.313 25.5011 111.168 25.8678 110.957 26.2621C110.756 26.6564 110.468 27.0278 110.092 27.3762C109.727 27.7154 109.269 27.9996 108.72 28.2289C108.171 28.4581 107.522 28.5727 106.772 28.5727ZM114.903 23.4839C114.903 23.9974 114.985 24.4375 115.15 24.8043C115.315 25.1711 115.53 25.4782 115.795 25.7258C116.069 25.9641 116.371 26.1429 116.7 26.2621C117.039 26.3722 117.377 26.4272 117.716 26.4272C118.054 26.4272 118.388 26.3722 118.717 26.2621C119.056 26.1429 119.358 25.9641 119.623 25.7258C119.888 25.4782 120.103 25.1711 120.268 24.8043C120.432 24.4375 120.515 23.9974 120.515 23.4839C120.515 22.9796 120.432 22.5395 120.268 22.1636C120.103 21.7877 119.888 21.4805 119.623 21.2421C119.358 21.0038 119.056 20.825 118.717 20.7058C118.388 20.5865 118.054 20.527 117.716 20.527C117.377 20.527 117.039 20.5865 116.7 20.7058C116.371 20.825 116.069 21.0038 115.795 21.2421C115.53 21.4805 115.315 21.7877 115.15 22.1636C114.985 22.5395 114.903 22.9796 114.903 23.4839ZM112.653 23.4977C112.653 22.7275 112.786 22.0306 113.051 21.4072C113.325 20.7745 113.691 20.2381 114.148 19.798C114.615 19.3487 115.154 19.0049 115.767 18.7665C116.38 18.5282 117.03 18.4089 117.716 18.4089C118.402 18.4089 119.047 18.5282 119.65 18.7665C120.263 19.0049 120.799 19.3487 121.256 19.798C121.722 20.2381 122.088 20.7745 122.353 21.4072C122.628 22.0306 122.765 22.7275 122.765 23.4977C122.765 24.2679 122.628 24.9648 122.353 25.5882C122.088 26.2117 121.722 26.7481 121.256 27.1974C120.799 27.6375 120.263 27.9768 119.65 28.2151C119.047 28.4535 118.402 28.5727 117.716 28.5727C117.03 28.5727 116.38 28.4535 115.767 28.2151C115.154 27.9768 114.615 27.6375 114.148 27.1974C113.691 26.7481 113.325 26.2117 113.051 25.5882C112.786 24.9648 112.653 24.2679 112.653 23.4977ZM124.721 28.3664V18.6152H126.889V26.2896H131.087V28.3664H124.721ZM132.904 28.3664V18.6152H135.072V26.2896H139.271V28.3664H132.904ZM146.932 26.3859H143.173L142.473 28.3664H140.195L143.859 18.6152H146.37L149.992 28.3664H147.632L146.932 26.3859ZM143.886 24.4054H146.246L145.08 21.0358L143.886 24.4054ZM155.238 18.6152C155.713 18.6152 156.139 18.684 156.514 18.8215C156.898 18.9499 157.218 19.1333 157.475 19.3717C157.73 19.6009 157.928 19.876 158.065 20.1969C158.202 20.5087 158.271 20.8525 158.271 21.2284C158.271 21.7327 158.133 22.1774 157.859 22.5625C157.585 22.9384 157.246 23.1906 156.844 23.3189C157.063 23.3739 157.273 23.4656 157.475 23.594C157.685 23.7132 157.873 23.869 158.037 24.0616C158.202 24.2541 158.33 24.4834 158.421 24.7493C158.522 25.006 158.572 25.2902 158.572 25.602C158.572 26.0054 158.499 26.3767 158.353 26.716C158.206 27.0461 158 27.3349 157.735 27.5825C157.47 27.83 157.15 28.0226 156.775 28.1601C156.399 28.2976 155.984 28.3664 155.526 28.3664H151.602V18.6152H155.238ZM154.895 22.5212C155.279 22.5212 155.581 22.4295 155.801 22.2461C156.029 22.0536 156.144 21.7923 156.144 21.4622C156.144 21.1413 156.038 20.8891 155.828 20.7058C155.617 20.5132 155.297 20.4169 154.868 20.4169H153.715V22.5212H154.895ZM155.074 26.5922C155.494 26.5922 155.823 26.4914 156.062 26.2896C156.299 26.0788 156.418 25.7991 156.418 25.4507C156.418 25.1114 156.299 24.8363 156.062 24.6255C155.833 24.4146 155.503 24.3092 155.074 24.3092H153.715V26.5922H155.074ZM162.17 23.4839C162.17 23.9974 162.252 24.4375 162.417 24.8043C162.581 25.1711 162.796 25.4782 163.062 25.7258C163.336 25.9641 163.638 26.1429 163.967 26.2621C164.305 26.3722 164.644 26.4272 164.983 26.4272C165.32 26.4272 165.655 26.3722 165.984 26.2621C166.322 26.1429 166.624 25.9641 166.89 25.7258C167.155 25.4782 167.37 25.1711 167.535 24.8043C167.699 24.4375 167.782 23.9974 167.782 23.4839C167.782 22.9796 167.699 22.5395 167.535 22.1636C167.37 21.7877 167.155 21.4805 166.89 21.2421C166.624 21.0038 166.322 20.825 165.984 20.7058C165.655 20.5865 165.32 20.527 164.983 20.527C164.644 20.527 164.305 20.5865 163.967 20.7058C163.638 20.825 163.336 21.0038 163.062 21.2421C162.796 21.4805 162.581 21.7877 162.417 22.1636C162.252 22.5395 162.17 22.9796 162.17 23.4839ZM159.92 23.4977C159.92 22.7275 160.052 22.0306 160.318 21.4072C160.592 20.7745 160.957 20.2381 161.415 19.798C161.882 19.3487 162.421 19.0049 163.034 18.7665C163.646 18.5282 164.297 18.4089 164.983 18.4089C165.669 18.4089 166.313 18.5282 166.917 18.7665C167.529 19.0049 168.065 19.3487 168.522 19.798C168.989 20.2381 169.354 20.7745 169.62 21.4072C169.895 22.0306 170.032 22.7275 170.032 23.4977C170.032 24.2679 169.895 24.9648 169.62 25.5882C169.354 26.2117 168.989 26.7481 168.522 27.1974C168.065 27.6375 167.529 27.9768 166.917 28.2151C166.313 28.4535 165.669 28.5727 164.983 28.5727C164.297 28.5727 163.646 28.4535 163.034 28.2151C162.421 27.9768 161.882 27.6375 161.415 27.1974C160.957 26.7481 160.592 26.2117 160.318 25.5882C160.052 24.9648 159.92 24.2679 159.92 23.4977ZM174.924 24.7355H174.156V28.3664H171.988V18.6152H175.843C176.319 18.6152 176.749 18.6932 177.133 18.849C177.527 19.0049 177.86 19.2204 178.135 19.4955C178.409 19.7705 178.62 20.0961 178.766 20.4719C178.922 20.8387 178.999 21.2376 178.999 21.6685C178.999 22.3287 178.83 22.9018 178.491 23.3877C178.154 23.8645 177.682 24.2083 177.078 24.4192L179.054 28.3664H176.667L174.924 24.7355ZM175.432 22.865C175.88 22.865 176.219 22.755 176.447 22.535C176.685 22.3149 176.804 22.0306 176.804 21.6823C176.804 21.3155 176.685 21.0266 176.447 20.8158C176.219 20.6049 175.88 20.4995 175.432 20.4995H174.156V22.865H175.432ZM186.819 26.3859H183.06L182.36 28.3664H180.082L183.746 18.6152H186.256L189.879 28.3664H187.519L186.819 26.3859ZM183.773 24.4054H186.133L184.967 21.0358L183.773 24.4054ZM194.955 20.692V28.3664H192.787V20.692H189.796V18.6152H197.96V20.692H194.955ZM199.686 28.3664V18.6152H205.847V20.6645H201.854V22.5212H205.477V24.4329H201.854V26.3034H205.861V28.3664H199.686Z" fill="white"/>
<path d="M39.4624 76.5945C40.049 76.5945 40.5069 76.4449 40.8362 76.1458C41.1758 75.8466 41.3456 75.434 41.3456 74.9079C41.3456 74.3819 41.1758 73.9641 40.8362 73.6547C40.5069 73.3452 40.049 73.1905 39.4624 73.1905H37.533V76.5945H39.4624ZM37.533 78.2346V82.5205H35.6807V71.5504H39.7403C40.2651 71.5504 40.7384 71.6381 41.1604 71.8134C41.5926 71.9785 41.963 72.2105 42.2717 72.5097C42.5804 72.7985 42.8171 73.1492 42.9818 73.5618C43.1464 73.9744 43.2287 74.418 43.2287 74.8925C43.2287 75.3773 43.1464 75.826 42.9818 76.2386C42.8171 76.6409 42.5804 76.9916 42.2717 77.2907C41.963 77.5899 41.5926 77.8219 41.1604 77.987C40.7384 78.152 40.2651 78.2346 39.7403 78.2346H37.533ZM44.6913 82.5205V71.3183H46.4818V82.5205H44.6913ZM53.7309 77.9251C53.7206 77.7085 53.6743 77.5022 53.592 77.3062C53.5199 77.0999 53.4067 76.9194 53.2524 76.7647C53.098 76.6099 52.9076 76.4861 52.6813 76.3933C52.4549 76.3005 52.1873 76.2541 51.8786 76.2541C51.6008 76.2541 51.3486 76.3056 51.1222 76.4088C50.9061 76.5016 50.7209 76.6306 50.5666 76.7956C50.4122 76.9503 50.2887 77.1308 50.1961 77.3371C50.1035 77.5331 50.052 77.7291 50.0417 77.9251H53.7309ZM55.4443 80.3698C55.3414 80.6999 55.1921 81.0093 54.9966 81.2981C54.8011 81.587 54.5593 81.8397 54.2711 82.0563C53.983 82.2729 53.6537 82.4431 53.2833 82.5669C52.9128 82.6907 52.5012 82.7525 52.0484 82.7525C51.5339 82.7525 51.0451 82.6649 50.582 82.4895C50.1189 82.3038 49.7125 82.0408 49.3626 81.7004C49.0127 81.3497 48.7297 80.9268 48.5136 80.4317C48.3078 79.9262 48.2049 79.3537 48.2049 78.7142C48.2049 78.1159 48.3027 77.5744 48.4982 77.0896C48.704 76.6048 48.9767 76.1922 49.3163 75.8518C49.6559 75.5011 50.0469 75.2329 50.4894 75.0472C50.9319 74.8512 51.3898 74.7532 51.8632 74.7532C52.4394 74.7532 52.954 74.8461 53.4067 75.0317C53.8698 75.2174 54.2557 75.4804 54.5644 75.8208C54.8834 76.1612 55.1253 76.5738 55.2899 77.0586C55.4545 77.5331 55.5369 78.0695 55.5369 78.6678C55.5369 78.8122 55.5317 78.9411 55.5214 79.0546C55.5112 79.1578 55.5009 79.2196 55.4906 79.2403H49.9954C50.0057 79.5291 50.0675 79.7921 50.1807 80.0294C50.2939 80.2666 50.4431 80.4729 50.6283 80.6483C50.8135 80.8236 51.0245 80.9629 51.2612 81.066C51.5081 81.1589 51.7705 81.2053 52.0484 81.2053C52.5938 81.2053 53.0106 81.0815 53.2987 80.834C53.5971 80.5761 53.8081 80.2615 53.9316 79.8901L55.4443 80.3698ZM56.7849 80.4781C56.7849 80.1377 56.8415 79.8385 56.9546 79.5807C57.0781 79.3228 57.2376 79.101 57.4332 78.9153C57.639 78.7194 57.8808 78.5646 58.1586 78.4512C58.4365 78.3377 58.7349 78.2552 59.0539 78.2036L60.9834 77.9096C61.1995 77.8787 61.3435 77.8168 61.4156 77.724C61.4979 77.6208 61.5391 77.5022 61.5391 77.3681C61.5391 77.0483 61.4259 76.7801 61.1995 76.5635C60.9731 76.3366 60.6129 76.2231 60.119 76.2231C59.6456 76.2231 59.2803 76.3572 59.023 76.6254C58.7658 76.8833 58.6166 77.203 58.5754 77.5847L56.9392 77.2134C56.9701 76.8936 57.0678 76.5841 57.2325 76.285C57.3971 75.9859 57.6132 75.7228 57.8808 75.4959C58.1483 75.269 58.4674 75.0885 58.8378 74.9544C59.2186 74.8203 59.6405 74.7532 60.1035 74.7532C60.6798 74.7532 61.1686 74.8306 61.5699 74.9853C61.9816 75.14 62.3109 75.3463 62.5578 75.6042C62.8151 75.8621 63.0003 76.1612 63.1135 76.5016C63.237 76.842 63.2987 77.1979 63.2987 77.5692V81.3136C63.2987 81.654 63.309 81.9325 63.3296 82.1491C63.3605 82.3554 63.3811 82.4792 63.3914 82.5205H61.7243C61.714 82.4998 61.6986 82.4122 61.678 82.2574C61.6574 82.0924 61.6471 81.8603 61.6471 81.5612C61.4722 81.85 61.1943 82.1233 60.8136 82.3812C60.4328 82.6288 59.9389 82.7525 59.3318 82.7525C58.9407 82.7525 58.5857 82.6907 58.2667 82.5669C57.958 82.4431 57.6904 82.2781 57.464 82.0718C57.2479 81.8551 57.0781 81.6127 56.9546 81.3445C56.8415 81.066 56.7849 80.7772 56.7849 80.4781ZM59.6713 81.3445C59.9183 81.3445 60.155 81.3136 60.3814 81.2517C60.6078 81.1795 60.8033 81.0712 60.9679 80.9268C61.1429 80.7721 61.2818 80.5709 61.3847 80.3234C61.4876 80.0758 61.5391 79.7663 61.5391 79.395V79.0546L59.5787 79.3486C59.3009 79.4002 59.0642 79.5085 58.8687 79.6735C58.6732 79.8282 58.5754 80.0603 58.5754 80.3698C58.5754 80.6276 58.668 80.8546 58.8532 81.0506C59.0385 81.2466 59.3112 81.3445 59.6713 81.3445ZM66.3585 80.0448C66.3894 80.3852 66.5283 80.6844 66.7753 80.9423C67.0326 81.2001 67.403 81.3291 67.8867 81.3291C68.2571 81.3291 68.535 81.2465 68.7202 81.0815C68.9157 80.9062 69.0135 80.6999 69.0135 80.4626C69.0135 80.2563 68.9415 80.081 68.7974 79.9365C68.6533 79.7921 68.4321 79.689 68.1336 79.6271L67.0223 79.3795C66.3534 79.2351 65.8492 78.9669 65.5096 78.575C65.17 78.1727 65.0002 77.7085 65.0002 77.1824C65.0002 76.8523 65.0722 76.5429 65.2163 76.2541C65.3604 75.9549 65.5559 75.697 65.8028 75.4804C66.0498 75.2535 66.338 75.0781 66.6673 74.9544C67.0068 74.8203 67.3722 74.7532 67.7632 74.7532C68.288 74.7532 68.7254 74.8306 69.0752 74.9853C69.4354 75.1297 69.7287 75.3102 69.9551 75.5268C70.1815 75.7435 70.3461 75.9756 70.449 76.2231C70.5622 76.4604 70.6342 76.6718 70.6651 76.8575L69.1524 77.2907C69.1318 77.1876 69.0958 77.0689 69.0444 76.9349C68.9929 76.8008 68.9106 76.677 68.7974 76.5635C68.6945 76.45 68.5556 76.3572 68.3806 76.285C68.216 76.2025 68.0102 76.1612 67.7632 76.1612C67.4442 76.1612 67.1818 76.2489 66.976 76.4243C66.7805 76.5893 66.6827 76.7904 66.6827 77.0277C66.6827 77.234 66.7496 77.4042 66.8834 77.5383C67.0171 77.6724 67.2024 77.7652 67.439 77.8168L68.5813 78.0489C69.2913 78.2036 69.8264 78.4873 70.1866 78.8999C70.5571 79.3022 70.7423 79.7818 70.7423 80.3388C70.7423 80.6276 70.6805 80.9165 70.5571 81.2053C70.4439 81.4838 70.2689 81.7417 70.0322 81.9789C69.8059 82.2059 69.5126 82.3915 69.1524 82.5359C68.7922 82.6803 68.3755 82.7525 67.9021 82.7525C67.3567 82.7525 66.8936 82.6752 66.5129 82.5205C66.1321 82.3657 65.8183 82.1749 65.5713 81.948C65.3243 81.7107 65.1391 81.4632 65.0156 81.2053C64.8921 80.9371 64.8201 80.6947 64.7995 80.4781L66.3585 80.0448ZM77.4121 77.9251C77.4018 77.7085 77.3555 77.5022 77.2732 77.3062C77.2011 77.0999 77.0879 76.9194 76.9336 76.7647C76.7792 76.6099 76.5888 76.4861 76.3625 76.3933C76.1361 76.3005 75.8685 76.2541 75.5598 76.2541C75.2819 76.2541 75.0298 76.3056 74.8034 76.4088C74.5873 76.5016 74.4021 76.6306 74.2477 76.7956C74.0934 76.9503 73.9699 77.1308 73.8773 77.3371C73.7847 77.5331 73.7332 77.7291 73.7229 77.9251H77.4121ZM79.1255 80.3698C79.0225 80.6999 78.8733 81.0093 78.6778 81.2981C78.4823 81.587 78.2405 81.8397 77.9523 82.0563C77.6642 82.2729 77.3349 82.4431 76.9644 82.5669C76.594 82.6907 76.1824 82.7525 75.7296 82.7525C75.2151 82.7525 74.7263 82.6649 74.2632 82.4895C73.8001 82.3038 73.3936 82.0408 73.0438 81.7004C72.6939 81.3497 72.4109 80.9268 72.1948 80.4317C71.989 79.9262 71.8861 79.3537 71.8861 78.7142C71.8861 78.1159 71.9838 77.5744 72.1794 77.0896C72.3852 76.6048 72.6579 76.1922 72.9975 75.8518C73.337 75.5011 73.7281 75.2329 74.1706 75.0472C74.6131 74.8512 75.071 74.7532 75.5444 74.7532C76.1206 74.7532 76.6351 74.8461 77.0879 75.0317C77.551 75.2174 77.9369 75.4804 78.2456 75.8208C78.5646 76.1612 78.8064 76.5738 78.9711 77.0586C79.1357 77.5331 79.2181 78.0695 79.2181 78.6678C79.2181 78.8122 79.2129 78.9411 79.2026 79.0546C79.1923 79.1578 79.182 79.2196 79.1718 79.2403H73.6766C73.6869 79.5291 73.7487 79.7921 73.8619 80.0294C73.9751 80.2666 74.1243 80.4729 74.3095 80.6483C74.4947 80.8236 74.7057 80.9629 74.9424 81.066C75.1893 81.1589 75.4517 81.2053 75.7296 81.2053C76.275 81.2053 76.6917 81.0815 76.9799 80.834C77.2783 80.5761 77.4893 80.2615 77.6127 79.8901L79.1255 80.3698ZM88.1381 78.1881H86.7798V82.5205H84.9123V71.5504H89.1106C89.6354 71.5504 90.1088 71.6381 90.5307 71.8134C90.9629 71.9785 91.323 72.2157 91.6112 72.5252C91.9096 72.8243 92.136 73.175 92.2903 73.5773C92.455 73.9796 92.5373 74.4128 92.5373 74.877C92.5373 75.6609 92.3161 76.3314 91.8736 76.8884C91.4414 77.4454 90.8394 77.8168 90.0676 78.0025L92.5373 82.5205H90.4381L88.1381 78.1881ZM88.771 76.548C89.3473 76.548 89.8052 76.3985 90.1448 76.0993C90.4844 75.7899 90.6542 75.3824 90.6542 74.877C90.6542 74.3612 90.4844 73.9538 90.1448 73.6547C89.8052 73.3452 89.3473 73.1905 88.771 73.1905H86.7798V76.548H88.771ZM99.0435 77.9251C99.0332 77.7085 98.9869 77.5022 98.9046 77.3062C98.8325 77.0999 98.7193 76.9194 98.565 76.7647C98.4106 76.6099 98.2202 76.4861 97.9939 76.3933C97.7675 76.3005 97.4999 76.2541 97.1912 76.2541C96.9134 76.2541 96.6612 76.3056 96.4348 76.4088C96.2187 76.5016 96.0335 76.6306 95.8792 76.7956C95.7248 76.9503 95.6013 77.1308 95.5087 77.3371C95.4161 77.5331 95.3646 77.7291 95.3543 77.9251H99.0435ZM100.757 80.3698C100.654 80.6999 100.505 81.0093 100.309 81.2981C100.114 81.587 99.8719 81.8397 99.5837 82.0563C99.2956 82.2729 98.9663 82.4431 98.5958 82.5669C98.2254 82.6907 97.8138 82.7525 97.361 82.7525C96.8465 82.7525 96.3577 82.6649 95.8946 82.4895C95.4315 82.3038 95.025 82.0408 94.6752 81.7004C94.3253 81.3497 94.0423 80.9268 93.8262 80.4317C93.6204 79.9262 93.5175 79.3537 93.5175 78.7142C93.5175 78.1159 93.6152 77.5744 93.8108 77.0896C94.0166 76.6048 94.2893 76.1922 94.6289 75.8518C94.9684 75.5011 95.3595 75.2329 95.802 75.0472C96.2445 74.8512 96.7024 74.7532 97.1758 74.7532C97.752 74.7532 98.2666 74.8461 98.7193 75.0317C99.1824 75.2174 99.5683 75.4804 99.877 75.8208C100.196 76.1612 100.438 76.5738 100.603 77.0586C100.767 77.5331 100.849 78.0695 100.849 78.6678C100.849 78.8122 100.844 78.9411 100.834 79.0546C100.824 79.1578 100.813 79.2196 100.803 79.2403H95.308C95.3183 79.5291 95.3801 79.7921 95.4933 80.0294C95.6065 80.2666 95.7557 80.4729 95.9409 80.6483C96.1261 80.8236 96.3371 80.9629 96.5738 81.066C96.8207 81.1589 97.0831 81.2053 97.361 81.2053C97.9064 81.2053 98.3232 81.0815 98.6113 80.834C98.9097 80.5761 99.1207 80.2615 99.2442 79.8901L100.757 80.3698ZM106.253 82.5205H104.462L101.406 74.9853H103.382L105.373 80.3698L107.318 74.9853H109.201L106.253 82.5205ZM110.519 82.5205V74.9853H112.294V82.5205H110.519ZM110.241 72.3395C110.241 72.0094 110.354 71.7309 110.581 71.504C110.807 71.277 111.08 71.1636 111.399 71.1636C111.728 71.1636 112.006 71.277 112.232 71.504C112.459 71.7309 112.572 72.0094 112.572 72.3395C112.572 72.6696 112.459 72.9481 112.232 73.175C112.006 73.3916 111.728 73.4999 111.399 73.4999C111.08 73.4999 110.807 73.3916 110.581 73.175C110.354 72.9481 110.241 72.6696 110.241 72.3395ZM119.544 77.9251C119.534 77.7085 119.487 77.5022 119.405 77.3062C119.333 77.0999 119.22 76.9194 119.065 76.7647C118.911 76.6099 118.721 76.4861 118.494 76.3933C118.268 76.3005 118 76.2541 117.692 76.2541C117.414 76.2541 117.162 76.3056 116.935 76.4088C116.719 76.5016 116.534 76.6306 116.38 76.7956C116.225 76.9503 116.102 77.1308 116.009 77.3371C115.916 77.5331 115.865 77.7291 115.855 77.9251H119.544ZM121.257 80.3698C121.154 80.6999 121.005 81.0093 120.81 81.2981C120.614 81.587 120.372 81.8397 120.084 82.0563C119.796 82.2729 119.467 82.4431 119.096 82.5669C118.726 82.6907 118.314 82.7525 117.861 82.7525C117.347 82.7525 116.858 82.6649 116.395 82.4895C115.932 82.3038 115.525 82.0408 115.176 81.7004C114.826 81.3497 114.543 80.9268 114.327 80.4317C114.121 79.9262 114.018 79.3537 114.018 78.7142C114.018 78.1159 114.116 77.5744 114.311 77.0896C114.517 76.6048 114.79 76.1922 115.129 75.8518C115.469 75.5011 115.86 75.2329 116.302 75.0472C116.745 74.8512 117.203 74.7532 117.676 74.7532C118.252 74.7532 118.767 74.8461 119.22 75.0317C119.683 75.2174 120.069 75.4804 120.377 75.8208C120.696 76.1612 120.938 76.5738 121.103 77.0586C121.268 77.5331 121.35 78.0695 121.35 78.6678C121.35 78.8122 121.345 78.9411 121.334 79.0546C121.324 79.1578 121.314 79.2196 121.304 79.2403H115.808C115.819 79.5291 115.88 79.7921 115.994 80.0294C116.107 80.2666 116.256 80.4729 116.441 80.6483C116.627 80.8236 116.837 80.9629 117.074 81.066C117.321 81.1589 117.584 81.2053 117.861 81.2053C118.407 81.2053 118.824 81.0815 119.112 80.834C119.41 80.5761 119.621 80.2615 119.745 79.8901L121.257 80.3698ZM129.068 74.9853L130.843 80.1996L132.34 74.9853H134.162L131.754 82.5205H129.963L128.095 77.105L126.274 82.5205H124.437L121.998 74.9853H123.912L125.44 80.1996L127.215 74.9853H129.068ZM139.356 82.5205V71.3183H141.115V75.9137C141.29 75.6145 141.578 75.3515 141.98 75.1246C142.391 74.8976 142.89 74.7842 143.477 74.7842C144.043 74.7842 144.542 74.8873 144.974 75.0936C145.406 75.2896 145.767 75.5681 146.055 75.9291C146.353 76.2798 146.574 76.6925 146.719 77.1669C146.873 77.6414 146.95 78.1572 146.95 78.7142C146.95 79.2815 146.868 79.8128 146.703 80.3079C146.538 80.7927 146.302 81.2156 145.993 81.5766C145.695 81.9273 145.324 82.2059 144.882 82.4122C144.449 82.6081 143.961 82.7061 143.415 82.7061C142.88 82.7061 142.412 82.5978 142.011 82.3812C141.62 82.1646 141.316 81.8758 141.1 81.5147V82.5205H139.356ZM145.144 78.7297C145.144 77.9767 144.954 77.399 144.573 76.9967C144.202 76.5841 143.719 76.3778 143.122 76.3778C142.546 76.3778 142.062 76.5841 141.671 76.9967C141.29 77.399 141.1 77.9767 141.1 78.7297C141.1 79.101 141.151 79.4363 141.254 79.7354C141.357 80.0242 141.496 80.2718 141.671 80.4781C141.856 80.6844 142.072 80.8443 142.319 80.9577C142.566 81.0609 142.834 81.1125 143.122 81.1125C143.709 81.1125 144.192 80.901 144.573 80.4781C144.954 80.0552 145.144 79.4724 145.144 78.7297ZM153.611 77.9251C153.601 77.7085 153.555 77.5022 153.473 77.3062C153.4 77.0999 153.287 76.9194 153.133 76.7647C152.979 76.6099 152.788 76.4861 152.562 76.3933C152.335 76.3005 152.068 76.2541 151.759 76.2541C151.481 76.2541 151.229 76.3056 151.003 76.4088C150.787 76.5016 150.601 76.6306 150.447 76.7956C150.293 76.9503 150.169 77.1308 150.077 77.3371C149.984 77.5331 149.933 77.7291 149.922 77.9251H153.611ZM155.325 80.3698C155.222 80.6999 155.073 81.0093 154.877 81.2981C154.682 81.587 154.44 81.8397 154.152 82.0563C153.864 82.2729 153.534 82.4431 153.164 82.5669C152.793 82.6907 152.382 82.7525 151.929 82.7525C151.414 82.7525 150.926 82.6649 150.463 82.4895C149.999 82.3038 149.593 82.0408 149.243 81.7004C148.893 81.3497 148.61 80.9268 148.394 80.4317C148.188 79.9262 148.085 79.3537 148.085 78.7142C148.085 78.1159 148.183 77.5744 148.379 77.0896C148.585 76.6048 148.857 76.1922 149.197 75.8518C149.536 75.5011 149.927 75.2329 150.37 75.0472C150.812 74.8512 151.27 74.7532 151.744 74.7532C152.32 74.7532 152.835 74.8461 153.287 75.0317C153.75 75.2174 154.136 75.4804 154.445 75.8208C154.764 76.1612 155.006 76.5738 155.17 77.0586C155.335 77.5331 155.417 78.0695 155.417 78.6678C155.417 78.8122 155.412 78.9411 155.402 79.0546C155.392 79.1578 155.381 79.2196 155.371 79.2403H149.876C149.886 79.5291 149.948 79.7921 150.061 80.0294C150.174 80.2666 150.324 80.4729 150.509 80.6483C150.694 80.8236 150.905 80.9629 151.142 81.066C151.389 81.1589 151.651 81.2053 151.929 81.2053C152.474 81.2053 152.891 81.0815 153.179 80.834C153.478 80.5761 153.689 80.2615 153.812 79.8901L155.325 80.3698ZM160.462 72.8501C160.339 72.8501 160.21 72.8656 160.076 72.8965C159.953 72.9274 159.835 72.9893 159.721 73.0822C159.619 73.1647 159.531 73.2833 159.459 73.438C159.387 73.5825 159.351 73.7681 159.351 73.9951V74.9853H161.095V76.548H159.351V82.5205H157.545V76.548H156.233V74.9853H157.545V73.9486C157.545 73.5257 157.607 73.1492 157.73 72.8191C157.864 72.4787 158.044 72.1951 158.27 71.9681C158.507 71.7309 158.785 71.5504 159.104 71.4266C159.423 71.3028 159.778 71.2409 160.169 71.2409C160.395 71.2409 160.591 71.2616 160.756 71.3028C160.931 71.3338 161.049 71.3647 161.111 71.3957V72.9274C161.059 72.9068 160.982 72.8913 160.879 72.881C160.776 72.8604 160.637 72.8501 160.462 72.8501ZM165.602 81.1434C165.879 81.1434 166.142 81.0918 166.389 80.9887C166.646 80.8855 166.872 80.736 167.068 80.54C167.264 80.3337 167.418 80.081 167.531 79.7818C167.644 79.4827 167.701 79.1371 167.701 78.7451C167.701 78.3532 167.644 78.0128 167.531 77.724C167.418 77.4248 167.264 77.1773 167.068 76.9813C166.872 76.775 166.646 76.6254 166.389 76.5326C166.142 76.4294 165.879 76.3778 165.602 76.3778C165.324 76.3778 165.056 76.4294 164.799 76.5326C164.552 76.6254 164.331 76.775 164.135 76.9813C163.95 77.1773 163.796 77.4248 163.672 77.724C163.559 78.0128 163.502 78.3532 163.502 78.7451C163.502 79.1371 163.559 79.4827 163.672 79.7818C163.796 80.081 163.95 80.3337 164.135 80.54C164.331 80.736 164.552 80.8855 164.799 80.9887C165.056 81.0918 165.324 81.1434 165.602 81.1434ZM165.602 74.7532C166.168 74.7532 166.687 74.8564 167.161 75.0627C167.634 75.2587 168.046 75.5372 168.395 75.8982C168.745 76.2489 169.018 76.6667 169.214 77.1515C169.409 77.6363 169.507 78.1675 169.507 78.7451C169.507 79.3228 169.409 79.8592 169.214 80.3543C169.018 80.8391 168.745 81.262 168.395 81.6231C168.046 81.9738 167.634 82.2523 167.161 82.4586C166.687 82.6546 166.168 82.7525 165.602 82.7525C165.046 82.7525 164.526 82.6546 164.043 82.4586C163.569 82.2523 163.158 81.9738 162.808 81.6231C162.468 81.262 162.201 80.8391 162.005 80.3543C161.81 79.8592 161.712 79.3228 161.712 78.7451C161.712 78.1675 161.81 77.6363 162.005 77.1515C162.201 76.6667 162.468 76.2489 162.808 75.8982C163.158 75.5372 163.569 75.2587 164.043 75.0627C164.526 74.8564 165.046 74.7532 165.602 74.7532ZM175.637 76.7647C175.431 76.7337 175.235 76.7182 175.05 76.7182C174.35 76.7182 173.836 76.9091 173.506 77.2907C173.187 77.6724 173.028 78.2191 173.028 78.9308V82.5205H171.237V74.9853H172.982V76.1922C173.157 75.7796 173.44 75.4598 173.831 75.2329C174.222 75.0059 174.664 74.8925 175.158 74.8925C175.271 74.8925 175.369 74.8976 175.451 74.9079C175.534 74.9183 175.595 74.9286 175.637 74.9389V76.7647ZM181.995 77.9251C181.985 77.7085 181.939 77.5022 181.856 77.3062C181.784 77.0999 181.671 76.9194 181.517 76.7647C181.362 76.6099 181.172 76.4861 180.946 76.3933C180.719 76.3005 180.452 76.2541 180.143 76.2541C179.865 76.2541 179.613 76.3056 179.387 76.4088C179.17 76.5016 178.985 76.6306 178.831 76.7956C178.677 76.9503 178.553 77.1308 178.46 77.3371C178.368 77.5331 178.316 77.7291 178.306 77.9251H181.995ZM183.709 80.3698C183.606 80.6999 183.456 81.0093 183.261 81.2981C183.065 81.587 182.824 81.8397 182.535 82.0563C182.247 82.2729 181.918 82.4431 181.548 82.5669C181.177 82.6907 180.766 82.7525 180.313 82.7525C179.798 82.7525 179.309 82.6649 178.846 82.4895C178.383 82.3038 177.977 82.0408 177.627 81.7004C177.277 81.3497 176.994 80.9268 176.778 80.4317C176.572 79.9262 176.469 79.3537 176.469 78.7142C176.469 78.1159 176.567 77.5744 176.762 77.0896C176.968 76.6048 177.241 76.1922 177.581 75.8518C177.92 75.5011 178.311 75.2329 178.754 75.0472C179.196 74.8512 179.654 74.7532 180.128 74.7532C180.704 74.7532 181.218 74.8461 181.671 75.0317C182.134 75.2174 182.52 75.4804 182.829 75.8208C183.148 76.1612 183.39 76.5738 183.554 77.0586C183.719 77.5331 183.801 78.0695 183.801 78.6678C183.801 78.8122 183.796 78.9411 183.786 79.0546C183.775 79.1578 183.765 79.2196 183.755 79.2403H178.26C178.27 79.5291 178.332 79.7921 178.445 80.0294C178.558 80.2666 178.707 80.4729 178.893 80.6483C179.078 80.8236 179.289 80.9629 179.526 81.066C179.772 81.1589 180.035 81.2053 180.313 81.2053C180.858 81.2053 181.275 81.0815 181.563 80.834C181.861 80.5761 182.072 80.2615 182.196 79.8901L183.709 80.3698ZM191.131 82.5205H189.341V74.9853H191.085V75.991C191.332 75.5578 191.656 75.2483 192.058 75.0627C192.469 74.8667 192.886 74.7687 193.308 74.7687C193.771 74.7687 194.172 74.8461 194.512 75.0008C194.851 75.1555 195.129 75.3721 195.345 75.6506C195.572 75.9188 195.742 76.2334 195.855 76.5945C195.968 76.9555 196.025 77.3423 196.025 77.7549V82.5205H194.234V78.0644C194.234 77.6002 194.116 77.2082 193.879 76.8884C193.653 76.5584 193.256 76.3933 192.69 76.3933C192.176 76.3933 191.785 76.5687 191.517 76.9194C191.26 77.2598 191.131 77.6775 191.131 78.1727V82.5205ZM203.144 77.9251C203.134 77.7085 203.087 77.5022 203.005 77.3062C202.933 77.0999 202.82 76.9194 202.665 76.7647C202.511 76.6099 202.321 76.4861 202.094 76.3933C201.868 76.3005 201.6 76.2541 201.292 76.2541C201.014 76.2541 200.762 76.3056 200.535 76.4088C200.319 76.5016 200.134 76.6306 199.98 76.7956C199.825 76.9503 199.702 77.1308 199.609 77.3371C199.517 77.5331 199.465 77.7291 199.455 77.9251H203.144ZM204.857 80.3698C204.754 80.6999 204.605 81.0093 204.41 81.2981C204.214 81.587 203.972 81.8397 203.684 82.0563C203.396 82.2729 203.067 82.4431 202.696 82.5669C202.326 82.6907 201.914 82.7525 201.461 82.7525C200.947 82.7525 200.458 82.6649 199.995 82.4895C199.532 82.3038 199.125 82.0408 198.776 81.7004C198.426 81.3497 198.143 80.9268 197.927 80.4317C197.721 79.9262 197.618 79.3537 197.618 78.7142C197.618 78.1159 197.716 77.5744 197.911 77.0896C198.117 76.6048 198.39 76.1922 198.729 75.8518C199.069 75.5011 199.46 75.2329 199.902 75.0472C200.345 74.8512 200.803 74.7532 201.276 74.7532C201.852 74.7532 202.367 74.8461 202.82 75.0317C203.283 75.2174 203.669 75.4804 203.977 75.8208C204.296 76.1612 204.538 76.5738 204.703 77.0586C204.868 77.5331 204.95 78.0695 204.95 78.6678C204.95 78.8122 204.945 78.9411 204.934 79.0546C204.924 79.1578 204.914 79.2196 204.904 79.2403H199.408C199.419 79.5291 199.481 79.7921 199.594 80.0294C199.707 80.2666 199.856 80.4729 200.041 80.6483C200.227 80.8236 200.438 80.9629 200.674 81.066C200.921 81.1589 201.184 81.2053 201.461 81.2053C202.007 81.2053 202.424 81.0815 202.712 80.834C203.01 80.5761 203.221 80.2615 203.345 79.8901L204.857 80.3698ZM208.3 78.7142L205.615 74.9853H207.745C207.765 75.0266 207.817 75.1091 207.899 75.2329C207.992 75.3567 208.095 75.5011 208.208 75.6661C208.321 75.8311 208.439 76.0117 208.563 76.2076C208.697 76.3933 208.82 76.5687 208.933 76.7337C209.046 76.8987 209.144 77.0432 209.226 77.1669C209.319 77.2907 209.376 77.3681 209.396 77.399L211.032 74.9853H213.07L210.43 78.6833L213.163 82.5205H211.063L209.319 79.9984C209.288 80.0397 209.232 80.1274 209.149 80.2615C209.067 80.3852 208.964 80.5348 208.841 80.7102C208.727 80.8752 208.604 81.0609 208.47 81.2672C208.336 81.4632 208.208 81.6488 208.084 81.8242C207.971 81.9892 207.868 82.1388 207.776 82.2729C207.693 82.3967 207.642 82.4792 207.621 82.5205H205.568L208.3 78.7142ZM216.844 74.9853H218.403V76.579H216.844V80.0758C216.844 80.4059 216.921 80.6483 217.076 80.803C217.23 80.9474 217.472 81.0196 217.801 81.0196C217.925 81.0196 218.048 81.0145 218.171 81.0041C218.295 80.9835 218.377 80.968 218.418 80.9577V82.4431C218.367 82.4637 218.254 82.4947 218.079 82.5359C217.904 82.5875 217.652 82.6133 217.323 82.6133C216.623 82.6133 216.072 82.4173 215.671 82.0253C215.27 81.6334 215.069 81.0815 215.069 80.3698V76.579H213.68V74.9853H214.066C214.467 74.9853 214.76 74.8718 214.945 74.6449C215.131 74.418 215.223 74.1395 215.223 73.8094V72.6799H216.844V74.9853ZM224.937 80.0448C224.967 80.3852 225.106 80.6844 225.353 80.9423C225.611 81.2001 225.981 81.3291 226.465 81.3291C226.835 81.3291 227.113 81.2465 227.298 81.0815C227.494 80.9062 227.592 80.6999 227.592 80.4626C227.592 80.2563 227.52 80.081 227.376 79.9365C227.231 79.7921 227.01 79.689 226.712 79.6271L225.6 79.3795C224.932 79.2351 224.427 78.9669 224.088 78.575C223.748 78.1727 223.578 77.7085 223.578 77.1824C223.578 76.8523 223.65 76.5429 223.794 76.2541C223.938 75.9549 224.134 75.697 224.381 75.4804C224.628 75.2535 224.916 75.0781 225.245 74.9544C225.585 74.8203 225.95 74.7532 226.341 74.7532C226.866 74.7532 227.303 74.8306 227.653 74.9853C228.013 75.1297 228.307 75.3102 228.533 75.5268C228.76 75.7435 228.924 75.9756 229.027 76.2231C229.14 76.4604 229.212 76.6718 229.243 76.8575L227.731 77.2907C227.71 77.1876 227.674 77.0689 227.622 76.9349C227.571 76.8008 227.489 76.677 227.376 76.5635C227.273 76.45 227.134 76.3572 226.959 76.285C226.794 76.2025 226.588 76.1612 226.341 76.1612C226.022 76.1612 225.76 76.2489 225.554 76.4243C225.359 76.5893 225.261 76.7904 225.261 77.0277C225.261 77.234 225.328 77.4042 225.461 77.5383C225.595 77.6724 225.78 77.7652 226.017 77.8168L227.159 78.0489C227.869 78.2036 228.405 78.4873 228.765 78.8999C229.135 79.3022 229.32 79.7818 229.32 80.3388C229.32 80.6276 229.259 80.9165 229.135 81.2053C229.022 81.4838 228.847 81.7417 228.61 81.9789C228.384 82.2059 228.091 82.3915 227.731 82.5359C227.37 82.6803 226.954 82.7525 226.48 82.7525C225.935 82.7525 225.472 82.6752 225.091 82.5205C224.71 82.3657 224.396 82.1749 224.149 81.948C223.902 81.7107 223.717 81.4632 223.594 81.2053C223.47 80.9371 223.398 80.6947 223.378 80.4781L224.937 80.0448ZM235.99 77.9251C235.98 77.7085 235.934 77.5022 235.851 77.3062C235.779 77.0999 235.666 76.9194 235.512 76.7647C235.357 76.6099 235.167 76.4861 234.941 76.3933C234.714 76.3005 234.447 76.2541 234.138 76.2541C233.86 76.2541 233.608 76.3056 233.382 76.4088C233.166 76.5016 232.98 76.6306 232.826 76.7956C232.672 76.9503 232.548 77.1308 232.456 77.3371C232.363 77.5331 232.312 77.7291 232.301 77.9251H235.99ZM237.704 80.3698C237.601 80.6999 237.452 81.0093 237.256 81.2981C237.061 81.587 236.819 81.8397 236.531 82.0563C236.242 82.2729 235.913 82.4431 235.543 82.5669C235.172 82.6907 234.761 82.7525 234.308 82.7525C233.793 82.7525 233.305 82.6649 232.841 82.4895C232.378 82.3038 231.972 82.0408 231.622 81.7004C231.272 81.3497 230.989 80.9268 230.773 80.4317C230.567 79.9262 230.464 79.3537 230.464 78.7142C230.464 78.1159 230.562 77.5744 230.758 77.0896C230.963 76.6048 231.236 76.1922 231.576 75.8518C231.915 75.5011 232.306 75.2329 232.749 75.0472C233.191 74.8512 233.649 74.7532 234.123 74.7532C234.699 74.7532 235.213 74.8461 235.666 75.0317C236.129 75.2174 236.515 75.4804 236.824 75.8208C237.143 76.1612 237.385 76.5738 237.549 77.0586C237.714 77.5331 237.796 78.0695 237.796 78.6678C237.796 78.8122 237.791 78.9411 237.781 79.0546C237.771 79.1578 237.76 79.2196 237.75 79.2403H232.255C232.265 79.5291 232.327 79.7921 232.44 80.0294C232.553 80.2666 232.703 80.4729 232.888 80.6483C233.073 80.8236 233.284 80.9629 233.521 81.066C233.768 81.1589 234.03 81.2053 234.308 81.2053C234.853 81.2053 235.27 81.0815 235.558 80.834C235.857 80.5761 236.068 80.2615 236.191 79.8901L237.704 80.3698ZM240.402 80.0448C240.433 80.3852 240.572 80.6844 240.819 80.9423C241.076 81.2001 241.447 81.3291 241.931 81.3291C242.301 81.3291 242.579 81.2465 242.764 81.0815C242.96 80.9062 243.057 80.6999 243.057 80.4626C243.057 80.2563 242.985 80.081 242.841 79.9365C242.697 79.7921 242.476 79.689 242.178 79.6271L241.066 79.3795C240.397 79.2351 239.893 78.9669 239.553 78.575C239.214 78.1727 239.044 77.7085 239.044 77.1824C239.044 76.8523 239.116 76.5429 239.26 76.2541C239.404 75.9549 239.6 75.697 239.847 75.4804C240.094 75.2535 240.382 75.0781 240.711 74.9544C241.051 74.8203 241.416 74.7532 241.807 74.7532C242.332 74.7532 242.769 74.8306 243.119 74.9853C243.479 75.1297 243.773 75.3102 243.999 75.5268C244.225 75.7435 244.39 75.9756 244.493 76.2231C244.606 76.4604 244.678 76.6718 244.709 76.8575L243.196 77.2907C243.176 77.1876 243.14 77.0689 243.088 76.9349C243.037 76.8008 242.954 76.677 242.841 76.5635C242.738 76.45 242.599 76.3572 242.424 76.285C242.26 76.2025 242.054 76.1612 241.807 76.1612C241.488 76.1612 241.226 76.2489 241.02 76.4243C240.824 76.5893 240.727 76.7904 240.727 77.0277C240.727 77.234 240.793 77.4042 240.927 77.5383C241.061 77.6724 241.246 77.7652 241.483 77.8168L242.625 78.0489C243.335 78.2036 243.87 78.4873 244.23 78.8999C244.601 79.3022 244.786 79.7818 244.786 80.3388C244.786 80.6276 244.724 80.9165 244.601 81.2053C244.488 81.4838 244.313 81.7417 244.076 81.9789C243.85 82.2059 243.556 82.3915 243.196 82.5359C242.836 82.6803 242.419 82.7525 241.946 82.7525C241.401 82.7525 240.938 82.6752 240.557 82.5205C240.176 82.3657 239.862 82.1749 239.615 81.948C239.368 81.7107 239.183 81.4632 239.06 81.2053C238.936 80.9371 238.864 80.6947 238.843 80.4781L240.402 80.0448ZM247.457 80.0448C247.488 80.3852 247.627 80.6844 247.874 80.9423C248.131 81.2001 248.502 81.3291 248.986 81.3291C249.356 81.3291 249.634 81.2465 249.819 81.0815C250.015 80.9062 250.112 80.6999 250.112 80.4626C250.112 80.2563 250.04 80.081 249.896 79.9365C249.752 79.7921 249.531 79.689 249.233 79.6271L248.121 79.3795C247.452 79.2351 246.948 78.9669 246.608 78.575C246.269 78.1727 246.099 77.7085 246.099 77.1824C246.099 76.8523 246.171 76.5429 246.315 76.2541C246.459 75.9549 246.655 75.697 246.902 75.4804C247.149 75.2535 247.437 75.0781 247.766 74.9544C248.106 74.8203 248.471 74.7532 248.862 74.7532C249.387 74.7532 249.824 74.8306 250.174 74.9853C250.534 75.1297 250.828 75.3102 251.054 75.5268C251.28 75.7435 251.445 75.9756 251.548 76.2231C251.661 76.4604 251.733 76.6718 251.764 76.8575L250.251 77.2907C250.231 77.1876 250.195 77.0689 250.143 76.9349C250.092 76.8008 250.009 76.677 249.896 76.5635C249.793 76.45 249.654 76.3572 249.48 76.285C249.315 76.2025 249.109 76.1612 248.862 76.1612C248.543 76.1612 248.281 76.2489 248.075 76.4243C247.879 76.5893 247.782 76.7904 247.782 77.0277C247.782 77.234 247.848 77.4042 247.982 77.5383C248.116 77.6724 248.301 77.7652 248.538 77.8168L249.68 78.0489C250.39 78.2036 250.925 78.4873 251.285 78.8999C251.656 79.3022 251.841 79.7818 251.841 80.3388C251.841 80.6276 251.779 80.9165 251.656 81.2053C251.543 81.4838 251.368 81.7417 251.131 81.9789C250.905 82.2059 250.611 82.3915 250.251 82.5359C249.891 82.6803 249.474 82.7525 249.001 82.7525C248.456 82.7525 247.993 82.6752 247.612 82.5205C247.231 82.3657 246.917 82.1749 246.67 81.948C246.423 81.7107 246.238 81.4632 246.115 81.2053C245.991 80.9371 245.919 80.6947 245.898 80.4781L247.457 80.0448ZM253.616 82.5205V74.9853H255.391V82.5205H253.616ZM253.338 72.3395C253.338 72.0094 253.452 71.7309 253.678 71.504C253.904 71.277 254.177 71.1636 254.496 71.1636C254.825 71.1636 255.103 71.277 255.33 71.504C255.556 71.7309 255.669 72.0094 255.669 72.3395C255.669 72.6696 255.556 72.9481 255.33 73.175C255.103 73.3916 254.825 73.4999 254.496 73.4999C254.177 73.4999 253.904 73.3916 253.678 73.175C253.452 72.9481 253.338 72.6696 253.338 72.3395ZM261.005 81.1434C261.283 81.1434 261.545 81.0918 261.792 80.9887C262.049 80.8855 262.276 80.736 262.471 80.54C262.667 80.3337 262.821 80.081 262.934 79.7818C263.048 79.4827 263.104 79.1371 263.104 78.7451C263.104 78.3532 263.048 78.0128 262.934 77.724C262.821 77.4248 262.667 77.1773 262.471 76.9813C262.276 76.775 262.049 76.6254 261.792 76.5326C261.545 76.4294 261.283 76.3778 261.005 76.3778C260.727 76.3778 260.459 76.4294 260.202 76.5326C259.955 76.6254 259.734 76.775 259.538 76.9813C259.353 77.1773 259.199 77.4248 259.075 77.724C258.962 78.0128 258.906 78.3532 258.906 78.7451C258.906 79.1371 258.962 79.4827 259.075 79.7818C259.199 80.081 259.353 80.3337 259.538 80.54C259.734 80.736 259.955 80.8855 260.202 80.9887C260.459 81.0918 260.727 81.1434 261.005 81.1434ZM261.005 74.7532C261.571 74.7532 262.09 74.8564 262.564 75.0627C263.037 75.2587 263.449 75.5372 263.799 75.8982C264.149 76.2489 264.421 76.6667 264.617 77.1515C264.812 77.6363 264.91 78.1675 264.91 78.7451C264.91 79.3228 264.812 79.8592 264.617 80.3543C264.421 80.8391 264.149 81.262 263.799 81.6231C263.449 81.9738 263.037 82.2523 262.564 82.4586C262.09 82.6546 261.571 82.7525 261.005 82.7525C260.449 82.7525 259.929 82.6546 259.446 82.4586C258.972 82.2523 258.561 81.9738 258.211 81.6231C257.871 81.262 257.604 80.8391 257.408 80.3543C257.213 79.8592 257.115 79.3228 257.115 78.7451C257.115 78.1675 257.213 77.6363 257.408 77.1515C257.604 76.6667 257.871 76.2489 258.211 75.8982C258.561 75.5372 258.972 75.2587 259.446 75.0627C259.929 74.8564 260.449 74.7532 261.005 74.7532ZM268.431 82.5205H266.641V74.9853H268.385V75.991C268.632 75.5578 268.956 75.2483 269.357 75.0627C269.769 74.8667 270.186 74.7687 270.608 74.7687C271.071 74.7687 271.472 74.8461 271.812 75.0008C272.151 75.1555 272.429 75.3721 272.645 75.6506C272.872 75.9188 273.041 76.2334 273.155 76.5945C273.268 76.9555 273.324 77.3423 273.324 77.7549V82.5205H271.534V78.0644C271.534 77.6002 271.415 77.2082 271.179 76.8884C270.952 76.5584 270.556 76.3933 269.99 76.3933C269.476 76.3933 269.085 76.5687 268.817 76.9194C268.56 77.2598 268.431 77.6775 268.431 78.1727V82.5205Z" fill="black"/>
<path d="M41.162 127.219C41.162 125.32 42.6978 123.781 44.5922 123.781H97.331L102.372 128.613L107.193 133.236V201.144C107.193 203.043 105.657 204.582 103.763 204.582H44.5922C42.6978 204.582 41.162 203.043 41.162 201.144V127.219Z" fill="#FFF8E1"/>
<path d="M102.428 129.562L108.574 135.815H97.7598C96.3388 135.815 95.1871 134.661 95.1871 133.236V123.115L102.428 129.562Z" fill="#FFF8E1" stroke="white" stroke-width="2"/>
<path d="M81.0377 158.164H68.1746C64.6226 158.164 61.743 161.051 61.743 164.611C61.743 168.172 64.6226 171.058 68.1746 171.058H81.0377C84.5898 171.058 87.4693 168.172 87.4693 164.611C87.4693 161.051 84.5898 158.164 81.0377 158.164Z" fill="#FED758"/>
<path d="M69.5651 164.595C69.7966 164.595 69.9845 164.533 70.1285 164.409C70.2726 164.285 70.3446 164.115 70.3446 163.899C70.3446 163.677 70.2726 163.504 70.1285 163.38C69.9845 163.257 69.7966 163.195 69.5651 163.195H68.8551V164.595H69.5651ZM68.8474 165.647V167.62H67.6279V162.135H69.6886C69.9664 162.135 70.2186 162.179 70.445 162.266C70.6765 162.354 70.8746 162.475 71.0392 162.63C71.209 162.785 71.3376 162.97 71.4251 163.187C71.5177 163.404 71.564 163.638 71.564 163.891C71.564 164.149 71.5177 164.386 71.4251 164.603C71.3376 164.819 71.209 165.005 71.0392 165.16C70.8746 165.314 70.6765 165.436 70.445 165.523C70.2186 165.606 69.9664 165.647 69.6886 165.647H68.8474ZM74.4844 166.467C74.6954 166.467 74.8935 166.436 75.0787 166.374C75.2639 166.312 75.426 166.217 75.5649 166.088C75.7038 165.959 75.8119 165.794 75.8891 165.593C75.9714 165.392 76.0125 165.155 76.0125 164.881C76.0125 164.608 75.9714 164.371 75.8891 164.169C75.8119 163.968 75.7038 163.803 75.5649 163.674C75.426 163.54 75.2639 163.442 75.0787 163.38C74.8935 163.318 74.6954 163.287 74.4844 163.287H73.7744V166.467H74.4844ZM72.5549 167.62V162.135H74.5384C74.95 162.135 75.3231 162.199 75.6575 162.328C75.9971 162.452 76.2878 162.632 76.5296 162.87C76.7715 163.107 76.9567 163.396 77.0853 163.736C77.2191 164.077 77.286 164.458 77.286 164.881C77.286 165.304 77.2191 165.686 77.0853 166.026C76.9567 166.361 76.7715 166.648 76.5296 166.885C76.2878 167.122 75.9971 167.305 75.6575 167.434C75.3179 167.558 74.9423 167.62 74.5307 167.62H72.5549ZM78.3865 167.62V162.135H81.9135V163.295H79.6059V164.456H81.6357V165.57H79.6136V167.62H78.3865Z" fill="white"/>
<path d="M120.056 127.219C120.056 125.32 121.592 123.781 123.486 123.781H176.225L181.266 128.613L186.087 133.236V201.144C186.087 203.043 184.551 204.582 182.656 204.582H123.486C121.592 204.582 120.056 203.043 120.056 201.144V127.219Z" fill="#EFF7FD"/>
<path d="M181.322 129.562L187.468 135.815H176.654C175.233 135.815 174.081 134.661 174.081 133.236V123.115L181.322 129.562Z" fill="#EFF7FD" stroke="white" stroke-width="2"/>
<path d="M164.219 158.164H147.068C143.516 158.164 140.637 161.051 140.637 164.611C140.637 168.172 143.516 171.058 147.068 171.058H164.219C167.771 171.058 170.651 168.172 170.651 164.611C170.651 161.051 167.771 158.164 164.219 158.164Z" fill="#588DFA"/>
<path d="M146.779 167.62V162.135H147.998V166.452H150.36V167.62H146.779ZM151.382 167.62V162.135H152.617V167.62H151.382ZM157.498 167.62L155.244 164.015V167.62H154.033V162.135H155.514L157.567 165.469V162.135H158.787V167.62H157.498ZM162.033 165.461L161.415 166.15V167.62H160.196V162.135H161.415V164.44L163.414 162.135H165.019L162.889 164.51L165.027 167.62H163.507L162.033 165.461Z" fill="white"/>
<path d="M198.95 127.219C198.95 125.32 200.486 123.781 202.38 123.781H255.119L260.159 128.613L264.98 133.236V201.144C264.98 203.043 263.445 204.582 261.55 204.582H202.38C200.486 204.582 198.95 203.043 198.95 201.144V127.219Z" fill="#F3FFCF"/>
<path d="M260.216 129.562L266.362 135.815H255.547C254.127 135.815 252.975 134.661 252.975 133.236V123.115L260.216 129.562Z" fill="#AEC569" stroke="white" stroke-width="2"/>
<path d="M241.398 158.164H225.962C222.41 158.164 219.531 161.051 219.531 164.611C219.531 168.172 222.41 171.058 225.962 171.058H241.398C244.95 171.058 247.83 168.172 247.83 164.611C247.83 161.051 244.95 158.164 241.398 158.164Z" fill="#AEC569"/>
<path d="M227.625 164.595C227.857 164.595 228.044 164.533 228.188 164.409C228.333 164.286 228.405 164.115 228.405 163.899C228.405 163.677 228.333 163.504 228.188 163.38C228.044 163.257 227.857 163.195 227.625 163.195H226.915V164.595H227.625ZM226.907 165.647V167.62H225.688V162.135H227.749C228.026 162.135 228.279 162.179 228.505 162.266C228.736 162.354 228.935 162.475 229.099 162.63C229.269 162.785 229.398 162.97 229.485 163.187C229.578 163.404 229.624 163.638 229.624 163.891C229.624 164.149 229.578 164.386 229.485 164.603C229.398 164.819 229.269 165.005 229.099 165.16C228.935 165.314 228.736 165.436 228.505 165.523C228.279 165.606 228.026 165.647 227.749 165.647H226.907ZM234.081 167.62L231.827 164.015V167.62H230.615V162.135H232.097L234.15 165.469V162.135H235.37V167.62H234.081ZM240.846 167.62L240.769 167.063C240.65 167.238 240.462 167.396 240.205 167.535C239.948 167.669 239.624 167.736 239.233 167.736C238.852 167.736 238.492 167.669 238.152 167.535C237.818 167.401 237.525 167.21 237.272 166.962C237.025 166.71 236.827 166.408 236.678 166.057C236.534 165.706 236.462 165.314 236.462 164.881C236.462 164.448 236.537 164.056 236.686 163.705C236.84 163.355 237.046 163.055 237.303 162.808C237.566 162.555 237.869 162.362 238.214 162.228C238.559 162.088 238.924 162.019 239.31 162.019C239.701 162.019 240.041 162.073 240.329 162.181C240.622 162.284 240.869 162.419 241.07 162.584C241.275 162.743 241.44 162.924 241.564 163.125C241.687 163.326 241.78 163.522 241.841 163.713L240.668 164.123C240.648 164.041 240.607 163.945 240.545 163.837C240.488 163.723 240.406 163.618 240.298 163.52C240.19 163.416 240.053 163.331 239.889 163.264C239.729 163.197 239.536 163.164 239.31 163.164C239.125 163.164 238.937 163.197 238.747 163.264C238.556 163.326 238.381 163.427 238.222 163.566C238.067 163.705 237.941 163.883 237.844 164.1C237.746 164.316 237.697 164.577 237.697 164.881C237.697 165.17 237.741 165.423 237.828 165.639C237.916 165.856 238.034 166.037 238.183 166.181C238.337 166.325 238.512 166.436 238.708 166.514C238.909 166.586 239.12 166.622 239.341 166.622C239.567 166.622 239.76 166.591 239.92 166.529C240.084 166.462 240.221 166.382 240.329 166.289C240.437 166.196 240.519 166.098 240.576 165.995C240.637 165.892 240.676 165.802 240.691 165.724H239.048V164.688H241.834V167.62H240.846Z" fill="white"/>
</svg>
