<svg width="672" height="363" viewBox="0 0 672 363" fill="none" xmlns="http://www.w3.org/2000/svg">
<path d="M287 204.088C286.501 203.161 287.133 200.834 287.164 199.828C287.568 186.812 299.528 148.379 338.267 120.555C377.478 92.3932 416.519 91.6431 443.078 105.04C447.51 107.276 440.832 149.635 435.552 148.599C424.131 143.404 391.611 136.365 364.354 153.606C325.588 178.125 315.485 213.666 314.788 215.391C314.364 216.438 312.638 217.254 310.542 217.541C306.596 217.321 288.344 207.925 287 204.088Z" fill="#FDD433"/>
<path d="M269.753 90.2249C269.654 89.1758 270.914 87.2263 272.662 85.6417C282.313 76.8946 321.226 44.2472 364.809 39.5757C412.819 34.43 454.217 48.5797 475.335 81.9786C477.988 86.1737 441.641 113.109 439.282 108.461C432.274 95.1334 395.965 74.2801 364.146 79.5785C318.892 87.1139 293.788 113.503 292.475 114.821C291.677 115.622 289.894 118.618 287.851 118.069C283.365 113.601 269.861 93.3404 269.753 90.2249Z" fill="#FDD433"/>
<path d="M254.542 208.359C256.027 210.173 257.516 211.282 259.01 212.38C265.959 217.486 273.674 221.073 281.82 223.787C284.949 224.83 288.084 225.876 291.357 226.392C292.702 226.603 294.06 226.747 295.416 226.873C296.956 227.016 298.355 226.738 299.682 225.792C301.259 224.667 302.565 224.766 303.329 225.783C304.073 226.776 303.737 228.117 302.393 229.372C301.032 230.643 299.443 231.34 297.544 231.389C294.213 231.474 290.949 231.003 287.742 230.203C275.54 228.605 272.213 224.825 266.472 222.195C261.746 220.071 256.948 216.83 252.996 213.039C251.905 211.993 250.837 210.925 250.008 209.66C248.622 207.546 249.226 205.37 251.519 204.315C253.597 203.358 255.821 203.219 258.063 203.439C261.211 203.749 264.315 204.312 267.359 205.198C269.563 205.84 271.794 206.393 273.987 207.071C275.223 207.452 276.17 207.2 277.133 206.35C280.055 203.774 280.827 203.837 283.9 206.305C286.116 208.086 287.836 210.266 289.41 212.59C289.609 212.886 289.782 213.203 289.934 213.526C290.247 214.193 290.069 214.804 289.59 215.304C289.131 215.782 288.534 215.719 287.983 215.498C287.028 215.117 286.306 214.41 285.614 213.675C284.352 212.335 283.11 210.981 281.694 209.789C281.109 209.296 280.74 209.316 280.264 209.838C278.052 212.268 275.362 212.424 272.361 211.656C267.781 210.485 263.299 208.891 258.556 208.399C257.366 208.276 256.186 208.079 254.542 208.359Z" fill="#0C0D0D"/>
<path d="M286.956 203.227C287.626 203.479 288.274 203.772 288.834 204.233C294.022 208.507 299.982 211.419 306.127 214.002C307.181 214.445 308.219 214.931 309.289 215.332C310.189 215.669 310.906 216.207 311.482 216.958C311.109 219.227 310.83 219.39 308.573 219.272C307.623 219.222 306.793 218.923 305.96 218.572C303.635 217.592 301.314 216.643 299.135 215.3C297.888 214.531 296.49 213.862 295.062 213.309C293.857 212.843 292.896 211.769 291.793 211.013C289.76 209.621 287.947 207.98 286.44 206.047C285.474 204.809 285.63 204.406 286.956 203.227Z" fill="#0C0D0D"/>
<path d="M258.758 92.9233C259.044 92.8333 259.134 92.8327 259.174 92.7884C261.529 90.1661 263.679 90.3435 265.413 93.424C266.536 95.419 267.652 97.4317 268.449 99.5934C268.523 99.7953 268.6 99.9966 268.664 100.202C269.251 102.081 268.974 103.484 267.948 103.838C267.088 104.136 265.218 102.852 264.777 101.481C264.578 100.862 264.371 100.272 264.052 99.7136C263.593 98.9121 263.136 98.1096 262.578 97.1329C261.523 98.1098 260.489 98.8376 259.087 98.6046C257.746 98.3815 256.767 97.6143 255.833 96.6945C254.35 95.2347 252.814 93.8282 251.294 92.4072C247.872 89.2105 243.893 86.8191 239.855 84.5146C239.692 84.4216 239.48 84.4145 239.236 84.3541C239.203 85.1975 239.779 85.7054 240.144 86.2883C242.445 89.9589 245.269 93.2053 248.396 96.1831C252.762 100.341 257.255 104.362 261.862 108.252C264.555 110.526 267.482 112.478 270.568 114.184C271.757 114.841 272.933 115.453 274.376 115.52C275.735 115.582 276.382 116.432 276.313 117.608C276.245 118.759 275.459 119.519 274.18 119.592C272.505 119.686 270.885 119.111 269.53 118.364C266.498 116.694 263.65 114.685 260.751 112.777C259.188 111.749 257.95 110.336 256.568 109.093C252.807 105.708 248.83 102.559 245.276 98.9467C243.074 96.7083 240.774 94.5184 238.891 92.0256C236.905 89.397 235.066 86.6021 233.827 83.4999C232.756 80.8198 234.283 78.7177 237.169 78.8441C238.568 78.9054 239.816 79.47 241.032 80.0872C246.953 83.0926 252.49 86.6487 257.184 91.4054C257.686 91.9141 258.212 92.3986 258.758 92.9233Z" fill="#0C0D0D"/>
<path d="M272.183 95.6707C273.611 95.7425 274.47 96.6068 275.248 97.7079C278.667 102.542 281.441 107.78 284.699 112.713C285.184 113.447 285.399 114.262 285.41 115.137C283.9 116.142 283.419 116.071 282.178 114.947C280.148 113.108 278.564 110.925 277.088 108.645C275.219 105.758 273.501 102.778 271.464 99.9955C270.081 98.1066 270.313 97.1648 272.183 95.6707Z" fill="#0C0D0D"/>
<path d="M457.55 50.0465C447.728 51.0793 457.336 90.4786 457.336 90.4786C457.336 90.4786 418.027 81.8426 412.721 97.2489C409.487 106.638 436.685 128.542 436.685 128.542C436.685 128.542 413.2 136.489 411.963 147.611C411.162 154.813 445.289 162.749 450.686 157.891C448.759 148.445 446.172 133.407 466.615 110.871C483.433 92.3308 505.102 94.959 512.46 96.096C521.51 75.4202 512.76 49.5176 502.429 50.6C493.273 51.5596 499.17 84.8438 499.17 84.8438C499.17 84.8438 481.978 47.478 457.55 50.0465Z" fill="white"/>
<path d="M437.028 126.908C436.201 127.68 435.294 127.79 434.265 127.314C431.785 126.167 429.343 124.965 427.374 123.005C422.94 118.593 418.819 113.926 415.408 108.657C413.449 105.631 411.974 102.373 410.519 99.0961C410.018 97.967 410.107 96.8689 410.465 95.7435C411.955 94.4207 413.443 93.101 414.927 91.7835C415.313 91.6157 415.738 91.4997 416.084 91.2677C422.449 87.0049 429.565 85.5209 437.101 85.4843C442.158 85.4598 447.063 86.4434 451.96 87.5315C452.571 87.6673 453.153 88.0124 453.813 87.8409C454.187 87.3276 453.845 86.8756 453.721 86.4129C451.832 79.3228 450.915 72.1071 450.907 64.7721C450.905 63.7018 450.848 62.6319 450.817 61.5618C451.31 58.0195 451.554 54.4408 452.857 51.0395C453.838 48.4787 455.76 46.9798 458.469 47.0291C461.021 47.0757 463.438 47.7987 465.773 48.7313C474.548 52.2376 482.335 57.2621 488.868 64.121C493.092 68.5573 496.746 73.4106 499.467 78.9448C500.74 81.5353 501.662 84.238 502.538 86.9676C502.667 87.3698 502.77 87.8165 502.732 88.2283C502.648 89.1356 502.24 89.8908 501.314 90.2007C500.381 90.5129 499.627 90.1344 499.007 89.4507C498.511 88.9041 498.295 88.2002 498.09 87.5207C495.505 78.9701 490.404 71.9996 484.248 65.7355C481.077 62.5076 477.422 59.8553 473.479 57.605C471.621 56.5449 469.963 55.1563 468.04 54.192C465.564 52.9506 462.92 52.1496 460.301 51.2955C458.434 50.6862 457.99 50.9324 457.164 52.7646C456.238 54.8171 455.881 57.0154 455.65 59.2312C454.888 66.5675 455.418 73.8457 456.764 81.0716C457.38 84.3768 457.959 87.6927 459.152 90.8709C459.747 92.4573 458.754 93.5056 456.989 93.641C455.659 93.7431 454.413 93.2698 453.402 92.7454C452.026 92.0326 450.6 91.7498 449.173 91.3951C442.324 89.6918 435.427 89.2621 428.486 90.8428C423.852 91.8983 419.793 94.1258 416.011 96.9412C415.068 97.6435 415.095 98.3057 415.513 99.3166C418.356 106.198 422.865 111.925 427.864 117.32C429.963 119.585 432.196 121.682 434.829 123.36C436.038 124.13 437.511 124.981 437.028 126.908Z" fill="#0C0D0D"/>
<path d="M458.436 115.213C459.181 114.963 459.443 114.418 459.81 113.999C464.384 108.775 469.614 104.329 475.561 100.737C477.487 99.5736 477.432 99.736 476.615 97.7689C475.043 93.9813 473.208 90.3287 470.94 86.9017C470.505 86.2438 470.058 85.5875 469.695 84.8898C469.273 84.0794 469.167 83.1951 469.853 82.4845C470.561 81.751 471.447 81.9396 472.249 82.3468C473.218 82.8385 474.017 83.5627 474.746 84.3674C476.11 85.8736 477.09 87.6211 477.978 89.4298C479.246 92.0104 480.168 94.7105 480.708 97.4933C481.52 97.7956 482.029 97.269 482.581 97.0214C486.271 95.3671 490.11 94.2143 494.087 93.5026C494.793 93.3763 495.495 93.2044 496.216 93.4301C497.027 93.6841 497.638 94.1459 497.77 95.0284C497.911 95.9745 497.538 96.728 496.709 97.1967C496.345 97.4028 495.916 97.5314 495.499 97.602C484.488 99.4647 475.324 104.853 467.381 112.467C461.134 118.455 456.241 125.388 453.328 133.61C452.047 137.228 451.438 140.961 451.358 144.793C451.337 145.794 451.253 146.8 451.094 147.788C450.99 148.439 450.622 149.055 449.898 149.159C449.112 149.272 448.513 148.831 448.137 148.161C447.784 147.534 447.622 146.838 447.484 146.125C447.041 143.835 447.248 141.549 447.451 139.261C447.609 137.488 449.195 132.168 449.492 131.203C450.739 127.156 452.894 123.582 455.191 120.083C455.774 119.195 455.99 118.791 454.847 117.951C451.151 115.234 447.424 112.592 443.41 110.359C442.096 109.628 440.832 108.803 439.577 107.973C439.171 107.704 438.781 107.332 438.531 106.917C437.779 105.666 438.242 104.68 439.704 104.436C441.176 104.19 442.554 104.662 443.885 105.211C447.561 106.729 450.888 108.837 453.995 111.303C455.561 112.546 457.104 113.816 458.436 115.213Z" fill="#0C0D0D"/>
<path d="M411.482 142.673C414.062 139.227 416.992 136.132 420.563 133.687C424.471 131.011 428.918 129.716 433.476 128.753C434.606 128.514 435.764 128.638 436.661 129.555C436.657 130.585 436.202 131.233 435.249 131.738C433.599 132.614 431.863 133.255 430.107 133.828C424.59 135.63 420.303 139.081 416.793 143.588C415.961 144.657 414.436 145.769 414.643 146.914C414.88 148.222 416.777 148.648 418.025 149.269C424.649 152.568 431.357 155.629 438.757 156.886C442.364 157.5 445.747 157.042 449.083 155.717C449.882 155.4 450.638 154.961 451.51 154.859C452.67 154.724 453.601 155.178 454.047 156.077C454.488 156.962 454.295 158.041 453.48 158.828C453.125 159.171 452.694 159.462 452.251 159.684C447.969 161.829 443.487 162.77 438.696 161.975C434.146 161.22 429.76 159.915 425.453 158.29C420.504 156.424 416.026 153.733 411.789 150.617C409.319 148.8 409.095 147.828 410.324 144.924C410.653 144.147 410.892 143.318 411.482 142.673Z" fill="#0C0D0D"/>
<path d="M503.1 52.8199C502.461 53.2763 502.368 54.0338 502.157 54.6938C500.891 58.6582 499.601 62.6201 499.688 66.8649C499.7 67.4266 499.56 68.0082 499.397 68.552C499.147 69.381 498.575 70.0046 497.671 69.8238C496.874 69.664 496.159 69.3493 495.9 68.2875C495.257 65.6518 495.177 63.0438 495.751 60.4037C496.531 56.8196 497.6 53.3276 499.161 50.0021C500.369 47.4287 501.748 46.922 504.365 48.1448C507.866 49.781 510.419 52.5071 512.434 55.6997C519.401 66.7407 519.871 78.4827 516.002 90.6445C515.852 91.116 515.625 91.58 515.349 91.9904C514.813 92.7866 514.01 93.0784 513.09 92.866C512.141 92.6464 511.612 91.9242 511.528 91.0148C511.42 89.8537 511.713 88.7823 512.146 87.6394C513.033 85.2993 513.36 82.7723 513.585 80.2707C514.044 75.1557 513.734 70.1097 512.128 65.1784C511.377 62.8684 509.832 60.9832 508.885 58.808C507.932 56.6204 506.36 55.0705 504.62 53.6008C504.187 53.2353 503.716 52.8848 503.1 52.8199Z" fill="#0C0D0D"/>
<path d="M588.593 164.859C584.73 159.875 578.523 152.338 576.262 149.826C570.501 143.424 564.884 136.875 558.72 130.852C548.846 121.204 538.408 112.214 526.739 104.754C523.535 102.705 520.247 100.785 516.985 98.8256C513.395 96.6699 509.425 95.7658 505.315 95.3498C503.958 95.2122 502.6 95.0514 501.239 94.9987C500.674 94.9769 500.261 94.8433 500.07 94.3363C499.849 93.7532 499.989 93.2151 500.465 92.7742C501.362 91.9431 502.487 91.727 503.638 91.6015C507.502 91.1798 511.225 91.8275 514.847 93.1505C516.401 93.7183 517.879 94.4558 519.313 95.2834C539.332 106.847 556.693 121.609 572.145 138.744C579.146 146.508 585.992 154.391 592.217 162.771C593.007 163.835 596.066 167.68 594.473 169.008C592.273 170.843 590.18 166.906 588.593 164.859Z" fill="#0C0D0D"/>
<path d="M505.576 202.291C505.461 202.886 505.437 203.403 505.256 203.858C504.904 204.743 504.074 205 503.375 204.353C502.899 203.91 502.439 203.448 502.08 202.791C500.558 200 496.023 190.813 495.036 189.129C491.845 183.689 488.05 178.7 483.745 174.101C481.266 171.452 478.762 168.83 476.005 166.452C469.635 160.958 462.763 156.214 455.304 152.319C454.988 152.153 454.661 151.987 454.39 151.76C453.624 151.121 453.154 150.354 453.546 149.311C453.903 148.359 454.837 147.818 455.971 147.923C456.77 147.998 457.504 148.313 458.199 148.687C467.91 153.917 477.045 159.922 484.727 167.958C488.455 171.858 491.893 175.97 495.015 180.369C499.161 186.209 502.022 192.691 504.694 199.273C505.095 200.26 505.3 201.327 505.576 202.291Z" fill="#0C0D0D"/>
<path d="M606.905 291.165C608.016 290.746 608.414 289.721 608.836 288.786C609.991 286.228 610.785 283.551 611.319 280.795C611.591 279.388 611.874 277.981 612.226 276.592C612.4 275.905 612.677 275.226 613.023 274.607C613.405 273.923 614.061 273.629 614.858 273.812C615.566 273.976 615.937 274.472 616.093 275.155C616.322 276.163 616.172 277.161 615.978 278.146C615.369 281.245 614.699 284.351 613.414 287.237C612.663 288.921 613.154 290.277 613.791 291.727C614.116 292.467 614.558 292.479 615.098 291.939C616.296 290.742 617.101 289.339 617.441 287.666C617.915 285.337 618.049 282.973 618.154 280.61C618.206 279.45 618.37 278.322 618.726 277.229C618.962 276.507 619.453 275.958 620.29 275.977C621.131 275.996 621.524 276.557 621.763 277.31C622.096 278.359 622.127 279.429 622.086 280.506C622.019 282.298 621.928 284.089 621.828 285.879C621.801 286.377 621.695 286.844 622.117 287.276C622.762 287.936 623.284 287.988 623.87 287.246C625.229 285.525 626.096 283.567 626.447 281.403C627.249 276.466 626.833 271.52 626.429 266.589C625.685 257.504 624.268 248.498 622.755 239.522C621.048 229.4 618.371 219.502 614.688 209.896C614.585 209.629 614.494 209.355 614.364 209.1C614.207 208.79 614.056 208.426 613.593 208.542C613.262 208.625 613.224 208.94 613.151 209.202C613.017 209.685 612.943 210.186 612.786 210.661C611.631 214.169 608.748 215.739 605.174 214.802C603.914 214.472 602.757 213.898 601.648 213.222C600.99 212.821 600.609 212.981 600.454 213.77C600.303 214.542 600.144 215.326 599.856 216.052C599.138 217.86 597.397 218.832 595.529 218.421C593.757 218.031 592.435 216.943 591.543 215.379C591.271 214.902 590.985 214.3 591.496 213.785C591.928 213.35 592.438 213.608 592.899 213.78C593.571 214.032 594.22 214.345 594.896 214.584C595.984 214.968 596.408 214.783 596.467 213.645C596.573 211.59 596.547 209.554 595.494 207.633C594.867 206.488 594.299 205.257 594.266 203.875C594.244 202.912 594.6 202.191 595.468 201.777C596.334 201.364 597.14 201.519 597.86 202.154C598.683 202.879 599.179 203.848 599.779 204.736C601.124 206.725 602.708 208.462 604.852 209.609C607.606 211.082 608.947 210.313 608.927 207.185C608.918 205.639 605.846 195.913 605.217 194.268C605.086 193.925 604.842 193.563 605.062 193.299C606.491 191.583 604.889 190.334 604.335 189.017C603.836 187.832 600.694 182.669 597.29 177.357C595.233 174.147 595.728 173.035 596.527 172.417C597.444 171.707 599.375 172.76 600.908 175.202C605.706 182.844 609.029 188.939 613.258 196.925C618.128 206.121 621.362 215.891 623.964 225.916C626.366 235.17 627.714 244.609 629.129 254.042C630.205 261.216 630.997 268.412 631.133 275.671C631.178 278.046 630.928 280.396 630.485 282.729C629.952 285.539 628.741 288.024 626.925 290.229C624.745 292.876 623.44 293.142 620.372 291.412C619.651 292.709 618.743 293.892 617.669 294.938C616.94 295.647 616.138 296.257 615.139 296.517C613.626 296.913 612.468 296.27 611.553 295.135C611.154 294.641 610.886 294.041 610.494 293.381C609.843 293.992 609.272 294.596 608.632 295.114C607.408 296.105 606.07 296.753 604.466 296.034C602.947 295.352 602.55 293.974 602.436 292.498C602.269 290.335 602.762 288.216 602.99 286.08C603.279 283.382 604.07 280.742 603.98 277.642C603.131 278.499 602.48 279.173 601.81 279.828C600.446 281.162 598.819 281.779 596.908 281.549C595.061 281.326 594.115 280.295 594.018 278.416C593.939 276.891 594.28 275.411 594.631 273.953C596.751 265.154 597.298 256.244 596.558 247.246C596.244 243.432 595.221 237.606 593.754 234.066C593.384 233.171 587.334 219.459 585.1 216.985C585.009 216.885 584.972 216.736 584.904 216.614C584.405 215.717 584.389 214.256 584.876 213.793C585.481 213.218 586.5 213.388 587.553 214.365C589.576 216.241 591.188 218.466 592.365 220.932C595.46 227.413 598.245 234.042 599.725 241.094C601.496 249.528 601.578 258.049 600.203 266.561C599.734 269.462 599.073 272.331 598.517 275.219C598.397 275.842 598.172 276.463 598.336 277.203C598.911 277.418 599.226 276.977 599.541 276.648C601.148 274.965 602.403 273.057 603.094 270.82C603.834 268.424 604.542 266.018 605.259 263.614C605.341 263.34 605.386 263.055 605.463 262.778C605.923 261.118 606.786 260.379 607.918 260.667C608.914 260.92 609.471 262.004 609.24 263.508C608.88 265.857 608.051 268.086 607.3 270.327C606.901 271.517 606.836 272.594 607.168 273.861C608.05 277.231 607.986 280.681 607.494 284.12C607.23 285.967 606.955 287.812 606.698 289.66C606.633 290.135 606.441 290.636 606.905 291.165Z" fill="#0C0D0D"/>
<path d="M571.159 238.56C564.082 245.163 548.069 249.453 532.898 243.464C531.398 242.872 531.35 234.694 531.35 234.694C531.35 234.694 539.568 231.237 540.523 232.02C543.955 234.831 550.544 230.408 553.605 222.45C554.835 219.253 563.993 221.818 569.662 224.92C574.192 227.399 577.747 232.413 571.159 238.56Z" fill="#ABC264"/>
<path d="M572.218 239.221C569.334 243.421 565.007 245.379 560.328 246.625C555.293 247.966 547.333 248.379 541.917 247.669C540.866 247.531 536.14 247.513 535.136 244.985C534.483 243.341 535.336 241.079 537.09 241.836C541.728 243.839 550.732 243.56 554.672 243.228C559.63 242.812 564.218 241.388 568.32 238.514C568.784 238.189 569.72 237.71 570.237 237.471C572.017 236.648 573.215 237.962 572.218 239.221Z" fill="#0C0D0D"/>
<path d="M572.686 169.55C573.736 168.925 574.729 168.214 575.869 167.778C578.587 166.736 581.106 167.757 582.267 170.43C583.093 172.33 583.073 174.344 582.911 176.359C582.629 179.868 582.36 183.384 583.03 186.872C583.503 189.335 584.012 191.8 584.682 194.216C586.418 200.481 586.645 206.802 585.639 213.194C585.359 214.975 584.8 216.675 584.083 218.325C583.941 218.652 583.761 218.968 583.556 219.26C582.995 220.061 582.31 220.705 581.235 220.409C580.353 220.165 579.985 219.196 580.248 217.871C580.682 215.693 581.535 213.629 581.907 211.423C582.736 206.511 582.238 201.703 581.007 196.935C579.21 189.979 577.726 184.957 578.639 177.395C578.785 176.19 578.725 174.96 578.765 173.742C578.791 172.963 578.55 172.294 577.791 172.005C577.074 171.732 576.402 171.941 575.804 172.442C573.931 174.012 572.765 176.047 571.926 178.291C571.625 179.095 571.436 179.94 571.181 180.76C570.989 181.381 570.74 181.988 570.291 182.464C569.735 183.053 569.007 183.069 568.29 182.872C567.624 182.689 567.605 182.102 567.521 181.526C567.16 179.051 567.882 176.808 569.107 174.745C570.221 172.869 570.196 171.931 568.418 170.547C567.354 169.719 566.804 168.375 565.576 167.687C562.705 166.078 559.704 165.913 556.628 166.909C554.12 167.721 552.007 169.204 550.247 171.14C546.089 175.711 544.173 181.122 544.359 187.283C544.378 187.927 544.482 188.563 544.266 189.2C543.984 190.031 543.422 190.542 542.564 190.644C541.689 190.748 541.028 190.323 540.624 189.568C540.426 189.198 540.274 188.769 540.238 188.354C539.415 179.092 543.796 169.108 551.432 164.399C560.478 158.821 568.828 163.04 572.219 169.019C572.321 169.199 572.495 169.337 572.686 169.55Z" fill="#0C0D0D"/>
<path d="M556.48 220.763C555.649 221.431 555.507 222.472 555.095 223.361C553.353 227.122 551.632 230.887 548.454 233.738C547.648 234.46 546.802 235.104 545.849 235.598C543.327 236.905 541.551 236.432 539.35 233.904C537.926 229.972 536.922 225.937 537.196 221.737C537.524 216.712 538.259 211.745 541.144 207.411C541.661 206.634 541.653 206.058 541.118 205.293C539.983 203.671 539.137 201.885 538.533 199.996C538.359 199.455 538.199 198.886 538.182 198.325C538.158 197.511 538.379 196.742 539.229 196.372C540.023 196.027 540.779 196.169 541.456 196.679C542.224 197.256 542.689 198.078 543.084 198.92C543.938 200.742 544.873 202.508 546.146 204.082C547.254 205.453 547.165 206.864 546.144 208.223C542.661 212.86 541.643 218.208 541.648 223.834C541.649 226.066 542.058 228.261 542.828 230.358C543.243 231.49 543.608 231.553 544.552 230.816C547.34 228.643 549.239 225.778 550.53 222.557C550.827 221.816 551.345 221.316 551.681 220.653C552.944 218.164 553.865 215.57 554.607 212.888C554.93 211.724 555.33 210.566 555.91 209.478C556.188 208.957 556.499 208.488 556.951 208.144C557.571 207.671 558.265 207.868 558.463 208.619C558.623 209.229 558.665 209.898 558.615 210.53C558.365 213.677 558.035 216.811 556.649 219.722C556.503 220.027 556.532 220.414 556.48 220.763Z" fill="#0C0D0D"/>
<path d="M553.709 190.507C553.756 187.136 554.585 184.018 555.944 181.12C556.859 179.167 558.247 177.395 559.828 175.865C560.703 175.018 561.646 174.986 562.348 175.57C563.091 176.187 563.172 177.276 562.475 178.287C561.947 179.052 561.288 179.726 560.77 180.496C557.73 185.01 556.518 189.836 558.329 195.163C558.489 195.634 558.622 196.122 558.698 196.614C558.801 197.283 558.723 197.956 558.031 198.278C557.269 198.632 556.472 198.593 555.899 197.911C554.952 196.782 554.036 195.629 554.013 194.028C553.996 192.813 553.581 191.626 553.709 190.507Z" fill="#0C0D0D"/>
<path d="M564.427 199.285C564.435 194.292 569.198 191.38 573.648 193.655C575.146 194.421 576.402 195.475 577.261 196.937C577.763 197.791 577.951 198.69 577.134 199.494C576.424 200.192 575.439 200.117 574.384 199.417C573.997 199.16 573.841 198.77 573.562 198.456C573.13 197.969 572.688 197.492 572.069 197.254C571.031 196.856 569.963 196.617 569.023 197.437C568.052 198.284 567.864 199.413 568.265 200.581C568.566 201.456 569.049 202.267 569.431 203.116C569.735 203.794 569.95 204.505 569.303 205.101C568.678 205.677 568.011 205.438 567.306 205.161C565.767 204.557 565.147 203.245 564.726 201.838C564.483 201.03 564.518 200.138 564.427 199.285Z" fill="#0C0D0D"/>
<path d="M571.238 284.38C571.331 286.887 571.475 289.029 571.474 291.17C571.472 294.216 570.915 297.163 569.558 299.923C568.881 301.299 567.999 302.504 566.658 303.308C564.87 304.38 563.243 304.224 561.747 302.784C560.886 301.956 560.197 301.031 559.788 299.844C558.753 296.842 558.052 293.792 557.842 290.619C557.314 282.632 557.726 274.722 559.493 266.887C561.276 258.977 565.045 252.073 569.926 245.7C570.404 245.076 570.798 244.39 571.257 243.751C572.02 242.687 573.044 242.337 574.042 242.768C574.943 243.157 575.338 244.002 575.154 245.31C575.055 246.018 574.851 246.712 574.702 247.414C573.86 251.403 574.602 255.265 575.664 259.094C577.18 264.563 578.362 270.101 579.188 275.716C579.377 277.001 579.392 278.283 579.287 279.579C579.092 281.965 577.673 283.511 575.789 284.706C574.433 285.565 573.035 285.069 571.238 284.38ZM569.746 253.334C568.441 255.519 567.535 257.361 566.702 259.248C563.345 266.849 562.04 274.886 561.763 283.106C561.613 287.557 561.962 292 563.288 296.3C563.561 297.186 563.91 298.054 564.298 298.897C564.598 299.546 565.071 299.464 565.437 298.939C566.106 297.981 566.399 296.863 566.678 295.751C567.44 292.701 567.05 289.618 566.903 286.544C566.719 282.677 566.499 278.811 566.34 274.943C566.279 273.469 566.935 272.59 568.084 272.376C569.243 272.16 570.164 272.771 570.656 274.144C570.873 274.749 571.001 275.387 571.163 276.012C571.549 277.504 572.353 278.763 573.348 279.916C573.587 280.193 573.857 280.486 574.247 280.375C574.75 280.231 574.786 279.757 574.798 279.326C574.807 278.97 574.761 278.611 574.743 278.254C574.641 276.24 574.127 274.294 573.799 272.316C572.768 266.094 570.839 260.065 569.746 253.334Z" fill="#0C0D0D"/>
<path d="M556.415 220.965C556.415 220.965 564.508 231.089 574.665 237.318C584.823 243.547 590.954 245.142 592.54 242.145C594.125 239.148 587.95 230.513 576.518 227.908C581.086 224.672 580.877 222.08 574.595 220.236C568.314 218.391 560.842 217.61 556.415 220.965Z" fill="#95583B"/>
<path d="M507.442 214.647C508.143 218.058 514.04 251.093 516.536 272.566C519.032 294.04 515.224 343.29 516.324 343.268C517.423 343.247 523.192 335.523 523.192 335.523L526.484 341.59L531.24 338.283L533.775 342.462C533.775 342.462 542.134 337.393 545.434 320.246C547.654 321.302 557.251 325.911 557.765 323.557C559.006 317.867 545.452 312.188 546.203 301.33C547.025 289.433 552.035 247.516 534.707 225.678C524.647 212.998 506.74 211.235 507.442 214.647Z" fill="white"/>
<path d="M549.644 271.281C550.16 280.254 549.78 289.199 548.815 298.14C548.152 304.295 550.392 309.541 554.669 313.951C555.469 314.775 556.306 315.563 557.112 316.381C558.174 317.461 559.129 318.624 559.765 320.015C560.973 322.654 560.096 324.805 557.399 325.942C555.711 326.654 554.032 326.517 552.344 326.008C550.556 325.468 548.822 324.784 547.163 323.993C546.43 324.392 546.542 325.137 546.358 325.72C544.59 331.296 542.3 336.609 538.641 341.242C538.197 341.804 537.726 342.351 537.223 342.86C534.651 345.46 531.807 344.689 530.56 341.251C526.712 345.216 524.247 344.22 522.433 340.442C521.793 340.711 521.591 341.356 521.245 341.84C520.618 342.721 519.981 343.578 519.087 344.218C516.542 346.041 514.212 345.086 513.831 341.999C513.7 340.94 513.768 339.852 513.793 338.777C513.888 334.609 514.751 330.524 515.163 326.39C516.621 311.792 516.835 297.213 515.302 282.578C514.352 273.514 513.419 264.446 512.32 255.401C511.273 246.786 510.116 238.18 508.472 229.645C507.319 223.658 506.406 217.625 504.948 211.697C504.533 210.01 504.903 209.003 505.836 208.717C506.692 208.454 507.362 208.982 508.054 210.608C508.954 212.723 509.761 214.886 510.189 217.146C511.38 223.419 512.524 229.702 513.636 235.99C514.007 238.083 514.566 240.137 514.705 242.593C515.735 241.56 516.262 240.556 516.364 239.561C516.521 238.031 517.045 236.637 517.423 235.184C517.894 233.38 518.056 231.514 518.177 229.651C518.213 229.081 518.266 228.501 518.41 227.952C518.722 226.766 519.456 226.166 520.507 226.142C521.541 226.118 522.297 226.687 522.639 227.908C522.829 228.59 522.857 229.321 522.926 230.032C523.079 231.603 523.18 233.18 523.361 234.747C523.494 235.898 523.828 237.003 524.546 237.94C524.981 238.507 525.456 239.141 526.29 238.966C527 238.816 527.276 238.144 527.49 237.544C528.079 235.891 528.599 234.213 529.17 232.553C529.402 231.877 529.641 231.194 529.97 230.563C530.365 229.806 531.033 229.39 531.917 229.503C532.864 229.625 533.168 230.358 533.368 231.158C533.386 231.227 533.402 231.3 533.398 231.37C533.155 235.389 532.303 239.227 529.358 242.189C527.557 244 525.027 243.961 522.863 242.352C522.126 241.804 521.472 241.146 520.717 240.482C519.963 241.995 519.334 243.443 518.36 244.698C517.784 245.442 517.225 246.232 516.316 246.552C515.412 246.87 515.353 247.442 515.491 248.237C516.706 255.246 517.054 262.356 517.897 269.41C519.217 280.45 520.47 291.515 520.365 302.669C520.26 313.865 519.826 325.038 518.043 336.12C517.85 337.316 517.774 338.532 517.806 339.809C519.242 338.498 520.052 336.812 520.663 335.04C521.341 333.074 521.91 331.091 522.901 329.224C523.523 328.054 523.646 326.62 523.999 325.306C524.221 324.477 524.382 323.622 524.702 322.832C525.053 321.967 525.754 321.399 526.739 321.639C527.709 321.876 528.041 322.698 528.069 323.619C528.082 324.044 528.009 324.483 527.902 324.897C527.367 326.979 526.94 329.102 526.225 331.122C525.262 333.842 525.624 336.466 526.196 339.147C526.473 339.122 526.668 339.162 526.732 339.089C528.974 336.504 530.473 333.5 531.521 330.278C532.304 327.869 533.136 325.471 533.609 322.962C533.803 321.929 535.186 321.153 536.06 321.344C536.879 321.524 537.42 322.369 537.392 323.551C537.38 324.044 537.266 324.545 537.129 325.023C536.244 328.124 535.528 331.275 534.21 334.243C533.426 336.008 533.977 337.737 534.433 339.46C535.213 339.417 535.448 338.828 535.766 338.398C537.989 335.381 539.692 332.112 540.974 328.567C541.694 326.574 542.429 324.599 543.019 322.559C543.385 321.295 543.203 320.324 542.257 319.455C541.136 318.425 540.392 317.184 540.337 315.637C540.313 314.974 540.02 314.179 540.784 313.697C541.596 313.184 542.333 313.53 542.941 314.075C544.061 315.081 545.193 316.087 546.198 317.204C548.304 319.545 551.02 320.763 553.95 321.626C554.424 321.765 554.924 321.902 555.571 321.562C555.416 320.53 554.566 319.953 553.877 319.328C552.386 317.976 550.948 316.589 549.671 315.021C547.287 312.094 545.559 308.889 544.676 305.176C544.066 302.613 544.063 300.136 544.386 297.54C545.12 291.628 545.213 285.664 545.255 279.713C545.309 271.957 544.964 264.213 543.948 256.514C543.225 251.037 542.478 245.555 540.852 240.255C540.333 238.564 539.544 236.948 538.79 235.339C538.245 234.175 537.962 232.957 537.789 231.71C537.658 230.761 538.238 230.384 539.085 230.829C539.663 231.132 540.191 231.54 540.433 232.167C540.62 232.65 540.977 232.786 541.414 232.863C542.197 234.622 543.036 236.367 543.713 238.154C548.002 249.478 549.02 260.424 549.644 271.281Z" fill="#0C0D0D"/>
<path d="M176.195 229.127C176.883 233.994 180.207 238.59 181.451 239.812C177.033 237.595 152.938 237.5 152.036 249.936C151.363 259.109 169.275 261.709 176.298 260.549C179.268 260.06 181.796 259.743 183.966 261.209C185.165 262.018 184.897 264.391 186.173 267.6C189.438 275.817 199.478 287.864 207.505 284.069C217.332 279.423 206.316 259.95 204.718 256.695C203.949 255.125 203.966 254.671 205.618 254.761C209.15 254.947 222.331 256.175 221.661 247.783C220.975 239.224 201.075 238.185 199.955 237.503C198.397 236.557 194.014 226.282 183.322 222.005C178.947 220.249 175.544 224.442 176.195 229.127Z" fill="#ABC264"/>
<path d="M190.985 255.178C189.008 257.902 187.001 260.606 184.658 263.032C183.864 263.564 183.043 264.631 182.068 263.768C181.256 263.05 182.018 262.043 182.318 261.196C182.46 260.795 182.663 260.416 182.84 260.025C185.793 254.784 189.277 249.889 192.629 244.909C194.581 242.008 199.194 235.556 199.528 235.211C200.285 234.429 201.204 234.126 202.217 234.466C202.933 234.706 203.443 235.2 203.464 235.861C203.501 237.019 202.873 237.782 201.786 239.428C199.112 243.478 194.041 250.966 190.985 255.178Z" fill="#0C0D0D"/>
</svg>
