<svg width="307" height="251" viewBox="0 0 307 251" fill="none" xmlns="http://www.w3.org/2000/svg">
<path d="M289.849 0.500244H17.1508C7.67869 0.500244 0 8.171 0 17.6334V233.511C0 242.973 7.67869 250.644 17.1508 250.644H289.849C299.322 250.644 307 242.973 307 233.511V17.6334C307 8.171 299.322 0.500244 289.849 0.500244Z" fill="white"/>
<path d="M0 17.6334C0 8.171 7.67869 0.500244 17.1508 0.500244H289.849C299.322 0.500244 307 8.171 307 17.6334V45.903H0V17.6334Z" fill="#ABC264"/>
<path d="M120.351 26.7962H116.591L115.892 28.7699H113.614L117.277 19.052H119.788L123.411 28.7699H121.051L120.351 26.7962ZM117.305 24.8225H119.665L118.499 21.4644L117.305 24.8225ZM128.459 28.9892C127.92 28.9892 127.416 28.9115 126.95 28.7562C126.483 28.5917 126.077 28.3542 125.729 28.0435C125.381 27.7237 125.107 27.3353 124.905 26.8784C124.705 26.4124 124.603 25.8733 124.603 25.2611V19.052H126.771V25.0829C126.771 25.6768 126.922 26.12 127.224 26.4124C127.526 26.7048 127.938 26.851 128.459 26.851C128.98 26.851 129.392 26.7048 129.694 26.4124C129.996 26.12 130.147 25.6768 130.147 25.0829V19.052H132.314V25.2611C132.314 25.8733 132.214 26.4124 132.013 26.8784C131.812 27.3353 131.537 27.7237 131.189 28.0435C130.842 28.3542 130.43 28.5917 129.954 28.7562C129.488 28.9115 128.99 28.9892 128.459 28.9892ZM139.188 21.1217V28.7699H137.021V21.1217H134.03V19.052H142.193V21.1217H139.188ZM145.393 23.9041C145.393 24.4158 145.475 24.8544 145.64 25.22C145.804 25.5855 146.02 25.8916 146.285 26.1383C146.559 26.3758 146.861 26.554 147.19 26.6728C147.529 26.7825 147.867 26.8373 148.206 26.8373C148.544 26.8373 148.878 26.7825 149.207 26.6728C149.546 26.554 149.848 26.3758 150.113 26.1383C150.378 25.8916 150.593 25.5855 150.758 25.22C150.922 24.8544 151.005 24.4158 151.005 23.9041C151.005 23.4015 150.922 22.9629 150.758 22.5883C150.593 22.2137 150.378 21.9075 150.113 21.67C149.848 21.4324 149.546 21.2542 149.207 21.1354C148.878 21.0166 148.544 20.9572 148.206 20.9572C147.867 20.9572 147.529 21.0166 147.19 21.1354C146.861 21.2542 146.559 21.4324 146.285 21.67C146.02 21.9075 145.804 22.2137 145.64 22.5883C145.475 22.9629 145.393 23.4015 145.393 23.9041ZM143.143 23.9178C143.143 23.1503 143.276 22.4558 143.541 21.8344C143.815 21.204 144.181 20.6694 144.638 20.2308C145.105 19.783 145.644 19.4404 146.257 19.2028C146.87 18.9653 147.52 18.8464 148.206 18.8464C148.892 18.8464 149.536 18.9653 150.14 19.2028C150.753 19.4404 151.288 19.783 151.745 20.2308C152.212 20.6694 152.578 21.204 152.843 21.8344C153.118 22.4558 153.255 23.1503 153.255 23.9178C153.255 24.6854 153.118 25.3799 152.843 26.0012C152.578 26.6226 152.212 27.1571 151.745 27.6049C151.288 28.0435 150.753 28.3816 150.14 28.6192C149.536 28.8567 148.892 28.9755 148.206 28.9755C147.52 28.9755 146.87 28.8567 146.257 28.6192C145.644 28.3816 145.105 28.0435 144.638 27.6049C144.181 27.1571 143.815 26.6226 143.541 26.0012C143.276 25.3799 143.143 24.6854 143.143 23.9178ZM164.102 28.7699V22.3279L161.563 28.7699H159.807L157.269 22.4101V28.7699H155.211V19.052H158.037L160.713 25.6174L163.251 19.052H166.228V28.7699H164.102ZM174.572 26.7962H170.812L170.112 28.7699H167.835L171.498 19.052H174.009L177.631 28.7699H175.271L174.572 26.7962ZM171.526 24.8225H173.885L172.719 21.4644L171.526 24.8225ZM182.707 21.1217V28.7699H180.539V21.1217H177.548V19.052H185.712V21.1217H182.707ZM187.438 28.7699V19.052H193.599V21.0943H189.606V22.9447H193.228V24.8499H189.606V26.714H193.612V28.7699H187.438Z" fill="white"/>
<path d="M136.349 70.2456H29.1564C24.4204 70.2456 20.581 74.081 20.581 78.8122V90.8053C20.581 95.5366 24.4204 99.3719 29.1564 99.3719H136.349C141.085 99.3719 144.925 95.5366 144.925 90.8053V78.8122C144.925 74.081 141.085 70.2456 136.349 70.2456Z" fill="#EFF7FD"/>
<path d="M32.5223 84.551C32.8053 84.551 33.0349 84.4756 33.2109 84.3249C33.387 84.1741 33.4751 83.9668 33.4751 83.7029C33.4751 83.4328 33.387 83.2223 33.2109 83.0716C33.0349 82.9208 32.8053 82.8454 32.5223 82.8454H31.6545V84.551H32.5223ZM31.6451 85.8327V88.2356H30.1547V81.5544H32.6733C33.0129 81.5544 33.321 81.6078 33.5977 81.7146C33.8807 81.8215 34.1228 81.9691 34.324 82.1575C34.5316 82.346 34.6887 82.5721 34.7957 82.836C34.9089 83.0998 34.9655 83.3857 34.9655 83.6935C34.9655 84.0076 34.9089 84.2966 34.7957 84.5604C34.6887 84.8243 34.5316 85.0504 34.324 85.2389C34.1228 85.4274 33.8807 85.575 33.5977 85.6819C33.321 85.7821 33.0129 85.8327 32.6733 85.8327H31.6451ZM36.0823 88.2356V81.5544H40.3177V82.9585H37.5727V84.2306H40.063V85.5404H37.5727V86.8221H40.3272V88.2356H36.0823ZM43.7892 85.7478H43.2609V88.2356H41.7705V81.5544H44.4212C44.7481 81.5544 45.0437 81.6078 45.3079 81.7146C45.5782 81.8215 45.8078 81.9691 45.9965 82.1575C46.1851 82.346 46.3297 82.569 46.4304 82.8266C46.5372 83.0778 46.5907 83.3511 46.5907 83.6464C46.5907 84.0987 46.4744 84.4913 46.2417 84.8243C46.009 85.1509 45.6852 85.3865 45.2701 85.531L46.6285 88.2356H44.9871L43.7892 85.7478ZM44.1382 84.4662C44.4463 84.4662 44.6789 84.3908 44.8362 84.24C44.9997 84.0893 45.0815 83.8946 45.0815 83.6558C45.0815 83.4046 44.9997 83.2067 44.8362 83.0621C44.6789 82.9176 44.4463 82.8454 44.1382 82.8454H43.2609V84.4662H44.1382ZM51.1462 83.571C51.1336 83.4956 51.1053 83.4108 51.0613 83.3166C51.0235 83.2161 50.9607 83.1249 50.8726 83.0433C50.7909 82.9553 50.6808 82.8831 50.5425 82.8266C50.4041 82.7638 50.2344 82.7323 50.0331 82.7323C49.7564 82.7323 49.5331 82.8077 49.3633 82.9585C49.1998 83.103 49.1181 83.2663 49.1181 83.4485C49.1181 83.6119 49.1684 83.75 49.269 83.8631C49.376 83.9699 49.5457 84.0453 49.7784 84.0893L50.6745 84.2589C50.9952 84.3154 51.2751 84.4097 51.5141 84.5416C51.7531 84.6673 51.9542 84.818 52.1178 84.9939C52.2813 85.1698 52.4039 85.3677 52.4857 85.5876C52.5674 85.801 52.6083 86.0271 52.6083 86.2661C52.6083 86.53 52.5549 86.7878 52.4479 87.0388C52.341 87.2898 52.1806 87.516 51.9668 87.7173C51.7593 87.9118 51.5015 88.072 51.1933 88.1979C50.8852 88.317 50.533 88.3769 50.1369 88.3769C49.6715 88.3769 49.2722 88.311 48.9389 88.179C48.6055 88.0411 48.3289 87.8681 48.1088 87.6608C47.8886 87.4535 47.722 87.2239 47.6088 86.9729C47.4956 86.7219 47.4264 86.4769 47.4013 86.2379L48.7691 85.908C48.7817 86.0588 48.8162 86.2062 48.8728 86.3509C48.9357 86.4889 49.0238 86.6114 49.137 86.7184C49.2502 86.8187 49.3916 86.9009 49.5614 86.9634C49.7312 87.026 49.9293 87.0577 50.1557 87.0577C50.4513 87.0577 50.6808 86.9951 50.8443 86.8692C51.0141 86.7373 51.099 86.5677 51.099 86.3604C51.099 86.1907 51.033 86.0494 50.9009 85.9363C50.7751 85.8172 50.6022 85.735 50.3821 85.6913L49.4671 85.5216C48.8949 85.4148 48.4483 85.1855 48.1276 84.8337C47.8069 84.4819 47.6465 84.0578 47.6465 83.5616C47.6465 83.2474 47.7094 82.9585 47.8352 82.6946C47.9673 82.4308 48.1433 82.2046 48.3635 82.0162C48.5836 81.8277 48.8383 81.6801 49.1275 81.5733C49.4168 81.4665 49.7218 81.4131 50.0425 81.4131C50.4576 81.4131 50.8128 81.4696 51.1084 81.5827C51.404 81.6958 51.6461 81.8403 51.8348 82.0162C52.0297 82.1858 52.1775 82.3774 52.2781 82.591C52.3787 82.7983 52.4479 82.9994 52.4857 83.1941L51.1462 83.571ZM54.9703 84.8903C54.9703 85.2421 55.0269 85.5436 55.1401 85.795C55.2533 86.046 55.401 86.2567 55.5834 86.4263C55.7721 86.5899 55.9796 86.7124 56.206 86.7938C56.4387 86.8692 56.6713 86.9069 56.9041 86.9069C57.1367 86.9069 57.3663 86.8692 57.5927 86.7938C57.8253 86.7124 58.0328 86.5899 58.2152 86.4263C58.3976 86.2567 58.5454 86.046 58.6586 85.795C58.7718 85.5436 58.8284 85.2421 58.8284 84.8903C58.8284 84.5448 58.7718 84.2432 58.6586 83.9856C58.5454 83.728 58.3976 83.5176 58.2152 83.3543C58.0328 83.1909 57.8253 83.0684 57.5927 82.9868C57.3663 82.9051 57.1367 82.8643 56.9041 82.8643C56.6713 82.8643 56.4387 82.9051 56.206 82.9868C55.9796 83.0684 55.7721 83.1909 55.5834 83.3543C55.401 83.5176 55.2533 83.728 55.1401 83.9856C55.0269 84.2432 54.9703 84.5448 54.9703 84.8903ZM53.4233 84.8997C53.4233 84.372 53.5144 83.8946 53.6968 83.4673C53.8855 83.0339 54.137 82.6664 54.4515 82.3648C54.7722 82.057 55.1432 81.8215 55.5646 81.6581C55.9859 81.4947 56.4324 81.4131 56.9041 81.4131C57.3757 81.4131 57.8191 81.4947 58.2341 81.6581C58.6554 81.8215 59.0233 82.057 59.3378 82.3648C59.6585 82.6664 59.91 83.0339 60.0924 83.4673C60.2811 83.8946 60.3754 84.372 60.3754 84.8997C60.3754 85.4274 60.2811 85.9046 60.0924 86.3321C59.91 86.7596 59.6585 87.1271 59.3378 87.4346C59.0233 87.7361 58.6554 87.9683 58.2341 88.1319C57.8191 88.2955 57.3757 88.3769 56.9041 88.3769C56.4324 88.3769 55.9859 88.2955 55.5646 88.1319C55.1432 87.9683 54.7722 87.7361 54.4515 87.4346C54.137 87.1271 53.8855 86.7596 53.6968 86.3321C53.5144 85.9046 53.4233 85.4274 53.4233 84.8997ZM65.8615 88.2356L63.1071 83.8443V88.2356H61.6261V81.5544H63.4372L65.9464 85.6158V81.5544H67.4368V88.2356H65.8615ZM73.0641 86.8786H70.4795L69.9984 88.2356H68.4325L70.9511 81.5544H72.6773L75.1676 88.2356H73.5452L73.0641 86.8786ZM70.97 85.5216H72.5924L71.7906 83.2129L70.97 85.5216ZM79.4351 83.571C79.4225 83.4956 79.3942 83.4108 79.3502 83.3166C79.3125 83.2161 79.2496 83.1249 79.1616 83.0433C79.0798 82.9553 78.9697 82.8831 78.8314 82.8266C78.6931 82.7638 78.5233 82.7323 78.322 82.7323C78.0453 82.7323 77.8221 82.8077 77.6523 82.9585C77.4888 83.103 77.407 83.2663 77.407 83.4485C77.407 83.6119 77.4574 83.75 77.558 83.8631C77.6649 83.9699 77.8347 84.0453 78.0673 84.0893L78.9635 84.2589C79.2842 84.3154 79.564 84.4097 79.803 84.5416C80.042 84.6673 80.2432 84.818 80.4067 84.9939C80.5702 85.1698 80.6929 85.3677 80.7746 85.5876C80.8563 85.801 80.8972 86.0271 80.8972 86.2661C80.8972 86.53 80.8438 86.7878 80.7369 87.0388C80.6299 87.2898 80.4696 87.516 80.2558 87.7173C80.0483 87.9118 79.7904 88.072 79.4823 88.1979C79.1742 88.317 78.822 88.3769 78.4258 88.3769C77.9604 88.3769 77.5611 88.311 77.2278 88.179C76.8945 88.0411 76.6178 87.8681 76.3977 87.6608C76.1776 87.4535 76.011 87.2239 75.8978 86.9729C75.7846 86.7219 75.7154 86.4769 75.6902 86.2379L77.058 85.908C77.0706 86.0588 77.1052 86.2062 77.1618 86.3509C77.2246 86.4889 77.3127 86.6114 77.4259 86.7184C77.5391 86.8187 77.6806 86.9009 77.8504 86.9634C78.0202 87.026 78.2183 87.0577 78.4446 87.0577C78.7402 87.0577 78.9697 86.9951 79.1333 86.8692C79.3031 86.7373 79.388 86.5677 79.388 86.3604C79.388 86.1907 79.3219 86.0494 79.1899 85.9363C79.0641 85.8172 78.8912 85.735 78.671 85.6913L77.756 85.5216C77.1838 85.4148 76.7373 85.1855 76.4166 84.8337C76.0958 84.4819 75.9355 84.0578 75.9355 83.5616C75.9355 83.2474 75.9983 82.9585 76.1241 82.6946C76.2562 82.4308 76.4323 82.2046 76.6524 82.0162C76.8725 81.8277 77.1272 81.6801 77.4165 81.5733C77.7057 81.4665 78.0107 81.4131 78.3315 81.4131C78.7465 81.4131 79.1018 81.4696 79.3974 81.5827C79.693 81.6958 79.9351 81.8403 80.1237 82.0162C80.3186 82.1858 80.4665 82.3774 80.5671 82.591C80.6677 82.7983 80.7369 82.9994 80.7746 83.1941L79.4351 83.571Z" fill="black"/>
<path d="M130.346 83.5239L133.348 86.0939L136.349 83.5239" stroke="black" stroke-width="2"/>
<path d="M276.986 70.2456H169.793C165.057 70.2456 161.218 74.081 161.218 78.8122V90.8053C161.218 95.5366 165.057 99.3719 169.793 99.3719H276.986C281.722 99.3719 285.561 95.5366 285.561 90.8053V78.8122C285.561 74.081 281.722 70.2456 276.986 70.2456Z" fill="#EFF7FD"/>
<path d="M172.929 85.6064L172.175 86.4452V88.2356H170.684V81.5544H172.175V84.3625L174.618 81.5544H176.58L173.976 84.4474L176.589 88.2356H174.731L172.929 85.6064ZM177.598 88.2356V81.5544H179.107V88.2356H177.598ZM183.743 82.9773V88.2356H182.253V82.9773H180.196V81.5544H185.809V82.9773H183.743ZM190.165 83.571C190.152 83.4956 190.124 83.4108 190.08 83.3166C190.042 83.2161 189.98 83.1249 189.892 83.0433C189.81 82.9553 189.699 82.8831 189.561 82.8266C189.423 82.7638 189.254 82.7323 189.052 82.7323C188.775 82.7323 188.552 82.8077 188.382 82.9585C188.218 83.103 188.137 83.2663 188.137 83.4485C188.137 83.6119 188.188 83.75 188.288 83.8631C188.395 83.9699 188.565 84.0453 188.797 84.0893L189.693 84.2589C190.014 84.3154 190.294 84.4097 190.533 84.5416C190.772 84.6673 190.973 84.818 191.137 84.9939C191.3 85.1698 191.423 85.3677 191.505 85.5876C191.586 85.801 191.627 86.0271 191.627 86.2661C191.627 86.53 191.574 86.7878 191.467 87.0388C191.36 87.2898 191.199 87.516 190.986 87.7173C190.778 87.9118 190.52 88.072 190.212 88.1979C189.904 88.317 189.552 88.3769 189.156 88.3769C188.69 88.3769 188.291 88.311 187.958 88.179C187.624 88.0411 187.348 87.8681 187.128 87.6608C186.907 87.4535 186.741 87.2239 186.628 86.9729C186.515 86.7219 186.445 86.4769 186.42 86.2379L187.788 85.908C187.801 86.0588 187.835 86.2062 187.892 86.3509C187.954 86.4889 188.043 86.6114 188.156 86.7184C188.269 86.8187 188.411 86.9009 188.58 86.9634C188.75 87.026 188.948 87.0577 189.175 87.0577C189.47 87.0577 189.699 86.9951 189.863 86.8692C190.033 86.7373 190.118 86.5677 190.118 86.3604C190.118 86.1907 190.052 86.0494 189.92 85.9363C189.794 85.8172 189.621 85.735 189.401 85.6913L188.486 85.5216C187.914 85.4148 187.467 85.1855 187.147 84.8337C186.826 84.4819 186.665 84.0578 186.665 83.5616C186.665 83.2474 186.728 82.9585 186.854 82.6946C186.986 82.4308 187.162 82.2046 187.382 82.0162C187.603 81.8277 187.857 81.6801 188.146 81.5733C188.435 81.4665 188.741 81.4131 189.061 81.4131C189.476 81.4131 189.832 81.4696 190.127 81.5827C190.423 81.6958 190.665 81.8403 190.854 82.0162C191.048 82.1858 191.197 82.3774 191.297 82.591C191.397 82.7983 191.467 82.9994 191.505 83.1941L190.165 83.571Z" fill="black"/>
<path d="M270.983 83.5239L273.985 86.0939L276.986 83.5239" stroke="black" stroke-width="2"/>
<g filter="url(#filter0_d_1_950)">
<path d="M264.123 112.222H43.7346C34.2625 112.222 26.5838 119.892 26.5838 129.355V210.737C26.5838 220.2 34.2625 227.87 43.7346 227.87H264.123C273.595 227.87 281.274 220.2 281.274 210.737V129.355C281.274 119.892 273.595 112.222 264.123 112.222Z" fill="white"/>
<path d="M83.1816 137.922H56.5978C54.2298 137.922 52.3101 139.84 52.3101 142.205C52.3101 144.57 54.2298 146.488 56.5978 146.488H83.1816C85.5496 146.488 87.4693 144.57 87.4693 142.205C87.4693 139.84 85.5496 137.922 83.1816 137.922Z" fill="#DFEAEE"/>
<path d="M144.925 137.922H95.1871C92.8195 137.922 90.8994 139.84 90.8994 142.205C90.8994 144.57 92.8195 146.488 95.1871 146.488H144.925C147.292 146.488 149.212 144.57 149.212 142.205C149.212 139.84 147.292 137.922 144.925 137.922Z" fill="#DFEAEE"/>
<path d="M169.793 137.922H156.93C154.562 137.922 152.642 139.84 152.642 142.205C152.642 144.57 154.562 146.488 156.93 146.488H169.793C172.161 146.488 174.081 144.57 174.081 142.205C174.081 139.84 172.161 137.922 169.793 137.922Z" fill="#DFEAEE"/>
<path d="M214.385 137.922H181.799C179.431 137.922 177.511 139.84 177.511 142.205C177.511 144.57 179.431 146.488 181.799 146.488H214.385C216.753 146.488 218.673 144.57 218.673 142.205C218.673 139.84 216.753 137.922 214.385 137.922Z" fill="#DFEAEE"/>
<path d="M73.0244 176.632C72.9992 176.532 72.9803 176.406 72.9678 176.255C72.9552 176.104 72.9489 175.954 72.9489 175.803C72.9489 175.225 73.0558 174.672 73.2697 174.144C73.4835 173.604 73.7916 173.133 74.1941 172.731C74.6092 172.329 75.1122 172.009 75.7034 171.77C76.2945 171.519 76.9737 171.393 77.7409 171.393C78.4829 171.393 79.1432 171.506 79.7218 171.732C80.3129 171.958 80.8097 172.266 81.2122 172.656C81.6273 173.032 81.9416 173.479 82.1555 173.994C82.3693 174.508 82.4762 175.049 82.4762 175.614C82.4762 176.494 82.2498 177.286 81.7971 177.989C81.3443 178.68 80.7154 179.271 79.9105 179.761L77.307 181.363C77.0176 181.551 76.7599 181.752 76.5335 181.966C76.3071 182.179 76.1435 182.443 76.043 182.757H82.5517V185.038H72.8358C72.8358 184.459 72.8924 183.913 73.0055 183.398C73.1187 182.87 73.2948 182.38 73.5338 181.928C73.7853 181.463 74.1123 181.029 74.5148 180.628C74.9173 180.213 75.414 179.823 76.0052 179.459L78.1937 178.102C78.7722 177.738 79.1872 177.361 79.4388 176.971C79.7029 176.582 79.835 176.148 79.835 175.671C79.835 175.407 79.791 175.156 79.703 174.917C79.615 174.678 79.4828 174.471 79.3068 174.295C79.1306 174.107 78.9042 173.962 78.6276 173.862C78.3635 173.749 78.049 173.692 77.6843 173.692C76.9297 173.692 76.3699 173.918 76.0052 174.371C75.6404 174.823 75.4581 175.382 75.4581 176.048C75.4581 176.174 75.4644 176.299 75.477 176.425C75.4895 176.538 75.5084 176.651 75.5336 176.764L73.0244 176.632ZM84.4169 183.53C84.4169 183.078 84.5805 182.701 84.9075 182.399C85.2345 182.098 85.6431 181.947 86.1341 181.947C86.7249 181.947 87.1837 182.154 87.5113 182.569C87.838 182.983 88.0018 183.498 88.0018 184.114C88.0018 184.805 87.8946 185.402 87.6811 185.905C87.4667 186.407 87.1966 186.822 86.8699 187.148C86.5423 187.475 86.1838 187.727 85.7945 187.902C85.4042 188.078 85.0332 188.185 84.681 188.223V187.016C84.8948 186.966 85.1024 186.879 85.3036 186.753C85.5174 186.64 85.7061 186.495 85.87 186.319C86.0458 186.144 86.1838 185.942 86.285 185.716C86.3982 185.49 86.4608 185.245 86.4737 184.981C86.3725 185.056 86.2095 185.094 85.9832 185.094C85.5174 185.094 85.1401 184.949 84.8508 184.661C84.5615 184.359 84.4169 183.982 84.4169 183.53ZM92.2183 180.703C92.2432 181.042 92.3187 181.357 92.4447 181.645C92.5828 181.934 92.7655 182.186 92.9919 182.399C93.2182 182.612 93.4824 182.782 93.7842 182.908C94.0989 183.021 94.4445 183.078 94.8218 183.078C95.1614 183.078 95.4762 183.027 95.7651 182.927C96.067 182.814 96.3251 182.657 96.5386 182.456C96.765 182.254 96.9408 182.016 97.0669 181.739C97.1929 181.451 97.2556 181.124 97.2556 180.759C97.2556 180.37 97.1861 180.024 97.048 179.723C96.91 179.421 96.7273 179.176 96.5009 178.988C96.2745 178.787 96.0104 178.636 95.7085 178.536C95.4067 178.435 95.0988 178.385 94.7841 178.385C94.3065 178.385 93.8785 178.473 93.5012 178.649C93.1368 178.824 92.8409 179.044 92.6145 179.308C92.5142 179.271 92.3444 179.214 92.1052 179.139C91.8788 179.05 91.6395 178.963 91.3882 178.875C91.137 178.787 90.8917 178.705 90.6525 178.63C90.4261 178.542 90.2692 178.479 90.1808 178.441L91.8033 171.676H99.1799V173.937H93.5767L92.8032 177.122C93.0922 176.845 93.4695 176.638 93.9351 176.5C94.4008 176.349 94.8596 176.274 95.3124 176.274C95.9787 176.274 96.5892 176.374 97.1424 176.576C97.7083 176.777 98.1928 177.066 98.595 177.443C98.9972 177.819 99.3119 178.285 99.5383 178.837C99.7647 179.39 99.8779 180.018 99.8779 180.722C99.8779 181.35 99.7587 181.941 99.5195 182.493C99.2931 183.046 98.9595 183.536 98.5196 183.963C98.0917 184.378 97.5634 184.711 96.9348 184.962C96.3183 185.201 95.6142 185.32 94.8218 185.32C94.0921 185.32 93.4258 185.213 92.8221 185C92.2312 184.774 91.715 184.472 91.2751 184.095C90.8351 183.718 90.4827 183.291 90.2186 182.814C89.9673 182.324 89.8164 181.815 89.7658 181.287L92.2183 180.703ZM101.343 178.366C101.343 177.499 101.424 176.657 101.588 175.841C101.752 175.024 102.059 174.276 102.512 173.598C102.952 172.932 103.525 172.398 104.229 171.996C104.933 171.594 105.795 171.393 106.814 171.393C107.832 171.393 108.694 171.594 109.398 171.996C110.115 172.398 110.694 172.932 111.134 173.598C111.574 174.276 111.883 175.024 112.058 175.841C112.234 176.657 112.323 177.499 112.323 178.366C112.323 179.233 112.234 180.075 112.058 180.891C111.883 181.696 111.574 182.437 111.134 183.115C110.694 183.781 110.115 184.315 109.398 184.717C108.694 185.119 107.832 185.32 106.814 185.32C105.795 185.32 104.933 185.119 104.229 184.717C103.525 184.315 102.952 183.781 102.512 183.115C102.059 182.437 101.752 181.696 101.588 180.891C101.424 180.075 101.343 179.233 101.343 178.366ZM103.946 178.366C103.946 179.158 104.009 179.861 104.135 180.477C104.273 181.08 104.487 181.583 104.776 181.985C105.003 182.299 105.28 182.55 105.606 182.738C105.933 182.927 106.336 183.021 106.814 183.021C107.304 183.021 107.713 182.927 108.04 182.738C108.367 182.55 108.644 182.299 108.87 181.985C109.159 181.583 109.373 181.08 109.512 180.477C109.65 179.861 109.719 179.158 109.719 178.366C109.719 177.574 109.65 176.877 109.512 176.274C109.373 175.658 109.159 175.149 108.87 174.747C108.644 174.433 108.367 174.182 108.04 173.994C107.713 173.805 107.304 173.711 106.814 173.711C106.336 173.711 105.933 173.805 105.606 173.994C105.28 174.182 105.003 174.433 104.776 174.747C104.487 175.149 104.273 175.658 104.135 176.274C104.009 176.877 103.946 177.574 103.946 178.366ZM114.074 178.366C114.074 177.499 114.155 176.657 114.319 175.841C114.482 175.024 114.791 174.276 115.243 173.598C115.683 172.932 116.255 172.398 116.96 171.996C117.664 171.594 118.526 171.393 119.545 171.393C120.564 171.393 121.425 171.594 122.129 171.996C122.846 172.398 123.424 172.932 123.865 173.598C124.305 174.276 124.613 175.024 124.79 175.841C124.965 176.657 125.054 177.499 125.054 178.366C125.054 179.233 124.965 180.075 124.79 180.891C124.613 181.696 124.305 182.437 123.865 183.115C123.424 183.781 122.846 184.315 122.129 184.717C121.425 185.119 120.564 185.32 119.545 185.32C118.526 185.32 117.664 185.119 116.96 184.717C116.255 184.315 115.683 183.781 115.243 183.115C114.791 182.437 114.482 181.696 114.319 180.891C114.155 180.075 114.074 179.233 114.074 178.366ZM116.677 178.366C116.677 179.158 116.74 179.861 116.866 180.477C117.004 181.08 117.217 181.583 117.507 181.985C117.734 182.299 118.01 182.55 118.337 182.738C118.664 182.927 119.066 183.021 119.545 183.021C120.035 183.021 120.443 182.927 120.771 182.738C121.098 182.55 121.375 182.299 121.601 181.985C121.89 181.583 122.104 181.08 122.243 180.477C122.381 179.861 122.45 179.158 122.45 178.366C122.45 177.574 122.381 176.877 122.243 176.274C122.104 175.658 121.89 175.149 121.601 174.747C121.375 174.433 121.098 174.182 120.771 173.994C120.443 173.805 120.035 173.711 119.545 173.711C119.066 173.711 118.664 173.805 118.337 173.994C118.01 174.182 117.734 174.433 117.507 174.747C117.217 175.149 117.004 175.658 116.866 176.274C116.74 176.877 116.677 177.574 116.677 178.366Z" fill="black"/>
<path d="M110.623 191.034H87.4693C86.0483 191.034 84.8967 192.185 84.8967 193.604C84.8967 195.024 86.0483 196.174 87.4693 196.174H110.623C112.044 196.174 113.196 195.024 113.196 193.604C113.196 192.185 112.044 191.034 110.623 191.034Z" fill="#DFEAEE"/>
<path d="M154.358 164.906V197.459" stroke="#DFEAEE"/>
<path d="M183.648 176.632C183.622 176.532 183.603 176.406 183.591 176.255C183.578 176.104 183.572 175.954 183.572 175.803C183.572 175.225 183.679 174.672 183.893 174.144C184.107 173.604 184.414 173.133 184.817 172.731C185.233 172.329 185.735 172.009 186.327 171.77C186.918 171.519 187.597 171.393 188.364 171.393C189.106 171.393 189.766 171.506 190.345 171.732C190.936 171.958 191.433 172.266 191.836 172.656C192.251 173.032 192.564 173.479 192.779 173.994C192.992 174.508 193.1 175.049 193.1 175.614C193.1 176.494 192.873 177.286 192.42 177.989C191.968 178.68 191.338 179.271 190.534 179.761L187.93 181.363C187.64 181.551 187.383 181.752 187.157 181.966C186.93 182.179 186.767 182.443 186.666 182.757H193.175V185.038H183.459C183.459 184.459 183.516 183.913 183.629 183.398C183.742 182.87 183.918 182.38 184.157 181.928C184.408 181.463 184.735 181.029 185.138 180.628C185.54 180.213 186.037 179.823 186.629 179.459L188.817 178.102C189.395 177.738 189.81 177.361 190.062 176.971C190.326 176.582 190.458 176.148 190.458 175.671C190.458 175.407 190.414 175.156 190.326 174.917C190.238 174.678 190.106 174.471 189.93 174.295C189.753 174.107 189.527 173.962 189.251 173.862C188.987 173.749 188.672 173.692 188.308 173.692C187.553 173.692 186.993 173.918 186.629 174.371C186.263 174.823 186.081 175.382 186.081 176.048C186.081 176.174 186.087 176.299 186.1 176.425C186.112 176.538 186.131 176.651 186.157 176.764L183.648 176.632ZM195.04 183.53C195.04 183.078 195.203 182.701 195.531 182.399C195.857 182.098 196.266 181.947 196.757 181.947C197.348 181.947 197.807 182.154 198.134 182.569C198.461 182.983 198.625 183.498 198.625 184.114C198.625 184.805 198.518 185.402 198.304 185.905C198.09 186.407 197.819 186.822 197.493 187.148C197.165 187.475 196.807 187.727 196.417 187.902C196.027 188.078 195.656 188.185 195.304 188.223V187.016C195.518 186.966 195.725 186.879 195.927 186.753C196.14 186.64 196.329 186.495 196.493 186.319C196.669 186.144 196.807 185.942 196.908 185.716C197.021 185.49 197.084 185.245 197.097 184.981C196.995 185.056 196.832 185.094 196.606 185.094C196.14 185.094 195.763 184.949 195.474 184.661C195.184 184.359 195.04 183.982 195.04 183.53ZM202.841 180.703C202.866 181.042 202.942 181.357 203.068 181.645C203.206 181.934 203.388 182.186 203.615 182.399C203.841 182.612 204.105 182.782 204.407 182.908C204.722 183.021 205.067 183.078 205.445 183.078C205.784 183.078 206.099 183.027 206.388 182.927C206.69 182.814 206.948 182.657 207.162 182.456C207.388 182.254 207.564 182.016 207.69 181.739C207.816 181.451 207.878 181.124 207.878 180.759C207.878 180.37 207.809 180.024 207.671 179.723C207.533 179.421 207.35 179.176 207.124 178.988C206.897 178.787 206.633 178.636 206.331 178.536C206.03 178.435 205.722 178.385 205.407 178.385C204.929 178.385 204.501 178.473 204.124 178.649C203.76 178.824 203.464 179.044 203.237 179.308C203.137 179.271 202.967 179.214 202.728 179.139C202.502 179.05 202.262 178.963 202.011 178.875C201.76 178.787 201.515 178.705 201.275 178.63C201.049 178.542 200.892 178.479 200.804 178.441L202.426 171.676H209.803V173.937H204.2L203.426 177.122C203.715 176.845 204.092 176.638 204.558 176.5C205.024 176.349 205.482 176.274 205.935 176.274C206.602 176.274 207.212 176.374 207.765 176.576C208.331 176.777 208.816 177.066 209.218 177.443C209.62 177.819 209.935 178.285 210.161 178.837C210.388 179.39 210.501 180.018 210.501 180.722C210.501 181.35 210.382 181.941 210.142 182.493C209.916 183.046 209.582 183.536 209.142 183.963C208.715 184.378 208.186 184.711 207.558 184.962C206.941 185.201 206.237 185.32 205.445 185.32C204.715 185.32 204.049 185.213 203.445 185C202.854 184.774 202.338 184.472 201.898 184.095C201.458 183.718 201.106 183.291 200.841 182.814C200.59 182.324 200.439 181.815 200.389 181.287L202.841 180.703ZM211.966 178.366C211.966 177.499 212.047 176.657 212.211 175.841C212.375 175.024 212.682 174.276 213.135 173.598C213.575 172.932 214.148 172.398 214.852 171.996C215.556 171.594 216.418 171.393 217.437 171.393C218.455 171.393 219.317 171.594 220.021 171.996C220.738 172.398 221.317 172.932 221.757 173.598C222.197 174.276 222.506 175.024 222.681 175.841C222.857 176.657 222.945 177.499 222.945 178.366C222.945 179.233 222.857 180.075 222.681 180.891C222.506 181.696 222.197 182.437 221.757 183.115C221.317 183.781 220.738 184.315 220.021 184.717C219.317 185.119 218.455 185.32 217.437 185.32C216.418 185.32 215.556 185.119 214.852 184.717C214.148 184.315 213.575 183.781 213.135 183.115C212.682 182.437 212.375 181.696 212.211 180.891C212.047 180.075 211.966 179.233 211.966 178.366ZM214.569 178.366C214.569 179.158 214.632 179.861 214.758 180.477C214.896 181.08 215.11 181.583 215.399 181.985C215.626 182.299 215.902 182.55 216.229 182.738C216.556 182.927 216.959 183.021 217.437 183.021C217.927 183.021 218.336 182.927 218.663 182.738C218.99 182.55 219.267 182.299 219.493 181.985C219.782 181.583 219.996 181.08 220.134 180.477C220.273 179.861 220.342 179.158 220.342 178.366C220.342 177.574 220.273 176.877 220.134 176.274C219.996 175.658 219.782 175.149 219.493 174.747C219.267 174.433 218.99 174.182 218.663 173.994C218.336 173.805 217.927 173.711 217.437 173.711C216.959 173.711 216.556 173.805 216.229 173.994C215.902 174.182 215.626 174.433 215.399 174.747C215.11 175.149 214.896 175.658 214.758 176.274C214.632 176.877 214.569 177.574 214.569 178.366ZM224.697 178.366C224.697 177.499 224.778 176.657 224.942 175.841C225.105 175.024 225.413 174.276 225.866 173.598C226.306 172.932 226.878 172.398 227.583 171.996C228.287 171.594 229.149 171.393 230.168 171.393C231.186 171.393 232.047 171.594 232.752 171.996C233.469 172.398 234.047 172.932 234.488 173.598C234.928 174.276 235.236 175.024 235.412 175.841C235.588 176.657 235.677 177.499 235.677 178.366C235.677 179.233 235.588 180.075 235.412 180.891C235.236 181.696 234.928 182.437 234.488 183.115C234.047 183.781 233.469 184.315 232.752 184.717C232.047 185.119 231.186 185.32 230.168 185.32C229.149 185.32 228.287 185.119 227.583 184.717C226.878 184.315 226.306 183.781 225.866 183.115C225.413 182.437 225.105 181.696 224.942 180.891C224.778 180.075 224.697 179.233 224.697 178.366ZM227.3 178.366C227.3 179.158 227.363 179.861 227.489 180.477C227.627 181.08 227.84 181.583 228.13 181.985C228.357 182.299 228.633 182.55 228.96 182.738C229.287 182.927 229.689 183.021 230.168 183.021C230.658 183.021 231.066 182.927 231.394 182.738C231.721 182.55 231.998 182.299 232.224 181.985C232.513 181.583 232.727 181.08 232.866 180.477C233.004 179.861 233.073 179.158 233.073 178.366C233.073 177.574 233.004 176.877 232.866 176.274C232.727 175.658 232.513 175.149 232.224 174.747C231.998 174.433 231.721 174.182 231.394 173.994C231.066 173.805 230.658 173.711 230.168 173.711C229.689 173.711 229.287 173.805 228.96 173.994C228.633 174.182 228.357 174.433 228.13 174.747C227.84 175.149 227.627 175.658 227.489 176.274C227.363 176.877 227.3 177.574 227.3 178.366Z" fill="black"/>
<path d="M221.246 191.034H198.092C196.671 191.034 195.52 192.185 195.52 193.604C195.52 195.024 196.671 196.174 198.092 196.174H221.246C222.667 196.174 223.818 195.024 223.818 193.604C223.818 192.185 222.667 191.034 221.246 191.034Z" fill="#DFEAEE"/>
</g>
<defs>
<filter id="filter0_d_1_950" x="8.5838" y="112.222" width="290.69" height="151.648" filterUnits="userSpaceOnUse" color-interpolation-filters="sRGB">
<feFlood flood-opacity="0" result="BackgroundImageFix"/>
<feColorMatrix in="SourceAlpha" type="matrix" values="0 0 0 0 0 0 0 0 0 0 0 0 0 0 0 0 0 0 127 0" result="hardAlpha"/>
<feOffset dy="18"/>
<feGaussianBlur stdDeviation="9"/>
<feColorMatrix type="matrix" values="0 0 0 0 0 0 0 0 0 0 0 0 0 0 0 0 0 0 0.04 0"/>
<feBlend mode="normal" in2="BackgroundImageFix" result="effect1_dropShadow_1_950"/>
<feBlend mode="normal" in="SourceGraphic" in2="effect1_dropShadow_1_950" result="shape"/>
</filter>
</defs>
</svg>
