<svg width="111" height="19" viewBox="0 0 111 19" fill="none" xmlns="http://www.w3.org/2000/svg">
<path d="M11.1327 17.0174C10.1043 17.853 9.09219 18.2787 8.09648 18.2787H5.20721V10.1273H7.57413C9.33704 10.1273 10.4797 10.9314 11.002 12.5396H11.1163V7.65192H11.002C10.496 9.02366 9.35336 9.71733 7.57413 9.71733H5.20721V2.24392H7.52515C8.70046 2.24392 9.7125 2.62233 10.5287 3.36335C11.3448 4.10441 12.0468 5.19229 12.667 6.6271L12.765 6.57978L12.5528 1.83398H0V1.94435C0.767204 2.19662 1.15897 3.31606 1.15897 5.30267V15.22C1.15897 17.2381 0.767204 18.3575 0 18.5783V18.6887H13.2384L13.7607 13.8956L13.6628 13.8482C13.0098 15.1096 12.161 16.1659 11.1327 17.0174Z" fill="black"/>
<path d="M27.3259 6.34375H23.2775V6.46986C23.6693 6.56445 23.9795 6.73788 24.2406 7.00596C24.5018 7.27398 24.6814 7.62085 24.7793 8.0623C24.8773 8.50381 24.812 9.02406 24.5835 9.62321L22.592 14.9208L20.1924 8.92947C19.621 7.51047 19.817 6.69062 20.8127 6.46986V6.35948H14.218V6.46986C14.773 6.54871 15.279 7.10054 15.7361 8.14115L20.3883 18.7049H21.6778L21.8248 18.2634L25.1711 9.30787C25.4649 8.56687 25.8077 7.93619 26.2159 7.40009C26.624 6.86405 26.9994 6.54871 27.3259 6.46986V6.34375Z" fill="black"/>
<path d="M35.4053 16.2608C34.1319 16.2608 33.0547 15.8509 32.2057 15.0152C31.357 14.1796 30.8836 13.0286 30.802 11.5466H38.2617C38.3107 11.4519 38.3272 11.1524 38.3272 10.6479C38.3272 9.35497 37.8701 8.28283 36.9559 7.43139C36.0417 6.58002 34.8338 6.1543 33.3157 6.1543C31.5528 6.1543 30.0838 6.73772 28.9084 7.92017C27.7332 9.10268 27.1455 10.6636 27.1455 12.5872C27.1455 14.4476 27.7332 15.977 28.9246 17.1437C30.1163 18.3105 31.5855 18.9096 33.3484 18.9096C34.7849 18.9096 35.9438 18.547 36.809 17.8217C37.6742 17.0965 38.2292 16.2608 38.4578 15.3148L38.3924 15.2675C37.6742 15.9297 36.6784 16.2608 35.4053 16.2608ZM30.7857 11.042C30.7857 9.71757 31.0305 8.6297 31.5365 7.79406C32.0263 6.95841 32.6303 6.54849 33.3322 6.54849C33.9688 6.54849 34.4584 6.8323 34.7849 7.39987C35.1113 7.96749 35.2747 8.77161 35.2747 9.81221C35.2747 10.3167 35.2419 10.7424 35.1603 11.0893H30.802V11.042H30.7857Z" fill="black"/>
<path d="M45.5099 17.7115C45.2976 17.2385 45.1997 16.4817 45.1997 15.4568V10.6322C45.1997 8.58249 45.2652 7.10043 45.412 6.20173L45.3466 6.13867C44.0083 6.5486 42.3433 6.78509 40.3516 6.83241L40.3026 6.92699C40.6945 7.11622 40.972 7.47882 41.1678 8.03066C41.3636 8.58249 41.4616 9.44966 41.4616 10.6322V15.4568C41.4616 16.5763 41.3802 17.3331 41.2168 17.7588C41.0537 18.1844 40.7435 18.4682 40.2864 18.6102V18.7048H46.6199V18.6102C46.0811 18.4682 45.7057 18.1687 45.5099 17.7115Z" fill="black"/>
<path d="M104.764 17.7115C104.552 17.2385 104.454 16.4817 104.454 15.4568V10.6322C104.454 8.58249 104.52 7.10043 104.667 6.20173L104.601 6.13867C103.263 6.5486 101.598 6.78509 99.6064 6.83241L99.557 6.92699C99.9487 7.11622 100.227 7.47882 100.422 8.03066C100.618 8.58249 100.716 9.44966 100.716 10.6322V15.4568C100.716 16.5763 100.635 17.3331 100.471 17.7588C100.308 18.1844 99.9981 18.4682 99.5406 18.6102V18.7048H105.874V18.6102C105.335 18.4682 104.96 18.1687 104.764 17.7115Z" fill="black"/>
<path d="M67.0405 17.7111C66.6981 17.2381 66.257 16.3078 65.6697 14.9204L60.364 1.83398H58.226L52.627 14.9835C52.2189 15.9768 51.7455 16.7809 51.2557 17.4273C50.7497 18.0737 50.2764 18.4522 49.8358 18.5783V18.6887H55.0101V18.5783C54.1941 18.4364 53.6064 18.0265 53.2637 17.3484C52.9045 16.6705 52.9372 15.7875 53.3289 14.7154L54.0797 12.9495H60.5602L61.3924 15.1096C62.1436 17.0804 61.9151 18.2471 60.6906 18.5783V18.6887H68.1182V18.5783C67.7429 18.4679 67.367 18.1684 67.0405 17.7111ZM54.2758 12.4608L57.4424 5.00311L60.364 12.4608H54.2758Z" fill="black"/>
<path d="M73.9131 4.7985C73.9131 3.19029 74.0441 2.08663 74.3213 1.48749C74.5991 0.888355 75.0072 0.588788 75.5458 0.588788C76.7374 0.588788 77.6184 1.9132 78.1575 4.57778L78.2556 4.59356L79.4143 1.39289C79.0226 1.03026 78.4676 0.746455 77.7658 0.509955C77.0475 0.273453 76.3128 0.163086 75.5458 0.163086C73.8479 0.163086 72.5259 0.541488 71.5792 1.28253C70.6324 2.03933 70.1591 3.20608 70.1591 4.7985V6.34365H69.2934V6.73784H70.1591V15.4411C70.1591 16.5605 70.0774 17.3173 69.9142 17.743C69.7509 18.1687 69.4572 18.4525 68.9997 18.5944V18.689H75.2844V18.5944C74.7946 18.4683 74.4358 18.1687 74.2232 17.6957C74.0112 17.2227 73.9131 16.4659 73.9131 15.4568V6.73784H76.8842V6.34365H73.9131V4.7985Z" fill="black"/>
<path d="M84.36 17.0969C82.9563 17.0969 82.2545 16.1666 82.2545 14.2904V6.73814H85.6168V6.344H82.2545V3.75823L82.14 3.71094C81.6666 4.1524 80.9812 4.67269 80.0839 5.25607C79.1859 5.83944 78.4189 6.24936 77.7816 6.50165V6.75387H78.6961V14.6531C78.6961 16.0405 79.039 17.0969 79.708 17.8221C80.3934 18.5475 81.3894 18.9101 82.7114 18.9101C83.6423 18.9101 84.4093 18.6578 85.0295 18.1691C85.6497 17.6803 86.0414 17.0811 86.1718 16.4031L86.1066 16.3559C85.7478 16.8446 85.1599 17.0969 84.36 17.0969Z" fill="black"/>
<path d="M94.6607 16.2608C93.3874 16.2608 92.3103 15.8509 91.4616 15.0152C90.6124 14.1796 90.1391 13.0286 90.0574 11.5466H97.5173C97.5667 11.4519 97.5825 11.1524 97.5825 10.6479C97.5825 9.35497 97.1256 8.28283 96.2112 7.43139C95.2973 6.58002 94.0892 6.1543 92.5716 6.1543C90.8086 6.1543 89.3391 6.73772 88.164 7.92017C86.9888 9.10268 86.4009 10.6636 86.4009 12.5872C86.4009 14.4476 86.9888 15.977 88.1804 17.1437C89.372 18.3105 90.8409 18.9096 92.604 18.9096C94.0405 18.9096 95.1992 18.547 96.0643 17.8217C96.93 17.0965 97.485 16.2608 97.7135 15.3148L97.6477 15.2675C96.913 15.9297 95.9175 16.2608 94.6607 16.2608ZM90.0251 11.042C90.0251 9.71757 90.27 8.6297 90.7757 7.79406C91.2655 6.95841 91.8692 6.54849 92.5716 6.54849C93.2077 6.54849 93.6975 6.8323 94.0241 7.39987C94.3506 7.96749 94.5139 8.77161 94.5139 9.81221C94.5139 10.3167 94.481 10.7424 94.3993 11.0893H90.041V11.042H90.0251Z" fill="black"/>
<path d="M51.7456 8.45618L49.8521 7.4471L48.8073 5.61816L47.7789 7.4471L45.8692 8.45618L47.7789 9.46525L48.8073 11.2942L49.8521 9.46525L51.7456 8.45618Z" fill="#793CFB"/>
<path d="M109.107 7.4471L108.062 5.61816L107.033 7.4471L105.123 8.45618L107.033 9.46525L108.062 11.2942L109.107 9.46525L111 8.45618L109.107 7.4471Z" fill="#793CFB"/>
</svg>
