<svg width="273" height="799" viewBox="0 0 273 799" fill="none" xmlns="http://www.w3.org/2000/svg">
<path d="M253.101 506.907C253.283 519.535 251.54 531.457 248.454 543.17C245.87 552.979 242.647 562.434 238.222 571.592C236.727 574.696 235.558 577.698 234.036 580.653C232.307 584.01 230.331 587.236 228.26 590.401C219.891 603.2 210.121 615.504 198.786 625.815C192.856 631.21 186.875 636.563 180.898 641.913C171.992 649.885 163.192 658.04 155.287 667.037C148.016 675.312 141.172 683.983 135.713 693.608C131.663 700.747 128.405 708.18 126.97 716.319C126.274 720.267 126.039 724.248 126.609 728.214C127.819 736.647 132.015 743.426 139.009 748.35C145.147 752.671 152.135 755.059 159.617 755.761C168.609 756.605 177.264 754.994 185.805 752.48C197.979 748.898 209.152 743.181 219.806 736.373C234.918 726.715 249.228 715.621 263.119 703.769C272.03 696.195 281.292 688.552 290.023 680.759C292.139 678.87 294.498 677.245 296.8 675.576C300.485 672.903 304.277 670.374 307.917 667.641C319.733 658.77 332.852 652.235 346.288 646.305C361.35 639.658 376.848 634.316 392.838 630.373C400.148 628.57 407.579 627.43 415.044 626.49C421.446 625.685 427.867 625.145 434.305 624.716C444.062 624.067 453.76 624.615 463.467 625.602C476.336 626.909 488.927 629.548 501.415 632.793C504.225 633.524 507.017 634.247 509.617 635.577C510.782 636.173 511.622 637.099 511.481 637.742C511.339 638.387 510.265 638.761 508.783 638.58C505.134 638.137 501.586 637.196 498.034 636.294C487.671 633.662 477.192 631.533 466.563 630.216C452.503 628.474 438.449 628.291 424.356 629.799C414.793 630.822 405.264 632.029 395.886 634.199C383.047 637.171 370.602 641.368 358.327 646.136C345.808 650.999 333.632 656.61 322.086 663.474C317.482 666.212 313.197 669.492 308.807 672.583C297.522 680.531 286.942 689.374 276.382 698.237C264.223 708.441 252.018 719.105 239.158 728.433C230.144 734.971 220.498 741.542 210.639 746.769C200.423 752.186 189.745 756.371 178.381 758.674C169.54 760.466 160.67 760.826 151.868 758.547C143.347 756.342 135.953 752.298 130.039 745.413C127.868 742.875 126.288 739.806 124.817 736.82C123.49 734.123 123.201 731.267 122.74 728.416C122.273 725.532 122.31 722.641 122.622 719.725C122.946 716.701 123.691 713.757 124.118 710.773C124.438 708.536 125.979 706.727 125.89 704.441C128.095 700.389 129.752 696.072 132.061 692.06C139.463 679.195 148.837 667.763 159.071 657.111C167.007 648.851 175.657 641.341 184.155 633.674C192.279 626.344 200.262 618.861 207.53 610.662C227.938 587.683 241.349 561.462 247.077 531.481C249.041 521.199 249.751 510.821 249.08 500.343C248.301 488.17 245.618 476.122 240.566 464.995C234.482 451.592 225.326 440.78 213.092 432.579C212.042 431.875 210.982 431.183 209.959 430.44C209.506 430.11 209.051 429.723 208.742 429.264C208.171 428.414 208.668 427.582 209.699 427.642C210.728 427.701 211.639 428.184 212.535 428.651C216.539 430.737 220.183 433.35 223.605 436.276C233.407 444.658 240.562 454.951 245.462 466.826C249.157 475.779 251.534 485.444 252.553 495.076C252.986 499.165 253.155 503.27 253.101 506.907Z" stroke="#0D0C0C" stroke-width="4"/>
<path d="M253.101 506.906C253.283 519.535 251.54 531.457 248.454 543.169C245.87 552.979 242.647 562.434 238.222 571.592C236.728 574.695 235.558 577.698 234.036 580.653C232.307 584.01 230.331 587.235 228.261 590.401C219.891 603.199 210.121 615.504 198.786 625.815C192.856 631.21 186.875 636.563 180.898 641.913C171.992 649.885 163.193 658.04 155.287 667.037C148.016 675.312 141.173 683.983 135.713 693.608C131.663 700.747 128.406 708.18 126.97 716.319C126.274 720.267 126.04 724.248 126.61 728.214C127.82 736.646 132.016 743.426 139.01 748.35C145.148 752.671 152.136 755.059 159.618 755.761C168.61 756.606 177.265 754.994 185.805 752.481C197.979 748.899 209.153 743.182 219.807 736.373C234.919 726.715 249.228 715.621 263.12 703.77C272.03 696.195 281.292 688.553 290.023 680.759C292.139 678.87 294.498 677.246 296.8 675.576C300.485 672.903 304.278 670.374 307.917 667.641C319.733 658.77 332.852 652.236 346.288 646.306C361.351 639.658 376.848 634.316 392.838 630.373C400.148 628.571 407.579 627.43 415.044 626.49C421.446 625.685 427.867 625.145 434.305 624.717C444.062 624.068 453.76 624.616 463.467 625.602C476.336 626.91 488.927 629.548 501.415 632.794C504.225 633.524 507.016 634.248 509.617 635.578C510.781 636.173 511.622 637.1 511.481 637.742C511.339 638.387 510.264 638.761 508.783 638.581C505.134 638.138 501.586 637.196 498.034 636.294C487.671 633.663 477.192 631.534 466.563 630.216C452.503 628.474 438.449 628.291 424.356 629.799C414.793 630.822 405.264 632.029 395.886 634.2C383.047 637.171 370.602 641.369 358.327 646.137C345.808 650.999 333.632 656.61 322.086 663.475C317.482 666.212 313.197 669.493 308.808 672.584C297.522 680.531 286.942 689.374 276.382 698.237C264.223 708.441 252.019 719.105 239.159 728.433C230.145 734.971 220.498 741.543 210.64 746.769C200.423 752.186 189.746 756.371 178.382 758.674C169.541 760.466 160.67 760.826 151.869 758.548C143.347 756.342 135.954 752.298 130.04 745.413C127.869 742.875 126.288 739.806 124.818 736.82C123.491 734.123 123.201 731.267 122.74 728.416C122.274 725.531 122.31 722.64 122.623 719.725C122.947 716.701 123.691 713.757 124.119 710.773C124.439 708.536 125.98 706.727 125.89 704.441C128.096 700.389 129.753 696.072 132.061 692.06C139.464 679.195 148.837 667.763 159.071 657.111C167.008 648.85 175.657 641.341 184.156 633.673C192.28 626.344 200.262 618.861 207.53 610.662C227.938 587.683 241.349 561.462 247.077 531.481C249.041 521.199 249.75 510.82 249.08 500.343C248.301 488.169 245.618 476.121 240.566 464.994C234.482 451.592 225.326 440.779 213.092 432.578C212.041 431.874 210.982 431.182 209.959 430.439C209.505 430.109 209.051 429.722 208.742 429.263C208.171 428.414 208.667 427.581 209.699 427.641C210.728 427.701 211.638 428.183 212.535 428.651C216.538 430.737 220.183 433.349 223.605 436.275C233.407 444.657 240.562 454.951 245.462 466.825C249.157 475.778 251.534 485.444 252.553 495.076C252.985 499.165 253.155 503.27 253.101 506.906Z" fill="#0D0C0C"/>
<path d="M134.609 326.792C133.686 328.323 132.33 330.349 131.662 331.899C128.793 338.554 127.885 348.151 128.973 355.322C129.192 356.766 129.672 358.146 130.288 359.466C132.135 363.422 134.157 367.23 136.902 370.66C139.011 373.318 141.343 375.861 143.733 378.008C144.202 378.43 144.738 378.786 145.164 379.246C145.989 380.138 146.062 381.215 145.426 381.996C144.791 382.778 143.701 382.952 142.7 382.191C137.713 378.405 133.197 374.155 130.231 368.258C129.069 365.949 127.516 363.651 126.455 361.284C124.811 357.6 124.092 353.877 124.182 349.891C124.3 344.669 125.31 336.949 127.025 332.005C127.913 329.447 130.056 326.934 131.686 324.943C132.965 323.455 133.563 323.334 134.269 324.107C134.974 324.88 135.424 325.488 134.609 326.792Z" stroke="#0D0C0C" stroke-width="2"/>
<path d="M134.609 326.792C133.686 328.323 132.33 330.349 131.662 331.899C128.793 338.554 127.885 348.151 128.973 355.322C129.192 356.766 129.672 358.146 130.288 359.466C132.135 363.422 134.157 367.23 136.902 370.66C139.011 373.318 141.343 375.861 143.733 378.008C144.202 378.43 144.738 378.786 145.164 379.246C145.989 380.138 146.062 381.215 145.426 381.996C144.791 382.778 143.701 382.952 142.7 382.191C137.713 378.405 133.197 374.155 130.231 368.258C129.069 365.949 127.516 363.651 126.455 361.284C124.811 357.6 124.092 353.877 124.182 349.891C124.3 344.669 125.31 336.949 127.025 332.005C127.913 329.447 130.056 326.934 131.686 324.943C132.965 323.455 133.563 323.334 134.269 324.107C134.974 324.88 135.424 325.488 134.609 326.792Z" fill="#0D0C0C"/>
<path d="M183.979 284.861C185.461 282.307 186.041 279.401 186.023 276.548C185.989 273.47 184.758 270.664 183.052 268.05C180.373 263.946 172.487 257.927 168.289 255.462C163.355 252.565 158.079 250.436 152.548 249.03C148.421 247.982 144.171 247.805 139.925 248.113C134.188 248.53 128.612 248.89 122.884 249.408C119.172 249.744 115.474 250.244 111.768 250.656C107.56 251.124 103.335 251.464 99.1475 252.066C94.9569 252.668 90.7538 253.147 86.5591 253.702C78.4895 254.77 70.6727 254.094 62.8357 251.882C58.7583 250.731 55.2332 248.557 51.9005 245.995C45.4356 241.025 40.5163 235.054 37.7009 227.358C36.9882 225.41 36.0094 223.557 35.1041 221.684C34.3819 220.19 34.0354 218.587 33.6174 217.003C33.5534 216.761 33.5317 216.503 33.5226 216.252C33.4948 215.478 33.4708 214.686 34.4055 214.378C35.1539 214.131 35.8297 214.55 36.2158 215.626C36.6837 216.93 36.9597 218.307 37.4687 219.593C39.4427 224.579 41.5545 229.453 44.5629 233.917C47.1248 237.718 50.6277 240.578 54.2 243.446C59.4177 247.635 65.5247 249.115 71.9375 249.841C77.5728 250.479 83.0234 250.145 88.6249 249.433C95.7667 248.526 102.903 247.563 110.079 246.907C116.559 246.315 122.848 245.468 129.342 244.976C132.81 244.713 136.272 244.334 139.744 244.163C146.504 243.829 153.135 244.465 159.437 247.187C160.35 247.581 161.293 247.906 162.415 248.338C162.392 247.613 162.076 247.225 161.821 246.848C159.991 244.14 158.998 241.138 158.731 237.903C158.669 237.138 158.325 236.992 157.685 236.887C156.145 236.633 155.275 235.594 154.817 234.179C154.54 233.324 154.679 232.533 155.477 231.999C156.149 231.55 156.888 231.752 157.613 232.588C159.192 234.409 161.358 234.012 163.381 234.119C163.783 234.141 164.022 233.777 164.093 233.357C164.162 232.956 164.444 232.671 164.755 232.475C165.19 232.2 165.692 232.042 166.177 232.381C166.577 232.659 166.671 233.082 166.652 233.55C166.586 235.245 165.314 236.768 163.581 237.23C163.173 237.338 162.64 237.124 162.377 237.599C162.117 238.069 162.21 238.596 162.358 239.078C163.423 242.541 164.781 245.834 167.18 248.656C169.329 251.184 171.837 253.248 174.477 255.226C179.017 258.628 186.89 265.636 188.782 271.099C189.647 273.599 190.168 275.944 189.796 278.504C189.616 279.814 189.482 281.103 189.182 282.393C188.767 284.172 188.097 285.736 186.471 286.999C185.114 288.091 182.989 286.625 183.979 284.861Z" stroke="#0D0C0C" stroke-width="2"/>
<path d="M183.979 284.861C185.461 282.307 186.041 279.401 186.023 276.548C185.989 273.47 184.758 270.664 183.052 268.05C180.373 263.946 172.487 257.927 168.289 255.462C163.355 252.565 158.079 250.436 152.548 249.03C148.421 247.982 144.171 247.805 139.925 248.113C134.188 248.53 128.612 248.89 122.884 249.408C119.172 249.744 115.474 250.244 111.768 250.656C107.56 251.124 103.335 251.464 99.1475 252.066C94.9569 252.668 90.7538 253.147 86.5591 253.702C78.4895 254.77 70.6727 254.094 62.8357 251.882C58.7583 250.731 55.2332 248.557 51.9005 245.995C45.4356 241.025 40.5163 235.054 37.7009 227.358C36.9882 225.41 36.0094 223.557 35.1041 221.684C34.3819 220.19 34.0354 218.587 33.6174 217.003C33.5534 216.761 33.5317 216.503 33.5226 216.252C33.4948 215.478 33.4708 214.686 34.4055 214.378C35.1539 214.131 35.8297 214.55 36.2158 215.626C36.6837 216.93 36.9597 218.307 37.4687 219.593C39.4427 224.579 41.5545 229.453 44.5629 233.917C47.1248 237.718 50.6277 240.578 54.2 243.446C59.4177 247.635 65.5247 249.115 71.9375 249.841C77.5728 250.479 83.0234 250.145 88.6249 249.433C95.7667 248.526 102.903 247.563 110.079 246.907C116.559 246.315 122.848 245.468 129.342 244.976C132.81 244.713 136.272 244.334 139.744 244.163C146.504 243.829 153.135 244.465 159.437 247.187C160.35 247.581 161.293 247.906 162.415 248.338C162.392 247.613 162.076 247.225 161.821 246.848C159.991 244.14 158.998 241.138 158.731 237.903C158.669 237.138 158.325 236.992 157.685 236.887C156.145 236.633 155.275 235.594 154.817 234.179C154.54 233.324 154.679 232.533 155.477 231.999C156.149 231.55 156.888 231.752 157.613 232.588C159.192 234.409 161.358 234.012 163.381 234.119C163.783 234.141 164.022 233.777 164.093 233.357C164.162 232.956 164.444 232.671 164.755 232.475C165.19 232.2 165.692 232.042 166.177 232.381C166.577 232.659 166.671 233.082 166.652 233.55C166.586 235.245 165.314 236.768 163.581 237.23C163.173 237.338 162.64 237.124 162.377 237.599C162.117 238.069 162.21 238.596 162.358 239.078C163.423 242.541 164.781 245.834 167.18 248.656C169.329 251.184 171.837 253.248 174.477 255.226C179.017 258.628 186.89 265.636 188.782 271.099C189.647 273.599 190.168 275.944 189.796 278.504C189.616 279.814 189.482 281.103 189.182 282.393C188.767 284.172 188.097 285.736 186.471 286.999C185.114 288.091 182.989 286.625 183.979 284.861Z" fill="#0D0C0C"/>
<path d="M31.6202 213.38C31.4938 213.38 31.3677 213.38 31.2413 213.38C27.6596 213.384 25.724 210.854 26.6324 207.372C26.731 206.994 26.8723 206.652 27.1475 206.382C27.4654 206.07 27.8313 205.769 28.3057 205.884C28.8402 206.014 29.1448 206.414 29.2411 206.958C29.2628 207.081 29.2567 207.21 29.2731 207.334C29.6644 210.347 29.6979 210.347 32.653 210.046C34.2208 209.887 35.8019 209.867 37.3735 209.739C38.8907 209.615 38.8926 209.59 38.99 208.083C39.035 207.39 39.0612 206.687 39.3517 206.047C39.6582 205.372 40.1706 204.884 40.9637 204.965C41.7906 205.05 42.1275 205.691 42.2078 206.418C42.3327 207.546 42.3944 208.695 42.1583 209.81C41.7978 211.516 40.5178 212.284 38.9512 212.621C36.5386 213.142 34.0613 213.099 31.6202 213.38Z" fill="#0D0C0C"/>
<path d="M142.757 400.196C140.418 400.724 139.117 400.532 133.644 403.107C128.171 405.682 100.473 417.617 95.2565 425.619C90.0405 433.621 87.4181 438.684 93.0613 449.342C98.7045 459.999 121.871 503.215 123.816 504.882C125.761 506.549 127.021 505.352 130.385 503.15C133.749 500.949 137.194 498.951 139.445 497.612C141.695 496.273 140.762 493.866 139.713 491.529C138.664 489.192 125.513 453.468 123.186 445.401C133.439 439.289 152.486 431.986 157.987 429.676C163.488 427.367 167.923 421.421 167.968 415.681C168.023 408.566 158.527 396.637 142.757 400.196Z" fill="#FDD534"/>
<path d="M135.777 499.442C135.769 499.267 135.788 499.084 135.749 498.913C135.545 497.993 135.65 497.167 136.547 496.659C137.421 496.162 138.21 496.385 138.901 497.072C138.989 497.155 139.107 497.204 139.21 497.273C141.478 501.692 143.766 506.1 145.997 510.534C146.701 511.933 147.443 513.335 147.717 514.909C147.833 515.567 148.196 516.365 147.364 516.759C146.58 517.13 146.11 516.401 145.626 515.942C144.794 515.16 144.163 514.211 143.605 513.226C141.341 509.229 139.108 505.217 136.859 501.212C136.519 500.612 136.14 500.031 135.777 499.442ZM127.933 512.721C127.109 511.761 124.401 508.316 123.556 507.059C122.96 506.167 122.725 505.037 123.267 504.199C123.806 503.36 125.637 503.283 126.344 504.476C127.048 505.673 129.268 508.963 129.715 509.734C130.166 510.509 130.275 511.144 130.624 512.216C130.973 513.288 129.621 514.688 127.933 512.721ZM131.98 512.608C132.7 512.907 133.314 513.393 133.792 514.13C134.381 515.034 134.813 516.018 135.178 517.026C135.385 517.603 135.363 518.17 134.816 518.56C134.291 518.926 133.713 518.863 133.209 518.529C132.847 518.291 132.507 517.976 132.251 517.626C131.407 516.479 131.252 516.685 130.05 517.35C127.45 518.787 127.446 518.924 129.424 521.118C129.763 521.494 130.115 521.863 130.416 522.265C131.455 523.663 131.438 524.446 130.437 525.861C126.855 530.907 123.266 535.946 119.727 541.022C119.302 541.632 118.245 542.335 118.906 543.091C119.616 543.903 120.36 542.874 121.006 542.496C124.918 540.207 128.883 538.013 132.963 536.04C133.416 535.822 133.838 535.531 134.244 535.234C137.604 532.779 141.284 530.81 144.644 528.329C146.107 527.252 147.658 526.309 148.972 525.027C149.564 524.447 149.7 523.937 149.211 523.215C148.825 522.642 148.564 521.988 148.266 521.361C147.983 520.768 147.913 520.14 148.113 519.512C148.423 518.534 149.716 518.158 150.152 519.009C151.124 520.912 152.64 522.724 151.637 525.169C151.368 525.82 151.172 526.41 150.61 526.899C147.126 529.921 143.715 533.041 139.834 535.555C133.471 539.676 126.952 543.542 120.137 546.888C118.807 547.542 117.379 547.786 115.918 547.797C114.178 547.809 113.353 546.749 113.836 545.074C114.221 543.738 114.857 542.499 115.585 541.303C118.524 536.502 121.936 532.026 125.107 527.384C125.642 526.603 126.081 525.746 126.673 525.014C127.292 524.255 127.119 523.673 126.554 523.02C125.768 522.113 125.019 521.175 124.27 520.237C123.178 518.866 123.252 517.957 124.658 516.873C126.106 515.758 127.701 514.164 129.206 513.186C130.715 512.208 131.26 512.31 131.98 512.608Z" stroke="black" stroke-width="3"/>
<path d="M135.778 499.442C135.77 499.266 135.787 499.084 135.75 498.914C135.544 497.991 135.65 497.165 136.547 496.658C137.423 496.163 138.212 496.386 138.903 497.072C138.988 497.156 139.108 497.205 139.212 497.271C141.478 501.69 143.765 506.098 145.997 510.534C146.7 511.933 147.443 513.336 147.717 514.908C147.831 515.565 148.196 516.367 147.364 516.76C146.579 517.131 146.111 516.402 145.625 515.943C144.795 515.158 144.161 514.209 143.604 513.226C141.34 509.23 139.109 505.216 136.858 501.213C136.519 500.611 136.139 500.032 135.778 499.442Z" fill="#0D0C0C"/>
<path d="M127.932 512.72C127.108 511.761 124.4 508.318 123.557 507.058C122.959 506.165 122.727 505.036 123.266 504.198C123.805 503.359 125.638 503.283 126.343 504.478C127.047 505.672 129.266 508.964 129.716 509.735C130.166 510.507 130.276 511.146 130.624 512.217C130.972 513.289 129.623 514.689 127.932 512.72Z" fill="#0D0C0C"/>
<path d="M131.978 512.608C132.699 512.907 133.315 513.392 133.793 514.129C134.38 515.032 134.812 516.016 135.176 517.026C135.383 517.602 135.365 518.17 134.815 518.558C134.293 518.927 133.713 518.862 133.211 518.53C132.848 518.291 132.508 517.976 132.251 517.626C131.408 516.478 131.25 516.684 130.05 517.349C127.449 518.789 127.445 518.924 129.424 521.119C129.763 521.494 130.115 521.861 130.416 522.265C131.454 523.663 131.44 524.446 130.436 525.861C126.855 530.908 123.265 535.947 119.725 541.022C119.3 541.631 118.245 542.334 118.906 543.091C119.616 543.904 120.36 542.875 121.006 542.497C124.919 540.208 128.882 538.013 132.965 536.038C133.416 535.82 133.839 535.531 134.244 535.235C137.605 532.778 141.286 530.809 144.645 528.329C146.105 527.251 147.658 526.309 148.972 525.027C149.565 524.449 149.701 523.936 149.212 523.213C148.826 522.643 148.564 521.986 148.265 521.359C147.984 520.768 147.913 520.141 148.111 519.514C148.421 518.533 149.716 518.158 150.151 519.008C151.124 520.91 152.641 522.725 151.636 525.169C151.368 525.821 151.171 526.41 150.608 526.898C147.125 529.919 143.713 533.043 139.834 535.555C133.47 539.676 126.953 543.544 120.138 546.89C118.808 547.543 117.379 547.784 115.918 547.796C114.178 547.81 113.351 546.75 113.834 545.074C114.22 543.737 114.856 542.497 115.586 541.304C118.524 536.502 121.936 532.025 125.106 527.383C125.64 526.601 126.08 525.746 126.673 525.015C127.291 524.254 127.119 523.675 126.552 523.019C125.768 522.112 125.018 521.174 124.271 520.236C123.179 518.866 123.251 517.956 124.659 516.871C126.104 515.757 127.7 514.165 129.207 513.185C130.713 512.206 131.258 512.308 131.978 512.608Z" fill="#0D0C0C"/>
<path d="M179.232 441.762C170.132 446.975 151.499 453.276 130.66 463.671C109.821 474.066 92.6426 514.264 88.576 519.224C84.5094 524.183 83.6059 524.865 79.8791 522.358C76.1523 519.851 70.148 516.121 67.4361 513.492C64.7242 510.862 64.2002 510.73 67.6986 504.263C71.499 497.238 86.3224 472.407 99.194 455.362C107.719 444.073 121.398 427.999 147.034 416.888C168.454 407.604 177.847 408.608 185.378 415.571C192.91 422.535 192.752 434.016 179.232 441.762Z" fill="#FDD534"/>
<path d="M95.5598 457.743C98.1998 454.606 100.82 451.455 103.492 448.343C105.671 445.805 107.906 443.309 110.129 440.806C110.505 440.384 110.899 439.95 111.365 439.645C115.502 436.936 119.096 433.546 123.006 430.549C128.374 426.439 134.01 422.702 139.494 418.753C139.647 418.641 139.793 418.515 139.963 418.433C140.624 418.116 141.337 417.93 141.884 418.547C142.496 419.239 142.228 420.002 141.695 420.604C141.287 421.07 140.76 421.451 140.243 421.805C137.528 423.654 134.817 425.506 132.069 427.308C127.411 430.363 122.991 433.713 118.931 437.538C118.656 437.794 118.378 438.062 118.066 438.27C113.277 441.501 109.855 446.082 106.105 450.334C105.2 451.362 104.299 452.394 103.409 453.432C102.516 454.475 101.632 455.525 100.767 456.592C99.8981 457.656 99.0454 458.735 98.2164 459.827C97.8021 460.377 94.0932 465.466 93.8649 465.936L93.8757 465.924C90.6202 470.087 87.7698 474.528 84.7887 478.886C82.444 482.314 77.475 491.321 77.3872 491.452C77.3872 491.452 74.6313 496.01 73.2088 498.31C71.4516 501.152 69.6668 503.977 67.9015 506.811C67.6714 507.183 66.1368 509.852 65.8937 510.197C65.4993 510.761 64.4055 511.034 63.8281 510.744C63.1917 510.422 62.9256 509.843 63.1452 509.159C63.3125 508.624 63.5725 508.109 63.8611 507.628C65.5514 504.816 67.2419 502.009 68.9601 499.219C71.7728 494.654 74.1159 489.816 77.075 485.342C82.3661 477.352 87.2212 469.076 93.0119 461.416C93.9078 460.228 95.1129 459.244 95.5598 457.743ZM103.355 495.254C101.851 494.834 101.746 494.676 102.182 493.378C102.592 492.169 103.285 491.1 103.996 490.064C107.525 484.905 111.099 479.782 114.66 474.648C114.91 474.283 115.171 473.921 115.469 473.595C115.999 473.012 116.623 472.584 117.468 472.832C118.299 473.077 118.684 473.676 118.714 474.528C118.725 474.779 118.96 475.677 114.437 482.501C114.016 483.33 108.813 489.42 106.91 491.66C105.814 492.951 104.477 495.01 103.355 495.254Z" stroke="black" stroke-width="3"/>
<path d="M95.5583 457.742C98.2002 454.607 100.821 451.455 103.49 448.344C105.671 445.804 107.904 443.309 110.127 440.806C110.503 440.384 110.898 439.949 111.365 439.643C115.499 436.936 119.096 433.544 123.005 430.55C128.372 426.438 134.009 422.704 139.492 418.753C139.645 418.643 139.791 418.513 139.96 418.433C140.62 418.118 141.334 417.929 141.882 418.548C142.494 419.241 142.226 420.003 141.694 420.606C141.283 421.071 140.759 421.452 140.24 421.805C137.525 423.653 134.814 425.506 132.068 427.308C127.41 430.363 122.989 433.715 118.93 437.536C118.654 437.796 118.376 438.06 118.064 438.271C113.275 441.5 109.856 446.08 106.103 450.336C105.199 451.362 104.299 452.392 103.41 453.431C102.516 454.474 101.633 455.526 100.765 456.591C99.8976 457.655 99.0464 458.733 98.2169 459.828C97.8017 460.375 94.0945 465.465 93.8659 465.934L93.8745 465.925C90.6219 470.088 87.769 474.528 84.7903 478.884C82.4457 482.312 77.4749 491.322 77.3895 491.453C77.3891 491.453 74.6333 496.01 73.2106 498.312C71.4543 501.153 69.67 503.977 67.9026 506.812C67.672 507.181 66.1386 509.85 65.8957 510.198C65.5032 510.761 64.4083 511.036 63.8305 510.744C63.1925 510.422 62.9293 509.841 63.146 509.159C63.3156 508.625 63.5751 508.109 63.8648 507.626C65.5515 504.815 67.2427 502.007 68.9627 499.217C71.775 494.655 74.1163 489.817 77.0775 485.343C82.3663 477.353 87.2213 469.074 93.0106 461.415C93.9083 460.228 95.1131 459.245 95.5583 457.742Z" fill="#0D0C0C"/>
<path d="M103.355 495.251C101.85 494.833 101.745 494.675 102.183 493.377C102.592 492.168 103.285 491.097 103.994 490.061C107.524 484.905 111.097 479.779 114.659 474.646C114.91 474.283 115.171 473.922 115.467 473.596C115.998 473.011 116.621 472.584 117.467 472.832C118.299 473.076 118.683 473.675 118.714 474.528C118.723 474.777 118.959 475.677 114.437 482.501C114.013 483.328 108.811 489.417 106.91 491.659C105.815 492.949 104.477 495.007 103.355 495.251Z" fill="#0D0C0C"/>
<path d="M32.0535 505.447C32.8331 507.224 33.8063 508.306 34.7289 509.411C42.0697 518.197 50.0509 526.377 58.3363 534.268C59.4338 535.314 60.5163 536.377 61.555 537.481C62.2339 538.203 62.7705 538.263 63.6438 537.669C66.3162 535.849 68.5555 533.495 71.22 531.675C71.9498 531.177 72.641 530.611 73.4118 530.188C74.467 529.608 75.4607 529.822 75.927 530.611C76.3614 531.346 76.1609 532.177 75.2374 532.901C71.7112 535.668 68.1807 538.429 64.6101 541.138C63.1875 542.218 62.1449 542.177 60.8766 540.972C50.7124 531.308 40.542 521.647 31.9334 510.507C31.0445 509.358 30.23 508.151 29.6195 506.824C29.4357 506.424 29.2474 506.016 29.1447 505.591C28.6699 503.626 29.5878 502.495 31.5943 502.58C32.7443 502.629 33.824 503.018 34.8914 503.408C38.4723 504.714 41.7685 506.59 45.002 508.572C48.8796 510.949 52.735 513.361 56.5682 515.809C57.6279 516.486 58.5794 517.334 59.5699 518.117C60.5901 518.923 60.5813 518.928 61.4609 517.888C61.8682 517.406 62.2482 516.89 62.712 516.469C63.734 515.541 64.5059 515.496 65.5095 516.47C66.0068 516.952 66.333 517.087 66.9602 516.788C67.4951 516.532 68.1045 516.597 68.4835 517.151C68.85 517.687 68.7822 518.336 68.361 518.732C67.4825 519.557 67.8192 520.276 68.3525 521.054C68.495 521.261 68.6188 521.485 68.7205 521.716C69.0044 522.359 68.9648 522.992 68.3807 523.419C67.7934 523.85 67.1623 523.687 66.6524 523.219C65.8521 522.486 65.3098 521.55 64.7407 520.639C64.3482 520.012 64.0073 519.959 63.4242 520.52C62.0691 521.824 61.1892 521.949 59.5385 521.054C58.3203 520.394 57.191 519.572 56.0053 518.849C49.9636 515.167 44.0343 511.297 37.8249 507.894C36.1233 506.962 34.3834 506.094 32.0535 505.447Z" stroke="#0D0C0C" stroke-width="3"/>
<path d="M32.0535 505.447C32.8331 507.224 33.8063 508.306 34.7289 509.411C42.0697 518.197 50.0509 526.377 58.3363 534.268C59.4338 535.314 60.5163 536.377 61.555 537.481C62.2339 538.203 62.7705 538.264 63.6438 537.669C66.3162 535.849 68.5555 533.495 71.22 531.675C71.9498 531.177 72.641 530.611 73.4118 530.188C74.467 529.608 75.4607 529.822 75.927 530.611C76.3614 531.346 76.1609 532.177 75.2374 532.901C71.7112 535.668 68.1807 538.429 64.6101 541.138C63.1875 542.218 62.1449 542.177 60.8766 540.972C50.7124 531.308 40.542 521.647 31.9334 510.507C31.0445 509.358 30.23 508.151 29.6195 506.824C29.4357 506.424 29.2474 506.016 29.1447 505.591C28.6699 503.626 29.5878 502.495 31.5943 502.58C32.7443 502.629 33.824 503.018 34.8914 503.408C38.4723 504.714 41.7685 506.59 45.002 508.572C48.8796 510.949 52.7349 513.361 56.5682 515.809C57.6279 516.486 58.5794 517.334 59.5699 518.117C60.5901 518.923 60.5813 518.928 61.4609 517.888C61.8682 517.406 62.2482 516.89 62.712 516.469C63.734 515.541 64.5059 515.496 65.5095 516.47C66.0068 516.952 66.333 517.087 66.9602 516.788C67.4951 516.532 68.1045 516.597 68.4835 517.151C68.85 517.687 68.7822 518.336 68.361 518.732C67.4825 519.557 67.8192 520.276 68.3525 521.054C68.495 521.261 68.6188 521.485 68.7205 521.716C69.0044 522.359 68.9648 522.992 68.3807 523.419C67.7934 523.85 67.1623 523.687 66.6524 523.219C65.8521 522.486 65.3098 521.55 64.7407 520.639C64.3482 520.012 64.0073 519.959 63.4242 520.52C62.0691 521.824 61.1892 521.949 59.5385 521.054C58.3203 520.394 57.191 519.572 56.0053 518.849C49.9636 515.167 44.0343 511.297 37.8249 507.894C36.1233 506.962 34.3834 506.094 32.0535 505.447Z" fill="#0D0C0C"/>
<path d="M142.506 391.302L143.696 403.107L156.373 402.14C156.373 402.14 152.086 411.586 153.131 414.224C154.172 416.86 188.588 438.246 190.623 437.794C192.659 437.337 193.913 421.033 200.654 411.919C207.399 402.806 237.979 375.833 242.213 357.35C246.451 338.864 188.022 356.342 180.351 364.699C172.679 373.059 170.28 375.281 166.575 376.045C162.865 376.809 165.291 379.367 163.359 381.025C161.426 382.688 142.282 389.079 142.506 391.302ZM180.16 365.495C179.217 367.366 176.61 370.975 174.234 373.233C173.343 374.077 173.118 374.916 173.263 376.08C173.572 378.54 172.585 379.395 170.209 378.844C169.532 378.684 168.873 378.45 168.213 378.238C167.615 378.047 167.023 377.842 166.367 377.623C165.813 378.541 166.121 379.522 165.955 380.424C165.757 381.463 165.473 382.388 164.345 382.789C158.973 384.71 154.123 387.781 148.833 389.881C147.601 390.372 146.398 390.949 145.139 391.365C143.698 391.843 143.686 391.766 143.92 393.328C144.314 395.938 144.742 398.551 144.822 401.2C144.849 401.967 145.236 401.996 145.813 401.882C147.913 401.467 150.017 401.063 152.117 400.654C152.755 400.421 153.207 400.246 153.814 400.785C154.071 401.054 154.325 401.319 154.607 401.609C155.163 401.398 155.153 400.698 155.571 400.321C156.474 399.513 157.451 399.812 157.896 400.928C158.347 402.049 158.072 402.932 157.655 404.055C156.373 406.677 155.78 409.533 154.817 412.262C154.098 414.308 154.11 414.339 156.068 415.508C159.912 418.353 163.943 420.919 167.969 423.491C169.4 424.407 170.899 425.214 172.37 426.069C175.024 427.842 177.732 429.517 180.641 430.86C183.812 432.931 187.111 434.754 190.823 436.249C191.289 434.016 191.748 431.884 192.169 429.746C193.07 425.149 194.29 420.648 196.12 416.323C198.223 411.352 201.397 407.132 205.148 403.318C209.496 398.9 213.948 394.591 218.243 390.126C224.122 384.011 229.423 377.413 234.17 370.373C238.129 364.496 240.388 357.999 241.468 351.038C241.825 348.729 242.243 346.43 242.373 344.095C242.402 343.552 242.429 343.069 241.829 342.626C240.604 341.714 240.532 341.062 241.467 339.763C243.01 337.605 244.669 335.53 246.56 333.657C247.257 332.967 247.968 332.289 248.672 331.603C248.315 330.973 247.73 330.848 247.236 330.618C243.112 328.705 239.027 326.704 234.839 324.946C232.04 323.774 229.277 322.552 226.569 321.19C225.507 320.658 225.448 320.721 224.94 321.876C224.09 323.814 223.45 325.84 222.416 327.702C222.116 328.243 221.879 328.76 221.182 328.571C220.466 328.377 220.46 327.685 220.548 327.158C220.819 325.514 221.151 323.879 221.941 322.367C222.408 321.475 222.708 320.499 223.121 319.579C223.841 317.961 224.773 317.484 226.446 318.106C228.43 318.841 230.309 319.829 232.222 320.741C235.2 322.155 238.307 323.299 241.289 324.714C244.542 326.257 247.984 327.417 251.027 329.4C251.29 329.57 251.567 329.711 251.817 329.895C253.232 330.935 253.326 331.923 252.01 333.135C249.683 335.284 247.497 337.553 245.489 340.007C244.935 340.685 244.714 341.241 244.861 342.184C245.131 343.853 245.146 345.578 244.957 347.284C244.511 351.365 243.858 355.412 242.762 359.375C241.254 364.808 238.707 369.753 235.524 374.385C228.55 384.539 220.128 393.424 211.308 401.958C209.261 403.938 207.337 406.03 205.403 408.116C200.59 413.316 198.016 419.63 196.238 426.337C195.301 429.871 194.483 433.44 193.606 436.991C193.544 437.234 193.46 437.475 193.373 437.711C192.736 439.458 191.9 439.849 190.168 439.233C188.863 438.769 187.655 438.035 186.248 437.871C179.982 434.482 173.799 430.944 167.685 427.283C163.137 424.557 158.792 421.515 154.357 418.613C153.418 417.996 152.719 417.261 152.483 416.13C152.42 415.826 152.327 415.481 152.13 415.26C150.723 413.685 151.25 412.046 151.844 410.348C152.712 407.862 153.491 405.341 154.365 402.664C152.579 403.274 150.956 403.854 149.318 404.383C147.575 404.943 145.822 405.476 144.004 405.735C141.907 406.029 141.027 405.158 141.303 403.055C141.452 401.931 141.707 400.82 141.305 399.704C141.263 397.334 141.476 394.938 140.459 392.679C140.267 392.248 140.253 391.719 140.226 391.231C140.137 389.598 140.419 389.243 142.055 389.012C142.691 388.923 143.301 388.779 143.88 388.524C147.111 387.084 150.345 385.645 153.564 384.169C156.155 382.982 158.636 381.548 161.343 380.628C162.244 380.319 162.721 379.887 162.679 378.885C162.649 378.195 162.762 377.494 162.865 376.809C163.207 374.586 164.778 373.543 166.964 374.083C167.267 374.158 167.555 374.307 167.855 374.408C169.375 374.912 169.267 374.837 170.167 373.535C170.947 372.413 171.912 371.358 172.976 370.503C174.355 369.392 176.249 367.699 177.517 366.383C178.786 365.066 181.099 363.623 180.16 365.495ZM178.678 385.164C177.413 384.872 176.232 385.39 175.153 386.438C172.396 389.127 169.349 391.486 166.365 393.912C165.333 394.751 164.241 395.499 163.042 396.081C162.677 396.257 162.254 396.32 162.066 395.889C161.906 395.518 161.957 395.225 162.359 394.812C164.647 392.48 167.261 390.523 169.607 388.258C171.397 386.528 173.404 385.041 175.001 383.091C175.477 382.517 176.343 382.568 177.115 382.577C178.215 382.59 178.277 382.462 178.104 381.348C178.029 380.852 177.919 380.36 177.798 379.867C177.528 378.76 177.88 377.753 178.761 377.183C180.182 376.267 181.046 374.866 182.182 373.705C182.804 373.069 183.439 372.468 184.215 372.026C184.692 371.754 185.189 371.763 185.625 372.121C186.122 372.524 186.24 373.051 186.034 373.651C185.801 374.328 185.309 374.832 184.855 375.351C183.938 376.387 183.002 377.414 182.026 378.396C181.387 379.034 181.126 379.694 181.396 380.595C181.576 381.193 181.637 381.833 181.696 382.462C181.903 384.74 181.221 385.398 178.678 385.164ZM214.514 318.482C214.595 319.552 214.563 320.616 214.55 321.677C214.533 323.464 213.946 325.002 212.888 326.4C211.138 328.71 209.474 331.086 207.54 333.249C206.654 334.239 205.685 335.141 204.513 335.805C204.149 336.012 203.781 336.095 203.463 335.824C203.212 335.613 203.174 335.243 203.321 334.947C203.615 334.344 203.484 333.598 204.09 333.09C205.379 332.008 206.009 330.409 207.036 329.108C208.389 327.379 209.534 325.477 210.954 323.778C211.209 323.473 211.24 322.949 211.292 322.518C211.432 321.327 211.489 320.125 211.358 318.928C211.19 317.402 211.912 316.404 213.166 315.682C214.065 315.164 215.797 315.485 216.415 316.301C216.854 316.881 216.705 317.719 216.014 318.07C215.595 318.29 215.082 318.333 214.514 318.482ZM227.647 326.625C231.283 327.306 234.575 328.678 237.687 330.495C238.003 330.677 238.297 330.958 238.502 331.256C239.13 332.172 238.712 333.183 237.631 333.421C236.92 333.575 236.269 333.341 235.627 333.055C232.637 331.731 229.641 330.414 226.647 329.094C226.419 328.992 226.18 328.901 225.983 328.752C225.555 328.432 225.266 328.011 225.442 327.451C225.611 326.917 226.034 326.655 226.591 326.631C226.967 326.613 227.341 326.626 227.647 326.625Z" stroke="white" stroke-width="3"/>
<path d="M142.509 391.304L143.697 403.112L156.374 402.141C156.374 402.141 152.088 411.59 153.131 414.228C154.175 416.865 188.585 438.249 190.62 437.795C192.655 437.341 193.91 421.035 200.653 411.92C207.397 402.804 237.978 375.827 242.214 357.342C246.451 338.856 188.025 356.338 180.353 364.698C172.682 373.058 170.285 375.28 166.577 376.045C162.869 376.81 165.296 379.367 163.363 381.028C161.43 382.689 142.286 389.084 142.509 391.304Z" fill="white"/>
<path d="M180.161 365.495C179.218 367.366 176.611 370.975 174.235 373.234C173.344 374.078 173.119 374.917 173.264 376.081C173.573 378.542 172.585 379.396 170.21 378.845C169.533 378.685 168.874 378.451 168.214 378.239C167.617 378.049 167.024 377.843 166.368 377.624C165.814 378.542 166.122 379.523 165.956 380.425C165.758 381.465 165.475 382.39 164.347 382.791C158.975 384.712 154.124 387.783 148.834 389.884C147.602 390.375 146.4 390.952 145.141 391.368C143.699 391.846 143.688 391.769 143.921 393.331C144.315 395.941 144.743 398.554 144.823 401.203C144.85 401.97 145.237 401.999 145.814 401.885C147.914 401.47 150.018 401.065 152.118 400.657C152.756 400.423 153.208 400.248 153.815 400.788C154.072 401.057 154.326 401.322 154.608 401.612C155.163 401.401 155.154 400.701 155.572 400.324C156.475 399.515 157.452 399.814 157.896 400.931C158.348 402.051 158.073 402.935 157.656 404.057C156.374 406.68 155.78 409.536 154.817 412.265C154.098 414.311 154.11 414.343 156.068 415.511C159.911 418.356 163.942 420.922 167.968 423.494C169.399 424.41 170.898 425.217 172.369 426.071C175.022 427.845 177.731 429.52 180.639 430.862C183.81 432.933 187.109 434.756 190.821 436.252C191.286 434.018 191.745 431.886 192.167 429.748C193.067 425.151 194.288 420.65 196.118 416.325C198.221 411.353 201.395 407.132 205.146 403.319C209.494 398.9 213.947 394.591 218.242 390.125C224.12 384.01 229.422 377.412 234.168 370.371C238.128 364.493 240.387 357.996 241.467 351.035C241.824 348.726 242.242 346.427 242.373 344.092C242.402 343.548 242.428 343.065 241.828 342.622C240.603 341.711 240.532 341.058 241.466 339.759C243.01 337.601 244.668 335.527 246.56 333.654C247.257 332.963 247.967 332.285 248.671 331.599C248.315 330.969 247.73 330.845 247.236 330.614C243.112 328.701 239.028 326.7 234.84 324.942C232.041 323.771 229.278 322.549 226.571 321.187C225.509 320.654 225.449 320.717 224.941 321.873C224.091 323.811 223.451 325.837 222.417 327.699C222.117 328.241 221.88 328.757 221.183 328.568C220.468 328.374 220.461 327.682 220.549 327.155C220.821 325.511 221.152 323.876 221.942 322.364C222.41 321.472 222.709 320.496 223.122 319.575C223.842 317.958 224.775 317.481 226.448 318.102C228.431 318.837 230.31 319.826 232.223 320.738C235.201 322.152 238.308 323.295 241.29 324.71C244.542 326.253 247.984 327.413 251.026 329.395C251.289 329.566 251.567 329.707 251.817 329.891C253.232 330.931 253.325 331.919 252.009 333.131C249.682 335.28 247.497 337.55 245.489 340.004C244.935 340.681 244.713 341.237 244.861 342.18C245.13 343.849 245.145 345.575 244.956 347.281C244.51 351.362 243.857 355.409 242.761 359.372C241.253 364.806 238.705 369.75 235.522 374.383C228.548 384.537 220.126 393.423 211.306 401.958C209.259 403.938 207.335 406.03 205.401 408.117C200.588 413.317 198.014 419.631 196.235 426.339C195.298 429.873 194.48 433.442 193.603 436.993C193.542 437.236 193.457 437.477 193.37 437.713C192.733 439.46 191.897 439.851 190.166 439.236C188.86 438.772 187.653 438.038 186.246 437.874C179.98 434.485 173.797 430.947 167.684 427.285C163.137 424.56 158.792 421.518 154.357 418.616C153.418 418 152.719 417.264 152.483 416.134C152.42 415.829 152.327 415.484 152.13 415.263C150.724 413.688 151.251 412.049 151.845 410.351C152.712 407.865 153.492 405.344 154.366 402.667C152.579 403.277 150.956 403.857 149.319 404.386C147.576 404.946 145.823 405.479 144.005 405.739C141.908 406.033 141.028 405.162 141.304 403.059C141.454 401.934 141.709 400.823 141.306 399.707C141.264 397.337 141.477 394.942 140.461 392.682C140.269 392.251 140.254 391.722 140.228 391.234C140.139 389.601 140.421 389.245 142.057 389.015C142.693 388.926 143.303 388.781 143.882 388.527C147.112 387.087 150.347 385.647 153.566 384.172C156.157 382.984 158.637 381.549 161.344 380.629C162.245 380.321 162.723 379.889 162.68 378.887C162.651 378.196 162.763 377.496 162.867 376.81C163.208 374.587 164.78 373.544 166.965 374.084C167.268 374.159 167.556 374.308 167.856 374.41C169.376 374.913 169.268 374.838 170.169 373.536C170.948 372.414 171.913 371.359 172.977 370.504C174.356 369.393 176.25 367.7 177.519 366.383C178.787 365.066 181.101 363.623 180.161 365.495ZM178.678 385.165C177.413 384.873 176.232 385.391 175.153 386.439C172.396 389.128 169.35 391.488 166.365 393.914C165.333 394.753 164.241 395.501 163.042 396.083C162.678 396.259 162.255 396.322 162.066 395.891C161.907 395.521 161.958 395.227 162.36 394.815C164.647 392.482 167.262 390.525 169.607 388.26C171.397 386.53 173.405 385.042 175.002 383.092C175.477 382.518 176.344 382.57 177.116 382.578C178.216 382.591 178.278 382.463 178.105 381.349C178.03 380.853 177.92 380.361 177.798 379.868C177.529 378.76 177.881 377.754 178.761 377.184C180.183 376.268 181.047 374.867 182.182 373.706C182.805 373.069 183.44 372.468 184.216 372.026C184.693 371.754 185.189 371.763 185.626 372.122C186.123 372.524 186.241 373.052 186.034 373.651C185.802 374.329 185.31 374.832 184.855 375.351C183.938 376.388 183.003 377.415 182.026 378.396C181.388 379.035 181.126 379.694 181.396 380.595C181.576 381.193 181.638 381.834 181.696 382.462C181.904 384.741 181.222 385.399 178.678 385.165ZM214.516 318.479C214.597 319.549 214.565 320.613 214.552 321.674C214.534 323.461 213.948 324.999 212.89 326.397C211.14 328.708 209.476 331.084 207.541 333.247C206.656 334.237 205.686 335.139 204.514 335.804C204.15 336.01 203.783 336.093 203.465 335.822C203.213 335.611 203.176 335.241 203.323 334.945C203.617 334.342 203.485 333.596 204.092 333.088C205.381 332.006 206.011 330.407 207.037 329.106C208.391 327.377 209.536 325.475 210.956 323.775C211.211 323.471 211.241 322.946 211.294 322.515C211.434 321.325 211.491 320.122 211.361 318.925C211.192 317.399 211.914 316.401 213.169 315.679C214.067 315.161 215.799 315.482 216.417 316.298C216.855 316.878 216.707 317.716 216.016 318.067C215.597 318.287 215.084 318.331 214.516 318.479ZM227.648 326.621C231.284 327.303 234.576 328.674 237.688 330.491C238.003 330.674 238.297 330.954 238.502 331.253C239.13 332.168 238.713 333.18 237.631 333.417C236.92 333.572 236.269 333.338 235.627 333.051C232.637 331.728 229.642 330.411 226.648 329.091C226.42 328.989 226.18 328.898 225.984 328.749C225.556 328.429 225.267 328.008 225.443 327.448C225.612 326.914 226.035 326.652 226.592 326.628C226.968 326.61 227.342 326.623 227.648 326.621Z" stroke="black" stroke-width="3"/>
<path d="M180.162 365.495C179.221 367.365 176.612 370.976 174.235 373.233C173.344 374.08 173.12 374.919 173.265 376.082C173.573 378.541 172.587 379.397 170.21 378.844C169.535 378.687 168.877 378.453 168.216 378.242C167.618 378.051 167.026 377.844 166.371 377.625C165.815 378.542 166.125 379.525 165.956 380.427C165.76 381.467 165.474 382.392 164.349 382.794C158.976 384.713 154.127 387.783 148.836 389.885C147.603 390.375 146.4 390.955 145.143 391.371C143.7 391.848 143.69 391.769 143.924 393.332C144.315 395.944 144.744 398.557 144.826 401.205C144.849 401.972 145.237 402.002 145.815 401.888C147.916 401.473 150.019 401.068 152.117 400.66C152.755 400.426 153.209 400.25 153.814 400.789C154.071 401.057 154.328 401.324 154.607 401.616C155.163 401.403 155.153 400.701 155.573 400.325C156.476 399.516 157.453 399.816 157.899 400.932C158.347 402.053 158.075 402.937 157.656 404.059C156.376 406.68 155.779 409.537 154.818 412.269C154.099 414.314 154.111 414.345 156.068 415.514C159.91 418.359 163.943 420.922 167.966 423.497C169.397 424.413 170.899 425.219 172.367 426.075C175.02 427.847 177.731 429.523 180.637 430.863C183.807 432.934 187.107 434.758 190.82 436.255C191.283 434.018 191.744 431.887 192.164 429.748C193.067 425.151 194.285 420.652 196.115 416.325C198.218 411.354 201.394 407.131 205.147 403.317C209.492 398.901 213.946 394.591 218.239 390.125C224.121 384.009 229.419 377.41 234.166 370.368C238.127 364.492 240.384 357.993 241.465 351.032C241.824 348.724 242.244 346.425 242.372 344.09C242.402 343.546 242.43 343.064 241.828 342.618C240.603 341.707 240.532 341.056 241.464 339.757C243.012 337.6 244.669 335.523 246.561 333.65C247.258 332.96 247.966 332.28 248.67 331.595C248.316 330.966 247.732 330.84 247.236 330.61C243.114 328.699 239.029 326.695 234.841 324.94C232.043 323.768 229.28 322.545 226.572 321.185C225.512 320.653 225.449 320.713 224.943 321.87C224.094 323.808 223.452 325.834 222.42 327.698C222.119 328.24 221.882 328.755 221.184 328.566C220.469 328.372 220.463 327.679 220.55 327.153C220.822 325.507 221.153 323.873 221.943 322.362C222.409 321.471 222.71 320.494 223.122 319.572C223.844 317.954 224.777 317.478 226.451 318.099C228.434 318.834 230.312 319.824 232.224 320.733C235.202 322.15 238.31 323.293 241.29 324.706C244.544 326.249 247.985 327.409 251.027 329.391C251.288 329.56 251.567 329.703 251.817 329.887C253.231 330.926 253.326 331.915 252.009 333.129C249.681 335.276 247.495 337.547 245.49 340.001C244.935 340.68 244.712 341.234 244.862 342.175C245.128 343.848 245.143 345.57 244.957 347.277C244.511 351.36 243.856 355.407 242.759 359.369C241.253 364.805 238.704 369.747 235.521 374.382C228.546 384.538 220.124 393.423 211.304 401.957C209.258 403.937 207.333 406.029 205.4 408.118C200.587 413.318 198.012 419.632 196.235 426.34C195.298 429.876 194.477 433.442 193.6 436.993C193.54 437.238 193.456 437.478 193.369 437.715C192.731 439.461 191.895 439.852 190.163 439.236C188.86 438.773 187.65 438.038 186.242 437.877C179.977 434.486 173.796 430.948 167.684 427.288C163.135 424.564 158.793 421.519 154.358 418.619C153.416 418.003 152.718 417.265 152.483 416.134C152.419 415.83 152.326 415.485 152.128 415.264C150.722 413.69 151.253 412.052 151.845 410.353C152.713 407.865 153.493 405.347 154.367 402.669C152.578 403.28 150.957 403.859 149.32 404.387C147.578 404.948 145.823 405.482 144.005 405.739C141.908 406.036 141.03 405.163 141.306 403.06C141.453 401.938 141.708 400.826 141.307 399.708C141.265 397.339 141.478 394.945 140.463 392.684C140.269 392.253 140.257 391.724 140.23 391.237C140.142 389.603 140.425 389.248 142.058 389.017C142.693 388.927 143.306 388.783 143.881 388.527C147.116 387.089 150.35 385.649 153.568 384.174C156.158 382.987 158.639 381.552 161.344 380.628C162.246 380.321 162.723 379.89 162.68 378.886C162.65 378.199 162.763 377.498 162.868 376.812C163.209 374.588 164.783 373.545 166.966 374.085C167.271 374.161 167.557 374.309 167.856 374.409C169.378 374.915 169.269 374.837 170.17 373.537C170.949 372.412 171.914 371.361 172.98 370.503C174.358 369.394 176.251 367.701 177.519 366.383C178.787 365.065 181.103 363.624 180.162 365.495Z" fill="#0D0C0C"/>
<path d="M178.678 385.163C177.413 384.87 176.231 385.388 175.154 386.438C172.394 389.127 169.348 391.486 166.363 393.914C165.334 394.751 164.241 395.499 163.042 396.08C162.675 396.257 162.254 396.318 162.067 395.889C161.905 395.519 161.958 395.225 162.36 394.814C164.644 392.48 167.261 390.523 169.607 388.256C171.395 386.528 173.405 385.038 175.002 383.091C175.475 382.514 176.341 382.565 177.116 382.574C178.213 382.587 178.278 382.459 178.105 381.348C178.027 380.85 177.917 380.357 177.799 379.867C177.53 378.756 177.88 377.75 178.76 377.182C180.181 376.265 181.047 374.864 182.182 373.703C182.805 373.066 183.44 372.464 184.213 372.024C184.692 371.753 185.187 371.758 185.626 372.117C186.121 372.522 186.239 373.046 186.033 373.647C185.801 374.324 185.309 374.831 184.854 375.346C183.937 376.385 183.003 377.411 182.025 378.391C181.385 379.033 181.124 379.692 181.394 380.592C181.573 381.191 181.636 381.831 181.693 382.458C181.904 384.737 181.221 385.397 178.678 385.163Z" fill="#0D0C0C"/>
<path d="M214.514 318.483C214.592 319.554 214.56 320.619 214.548 321.68C214.529 323.466 213.943 325.005 212.885 326.404C211.137 328.715 209.471 331.09 207.536 333.253C206.65 334.244 205.684 335.146 204.513 335.808C204.148 336.014 203.779 336.097 203.462 335.829C203.211 335.617 203.174 335.246 203.319 334.951C203.614 334.349 203.484 333.602 204.091 333.093C205.379 332.011 206.009 330.414 207.033 329.109C208.387 327.383 209.531 325.478 210.953 323.78C211.207 323.476 211.239 322.953 211.29 322.522C211.431 321.329 211.488 320.126 211.356 318.93C211.188 317.404 211.911 316.408 213.166 315.684C214.064 315.166 215.793 315.488 216.412 316.304C216.85 316.883 216.702 317.72 216.013 318.074C215.592 318.291 215.082 318.335 214.514 318.483Z" fill="#0D0C0C"/>
<path d="M227.646 326.629C231.283 327.311 234.574 328.681 237.687 330.499C238.002 330.683 238.296 330.959 238.502 331.26C239.128 332.175 238.712 333.186 237.632 333.423C236.919 333.58 236.268 333.345 235.625 333.06C232.634 331.735 229.64 330.42 226.647 329.099C226.419 328.998 226.178 328.904 225.981 328.756C225.554 328.436 225.266 328.014 225.442 327.456C225.612 326.922 226.033 326.657 226.589 326.633C226.965 326.617 227.342 326.629 227.646 326.629Z" fill="#0D0C0C"/>
<path d="M176.372 342.189C174.667 342.027 174.74 340.093 174.59 338.496C174.138 329.956 174.456 321.437 175.217 312.928C175.37 311.234 175.797 309.566 175.981 307.871C176.055 307.221 176.449 307.213 176.852 307.121C177.329 307.01 177.725 307.15 177.914 307.654C178.122 308.197 178.152 308.762 178.144 309.334C178.045 316.476 177.987 323.622 177.828 330.762C177.757 333.996 177.966 337.215 178.147 340.496C178.194 341.33 178.077 342.351 176.372 342.189ZM193.665 330.442C193.746 331.192 193.658 331.879 193.464 332.548C193.266 333.229 192.784 333.623 192.093 333.657C191.371 333.695 190.936 333.241 190.67 332.616C190.595 332.444 190.518 332.246 190.535 332.068C190.7 330.417 190.062 328.843 190.092 327.202C190.179 322.597 190.239 317.993 190.318 313.391C190.379 309.984 190.053 306.578 190.358 303.175C190.406 302.675 190.375 302.156 190.505 301.675C190.624 301.228 190.656 300.65 191.326 300.557C192.082 300.445 192.527 300.831 192.808 301.454C193.153 302.209 193.368 303.01 193.404 303.831C193.604 308.115 194.065 312.386 193.974 316.681C193.872 321.285 193.77 325.889 193.665 330.442Z" stroke="black" stroke-width="2"/>
<path d="M176.371 342.189C174.666 342.027 174.739 340.09 174.59 338.496C174.139 329.957 174.456 321.435 175.217 312.928C175.368 311.233 175.795 309.565 175.982 307.872C176.054 307.22 176.45 307.212 176.85 307.119C177.328 307.008 177.723 307.148 177.914 307.653C178.119 308.196 178.151 308.761 178.143 309.333C178.044 316.476 177.986 323.619 177.827 330.76C177.756 333.995 177.963 337.212 178.145 340.496C178.192 341.33 178.076 342.351 176.371 342.189Z" fill="#0D0C0C"/>
<path d="M193.667 330.441C193.748 331.192 193.66 331.879 193.463 332.55C193.265 333.229 192.786 333.623 192.092 333.658C191.37 333.695 190.937 333.241 190.67 332.618C190.597 332.446 190.52 332.247 190.538 332.07C190.702 330.418 190.063 328.843 190.094 327.203C190.181 322.599 190.24 317.995 190.32 313.39C190.379 309.986 190.056 306.58 190.361 303.177C190.406 302.676 190.377 302.156 190.506 301.678C190.626 301.23 190.659 300.653 191.328 300.556C192.084 300.448 192.527 300.832 192.811 301.457C193.153 302.21 193.367 303.009 193.405 303.833C193.604 308.116 194.066 312.387 193.973 316.683C193.874 321.286 193.768 325.889 193.667 330.441Z" fill="#0D0C0C"/>
<path d="M187.722 286.619C189.21 287.922 189.893 289.703 190.602 291.445C191.207 292.932 192.268 294.243 192.344 295.952C192.363 296.388 192.493 296.822 192.353 297.253C192.2 297.723 191.828 297.951 191.354 297.999C190.932 298.041 190.592 297.832 190.437 297.468C190.122 296.731 189.784 295.986 189.607 295.209C188.837 291.839 186.825 289.23 184.538 286.783C183.949 286.153 183.335 285.542 182.54 285.156C182.149 284.966 181.805 284.644 181.307 284.739C181.264 284.832 181.183 284.929 181.182 285.027C181.173 285.562 181.581 286.241 180.921 286.566C180.322 286.861 179.894 286.273 179.43 285.965C179.019 285.692 178.582 285.456 177.782 284.98C178.89 286.784 180.919 287.54 180.739 289.8C179.518 289.358 178.413 289.283 177.291 288.339C175.41 286.756 173.224 285.214 170.413 286.005C170.116 286.088 169.845 286.266 169.472 286.442C169.804 287.287 170.533 287.667 171.194 288.058C173.255 289.277 174.486 291.087 175.165 293.337C175.256 293.639 175.414 293.916 175.328 294.24C175.246 294.556 175.086 294.842 174.779 294.972C174.396 295.135 174.218 294.848 174.061 294.566C173.724 293.956 173.224 293.469 172.812 292.92C172.188 292.088 171.689 291.324 170.453 292.05C170.1 292.258 169.472 292 168.971 291.953C167.238 291.789 165.504 291.624 163.461 291.43C166.249 294.861 168.081 298.364 168.214 302.832C170.032 301.775 171.072 300.227 172.433 299.04C172.703 298.805 172.884 298.525 173.254 298.355C173.88 298.065 174.445 297.899 175.012 298.375C175.583 298.854 175.596 299.452 175.274 300.087C175.132 300.367 175.001 300.652 174.816 301.037C175.481 301.171 176.08 301.259 176.658 301.418C177.108 301.542 177.441 301.875 177.517 302.34C177.608 302.895 177.316 303.328 176.849 303.593C175.77 304.207 174.589 304.124 173.554 303.654C172.7 303.267 172.165 303.416 171.524 303.96C170.997 304.408 170.392 304.767 169.803 305.136C166.976 306.911 164.65 306.86 161.961 304.879C161.327 304.412 160.805 304.182 160.091 304.618C159.888 304.742 159.61 304.772 159.362 304.789C158.55 304.844 157.853 304.616 157.435 303.861C157.023 303.119 157.327 302.288 157.863 301.999C158.914 301.431 158.499 300.71 158.378 299.976C158.234 299.108 157.976 298.642 156.87 299.032C155.735 299.433 154.902 298.958 154.68 298.162C154.462 297.383 154.955 296.484 155.977 296C156.867 295.579 157.208 294.991 157.305 293.967C157.595 290.893 159.527 289.29 162.614 288.94C164.183 288.763 165.735 289.034 167.241 288.882C167.513 288.381 167.088 288.293 166.925 288.064C166.024 286.798 166.11 285.795 167.203 284.667C167.723 284.129 168.264 283.634 169.001 283.38C171.667 282.459 174.317 281.439 177.21 282.313C177.469 282.391 177.668 282.38 177.917 282.268C180.099 281.29 182.082 281.915 183.999 283.049C185.314 283.876 186.982 285.86 187.722 286.619ZM160.865 296.783C160.641 297.89 161.11 299.247 162.007 299.778C162.991 300.36 163.543 300.728 163.519 301.937C163.508 302.502 164.159 303.098 164.854 302.988C165.476 302.891 165.424 302.222 165.38 301.733C165.095 298.547 163.912 295.773 161.532 293.573C161.226 293.29 160.879 292.832 160.418 293.221C160.058 293.525 160.11 294.028 160.251 294.458C160.305 294.624 160.461 294.766 160.594 294.894C161.105 295.384 161.264 295.942 160.865 296.783Z" stroke="#0D0C0C" stroke-width="2"/>
<path d="M187.722 286.618C189.21 287.921 189.893 289.702 190.602 291.444C191.207 292.931 192.268 294.242 192.343 295.951C192.362 296.387 192.492 296.822 192.352 297.252C192.199 297.723 191.827 297.95 191.353 297.998C190.932 298.041 190.591 297.832 190.436 297.468C190.122 296.73 189.784 295.985 189.607 295.209C188.837 291.838 186.825 289.229 184.538 286.782C183.949 286.152 183.335 285.541 182.54 285.155C182.149 284.965 181.805 284.643 181.307 284.738C181.265 284.831 181.184 284.928 181.182 285.026C181.173 285.561 181.581 286.24 180.921 286.565C180.323 286.86 179.895 286.272 179.431 285.965C179.019 285.692 178.583 285.455 177.782 284.979C178.891 286.783 180.92 287.539 180.739 289.799C179.518 289.357 178.413 289.283 177.292 288.339C175.41 286.755 173.225 285.214 170.413 286.005C170.116 286.088 169.846 286.265 169.473 286.442C169.805 287.287 170.534 287.667 171.195 288.057C173.256 289.276 174.486 291.087 175.165 293.337C175.256 293.639 175.414 293.916 175.328 294.24C175.246 294.556 175.086 294.842 174.779 294.972C174.396 295.135 174.218 294.848 174.062 294.566C173.724 293.956 173.224 293.469 172.812 292.92C172.188 292.088 171.689 291.324 170.453 292.05C170.1 292.258 169.473 292 168.971 291.953C167.238 291.789 165.505 291.624 163.461 291.43C166.25 294.861 168.081 298.365 168.214 302.832C170.032 301.775 171.072 300.228 172.433 299.041C172.702 298.805 172.884 298.526 173.254 298.355C173.88 298.065 174.445 297.899 175.012 298.375C175.583 298.854 175.596 299.452 175.274 300.087C175.132 300.367 175.001 300.652 174.815 301.038C175.481 301.172 176.079 301.26 176.658 301.418C177.108 301.542 177.44 301.876 177.516 302.34C177.608 302.896 177.315 303.328 176.848 303.594C175.77 304.207 174.589 304.125 173.553 303.655C172.7 303.267 172.164 303.417 171.524 303.961C170.997 304.409 170.391 304.768 169.802 305.137C166.976 306.912 164.65 306.862 161.961 304.88C161.327 304.413 160.804 304.184 160.091 304.62C159.888 304.744 159.61 304.773 159.362 304.79C158.55 304.846 157.853 304.617 157.435 303.862C157.024 303.12 157.328 302.289 157.863 302C158.914 301.432 158.5 300.711 158.378 299.977C158.234 299.109 157.976 298.643 156.871 299.033C155.735 299.434 154.902 298.959 154.68 298.163C154.463 297.384 154.956 296.485 155.977 296.001C156.867 295.58 157.208 294.992 157.305 293.968C157.596 290.894 159.527 289.29 162.615 288.941C164.183 288.763 165.735 289.034 167.242 288.882C167.513 288.381 167.089 288.293 166.926 288.064C166.025 286.798 166.11 285.795 167.204 284.666C167.724 284.129 168.265 283.634 169.002 283.379C171.667 282.459 174.317 281.438 177.211 282.312C177.47 282.39 177.669 282.379 177.918 282.267C180.1 281.289 182.083 281.914 183.999 283.048C185.314 283.875 186.982 285.859 187.722 286.618ZM160.866 296.783C160.641 297.89 161.11 299.248 162.008 299.779C162.991 300.361 163.543 300.729 163.519 301.938C163.508 302.503 164.159 303.098 164.854 302.989C165.475 302.892 165.424 302.222 165.38 301.734C165.095 298.548 163.913 295.774 161.533 293.574C161.227 293.291 160.879 292.832 160.419 293.222C160.059 293.526 160.11 294.028 160.252 294.459C160.306 294.624 160.461 294.767 160.594 294.895C161.105 295.385 161.264 295.942 160.866 296.783Z" fill="#0D0C0C"/>
<path d="M143.571 300.196L142.205 305.471L149.551 314.253L153.596 313.185L156.684 309.982L154.789 305.237L149.922 300.939L143.571 300.196Z" fill="white"/>
<path d="M182.071 340.884C183.012 340.843 183.966 340.945 184.912 341.012C185.778 341.075 186.441 340.859 187.084 340.171C188.995 338.128 190.645 337.956 192.91 339.703C193.886 340.457 194.385 340.363 195.247 339.62C196.655 338.404 199.4 338.493 200.81 339.67C201.342 340.11 201.796 340.643 202.284 341.14C202.678 341.541 202.819 342.028 202.558 342.523C202.33 342.941 201.89 343.064 201.411 343.037C200.456 342.989 199.55 342.7 198.626 342.482C197.269 342.159 197.017 342.28 196.417 343.553C196.206 344.007 196.075 344.499 195.892 344.971C195.596 345.75 195.064 346.242 194.207 346.283C193.305 346.323 192.594 345.958 192.215 345.119C191.798 344.192 191.364 343.287 190.672 342.522C190.129 341.924 189.661 341.944 189.074 342.485C188.194 343.288 187.973 344.246 188.089 345.392C188.388 348.284 188.628 351.185 188.88 354.079C188.934 354.711 188.966 355.341 188.963 355.975C188.959 356.698 188.838 357.401 187.968 357.582C187.329 357.716 186.44 356.963 186.311 356.117C185.879 353.305 185.563 350.481 185.474 347.632C185.453 346.938 185.423 346.244 185.424 345.548C185.427 344.918 185.2 344.617 184.514 344.712C183.761 344.821 183 344.829 182.249 344.922C181.158 345.051 180.1 345.119 179.216 344.278C178.88 343.952 178.435 343.887 177.978 343.908C176.273 343.984 174.747 343.384 173.303 342.57C170.922 341.228 168.765 339.586 166.839 337.641C162.084 332.839 157.283 328.083 152.613 323.198C151.607 322.147 150.582 321.029 149.991 319.562C149.361 317.992 148.364 316.571 147.535 315.078C146.667 313.517 145.963 311.867 144.89 310.408C143.881 309.032 142.8 307.741 141.327 306.863C140.201 306.194 139.903 306.315 139.409 307.53C139.125 308.217 138.661 308.682 138.052 309.052C136.944 309.719 136.076 310.646 135.483 311.767C134.988 312.71 134.289 313.385 133.406 313.909C132.51 314.439 131.791 315.124 131.424 316.125C131.18 316.801 130.966 317.515 129.986 317.051C129.034 316.601 128.521 315.651 128.975 314.86C129.639 313.704 130.288 312.397 131.495 311.801C132.435 311.336 132.881 310.747 133.272 309.848C133.859 308.501 134.944 307.515 136.216 306.802C136.653 306.557 137.136 306.419 137.274 305.897C137.645 304.491 138.662 303.804 139.986 303.8C141.046 303.794 141.264 303.314 141.299 302.465C141.386 300.26 142.765 299.198 144.698 298.609C145.954 298.228 147.242 298.4 148.386 298.791C152.509 300.192 155.547 302.908 157.283 306.926C158.718 310.25 157.791 312.673 154.566 314.335C153.572 314.849 152.504 315.225 151.404 315.694C152.21 317.831 153.394 319.61 155.035 321.173C159.706 325.611 164.288 330.14 168.398 335.121C170.291 337.414 172.264 338.897 174.501 339.71C176.624 340.343 179.47 341.099 182.071 340.884ZM147.138 301.261C145.517 301.015 144.539 301.568 143.934 303.024C143.269 304.62 143.274 304.651 144.687 305.833C146.26 307.148 147.446 308.782 148.481 310.528C149.982 313.071 149.962 313.08 152.72 311.871C152.892 311.791 153.067 311.72 153.236 311.633C155.389 310.545 155.727 309.488 154.475 307.378C153.094 305.049 151.204 303.214 148.842 301.881C148.297 301.573 147.725 301.274 147.138 301.261ZM134.564 326.522C135.744 327.697 136.77 328.807 137.887 329.815C139.341 331.131 141.296 331.959 141.962 334.04C146.447 339.427 150.911 344.832 155.422 350.195C161.021 356.854 167.989 361.465 176.311 364.021C177.518 364.323 179.717 365.044 181.28 365.211C185.38 365.73 189.443 365.673 193.521 364.848C198.718 363.801 203.867 362.459 209.167 361.938C209.916 361.868 210.666 361.702 211.393 361.492C212.526 361.168 213.055 360.469 212.897 359.636C212.733 358.749 211.853 358.31 210.619 358.54C210.063 358.64 209.524 358.88 208.965 358.922C203.811 359.32 198.826 360.624 193.818 361.769C189.576 362.742 185.307 362.796 181.116 361.878C172.13 359.904 164.383 355.637 158.314 348.616C153.564 343.119 148.922 337.53 144.094 332.098C142.663 330.494 141.28 328.88 139.597 327.52C137.182 325.57 135.162 323.215 133.144 320.868C132.755 320.414 132.124 319.773 131.578 320.21C131.077 320.61 131.07 321.45 131.488 322.113C131.585 322.264 131.643 322.46 131.774 322.565C132.461 323.662 133.814 325.763 134.564 326.522ZM200.038 349.665C200.151 348.514 200.637 347.914 201.433 347.871C202.259 347.823 202.852 348.342 202.983 349.417C203.211 351.281 203.357 353.157 203.531 355.027C203.607 355.875 203.331 356.526 202.435 356.735C201.723 356.904 200.994 356.445 200.789 355.55C200.34 353.597 200.071 351.606 200.038 349.665ZM192.058 354.759C190.935 354.657 190.048 353.693 190.096 352.628C190.154 351.421 191.549 350.388 192.96 350.503C194.091 350.595 194.946 351.532 194.895 352.628C194.841 353.877 193.495 354.888 192.058 354.759ZM226.284 336.802C224.655 337.248 222.957 337.044 221.292 337.185C218.512 337.418 215.82 338.018 213.153 338.797C211.218 339.359 209.289 339.944 207.3 340.309C206.607 340.438 205.922 340.519 205.239 340.392C204.295 340.219 204.001 339.457 204.664 338.759C205.068 338.331 205.508 337.93 206.107 337.662C210.862 335.548 215.743 334.051 221.029 334.358C222.722 334.457 224.405 334.648 225.778 335.81C225.966 335.969 226.126 336.168 226.26 336.368C226.317 336.454 226.276 336.603 226.284 336.802Z" stroke="black" stroke-width="2"/>
<path d="M182.069 340.883C183.012 340.841 183.963 340.943 184.908 341.01C185.774 341.072 186.438 340.859 187.083 340.17C188.994 338.128 190.643 337.953 192.908 339.703C193.884 340.457 194.384 340.363 195.245 339.618C196.651 338.402 199.396 338.492 200.809 339.667C201.34 340.109 201.795 340.643 202.281 341.137C202.673 341.538 202.817 342.027 202.553 342.52C202.329 342.941 201.888 343.062 201.409 343.037C200.452 342.987 199.546 342.698 198.624 342.48C197.265 342.159 197.016 342.277 196.416 343.55C196.202 344.005 196.071 344.499 195.891 344.972C195.595 345.747 195.062 346.241 194.205 346.28C193.3 346.322 192.593 345.958 192.212 345.117C191.794 344.192 191.364 343.286 190.67 342.521C190.128 341.922 189.657 341.945 189.07 342.482C188.191 343.287 187.972 344.245 188.089 345.39C188.383 348.283 188.626 351.182 188.878 354.08C188.933 354.709 188.962 355.342 188.959 355.974C188.955 356.698 188.835 357.4 187.966 357.583C187.327 357.718 186.437 356.964 186.307 356.118C185.876 353.306 185.561 350.48 185.471 347.633C185.449 346.938 185.422 346.243 185.424 345.548C185.425 344.915 185.196 344.617 184.51 344.713C183.76 344.818 182.998 344.828 182.246 344.92C181.157 345.052 180.099 345.118 179.215 344.276C178.876 343.953 178.434 343.888 177.977 343.908C176.27 343.984 174.747 343.383 173.301 342.569C170.92 341.228 168.763 339.584 166.839 337.639C162.085 332.837 157.283 328.081 152.613 323.199C151.606 322.147 150.581 321.029 149.99 319.561C149.359 317.992 148.364 316.57 147.535 315.08C146.665 313.516 145.962 311.866 144.891 310.407C143.881 309.032 142.8 307.74 141.327 306.863C140.202 306.192 139.905 306.313 139.409 307.529C139.127 308.218 138.661 308.682 138.052 309.05C136.944 309.719 136.076 310.644 135.484 311.769C134.989 312.71 134.29 313.385 133.406 313.909C132.51 314.44 131.79 315.124 131.426 316.124C131.179 316.803 130.965 317.517 129.984 317.052C129.036 316.603 128.521 315.652 128.975 314.86C129.638 313.705 130.287 312.396 131.494 311.801C132.436 311.337 132.882 310.749 133.274 309.849C133.859 308.503 134.944 307.515 136.216 306.803C136.654 306.558 137.135 306.417 137.272 305.897C137.644 304.492 138.662 303.805 139.986 303.798C141.048 303.793 141.266 303.314 141.299 302.464C141.386 300.26 142.767 299.196 144.699 298.608C145.954 298.226 147.242 298.4 148.387 298.79C152.51 300.192 155.548 302.907 157.282 306.926C158.716 310.249 157.791 312.672 154.565 314.335C153.57 314.848 152.505 315.226 151.404 315.695C152.209 317.83 153.394 319.611 155.035 321.171C159.706 325.61 164.288 330.14 168.397 335.121C170.289 337.415 172.261 338.897 174.498 339.711C176.62 340.344 179.466 341.1 182.069 340.883ZM147.137 301.259C145.518 301.015 144.54 301.568 143.935 303.024C143.271 304.619 143.276 304.65 144.687 305.831C146.26 307.147 147.447 308.78 148.479 310.527C149.981 313.069 149.963 313.079 152.718 311.868C152.892 311.792 153.067 311.719 153.236 311.634C155.39 310.544 155.725 309.489 154.475 307.377C153.095 305.048 151.204 303.212 148.842 301.881C148.296 301.573 147.727 301.275 147.137 301.259Z" fill="#0D0C0C"/>
<path d="M134.566 326.518C135.746 327.696 136.771 328.804 137.887 329.812C139.344 331.13 141.299 331.955 141.962 334.037C146.447 339.425 150.911 344.83 155.423 350.196C161.02 356.853 167.989 361.464 176.311 364.019C177.519 364.323 179.715 365.043 181.278 365.212C185.378 365.731 189.442 365.672 193.519 364.849C198.718 363.799 203.867 362.459 209.166 361.938C209.917 361.864 210.668 361.699 211.394 361.49C212.526 361.166 213.053 360.468 212.899 359.634C212.735 358.746 211.853 358.309 210.62 358.536C210.064 358.639 209.524 358.876 208.967 358.919C203.812 359.316 198.827 360.621 193.818 361.769C189.575 362.742 185.309 362.796 181.118 361.876C172.131 359.903 164.383 355.635 158.314 348.614C153.564 343.117 148.923 337.526 144.094 332.096C142.666 330.49 141.282 328.878 139.597 327.518C137.182 325.568 135.164 323.214 133.146 320.865C132.756 320.412 132.127 319.769 131.578 320.208C131.08 320.606 131.07 321.449 131.491 322.112C131.586 322.262 131.643 322.459 131.774 322.561C132.461 323.658 133.814 325.759 134.566 326.518Z" fill="#0D0C0C"/>
<path d="M200.043 349.665C200.157 348.515 200.641 347.914 201.437 347.87C202.262 347.824 202.855 348.341 202.986 349.415C203.214 351.281 203.361 353.155 203.533 355.027C203.611 355.873 203.333 356.524 202.44 356.735C201.726 356.903 200.996 356.445 200.791 355.551C200.343 353.595 200.076 351.606 200.043 349.665Z" fill="#0D0C0C"/>
<path d="M192.06 354.758C190.937 354.656 190.05 353.694 190.1 352.627C190.156 351.422 191.551 350.386 192.964 350.501C194.092 350.592 194.947 351.532 194.899 352.627C194.845 353.876 193.496 354.888 192.06 354.758Z" fill="#0D0C0C"/>
<path d="M226.287 336.807C224.657 337.251 222.958 337.048 221.296 337.187C218.514 337.421 215.824 338.022 213.157 338.8C211.222 339.364 209.291 339.947 207.302 340.315C206.609 340.443 205.924 340.521 205.24 340.396C204.296 340.223 204.004 339.461 204.665 338.762C205.069 338.336 205.509 337.933 206.108 337.667C210.864 335.553 215.748 334.053 221.032 334.361C222.726 334.46 224.409 334.649 225.781 335.814C225.967 335.972 226.128 336.169 226.263 336.373C226.32 336.458 226.28 336.607 226.287 336.807Z" fill="#0D0C0C"/>
<path d="M246.113 295.606C245.987 295.478 245.914 295.294 245.918 295.036C245.946 293.032 246.394 291.058 246.548 289.06C246.939 284.012 245.428 278.955 243.014 274.505C241.746 272.168 237.681 272.466 239.941 269.896C242.872 266.563 248.953 267.308 251.638 268.006C255.4 268.983 259.213 269.335 263.076 269.44C265.786 269.513 268.51 269.436 271.181 270.096C274.269 270.858 275.622 272.745 275.227 275.912C274.782 279.478 273.604 282.777 271.596 285.775C268.737 290.043 265.399 293.887 261.561 297.302C260.468 298.275 259.264 299.089 257.999 299.803C256.718 300.525 256.032 300.43 255.031 299.306C254.55 298.765 253.955 298.708 253.378 298.497C252.423 297.054 251.05 296.045 249.331 295.75C248.491 295.606 246.706 296.206 246.113 295.606Z" fill="#A5C354"/>
<path d="M246.843 289.365C246.843 289.365 246.323 291.724 245.009 291.1C243.696 290.477 238.854 285.341 237.68 283.33C236.507 281.318 235.796 278.54 237.443 278.491C237.443 278.491 226.379 267.777 227.02 264.637C227.662 261.497 239.083 265.521 243.169 273.55C247.256 281.578 247.665 284.577 246.843 289.365Z" fill="#96583D"/>
<path d="M205.845 284.962C207.808 286.388 209.68 287.946 212.101 288.599C212.224 288.63 212.348 288.645 212.469 288.687C213.715 289.147 214.298 289.954 214.062 290.903C213.798 291.952 212.838 292.399 211.451 292.053C210.468 291.811 209.521 291.437 208.673 290.87C207.309 289.957 205.951 289.034 204.621 288.072C204.168 287.744 203.75 287.332 203.42 286.88C202.006 284.955 202.49 282.958 204.614 281.813C207.268 280.385 210.148 280.023 213.068 280.369C214.683 280.563 215.591 280.122 216.449 278.75C218.144 276.029 220.401 273.78 223.032 271.928C223.819 271.38 224.656 270.929 225.617 270.82C226.047 270.776 226.533 270.851 226.696 271.381C226.825 271.794 226.622 272.132 226.311 272.372C223.283 274.721 221.003 277.729 218.861 280.846C217.372 283.006 215.391 283.734 212.803 283.429C210.674 283.175 208.515 283.355 206.489 284.242C206.266 284.342 206.005 284.405 205.845 284.962ZM245.74 295.926C246.176 295.871 246.618 295.828 247.052 295.764C249.73 295.36 251.864 296.204 253.376 298.492C253.765 302.13 252.618 304.324 249.307 306.112C246.08 307.86 242.668 308.419 239.066 307.528C238.042 307.277 237.498 306.711 237.545 305.913C237.591 305.127 238.348 304.424 239.242 304.348C239.621 304.314 240.013 304.217 240.372 304.292C242.776 304.785 244.983 303.946 247.227 303.343C248.352 303.041 249.148 302.209 250.017 301.555C250.951 300.853 250.624 299.589 249.502 299.149C248.282 298.67 247.026 298.772 245.791 299.154C244.707 299.49 243.635 299.862 242.549 300.186C242.194 300.289 241.758 300.337 241.541 299.929C241.35 299.569 241.509 299.193 241.718 298.867C241.819 298.71 241.942 298.544 242.099 298.449C243.356 297.674 244.39 296.575 245.74 295.926ZM209.902 296.037C210.047 295.555 210.235 294.891 210.453 294.235C210.598 293.796 210.819 293.464 211.402 293.555C211.921 293.639 212.191 293.935 212.296 294.395C212.378 294.758 212.403 295.143 212.413 295.522C212.48 299.048 213.345 302.325 215.211 305.357C216.665 307.721 217.952 310.189 219.359 312.58C220.133 313.894 220.674 315.291 221.059 316.753C221.153 317.11 221.241 317.513 221.175 317.861C221.019 318.691 220.725 319.512 219.732 319.631C218.7 319.752 218.306 318.94 218.104 318.161C217.607 316.232 216.546 314.588 215.563 312.91C213.397 309.208 211.074 305.573 209.973 301.366C209.53 299.684 209.716 297.949 209.902 296.037ZM220.442 301.457C219.658 301.269 218.803 301.021 218.258 300.239C217.836 299.634 218.003 299.179 218.704 298.937C219.253 298.749 219.825 298.761 220.392 298.834C221.348 298.955 222.293 298.898 223.203 298.616C225.62 297.867 228.23 297.66 230.344 296.056C230.973 295.58 231.681 295.559 232.206 296.199C232.694 296.798 232.376 297.408 231.954 297.912C231.675 298.246 231.319 298.526 230.982 298.808C228.367 301.009 222.763 301.667 220.442 301.457ZM239.639 320.114C239.567 320.577 239.521 321.143 239.383 321.688C239.21 322.374 238.749 322.764 238.018 322.758C237.244 322.753 236.698 322.453 236.463 321.658C236.146 320.603 236.275 319.53 236.287 318.465C236.311 316.258 236.534 314.059 237.259 311.953C237.582 311.022 237.926 309.947 239.155 309.876C239.823 309.837 240.094 310.965 239.998 312.475C239.838 314.985 239.758 317.498 239.639 320.114ZM222.808 281.772C223.224 280.461 223.937 279.371 225.128 278.674C225.896 278.223 226.754 278.253 227.402 278.869C228.042 279.481 228.126 280.23 227.668 281.09C227.158 282.039 226.672 282.984 225.753 283.589C225.097 284.018 224.363 284.178 223.624 283.731C222.874 283.276 222.759 282.557 222.808 281.772Z" stroke="black" stroke-width="2"/>
<path d="M205.843 284.963C207.802 286.388 209.676 287.945 212.096 288.597C212.218 288.63 212.346 288.645 212.464 288.688C213.713 289.145 214.292 289.954 214.056 290.904C213.796 291.95 212.833 292.398 211.447 292.055C210.463 291.811 209.516 291.437 208.669 290.87C207.306 289.958 205.948 289.036 204.619 288.074C204.165 287.746 203.747 287.331 203.415 286.88C202.001 284.955 202.488 282.957 204.609 281.814C207.265 280.384 210.145 280.023 213.064 280.37C214.681 280.562 215.588 280.124 216.444 278.751C218.14 276.029 220.397 273.78 223.03 271.929C223.813 271.378 224.651 270.927 225.611 270.821C226.042 270.773 226.528 270.85 226.692 271.381C226.82 271.793 226.617 272.13 226.307 272.37C223.28 274.719 221.001 277.728 218.856 280.845C217.368 283.007 215.387 283.732 212.801 283.427C210.669 283.175 208.512 283.356 206.487 284.241C206.261 284.34 206.002 284.405 205.843 284.963Z" fill="#0D0C0C"/>
<path d="M245.743 295.928C246.181 295.874 246.62 295.831 247.056 295.765C249.733 295.36 251.866 296.206 253.379 298.493C253.769 302.13 252.622 304.324 249.311 306.115C246.082 307.862 242.672 308.42 239.069 307.531C238.045 307.278 237.501 306.713 237.549 305.915C237.595 305.13 238.353 304.426 239.246 304.349C239.622 304.316 240.018 304.219 240.376 304.293C242.779 304.787 244.984 303.948 247.23 303.345C248.355 303.044 249.152 302.212 250.022 301.558C250.955 300.855 250.626 299.591 249.507 299.151C248.284 298.671 247.028 298.773 245.793 299.156C244.71 299.491 243.64 299.866 242.554 300.188C242.198 300.293 241.76 300.337 241.545 299.933C241.353 299.572 241.512 299.194 241.721 298.868C241.822 298.712 241.946 298.548 242.101 298.452C243.359 297.674 244.396 296.576 245.743 295.928Z" fill="#0D0C0C"/>
<path d="M209.903 296.036C210.049 295.554 210.235 294.887 210.454 294.232C210.601 293.794 210.82 293.462 211.403 293.554C211.924 293.637 212.192 293.935 212.297 294.392C212.381 294.758 212.406 295.142 212.413 295.519C212.483 299.045 213.345 302.324 215.211 305.356C216.666 307.719 217.951 310.186 219.36 312.578C220.134 313.892 220.673 315.287 221.058 316.75C221.153 317.107 221.24 317.507 221.174 317.859C221.018 318.687 220.724 319.51 219.733 319.627C218.699 319.749 218.305 318.935 218.104 318.156C217.607 316.227 216.545 314.584 215.564 312.907C213.396 309.203 211.076 305.572 209.973 301.364C209.532 299.681 209.719 297.948 209.903 296.036Z" fill="#0D0C0C"/>
<path d="M220.44 301.457C219.657 301.269 218.803 301.021 218.257 300.237C217.837 299.635 218.005 299.177 218.703 298.938C219.255 298.749 219.826 298.76 220.392 298.832C221.347 298.954 222.294 298.897 223.206 298.615C225.622 297.868 228.23 297.658 230.346 296.054C230.973 295.578 231.683 295.557 232.207 296.2C232.695 296.798 232.377 297.407 231.955 297.911C231.674 298.246 231.32 298.524 230.982 298.808C228.366 301.011 222.764 301.666 220.44 301.457Z" fill="#0D0C0C"/>
<path d="M239.643 320.114C239.571 320.575 239.524 321.143 239.387 321.688C239.216 322.371 238.755 322.762 238.02 322.758C237.25 322.753 236.704 322.45 236.467 321.658C236.152 320.604 236.282 319.527 236.293 318.466C236.317 316.256 236.541 314.057 237.264 311.955C237.585 311.022 237.929 309.947 239.16 309.875C239.828 309.837 240.098 310.966 240.002 312.476C239.842 314.985 239.762 317.498 239.643 320.114Z" fill="#0D0C0C"/>
<path d="M222.805 281.774C223.223 280.462 223.934 279.371 225.125 278.675C225.895 278.224 226.752 278.252 227.4 278.872C228.038 279.482 228.125 280.229 227.665 281.091C227.157 282.042 226.669 282.987 225.751 283.59C225.095 284.02 224.36 284.178 223.622 283.733C222.872 283.279 222.758 282.558 222.805 281.774Z" fill="#0D0C0C"/>
<path d="M267.065 263.755C265.346 263.276 263.39 263.22 261.83 262.002C261.349 261.627 261.021 261.863 260.66 262.125C259.537 262.942 258.42 263.769 257.297 264.585C256.939 264.844 256.559 265.072 256.202 265.332C255.606 265.765 254.887 266.135 254.342 265.507C253.817 264.902 254.245 264.193 254.697 263.633C255.571 262.552 256.538 261.579 257.669 260.747C261.953 257.598 266.565 255.046 271.475 253.019C275.559 251.334 279.716 249.866 284.012 248.804C285.429 248.454 286.862 248.287 288.312 248.199C288.821 248.168 289.318 248.195 289.811 248.334C291.522 248.815 292.114 250.147 291.207 251.688C290.696 252.554 289.989 253.288 289.194 253.932C286.704 255.953 283.887 257.333 280.809 258.167C280.132 258.351 279.931 258.56 279.936 259.294C279.953 261.499 279.204 262.474 277.099 263.2C273.84 264.322 270.497 263.993 267.065 263.755ZM287.726 251.02C279 252.489 270.914 255.538 263.461 260.335C267.549 260.792 271.59 261.265 275.646 260.501C275.83 260.466 276.014 260.41 276.189 260.341C276.54 260.203 276.93 260.074 277.002 259.64C277.074 259.2 276.766 258.949 276.431 258.753C276.104 258.561 275.737 258.431 275.435 258.211C274.955 257.862 274.586 257.398 274.785 256.762C274.983 256.129 275.382 255.638 276.113 255.587C276.616 255.551 277.124 255.587 277.627 255.548C281.523 255.244 284.888 253.715 287.726 251.02Z" stroke="#0D0C0C" stroke-width="2"/>
<path d="M267.065 263.756C265.346 263.277 263.39 263.221 261.83 262.003C261.349 261.628 261.021 261.864 260.66 262.126C259.537 262.943 258.42 263.77 257.296 264.586C256.939 264.846 256.559 265.074 256.202 265.333C255.606 265.766 254.887 266.136 254.342 265.509C253.817 264.904 254.245 264.195 254.697 263.635C255.571 262.554 256.538 261.58 257.67 260.748C261.954 257.599 266.565 255.046 271.475 253.019C275.56 251.333 279.716 249.865 284.012 248.803C285.429 248.453 286.862 248.286 288.312 248.197C288.821 248.166 289.318 248.193 289.811 248.332C291.522 248.814 292.114 250.146 291.207 251.686C290.696 252.553 289.988 253.287 289.194 253.931C286.703 255.952 283.887 257.332 280.808 258.167C280.132 258.35 279.93 258.56 279.936 259.293C279.953 261.499 279.204 262.474 277.098 263.2C273.84 264.322 270.497 263.994 267.065 263.756ZM287.726 251.019C279 252.488 270.914 255.538 263.461 260.335C267.549 260.792 271.589 261.266 275.645 260.501C275.83 260.466 276.014 260.41 276.189 260.341C276.54 260.203 276.93 260.074 277.001 259.64C277.074 259.2 276.765 258.949 276.43 258.752C276.104 258.561 275.737 258.431 275.434 258.211C274.955 257.862 274.586 257.397 274.785 256.762C274.983 256.129 275.382 255.638 276.113 255.586C276.616 255.551 277.124 255.587 277.627 255.548C281.523 255.244 284.888 253.714 287.726 251.019Z" fill="#0D0C0C"/>
<path d="M156.847 32.4731C156.862 36.0835 154.132 38.8922 150.561 38.9382C146.656 38.9888 143.973 36.4525 143.847 32.7707C143.701 28.5131 146.809 26.0031 150.33 26.088C154.688 26.1934 156.88 29.2669 156.847 32.4731ZM153.117 32.5352C153.09 30.9965 151.731 29.5869 150.25 29.5625C148.761 29.5378 147.347 30.9691 147.358 32.4899C147.369 34.0521 148.895 35.6121 150.365 35.563C151.911 35.5116 153.145 34.1537 153.117 32.5352Z" fill="#0D0C0C"/>
<path d="M54.385 47.3332C54.9698 47.0874 55.5914 47.2469 56.0876 47.6703C57.7442 49.084 59.7549 49.2389 61.781 49.3431C62.4716 49.3787 63.1665 49.3276 63.8595 49.3143C66.2614 49.2676 66.9253 50.2538 66.0617 52.4927C65.0811 55.0349 64.2383 57.6065 64.7518 60.4077C64.9094 61.2665 64.7247 62.0435 63.9082 62.545C63.1374 63.0181 62.4437 62.7178 61.7863 62.3024C60.6468 61.5826 59.3937 61.1656 58.0894 60.9079C56.5147 60.5964 54.9552 60.5635 53.4879 61.3864C52.7804 61.7833 52.0362 61.9468 51.3978 61.3001C50.704 60.5975 50.8957 59.8108 51.3331 59.0446C51.3956 58.9352 51.4351 58.8125 51.5014 58.7061C53.2228 55.9397 53.6793 52.9876 52.9082 49.8127C52.6203 48.6266 53.1755 47.7817 54.385 47.3332ZM61.1067 58.235C61.4434 56.721 61.708 55.4334 62.0225 54.1575C62.1731 53.5458 62.0867 53.1568 61.375 53.1437C59.6176 53.1112 57.9189 52.6592 56.1392 52.3244C56.2224 54.0511 56.3059 55.6742 55.6331 57.3824C57.605 57.4683 59.3327 57.6955 61.1067 58.235Z" fill="#0D0C0C"/>
<path d="M98.2418 74.414C97.8552 77.629 96.8967 80.5749 95.4563 83.3286C90.773 92.2566 84.0476 99.1579 74.95 103.645C74.3271 103.952 73.6877 104.238 73.025 104.437C71.9393 104.762 71.1264 104.428 70.7908 103.606C70.4635 102.808 70.8037 101.954 71.7118 101.369C72.0298 101.164 72.3859 101.022 72.7194 100.846C83.76 95.0085 91.1728 86.1355 94.9622 74.2501C95.4583 72.691 95.7591 71.0686 96.1854 69.4852C96.2682 69.1698 96.1915 68.6919 96.7384 68.647C97.2934 68.5993 97.7489 68.7575 97.9879 69.2869C98.2245 69.8045 98.3496 70.3538 98.383 70.9297C98.4548 72.1319 98.4237 73.3287 98.2418 74.414Z" stroke="white" stroke-width="2"/>
<path d="M98.2414 74.4121C97.8561 77.627 96.898 80.5751 95.4547 83.3277C90.7735 92.2562 84.0465 99.1566 74.9501 103.646C74.3288 103.953 73.6867 104.24 73.0253 104.438C71.9375 104.765 71.1279 104.43 70.7913 103.606C70.4653 102.808 70.8053 101.956 71.7129 101.371C72.0301 101.167 72.3853 101.022 72.7204 100.845C83.7581 95.009 91.1724 86.1354 94.9629 74.25C95.4603 72.6903 95.7607 71.0685 96.1845 69.484C96.2689 69.1676 96.1926 68.6898 96.7392 68.6448C97.2938 68.5993 97.7484 68.7555 97.9893 69.2847C98.225 69.803 98.3498 70.3511 98.3835 70.9274C98.454 72.1307 98.424 73.3265 98.2414 74.4121Z" fill="#0D0C0C"/>
</svg>
