<svg width="283" height="449" viewBox="0 0 283 449" fill="none" xmlns="http://www.w3.org/2000/svg">
<path d="M262.923 386.647C259.065 386.607 255.798 383.295 255.841 379.465C255.883 375.602 259.092 372.449 262.873 372.553C266.338 372.648 270.115 376.319 270.1 379.578C270.083 383.426 266.772 386.687 262.923 386.647ZM266.039 378.943C266.105 377.215 265.1 376.212 263.266 376.174C261.329 376.134 259.857 377.406 259.761 379.204C259.663 381.047 260.878 382.433 262.673 382.525C264.65 382.627 265.951 381.243 266.039 378.943Z" stroke="black" stroke-width="2"/>
<path d="M262.923 386.647C259.065 386.607 255.798 383.295 255.841 379.465C255.883 375.602 259.092 372.449 262.873 372.553C266.338 372.648 270.115 376.319 270.1 379.578C270.083 383.426 266.772 386.687 262.923 386.647ZM266.039 378.943C266.105 377.215 265.1 376.212 263.266 376.174C261.329 376.134 259.857 377.406 259.761 379.204C259.663 381.047 260.878 382.433 262.673 382.525C264.65 382.627 265.951 381.243 266.039 378.943Z" fill="#0E0E0E"/>
<path d="M8.54376 337.536C4.89521 337.585 2.02161 334.791 2.03201 331.205C2.0424 327.72 4.87443 324.807 8.29348 324.766C11.7329 324.724 14.6315 327.567 14.6942 331.045C14.7574 334.548 11.9699 337.489 8.54376 337.536ZM7.98458 334.032C9.41432 334.063 10.6507 332.906 10.7048 331.486C10.7651 329.905 9.61013 328.692 8.04653 328.694C6.54072 328.696 5.43111 329.809 5.44358 331.303C5.45605 332.777 6.59684 334.002 7.98458 334.032Z" fill="#0E0E0E"/>
<path d="M207.364 405.17C205.848 405.219 205.012 404.238 204.194 403.168C200.885 398.838 197.008 395.124 192.286 392.348C189.408 390.655 186.31 389.458 183.14 388.467C179.312 387.27 175.404 386.374 171.458 385.65C171.186 385.6 170.909 385.541 170.635 385.548C165.658 385.677 160.676 385.248 155.701 385.763C151.565 386.191 147.418 386.414 143.306 385.494C142.026 385.208 140.753 384.879 139.602 384.213C139.18 383.968 138.713 383.708 138.813 383.121C138.933 382.423 139.573 382.398 140.097 382.288C140.358 382.234 140.647 382.287 140.921 382.322C144.94 382.834 148.949 382.564 152.912 381.908C158.7 380.95 164.526 381.224 170.315 381.424C174.437 381.567 178.436 382.976 182.444 384.053C191.531 386.496 199.127 391.226 205.296 398.355C207.068 400.403 207.806 402.543 207.364 405.17Z" stroke="black" stroke-width="2"/>
<path d="M207.364 405.17C205.848 405.219 205.012 404.238 204.194 403.168C200.885 398.838 197.008 395.124 192.286 392.348C189.408 390.655 186.31 389.458 183.14 388.467C179.312 387.27 175.404 386.374 171.458 385.65C171.186 385.6 170.909 385.541 170.635 385.548C165.658 385.677 160.676 385.248 155.701 385.763C151.565 386.191 147.418 386.414 143.306 385.494C142.026 385.208 140.753 384.879 139.602 384.213C139.18 383.968 138.713 383.708 138.813 383.121C138.933 382.423 139.573 382.398 140.097 382.288C140.358 382.234 140.647 382.287 140.921 382.322C144.94 382.834 148.949 382.564 152.912 381.908C158.7 380.95 164.526 381.224 170.315 381.424C174.437 381.567 178.436 382.976 182.444 384.053C191.531 386.496 199.127 391.226 205.296 398.355C207.068 400.403 207.806 402.543 207.364 405.17Z" fill="#0C0A0A"/>
<path d="M193.227 245.202C193.228 246.994 192.637 247.973 191.506 248.053C190.344 248.135 189.59 247.279 189.288 245.538C189.108 244.502 189.146 243.478 189.452 242.468C189.888 241.03 190.798 240.027 192.29 239.763C194.732 239.332 197.183 238.91 199.667 238.802C200.925 238.748 202.142 239.009 203.224 239.7C204.767 240.684 205.394 243.109 204.505 244.64C204.258 245.066 203.941 245.462 203.379 245.396C202.916 245.341 202.725 244.95 202.552 244.563C201.588 242.406 201.349 242.272 199.013 242.644C197.584 242.873 196.159 243.128 194.732 243.369C193.226 243.624 193.226 243.623 193.227 245.202Z" stroke="black" stroke-width="2"/>
<path d="M193.227 245.202C193.228 246.994 192.637 247.973 191.506 248.053C190.344 248.135 189.59 247.279 189.288 245.538C189.108 244.502 189.146 243.478 189.452 242.468C189.888 241.03 190.798 240.027 192.29 239.763C194.732 239.332 197.183 238.91 199.667 238.802C200.925 238.748 202.142 239.009 203.224 239.7C204.767 240.684 205.394 243.109 204.505 244.64C204.258 245.066 203.941 245.462 203.379 245.396C202.916 245.341 202.725 244.95 202.552 244.563C201.588 242.406 201.349 242.272 199.013 242.644C197.584 242.873 196.159 243.128 194.732 243.369C193.226 243.624 193.226 243.623 193.227 245.202Z" fill="#131313"/>
<path d="M54.0207 188.483C53.3149 188.998 53.0246 189.647 52.5907 190.179C51.3223 191.732 50.0998 193.327 48.7611 194.817C47.1777 196.579 45.7913 196.73 43.8039 195.475C42.4488 194.62 41.2987 193.531 40.2868 192.283C38.0965 189.58 36.2679 186.662 34.8754 183.469C34.26 182.058 34.2177 182.056 32.8049 182.752C31.2639 183.497 18.2752 188.975 12.84 188.525C10.6176 188.241 9.15935 187.828 9.08744 185.646C8.9815 182.431 9.5531 179.307 10.6544 176.296C14.1709 166.683 19.9114 158.57 27.3883 151.639C34.4387 145.103 44.8164 143.388 50.1398 144.001C54.7481 144.532 60.107 147.772 61.2519 148.994C66.7692 154.888 69.93 168.993 70.8291 173.986C71.4866 177.639 72.3701 182.046 72.1758 185.064C72.0163 187.541 71.5434 189.945 71.0768 192.366C70.7228 194.204 68.6599 195.472 66.7248 195.665C63.4089 195.617 55.4196 190.431 54.0207 188.483Z" fill="#8236FE"/>
<path d="M50.371 155.332C47.481 157.616 44.6244 159.879 41.7612 162.133C41.3538 162.454 41.0051 163.088 40.3612 162.678C39.6909 162.25 39.5901 161.562 39.8223 160.844C39.9481 160.456 40.1134 160.059 40.3505 159.73C42.1985 157.168 44.5051 155.119 47.3206 153.671C48.3505 153.141 49.3051 152.903 50.3247 153.925C50.7167 154.303 50.6006 155.15 50.371 155.332Z" fill="#0C0A0A"/>
<path d="M89.1334 135.835C90.503 139.167 89.6824 142.266 87.8629 145.096C85.1945 149.246 81.4901 151.795 76.3295 151.576C73.834 151.471 71.7331 152.333 69.8526 153.885C69.1081 154.5 66.925 156.422 65.6301 156.183C64.3834 156.054 60.1824 154.909 58.7075 149.185C56.8576 142.007 57.3724 127.436 60.8945 125.681C64.6847 124.192 70.2675 126.273 71.0386 126.88C73.3639 128.711 75.4978 130.696 76.9176 133.369C77.8031 135.036 77.8894 135.018 79.5984 134.524C81.9547 133.843 84.5837 133.789 86.9718 134.358C88.0374 134.654 88.8929 135.185 89.1334 135.835Z" fill="#8236FE"/>
<path d="M89.1333 135.835C89.1005 136.761 87.644 136.623 87.2353 136.253C86.6891 135.758 86.702 134.715 86.7057 134.315C86.723 132.403 87.0977 130.058 87.4411 127.947C87.5188 127.47 87.5841 126.985 87.7256 126.526C87.9785 125.705 88.5581 125.258 89.4309 125.317C90.2419 125.372 90.8396 126.127 90.7979 127.101C90.7715 127.716 90.6659 128.346 90.4813 128.933C89.7734 131.185 89.4405 133.507 89.1333 135.835Z" fill="#131313"/>
<path d="M-18.7749 63.8576C-10.7811 63.7936 -3.16077 65.5184 4.1614 68.7062C11.2026 71.7714 17.4063 76.1719 23.4796 80.7646C29.83 85.5664 35.8719 90.7504 41.7998 96.0627C44.4318 98.4213 46.7704 101.071 49.0525 103.765C49.9481 104.822 50.6897 105.983 51.2484 107.264C51.5047 107.852 51.643 108.432 51.6394 109.065C51.6364 109.61 51.406 110.027 50.9117 110.205C50.4334 110.377 50.1576 109.985 49.8997 109.659C48.4379 107.815 46.9345 106.01 45.2469 104.363C34.7716 94.1368 23.5489 84.8283 11.2141 76.9188C3.84075 72.1908 -4.20276 69.1567 -12.9236 68.048C-16.7931 67.5562 -20.6521 67.5636 -24.4529 68.6108C-24.7857 68.7025 -25.1193 68.7926 -25.4474 68.8991C-30.1115 70.4122 -30.7735 72.4669 -27.7745 76.2733C-25.4883 79.1749 -22.7322 81.6135 -19.791 83.8057C-9.78958 91.2614 0.73975 97.8982 11.8451 103.581C18.5702 107.023 25.6216 109.677 32.9837 111.442C38.0274 112.652 43.1547 113.378 48.2998 113.985C48.6426 114.025 49.0072 113.981 49.3291 114.082C50.2366 114.365 50.9705 114.855 51.0041 115.934C51.0343 116.907 50.3376 117.678 49.1845 117.844C47.5883 118.073 46.0148 117.671 44.4409 117.515C28.9495 115.974 14.7546 110.634 1.46443 102.701C-6.73659 97.8064 -14.8192 92.7262 -22.3613 86.841C-25.2589 84.5799 -27.9576 82.1012 -30.3157 79.2689C-31.1591 78.2559 -31.9334 77.1937 -32.5202 76.0099C-34.3508 72.3181 -33.3933 68.8609 -29.9073 66.6679C-27.1434 64.9293 -24.0167 64.3421 -20.8473 63.9332C-20.1646 63.8453 -19.4659 63.8796 -18.7749 63.8576Z" stroke="black" stroke-width="2"/>
<path d="M-18.7749 63.8576C-10.7811 63.7936 -3.16077 65.5184 4.1614 68.7062C11.2026 71.7714 17.4063 76.1719 23.4796 80.7646C29.83 85.5664 35.8719 90.7504 41.7998 96.0627C44.4318 98.4213 46.7704 101.071 49.0525 103.765C49.9481 104.822 50.6897 105.983 51.2484 107.264C51.5047 107.852 51.643 108.432 51.6394 109.065C51.6364 109.61 51.406 110.027 50.9117 110.205C50.4334 110.377 50.1576 109.985 49.8997 109.659C48.4379 107.815 46.9345 106.01 45.2469 104.363C34.7716 94.1368 23.5489 84.8283 11.2141 76.9188C3.84075 72.1908 -4.20276 69.1567 -12.9236 68.048C-16.7931 67.5562 -20.6521 67.5636 -24.4529 68.6108C-24.7857 68.7025 -25.1193 68.7926 -25.4474 68.8991C-30.1115 70.4122 -30.7735 72.4669 -27.7745 76.2733C-25.4883 79.1749 -22.7322 81.6135 -19.791 83.8057C-9.78958 91.2614 0.73975 97.8982 11.8451 103.581C18.5702 107.023 25.6216 109.677 32.9837 111.442C38.0274 112.652 43.1547 113.378 48.2998 113.985C48.6426 114.025 49.0072 113.981 49.3291 114.082C50.2366 114.365 50.9705 114.855 51.0041 115.934C51.0343 116.907 50.3376 117.678 49.1845 117.844C47.5883 118.073 46.0148 117.671 44.4409 117.515C28.9495 115.974 14.7546 110.634 1.46443 102.701C-6.73659 97.8064 -14.8192 92.7262 -22.3613 86.841C-25.2589 84.5799 -27.9576 82.1012 -30.3157 79.2689C-31.1591 78.2559 -31.9334 77.1937 -32.5202 76.0099C-34.3508 72.3181 -33.3933 68.8609 -29.9073 66.6679C-27.1434 64.9293 -24.0167 64.3421 -20.8473 63.9332C-20.1646 63.8453 -19.4659 63.8796 -18.7749 63.8576Z" fill="#0C0A0A"/>
<path d="M58.6113 79.5547C58.6249 86.4428 56.9901 93.484 54.4422 100.342C54.252 100.854 53.9811 101.342 53.7006 101.814C53.4701 102.202 53.0638 102.407 52.6369 102.256C52.1928 102.1 52.0829 101.672 52.1628 101.228C52.4079 99.8665 52.6132 98.4954 52.9262 97.1497C56.52 81.6914 55.7151 66.3674 51.3374 51.2073C49.3013 44.1563 45.9851 37.7232 40.958 32.2696C39.9213 31.1449 38.8041 30.1116 37.4677 29.3528C34.4858 27.6597 31.8131 28.8713 31.3646 32.2581C30.7416 36.9636 31.2261 41.6448 32.0226 46.3001C32.9364 51.6408 34.6874 56.7522 36.3059 61.8964C38.6311 69.2878 41.0466 76.6508 44.1485 83.7646C44.7012 85.0321 45.3115 86.2744 45.8787 87.5359C46.1045 88.0383 46.3471 88.5465 46.4715 89.0779C46.658 89.8745 46.5132 90.6148 45.7036 91.0334C44.8296 91.4851 44.0622 91.2185 43.489 90.505C43.1044 90.0265 42.8283 89.454 42.549 88.9004C39.9571 83.7641 37.8125 78.4335 35.9656 72.9958C33.4076 65.4648 30.9516 57.8973 28.5734 50.3077C27.0343 45.396 26.1873 40.3674 26.6858 35.1718C26.9503 32.4137 27.8915 29.9197 29.3418 27.6132C30.8553 25.2061 34.6487 24.1874 37.7286 25.2725C39.1152 25.7609 40.3363 26.5351 41.4546 27.4861C45.5889 31.0025 48.512 35.4241 50.9574 40.1998C55.115 48.3199 57.1659 57.0283 58.1908 66.0307C58.685 70.3731 58.8304 74.7215 58.6113 79.5547Z" stroke="black" stroke-width="2"/>
<path d="M58.6113 79.5547C58.6249 86.4428 56.9901 93.484 54.4422 100.342C54.252 100.854 53.9811 101.342 53.7006 101.814C53.4701 102.202 53.0638 102.407 52.6369 102.256C52.1928 102.1 52.0829 101.672 52.1628 101.228C52.4079 99.8665 52.6132 98.4954 52.9262 97.1497C56.52 81.6914 55.7151 66.3674 51.3374 51.2073C49.3013 44.1563 45.9851 37.7232 40.958 32.2696C39.9213 31.1449 38.8041 30.1116 37.4677 29.3528C34.4858 27.6597 31.8131 28.8713 31.3646 32.2581C30.7416 36.9636 31.2261 41.6448 32.0226 46.3001C32.9364 51.6408 34.6874 56.7522 36.3059 61.8964C38.6311 69.2878 41.0466 76.6508 44.1485 83.7646C44.7012 85.0321 45.3115 86.2744 45.8787 87.5359C46.1045 88.0383 46.3471 88.5465 46.4715 89.0779C46.658 89.8745 46.5132 90.6148 45.7036 91.0334C44.8296 91.4851 44.0622 91.2185 43.489 90.505C43.1044 90.0265 42.8283 89.454 42.549 88.9004C39.9571 83.7641 37.8125 78.4335 35.9656 72.9958C33.4076 65.4648 30.9516 57.8973 28.5734 50.3077C27.0343 45.396 26.1873 40.3674 26.6858 35.1718C26.9503 32.4137 27.8915 29.9197 29.3418 27.6132C30.8553 25.2061 34.6487 24.1874 37.7286 25.2725C39.1152 25.7609 40.3363 26.5351 41.4546 27.4861C45.5889 31.0025 48.512 35.4241 50.9574 40.1998C55.115 48.3199 57.1659 57.0283 58.1908 66.0307C58.685 70.3731 58.8304 74.7215 58.6113 79.5547Z" fill="#131313"/>
<path d="M-158.725 383.757C-148.955 371.285 -142.642 359.704 -135.235 343.222C-126.92 324.722 -115.221 293.237 -101.56 277.535C-83.4755 256.748 -62.2727 239.754 -41.6935 227.282C-25.2884 217.339 -6.16431 210.064 7.77963 206.736C26.0722 202.371 72.843 194.449 83.3767 189.691" stroke="black" stroke-width="12" stroke-linecap="round" stroke-linejoin="round"/>
<path d="M117.411 179.407C128.636 178.16 145.821 178.674 153.916 182.233C162.598 186.057 178.245 200.534 174.919 218.411C171.593 236.287 157.443 249.863 140.837 257.847C119.218 268.24 105.083 267.409 87.8297 277.802C77.6041 283.962 62.8852 295.887 64.5482 325.82" stroke="black" stroke-width="12" stroke-linecap="round"/>
<path d="M117.411 179.407C131.754 177.744 144.414 176.836 162.022 184.311C184.057 193.666 194.259 217.52 195.507 235.605" stroke="black" stroke-width="12" stroke-linecap="round"/>
<path d="M62.4344 153.375C62.4344 153.375 59.4384 147.105 54.1171 148.916C47.5758 151.142 49.9892 155.522 49.9892 155.522C49.9892 155.522 51.5015 159.696 55.3183 162.286C64.3293 168.399 82.9269 179.746 82.9269 179.746C82.9269 179.746 89.057 184.596 91.3655 181.581C93.5946 178.67 89.7733 176.341 89.7733 176.341L68.8687 158.163L62.4344 153.375Z" fill="white"/>
<path d="M61.674 114.596C54.2003 113.776 51.1378 127.263 51.1378 127.263L49.7824 146.165C49.7824 146.165 48.5168 157.064 57.3577 156.54C63.5501 156.172 63.0584 148.704 63.0584 148.704L66.8881 122.346C66.8881 122.346 68.0067 115.291 61.674 114.596Z" fill="white"/>
<path d="M48.5293 154.462C48.6423 156.617 49.4783 158.443 50.7228 160.174C52.6099 162.81 54.9105 164.911 57.821 166.386C61.7566 168.385 65.5691 170.618 69.3181 172.956C70.9337 173.851 72.5621 174.717 74.1565 175.65C76.3003 176.9 78.4059 178.221 80.5581 179.464C81.4462 179.977 82.402 180.391 83.3538 180.788C83.9373 181.032 84.605 181.18 84.9791 180.449C85.3276 179.775 84.9508 179.263 84.4442 178.834C84.2342 178.653 84.02 178.48 83.8057 178.311C82.1736 177.033 80.5034 175.813 78.7445 174.716C72.1965 170.614 65.3942 166.941 58.7147 163.066C54.9102 160.857 52.2509 157.751 51.6701 153.192C51.6013 152.654 51.4412 152.104 51.1971 151.619C50.8554 150.95 50.4178 150.305 49.4891 150.44C48.3108 150.589 48.5107 153.522 48.5293 154.462ZM88.958 178.593C81.8963 171.355 74.7596 164.51 67.0964 157.892C66.524 157.399 65.8888 156.947 65.6313 156.184C66.0165 154.833 66.8973 155.628 67.6155 155.724C74.9167 160.882 81.6786 166.675 87.998 172.995C89.0588 174.058 90.1405 175.102 91.2097 176.161C92.3158 177.259 91.6801 178.329 91.3811 178.666C90.9643 179.131 89.8582 179.518 88.958 178.593Z" stroke="black" stroke-width="2"/>
<path d="M48.531 154.462C48.6407 156.616 49.4792 158.443 50.7212 160.175C52.6116 162.811 54.9089 164.911 57.8201 166.388C61.7583 168.386 65.5695 170.618 69.3185 172.954C70.9324 173.85 72.5625 174.719 74.1569 175.649C76.3023 176.9 78.4058 178.222 80.5568 179.463C81.4479 179.977 82.4024 180.39 83.3534 180.788C83.9365 181.032 84.605 181.179 84.9807 180.45C85.3284 179.775 84.9504 179.264 84.4455 178.834C84.2355 178.655 84.0216 178.48 83.8044 178.31C82.1752 177.032 80.505 175.815 78.7466 174.714C72.1952 170.614 65.3958 166.942 58.7147 163.066C54.9098 160.858 52.2517 157.752 51.6709 153.194C51.6025 152.656 51.442 152.103 51.1975 151.621C50.8567 150.949 50.419 150.306 49.4879 150.438C48.3112 150.588 48.5112 153.522 48.531 154.462Z" fill="#0C0A0A"/>
<path d="M88.9568 178.592C81.8951 171.353 74.7596 164.508 67.0964 157.894C66.5256 157.401 65.89 156.949 65.63 156.183C66.0144 154.831 66.8964 155.629 67.6151 155.723C74.9167 160.88 81.6786 166.674 87.9968 172.994C89.0592 174.056 90.1401 175.101 91.2101 176.161C92.3166 177.258 91.6809 178.329 91.3799 178.666C90.9639 179.131 89.8598 179.517 88.9568 178.592Z" fill="#0E0E0E"/>
<path d="M49.7512 147.832C48.9786 147.769 48.8508 146.923 48.7178 146.186C48.2832 143.782 48.6179 141.374 48.5368 138.97C48.7832 136.645 48.9633 134.306 49.2845 131.99C50.3204 124.513 52.1352 117.291 57.0874 111.322C61.6139 105.868 67.4672 102.965 74.6312 102.938C76.3484 102.928 77.1079 103.427 77.1253 104.471C77.143 105.481 76.4421 106.068 74.7278 106.19C72.227 106.366 69.8025 106.796 67.4517 107.688C61.8065 109.833 58.0605 113.903 55.7046 119.327C53.7585 123.804 52.8279 128.554 52.3081 133.383C51.8669 137.503 51.4589 141.627 51.0136 145.746C50.9207 146.614 50.8312 147.919 49.7512 147.832ZM68.2962 125.8C67.7915 128.909 67.1721 131.866 66.6266 134.912C65.4823 141.293 64.9149 147.765 63.5964 154.115C63.4731 154.359 63.3374 154.599 63.2182 154.843C63.048 155.19 62.7593 155.357 62.3855 155.32C61.8954 155.277 61.65 154.908 61.6174 154.48C61.5232 153.24 61.3876 151.991 61.4347 150.752C61.7256 143.355 62.7721 136.049 64.0844 128.776C64.4391 126.809 64.8062 124.842 65.1567 122.875C65.2453 122.39 65.3669 121.934 65.6665 121.534C66.1309 120.911 66.7444 120.702 67.4953 120.848C68.3085 121.002 68.5765 121.575 68.7178 122.317C68.9455 123.517 68.4927 124.593 68.2962 125.8Z" stroke="black" stroke-width="2"/>
<path d="M49.7508 147.829C48.9806 147.767 48.8517 146.922 48.7182 146.185C48.2832 143.783 48.6175 141.374 48.5367 138.971C48.7815 136.644 48.962 134.308 49.2832 131.991C50.3204 124.515 52.1364 117.29 57.0886 111.322C61.616 105.866 67.4672 102.966 74.6324 102.936C76.3484 102.929 77.1095 103.428 77.1256 104.469C77.1413 105.481 76.4437 106.067 74.7277 106.189C72.2278 106.365 69.8008 106.796 67.4512 107.688C61.8073 109.831 58.0588 113.901 55.7029 119.328C53.7588 123.805 52.8283 128.552 52.3089 133.383C51.866 137.503 51.4601 141.627 51.0148 145.746C50.9206 146.614 50.8312 147.917 49.7508 147.829Z" fill="#0E0E0E"/>
<path d="M68.2975 125.802C67.7928 128.91 67.1738 131.865 66.6274 134.911C65.4823 141.291 64.9149 147.763 63.5968 154.116C63.471 154.358 63.3386 154.597 63.2182 154.842C63.0467 155.191 62.7576 155.357 62.385 155.322C61.8941 155.275 61.6508 154.91 61.6178 154.481C61.5228 153.24 61.3871 151.991 61.4355 150.752C61.7256 143.356 62.7734 136.049 64.084 128.774C64.4382 126.807 64.8075 124.842 65.1576 122.874C65.2437 122.39 65.3673 121.932 65.6674 121.532C66.1325 120.912 66.7456 120.703 67.4949 120.846C68.3085 121.001 68.576 121.577 68.717 122.318C68.9451 123.516 68.4935 124.594 68.2975 125.802Z" fill="#0E0E0E"/>
<path d="M88.962 176.314C89.6504 175.578 90.7521 175.699 91.2101 176.161C92.5848 177.548 94.0163 178.886 95.4277 180.266C95.6148 180.12 95.7727 180.013 95.9118 179.886C98.3352 177.673 100.188 177.904 102.043 180.643C103.212 182.368 104.109 184.116 102.873 186.212C102.405 187.006 101.923 187.793 100.986 188.026C100.145 188.234 99.9021 188.687 99.9258 189.505C99.9456 190.187 99.8537 190.892 99.6907 191.557C98.5085 196.391 94.254 196.02 91.8847 193.891C90.7268 192.851 89.9965 191.499 89.5047 190.046C88.9043 188.273 88.2156 186.546 87.3328 184.896C87.3002 184.835 87.268 184.773 87.2401 184.71C86.6177 183.302 86.7905 182.239 87.7118 181.8C88.5908 181.381 89.4599 181.776 90.1955 183.063C91.1219 184.684 91.9723 186.343 92.5292 188.143C92.8971 189.333 93.3562 190.513 94.2058 191.454C95.0633 192.404 96.0315 192.188 96.3704 190.967C96.7733 189.515 96.6126 188.088 95.9123 186.736C95.1765 185.315 94.3016 183.996 93.1693 182.854C91.816 181.488 90.3005 179.966 88.9568 178.592C88.2868 177.906 88.3042 177.018 88.962 176.314ZM96.6723 181.917C97.5328 183.224 98.238 184.295 98.9583 185.389C100.344 183.982 100.339 183.539 99.3298 182.001C98.5032 180.742 97.7236 181.599 96.6723 181.917Z" stroke="black" stroke-width="2"/>
<path d="M88.962 176.314C89.6504 175.578 90.7521 175.699 91.2101 176.161C92.5848 177.548 94.0163 178.886 95.4277 180.266C95.6148 180.12 95.7727 180.013 95.9118 179.886C98.3352 177.673 100.188 177.904 102.043 180.643C103.212 182.368 104.109 184.116 102.874 186.212C102.405 187.006 101.923 187.793 100.986 188.026C100.145 188.234 99.9021 188.687 99.9258 189.505C99.9456 190.187 99.8537 190.892 99.6907 191.557C98.5085 196.391 94.254 196.02 91.8847 193.891C90.7268 192.851 89.9965 191.499 89.5047 190.046C88.9043 188.273 88.2156 186.546 87.3328 184.896C87.3002 184.835 87.268 184.773 87.2401 184.71C86.6177 183.302 86.7905 182.239 87.7118 181.8C88.5908 181.381 89.4599 181.776 90.1955 183.063C91.1219 184.684 91.9723 186.343 92.5292 188.143C92.8971 189.333 93.3562 190.513 94.2058 191.454C95.0633 192.404 96.0315 192.188 96.3704 190.967C96.7733 189.515 96.6126 188.088 95.9123 186.736C95.1765 185.315 94.3016 183.996 93.1693 182.854C91.816 181.488 90.3005 179.966 88.9568 178.592C88.2868 177.906 88.3042 177.018 88.962 176.314ZM96.6723 181.917C97.5328 183.224 98.238 184.295 98.9583 185.389C100.344 183.982 100.339 183.539 99.3298 182.001C98.5032 180.742 97.7236 181.599 96.6723 181.917Z" fill="#0E0E0E"/>
<path d="M109.346 154.94C109.346 154.94 106.579 150.094 102.172 152.049C97.8197 153.98 99.7419 158.679 99.7419 158.679L110.643 178.342L113.22 180.242L113.156 185.958L117.624 186.112L120.047 183.229L118.684 175.002L109.346 154.94Z" fill="white"/>
<path d="M98.1124 155.316C99.0648 154.955 99.8516 155.49 100.139 156.146C101.905 160.169 104.232 163.932 106.552 167.703C108.462 170.809 110.593 173.834 111.56 177.439C111.653 177.788 111.816 178.079 112.144 178.251C114.757 179.624 115.762 181.709 114.813 184.587C117.189 184.741 118.21 183.883 118.171 181.818C118.133 179.789 117.539 177.86 116.932 175.949C115.694 172.053 114.136 168.281 112.391 164.585C110.826 161.271 109.256 157.96 107.715 154.635C107.354 153.856 106.621 152.872 107.645 152.24C108.695 151.592 109.215 152.748 109.748 153.402C110.4 154.203 111.022 155.05 111.519 155.953C115.223 162.698 118.666 169.576 120.76 177.012C121.464 179.512 121.665 181.842 121.591 182.76C121.417 184.932 120.425 186.366 118.56 187.335C116.808 188.245 114.932 188.641 112.984 188.817C111.656 188.937 110.6 188.157 109.449 187.757C108.529 187.437 107.679 187.114 106.681 187.101C105.352 187.084 105 186.513 105.701 185.447C106.189 184.703 106.519 184.213 105.533 183.665C105.169 183.462 104.864 182.919 105.131 182.602C105.861 181.733 105.7 180.636 106.057 179.684C106.544 178.386 107.592 177.813 108.863 177.622C108.996 176.861 108.488 176.5 108.202 176.074C104.228 170.156 100.494 164.114 97.3498 157.689C97.0271 157.03 96.975 155.747 98.1124 155.316ZM110.101 180.37C110.153 180.371 109.946 180.356 109.741 180.368C108.712 180.428 108.562 180.663 109.24 181.54C109.692 182.124 109.651 182.624 109.516 183.255C109.376 183.915 109.885 184.318 110.395 184.475C110.964 184.65 111.223 184.095 111.419 183.664C111.618 183.229 111.767 182.764 111.88 182.298C112.289 180.61 112.149 180.444 110.101 180.37Z" fill="#0E0E0E"/>
<path d="M98.1124 155.316C99.0648 154.955 99.8516 155.49 100.139 156.146C101.905 160.169 104.232 163.932 106.552 167.703C108.462 170.809 110.593 173.834 111.56 177.439C111.653 177.788 111.816 178.079 112.144 178.251C114.757 179.624 115.762 181.709 114.813 184.587C117.189 184.741 118.21 183.883 118.171 181.818C118.133 179.789 117.539 177.86 116.932 175.949C115.694 172.053 114.136 168.281 112.391 164.585C110.826 161.271 109.256 157.96 107.715 154.635C107.354 153.856 106.621 152.872 107.645 152.24C108.695 151.592 109.215 152.748 109.748 153.402C110.4 154.203 111.022 155.05 111.519 155.953C115.223 162.698 118.666 169.576 120.76 177.012C121.464 179.512 121.665 181.842 121.591 182.76C121.417 184.932 120.425 186.366 118.56 187.335C116.808 188.245 114.932 188.641 112.984 188.817C111.656 188.937 110.6 188.157 109.449 187.757C108.529 187.437 107.679 187.114 106.681 187.101C105.352 187.084 105 186.513 105.701 185.447C106.189 184.703 106.519 184.213 105.533 183.665C105.169 183.462 104.864 182.919 105.131 182.602C105.861 181.733 105.7 180.636 106.057 179.684C106.544 178.386 107.592 177.813 108.863 177.622C108.996 176.861 108.488 176.5 108.202 176.074C104.228 170.156 100.494 164.114 97.3498 157.689C97.0271 157.03 96.975 155.747 98.1124 155.316ZM110.101 180.37C110.153 180.371 109.946 180.356 109.741 180.368C108.712 180.428 108.562 180.663 109.24 181.54C109.692 182.124 109.651 182.624 109.516 183.255C109.376 183.915 109.885 184.318 110.395 184.475C110.964 184.65 111.223 184.095 111.419 183.664C111.618 183.229 111.767 182.764 111.88 182.298C112.289 180.61 112.149 180.444 110.101 180.37Z" stroke="black" stroke-width="2"/>
<path d="M97.3498 157.691C94.5037 151.589 92.5856 143.568 91.3175 135.783C91.1891 135 91.5457 134.343 92.3001 134.173C93.1255 133.987 93.6214 134.624 93.7839 135.329C95.1554 141.31 95.4771 143.023 96.2439 145.825C97.2306 149.416 98.581 152.828 100.14 156.147C100.408 156.715 100.669 157.899 99.591 158.419C98.7173 158.837 97.8289 158.719 97.3498 157.691ZM107.244 148.194C107.242 149.054 107.194 149.678 106.652 150.116C105.872 150.756 104.758 150.34 104.455 149.16C104.045 147.559 103.877 145.898 103.483 144.293C102.132 138.732 100.489 133.242 99.4919 127.597C99.1514 125.697 98.8569 123.79 98.6164 121.875C98.5208 121.134 98.5103 120.219 99.4894 120.03C100.548 119.83 100.674 120.779 100.862 121.488C102.721 128.481 104.584 135.479 106.397 142.488C106.899 144.427 107.076 146.429 107.244 148.194Z" stroke="black" stroke-width="2"/>
<path d="M97.3499 157.689C94.505 151.588 92.5868 143.567 91.3179 135.785C91.1899 134.999 91.5457 134.345 92.301 134.174C93.1255 133.987 93.621 134.623 93.7823 135.327C95.1554 141.309 95.4755 143.021 96.2448 145.825C97.2294 149.416 98.5823 152.829 100.14 156.146C100.408 156.716 100.671 157.897 99.5893 158.418C98.7161 158.839 97.8302 158.719 97.3499 157.689Z" fill="#0E0E0E"/>
<path d="M107.245 148.194C107.242 149.056 107.193 149.677 106.654 150.117C105.872 150.755 104.758 150.342 104.455 149.158C104.045 147.558 103.875 145.898 103.484 144.292C102.131 138.732 100.49 133.24 99.4902 127.597C99.1535 125.697 98.8573 123.789 98.6151 121.875C98.5208 121.131 98.5094 120.218 99.4911 120.031C100.549 119.829 100.673 120.779 100.861 121.487C102.722 128.483 104.584 135.479 106.397 142.488C106.899 144.426 107.075 146.428 107.245 148.194Z" fill="#131313"/>
<path d="M33.1406 230.486C33.0339 232.953 33.0837 235.42 33.0879 237.883C33.0988 242.025 33.4734 246.169 33.5635 250.318C33.7081 257.045 35.1099 263.631 35.928 270.285C36.53 275.156 37.3844 279.99 37.3659 284.922C37.3612 285.332 37.4087 285.755 37.5212 286.148C37.7377 286.912 38.0903 287.604 39.0618 287.499C39.9804 287.404 40.3921 286.741 40.4344 285.928C40.5145 284.484 40.5333 283.028 40.4837 281.577C40.3594 277.768 39.6782 274.02 39.2225 270.242C38.3593 263.038 36.8131 255.913 36.8025 248.607C36.7954 245.708 36.5608 242.805 36.4225 239.907C36.2756 236.783 36.2341 233.663 36.5646 230.565C36.7111 229.218 35.6317 228.838 34.9596 228.814C34.3461 228.792 33.2069 229.048 33.1406 230.486ZM33.6332 282.811C33.4527 283.323 33.5862 283.965 32.8785 283.972C32.285 283.979 32.1204 283.458 31.8999 283.032C29.7649 278.893 28.1731 274.564 27.1778 270.008C26.1437 265.276 24.7609 260.644 23.1499 256.079C21.3488 250.97 20.0412 245.756 19.7894 240.324C19.6839 238.041 19.8818 235.765 20.3076 233.514C20.4881 232.55 20.8146 231.642 21.5834 230.97C22.6152 230.068 23.3804 230.295 23.5623 231.628C23.6807 232.509 23.7313 233.436 23.605 234.313C22.6622 240.862 24.0154 247.143 26.0305 253.277C28.1474 259.726 29.9382 266.245 31.4373 272.853C31.8658 274.744 32.425 276.591 33.0233 278.433C33.4895 279.874 33.8721 281.354 33.6332 282.811ZM38.2341 292.077C38.7558 291.798 38.5703 291.23 38.7224 290.802C38.9681 290.099 39.3491 289.578 40.153 289.509C40.9105 289.439 41.5855 289.697 41.9149 290.355C43.4826 293.457 44.7805 296.69 44.3357 300.24C43.9217 303.513 41.7105 304.389 39.0168 302.489C36.337 300.604 34.6082 297.932 33.2793 295.023C32.3032 292.895 31.5582 290.662 30.7338 288.468C30.4624 287.749 30.4219 286.972 30.4861 286.223C30.5762 285.199 31.3382 284.766 32.2488 285.212C33.1356 285.649 33.7893 286.359 34.2494 287.245C35.0211 288.726 36.0999 289.989 37.1253 291.289C37.4053 291.646 37.6209 292.144 38.2341 292.077Z" stroke="black" stroke-width="2"/>
<path d="M33.1421 230.485C33.0333 232.952 33.0847 235.419 33.0896 237.885C33.0978 242.024 33.4734 246.169 33.5635 250.318C33.7098 257.045 35.11 263.633 35.9294 270.284C36.5291 275.154 37.3862 279.991 37.3653 284.921C37.3634 285.331 37.4092 285.755 37.5205 286.148C37.7375 286.913 38.0905 287.603 39.0635 287.501C39.9804 287.404 40.3922 286.743 40.436 285.931C40.5138 284.483 40.533 283.028 40.4854 281.579C40.3606 277.768 39.678 274.019 39.2241 270.242C38.3583 263.039 36.8137 255.913 36.801 248.608C36.796 245.707 36.5589 242.806 36.4223 239.906C36.2754 236.782 36.233 233.661 36.565 230.565C36.7092 229.219 35.6332 228.837 34.9615 228.814C34.3445 228.793 33.2054 229.049 33.1421 230.485Z" fill="#0E0E0E"/>
<path d="M33.6338 282.81C33.4509 283.323 33.5869 283.964 32.8799 283.972C32.2868 283.979 32.1196 283.458 31.8996 283.031C29.7661 278.893 28.173 274.562 27.1778 270.009C26.1435 265.277 24.7589 260.644 23.1487 256.078C21.3475 250.97 20.0396 245.755 19.7895 240.324C19.6843 238.042 19.8828 235.764 20.3061 233.515C20.4874 232.552 20.8126 231.641 21.5841 230.968C22.6151 230.068 23.3788 230.295 23.5611 231.628C23.6818 232.51 23.7299 233.437 23.6038 234.314C22.6626 240.864 24.0167 247.145 26.0306 253.279C28.1465 259.724 29.9372 266.244 31.4355 272.851C31.8641 274.742 32.4262 276.589 33.0216 278.433C33.4873 279.874 33.8712 281.352 33.6338 282.81Z" fill="#0E0E0E"/>
<path d="M38.2346 292.079C38.7571 291.8 38.5707 291.232 38.7217 290.803C38.9705 290.098 39.3495 289.578 40.1529 289.507C40.9086 289.44 41.5846 289.695 41.9168 290.354C43.4832 293.459 44.7824 296.692 44.3352 300.241C43.9231 303.512 41.712 304.388 39.016 302.491C36.3383 300.606 34.6101 297.932 33.2776 295.023C32.303 292.896 31.5602 290.662 30.7338 288.468C30.4625 287.749 30.4199 286.974 30.4855 286.223C30.5746 285.201 31.3378 284.766 32.2492 285.214C33.1354 285.649 33.7896 286.359 34.2504 287.244C35.021 288.724 36.0997 289.988 37.124 291.288C37.4052 291.645 37.6218 292.144 38.2346 292.079Z" fill="#0C0A0A"/>
<path d="M17.5559 206.016C19.6317 212.337 22.0115 218.531 25.5102 224.228C26.2038 225.352 26.8021 226.514 27.0735 227.825C27.1954 228.404 27.2149 228.961 26.622 229.278C25.9368 229.645 25.4281 229.276 25.0224 228.742C22.9347 225.986 20.7803 223.273 19.4216 220.038C17.5734 215.637 15.66 211.265 14.2795 206.682C13.6438 204.57 12.8903 202.692 12.4179 201.116C11.0349 196.471 9.33712 190.306 9.66968 184.626C9.72052 184.075 9.88682 182.274 11.3372 182.212C11.9907 182.143 12.5237 182.384 12.8578 182.97C13.4618 184.116 12.9568 185.923 13.087 186.954C13.6335 191.208 14.4597 195.418 15.6323 199.539C16.0518 201.009 16.9348 204.151 17.5559 206.016ZM36.5723 230.397C36.5757 229.095 36.6212 227.788 36.7292 226.483C36.9184 224.208 37.2818 221.946 37.4337 219.668C37.7849 214.419 38.0528 209.166 38.3626 203.913C38.4598 202.227 38.6625 198.901 38.8985 197.341C39.1242 196.389 39.1881 195.426 39.0475 194.461C38.8548 193.158 38.2512 192.551 37.2491 192.596C36.2806 192.64 35.7516 193.305 35.7056 194.662C35.6774 195.419 35.7618 196.179 35.7791 196.94C35.8133 198.559 35.2902 202.732 35.1704 204.119C34.5944 210.809 34.1998 217.524 33.3513 224.18C33.0716 226.35 33.0316 228.501 33.1558 230.637C33.236 231.939 34.339 232.337 34.9511 232.31C35.5801 232.281 36.5695 231.829 36.5723 230.397Z" stroke="black" stroke-width="2"/>
<path d="M17.5566 206.018C19.6307 212.339 22.0099 218.531 25.5122 224.229C26.204 225.355 26.8036 226.516 27.0756 227.825C27.1958 228.404 27.2165 228.962 26.6241 229.278C25.9369 229.644 25.4278 229.275 25.024 228.742C22.9352 225.985 20.7822 223.275 19.4218 220.04C17.5715 215.639 15.6609 211.264 14.2815 206.684C13.6443 204.568 12.8886 202.692 12.4191 201.117C11.0332 196.472 9.33636 190.306 9.67042 184.627C9.72115 184.077 9.88757 182.275 11.3355 182.212C11.9918 182.144 12.5247 182.386 12.8566 182.97C13.4605 184.116 12.9549 185.925 13.0871 186.953C13.6335 191.209 14.4616 195.42 15.6323 199.539C16.0508 201.011 16.9338 204.153 17.5566 206.018Z" fill="#0E0E0E"/>
<path d="M36.5723 230.397C36.5741 229.094 36.6199 227.789 36.7285 226.482C36.9173 224.207 37.2815 221.945 37.4341 219.668C37.7856 214.419 38.0537 209.165 38.3617 203.913C38.4595 202.226 38.6639 198.901 38.8971 197.339C39.1231 196.387 39.1898 195.426 39.0473 194.46C38.8545 193.156 38.2528 192.551 37.2483 192.596C36.282 192.639 35.7523 193.307 35.7041 194.661C35.6772 195.418 35.7635 196.179 35.7793 196.938C35.8128 198.561 35.2896 202.73 35.172 204.12C34.5952 210.81 34.2011 217.523 33.3502 224.178C33.0724 226.35 33.03 228.5 33.1572 230.636C33.235 231.94 34.3395 232.337 34.9525 232.309C35.578 232.28 36.5702 231.831 36.5723 230.397Z" fill="#0E0E0E"/>
<path d="M71.5793 230.705C70.8522 232.196 70.0872 233.692 69.0829 235.096C63.6771 242.651 57.4245 249.512 51.3491 256.52C50.064 258.004 48.9166 259.485 48.4512 261.457C48.1834 262.584 47.7213 263.689 47.0631 264.68C46.839 265.018 46.6054 265.431 46.1057 265.307C45.6427 265.195 45.4619 264.807 45.4855 264.359C45.6735 260.896 45.9443 257.619 48.565 254.763C53.3813 249.516 58.0777 244.14 62.4313 238.486C64.2456 236.127 65.9923 233.721 67.6 231.218C67.9888 230.616 68.3485 230.013 68.5779 229.366C69.0153 228.139 70.2917 228.3 70.6093 228.406C70.9271 228.508 72.2437 229.335 71.5793 230.705ZM42.7277 249.171C42.8085 248.914 42.9213 248.442 43.0909 247.992C45.1617 242.554 47.65 237.342 51.3421 232.783C52.3012 231.605 53.1735 230.358 54.1006 229.161C54.3944 228.782 54.7242 228.422 55.0914 228.123C55.3657 227.901 55.7489 227.845 56.0375 228.124C56.2405 228.317 56.2873 228.596 56.171 228.883C55.854 229.649 55.5775 230.429 55.2285 231.175C54.0032 233.81 52.2177 236.117 50.7678 238.627C48.8244 241.981 47.3861 245.559 45.8381 249.096C45.6738 249.472 45.5294 249.862 45.3648 250.242C45.0262 251.018 44.4822 251.517 43.5887 251.245C42.6583 250.966 42.6305 250.185 42.7277 249.171Z" stroke="black" stroke-width="2"/>
<path d="M71.5778 230.703C70.8531 232.196 70.086 233.692 69.083 235.094C63.6782 242.653 57.4233 249.512 51.3509 256.518C50.0627 258.004 48.9171 259.483 48.4497 261.454C48.1822 262.583 47.7196 263.689 47.0632 264.678C46.8386 265.017 46.6039 265.428 46.1044 265.307C45.641 265.195 45.4599 264.806 45.4848 264.357C45.6752 260.896 45.9435 257.619 48.5658 254.762C53.3822 249.515 58.0778 244.14 62.4293 238.485C64.2439 236.127 65.9939 233.722 67.6005 231.217C67.9868 230.615 68.3469 230.012 68.577 229.367C69.0153 228.14 70.2905 228.3 70.6094 228.405C70.9283 228.509 72.242 229.336 71.5778 230.703Z" fill="#0E0E0E"/>
<path d="M42.7291 249.169C42.8069 248.913 42.9196 248.442 43.0903 247.994C45.1628 242.556 47.6482 237.344 51.3438 232.784C52.2992 231.605 53.1714 230.359 54.1024 229.16C54.3951 228.783 54.7251 228.422 55.0933 228.122C55.3649 227.9 55.7482 227.843 56.0376 228.122C56.2412 228.319 56.2881 228.598 56.1693 228.885C55.8536 229.648 55.5756 230.427 55.2281 231.175C54.0022 233.812 52.2184 236.119 50.7676 238.625C48.8244 241.982 47.384 245.56 45.8399 249.096C45.6746 249.474 45.5307 249.862 45.365 250.24C45.0245 251.018 44.4833 251.519 43.5874 251.247C42.6584 250.965 42.6311 250.183 42.7291 249.169Z" fill="#131313"/>
<path d="M68.5652 229.398C69.4259 227.205 69.615 224.875 69.3038 222.475C68.4987 216.221 66.9492 210.122 65.2778 204.051C64.7831 202.253 64.2676 200.455 63.815 198.647C63.2468 196.48 62.4601 193.165 63.0913 192.177C63.1123 192.003 63.3322 191.847 63.4607 191.687C64.3104 191.591 65.0302 191.851 65.6116 192.475C66.1539 193.13 67.4256 198.865 67.865 200.348C69.4966 205.789 70.9308 211.266 72.0314 216.839C72.4708 219.088 72.6927 221.355 72.7972 223.641C72.9121 226.14 72.4116 228.454 71.5955 230.671C71.1061 231.995 70.0019 231.85 69.508 231.651C68.9607 231.436 68.0754 230.644 68.5652 229.398ZM42.641 202.13C43.3995 202.28 43.7688 202.814 44.0847 203.333C46.4226 207.186 49.3609 210.593 52.0619 214.172C54.5984 217.538 57.2955 220.771 60.1054 223.91C60.7961 224.681 61.4557 225.491 62.0125 226.359C62.7083 227.451 62.5363 228.583 61.7222 229.142C60.9772 229.651 59.9865 229.482 59.1495 228.554C57.4876 226.708 55.8648 224.826 54.2639 222.925C51.0106 219.065 48.0166 215.01 45.1693 210.85C43.8409 208.907 42.6708 206.877 41.9491 204.615C41.7543 204.002 41.6416 203.413 41.7928 202.792C41.9035 202.315 42.269 202.162 42.641 202.13Z" stroke="black" stroke-width="2"/>
<path d="M68.5639 229.399C69.4243 227.205 69.6129 224.876 69.3037 222.476C68.4979 216.22 66.9472 210.121 65.2765 204.051C64.7815 202.252 64.2684 200.457 63.8142 198.647C63.2452 196.479 62.4597 193.166 63.0905 192.176C63.112 192.001 63.3333 191.849 63.462 191.686C64.31 191.591 65.0287 191.849 65.6124 192.474C66.1531 193.13 67.4251 198.868 67.8645 200.349C69.4963 205.787 70.932 211.267 72.0294 216.838C72.4724 219.088 72.6939 221.356 72.7977 223.639C72.9116 226.141 72.4121 228.453 71.5939 230.669C71.1044 231.996 70.0035 231.849 69.5058 231.652C68.9599 231.435 68.0754 230.645 68.5639 229.399Z" fill="#0E0E0E"/>
<path d="M42.6414 202.132C43.4008 202.28 43.7702 202.813 44.0856 203.333C46.421 207.185 49.3589 210.591 52.0597 214.173C54.5976 217.538 57.2955 220.771 60.1065 223.912C60.7952 224.681 61.4568 225.493 62.012 226.361C62.7088 227.45 62.5355 228.583 61.7227 229.141C60.9772 229.652 59.9844 229.484 59.1499 228.555C57.4889 226.707 55.8641 224.825 54.2622 222.925C51.0101 219.067 48.0178 215.01 45.1698 210.848C43.8413 208.907 42.6711 206.879 41.9495 204.615C41.7543 204.003 41.6433 203.414 41.7915 202.792C41.9052 202.315 42.2698 202.162 42.6414 202.132Z" fill="#0E0E0E"/>
<path d="M83.2901 76.2397C84.829 73.7223 86.0385 69.4676 86.4414 67.0593C86.94 64.0781 86.6226 61.2934 84.6533 58.8277C81.3687 54.7157 75.198 52.0863 69.4783 56.6221C65.718 59.604 62.6794 63.0438 61.2279 67.754C59.7552 72.5317 60.6577 76.3886 64.187 79.1464C65.851 80.4464 67.7455 81.1798 69.8782 81.4183C71.487 81.5981 75.7469 81.2014 78.0584 80.7687L83.2901 76.2397Z" fill="#FED635"/>
<path d="M75.5002 82.0056C74.3607 82.8472 73.2113 84.608 72.6885 85.8844C71.4223 88.9768 72.0884 91.9728 74.8907 94.0764C75.6434 94.5883 76.7885 94.0183 77.4963 93.7822C78.2041 93.546 78.8112 93.7973 79.5792 94.2396C80.3471 94.6818 81.7236 95.2124 81.9862 94.7817C83.5055 92.8447 83.9301 90.3935 84.2635 88.0665C84.4268 86.9266 84.2768 85.7296 84.8595 84.6697C85.04 84.7041 85.2011 84.6881 85.2984 84.7598C88.2462 86.873 90.9928 89.2749 94.048 91.2288C102.319 96.5179 107.949 93.595 110.071 92.6842C110.972 92.2968 111.364 91.4189 111.141 90.4124C110.913 89.3845 110.151 88.7902 109.168 88.901C107.08 89.1361 105.908 88.6261 105.129 87.168C103.957 84.9763 102.665 82.8488 101.406 80.7043C98.1735 75.1974 91.1318 73.1065 84.5243 75.1923C82.4838 75.82 76.4826 81.447 75.5002 82.0056Z" fill="#FED635"/>
<path d="M103.146 93.8903C103.731 93.6849 104.298 93.8659 104.575 94.4136C105.581 96.9985 105.373 99.6072 104.472 102.125C103.759 104.108 103.998 105.758 105.366 107.315C105.772 107.781 106.115 108.313 106.421 108.853C107.509 110.799 106.901 112.733 104.907 113.709C103.406 114.44 101.802 114.418 100.234 114.097C99.0805 113.86 98.3603 113.943 97.7191 115.137C96.3983 117.609 94.1702 118.682 91.3801 118.717C88.5524 118.76 85.8751 118.364 83.5375 116.596C81.1465 114.781 80.3704 112.432 80.9818 109.441C81.811 109.65 81.8993 110.308 82.1513 110.822C83.5335 113.619 85.8501 115.029 88.8949 115.28C90.0621 115.376 91.2434 115.331 92.4164 115.286C93.4896 115.244 94.4215 114.818 95.191 114.049C95.6913 113.547 95.9744 113.151 95.7096 112.288C95.2565 110.798 96.1564 109.898 97.722 110.061C98.7519 110.172 99.7682 110.375 100.789 110.544C101.47 110.656 102.142 110.768 102.866 110.389C102.899 109.591 102.222 109.209 101.887 108.653C100.777 106.827 99.9872 104.935 100.768 102.774C101.639 100.351 102.228 97.8839 102.332 95.3073C102.344 94.9748 102.52 94.112 103.146 93.8903ZM74.9171 93.7649C76.6398 91.4143 78.6578 92.0149 80.9663 93.7787C81.3456 94.0698 81.6514 94.2312 82.0873 94.6644C82.6259 95.2026 83.2971 96.1498 82.4283 96.8759C81.7023 97.479 80.8737 96.8502 80.1547 96.4513C79.6713 96.1839 79.2176 95.8587 78.7084 95.6576C77.7274 95.2724 77.1196 95.7146 77.0702 96.7784C77.0256 97.7923 77.6296 98.4269 78.3465 99.0129C79.0551 99.5946 79.8832 99.8949 80.7322 100.195C81.9331 100.629 82.4229 101.433 82.1467 102.34C81.9006 103.148 81.0725 103.588 79.9717 103.496C75.3983 103.121 72.7322 98.767 74.4925 94.5459C74.5737 94.3555 74.7988 93.9298 74.9171 93.7649ZM84.2846 74.0961C82.4673 73.768 80.8768 74.3406 79.3979 75.3385C77.232 76.7984 75.599 78.5679 74.5146 81.0919C74.4207 81.3112 74.3249 81.6927 74.5039 82.0481C74.6258 82.2947 74.8318 82.4717 75.059 82.6031C77.0654 83.1287 78.2379 81.6409 79.4472 80.5777C80.7447 79.4406 81.9915 78.3735 83.6692 77.8145C85.1799 77.3117 85.6927 76.0743 85.1797 74.7381C85.0706 74.4542 84.5834 74.1452 84.2846 74.0961Z" stroke="black" stroke-width="2"/>
<path d="M103.146 93.8908C103.731 93.6836 104.299 93.8663 104.576 94.412C105.582 96.9968 105.373 99.6088 104.47 102.125C103.759 104.109 104.001 105.757 105.366 107.315C105.774 107.779 106.117 108.313 106.42 108.854C107.509 110.799 106.903 112.734 104.908 113.708C103.406 114.44 101.803 114.42 100.234 114.096C99.0805 113.858 98.3587 113.941 97.7199 115.137C96.4 117.609 94.1711 118.68 91.3805 118.718C88.552 118.758 85.8759 118.365 83.5388 116.594C81.1456 114.781 80.3725 112.431 80.9823 109.441C81.8131 109.65 81.9001 110.309 82.153 110.822C83.5335 113.619 85.8523 115.027 88.8937 115.279C90.0609 115.376 91.2443 115.33 92.4176 115.285C93.4904 115.245 94.4198 114.819 95.1905 114.049C95.6913 113.548 95.976 113.152 95.7113 112.288C95.2553 110.799 96.1585 109.897 97.7216 110.062C98.7502 110.171 99.7682 110.376 100.79 110.544C101.468 110.655 102.144 110.765 102.864 110.387C102.901 109.592 102.222 109.208 101.886 108.654C100.777 106.827 99.9885 104.937 100.769 102.771C101.64 100.353 102.23 97.8843 102.333 95.3056C102.346 94.9728 102.518 94.1128 103.146 93.8908Z" fill="#0E0E0E"/>
<path d="M74.9179 93.7644C76.6419 91.4139 78.6587 92.0157 80.9663 93.7807C81.3439 94.0698 81.6527 94.2304 82.0877 94.6652C82.6263 95.2034 83.2984 96.151 82.4271 96.8771C81.7031 97.4802 80.8724 96.8505 80.1535 96.4508C79.6729 96.1839 79.2159 95.8586 78.7093 95.6584C77.7291 95.2707 77.1179 95.7141 77.0706 96.7796C77.0256 97.794 77.6292 98.4282 78.3448 99.0137C79.0534 99.5933 79.8845 99.8933 80.7318 100.198C81.9343 100.63 82.4221 101.431 82.145 102.341C81.8994 103.147 81.0729 103.586 79.9709 103.496C75.3983 103.123 72.7339 98.7666 74.4942 94.5442C74.5729 94.3559 74.7972 93.929 74.9179 93.7644Z" fill="#0E0E0E"/>
<path d="M84.2847 74.0969C82.4681 73.768 80.8772 74.3422 79.3992 75.338C77.2329 76.7976 75.5998 78.5696 74.5142 81.0927C74.4199 81.312 74.3241 81.6939 74.5035 82.0485C74.6271 82.2927 74.8301 82.4725 75.0577 82.6014C77.0633 83.1274 78.2388 81.6405 79.4468 80.5793C80.7448 79.4393 81.9932 78.3731 83.6692 77.8136C85.1787 77.3096 85.694 76.0735 85.1801 74.7389C85.0702 74.4533 84.5835 74.1431 84.2847 74.0969Z" fill="#0C0A0A"/>
<path d="M95.4252 93.1676C95.9206 93.485 96.4075 93.8189 96.8901 94.1611C97.3356 94.4737 97.7697 94.6948 97.9758 95.221C98.2749 95.981 98.2124 96.7412 97.4995 97.282C96.8747 97.7573 96.2378 97.4508 95.8018 97.0343C94.4855 95.7722 92.8941 94.9436 91.3493 94.0365C90.7545 93.6889 90.1384 93.3827 89.5351 93.0516C89.0765 92.797 88.777 92.4402 88.9039 91.8762C89.0266 91.3121 89.4979 91.1844 89.9694 91.0275C90.8791 90.7342 91.8724 91.1362 92.6237 91.6228C93.0695 91.9105 93.5871 92.0951 94.0499 92.3497C94.5169 92.6003 94.9712 92.8756 95.4252 93.1676ZM93.796 102.009C92.9365 101.908 92.1172 101.558 91.4085 100.985C90.3867 100.158 89.4447 99.2621 88.7758 98.1071C88.376 97.4208 88.3743 96.8345 88.9671 96.2508C89.5093 95.7205 89.9936 95.5472 90.4886 96.2637C91.0901 97.1269 91.9483 97.7186 92.7476 98.3679C93.2296 98.76 93.7118 99.1396 94.3937 99.1389C95.3333 99.137 96.0363 99.4775 96.0075 100.562C95.9783 101.68 95.042 101.753 94.2619 101.985C94.1326 102.021 93.9873 102.003 93.796 102.009ZM92.5178 111.067C92.5654 112.007 91.6184 112.67 90.7795 112.207C88.7547 111.1 87.5317 109.302 86.8619 107.12C86.7536 106.761 86.8741 106.401 87.1962 106.222C87.6397 105.977 88.2977 105.885 88.5386 106.274C89.5636 107.932 90.7737 109.397 92.3363 110.566C92.4724 110.667 92.4776 110.942 92.5178 111.067Z" stroke="black" stroke-width="2"/>
<path d="M95.4261 93.1668C95.9223 93.4858 96.4083 93.8201 96.8905 94.1594C97.3377 94.4738 97.7697 94.6931 97.9762 95.2218C98.2733 95.9823 98.2123 96.7424 97.5011 97.2837C96.8767 97.7586 96.237 97.4504 95.8022 97.0335C94.4847 95.771 92.8924 94.9428 91.3477 94.0357C90.7554 93.6877 90.1376 93.3835 89.536 93.0512C89.0765 92.7974 88.7791 92.439 88.9022 91.8758C89.0258 91.3105 89.4987 91.1827 89.9715 91.0288C90.8787 90.733 91.8737 91.135 92.6249 91.6224C93.0682 91.9101 93.5863 92.0946 94.0516 92.3477C94.5173 92.6011 94.9716 92.8748 95.4261 93.1668Z" fill="#131313"/>
<path d="M93.7956 102.011C92.9361 101.908 92.1185 101.559 91.4094 100.986C90.3888 100.16 89.4455 99.2617 88.7754 98.1063C88.3777 97.4208 88.3726 96.8349 88.9692 96.2491C89.5077 95.7209 89.9927 95.5488 90.4895 96.2633C91.0909 97.1286 91.9474 97.7186 92.7476 98.3687C93.2296 98.7604 93.7131 99.1396 94.392 99.1389C95.335 99.1378 96.0347 99.4779 96.0067 100.561C95.9779 101.679 95.0404 101.753 94.262 101.984C94.1339 102.022 93.9882 102.002 93.7956 102.011Z" fill="#131313"/>
<path d="M92.519 111.068C92.5646 112.006 91.618 112.67 90.7775 112.209C88.7543 111.098 87.5334 109.301 86.8623 107.121C86.7524 106.763 86.8738 106.4 87.1971 106.222C87.6385 105.979 88.2985 105.884 88.5403 106.276C89.5644 107.934 90.7749 109.396 92.338 110.568C92.4724 110.669 92.4772 110.943 92.519 111.068Z" fill="#131313"/>
</svg>
