<svg width="173" height="29" viewBox="0 0 173 29" fill="none" xmlns="http://www.w3.org/2000/svg">
<path d="M17.3509 25.9748C15.7481 27.2502 14.1707 27.9 12.6188 27.9H8.11574V15.4584H11.8047C14.5523 15.4584 16.3332 16.6857 17.1473 19.1403H17.3254V11.6801H17.1473C16.3587 13.7738 14.5778 14.8326 11.8047 14.8326H8.11574V3.42581H11.7284C13.5602 3.42581 15.1375 4.00338 16.4096 5.13441C17.6816 6.2655 18.7756 7.92595 19.7423 10.1159L19.895 10.0437L19.5643 2.80011H0V2.96857C1.19573 3.35361 1.80632 5.06222 1.80632 8.09443V23.2314C1.80632 26.3116 1.19573 28.0203 0 28.3572V28.5257H20.6328L21.4469 21.2099L21.2943 21.1376C20.2766 23.0629 18.9537 24.6752 17.3509 25.9748Z" fill="black"/>
<path d="M42.5889 9.68274H36.2794V9.87523C36.89 10.0196 37.3734 10.2843 37.7805 10.6935C38.1875 11.1026 38.4673 11.632 38.62 12.3058C38.7727 12.9797 38.6709 13.7737 38.3147 14.6882L35.2109 22.7741L31.471 13.6294C30.5805 11.4635 30.8859 10.2122 32.4378 9.87523V9.70676H22.1596V9.87523C23.0246 9.99558 23.8132 10.8378 24.5256 12.4261L31.7763 28.5497H33.7862L34.0152 27.8759L39.2306 14.2069C39.6885 13.0759 40.2228 12.1133 40.8589 11.295C41.495 10.4769 42.0801 9.99558 42.5889 9.87523V9.68274Z" fill="black"/>
<path d="M55.1812 24.8196C53.1966 24.8196 51.5177 24.194 50.1944 22.9185C48.8717 21.6431 48.1339 19.8863 48.0067 17.6242H59.6331C59.7094 17.4797 59.7352 17.0225 59.7352 16.2525C59.7352 14.2791 59.0227 12.6427 57.5979 11.3432C56.1731 10.0437 54.2905 9.39391 51.9244 9.39391C49.1768 9.39391 46.8874 10.2844 45.0554 12.0892C43.2238 13.8941 42.3078 16.2765 42.3078 19.2125C42.3078 22.0521 43.2238 24.3865 45.0807 26.1672C46.938 27.9481 49.2278 28.8625 51.9754 28.8625C54.2143 28.8625 56.0205 28.3091 57.369 27.2021C58.7175 26.0951 59.5825 24.8196 59.9387 23.3757L59.8368 23.3035C58.7175 24.3142 57.1654 24.8196 55.1812 24.8196ZM47.9813 16.8541C47.9813 14.8326 48.3628 13.1722 49.1515 11.8967C49.9149 10.6212 50.8562 9.99557 51.9502 9.99557C52.9424 9.99557 53.7054 10.4288 54.2143 11.295C54.723 12.1614 54.9777 13.3888 54.9777 14.977C54.9777 15.7471 54.9266 16.3969 54.7993 16.9263H48.0067V16.8541H47.9813Z" fill="black"/>
<path d="M70.9298 27.0336C70.5989 26.3117 70.4463 25.1566 70.4463 23.5923V16.2284C70.4463 13.0999 70.5484 10.8378 70.7772 9.46614L70.6753 9.3699C68.5895 9.99557 65.9945 10.3565 62.8903 10.4288L62.8139 10.5731C63.4247 10.8619 63.8572 11.4154 64.1625 12.2577C64.4677 13.0999 64.6203 14.4235 64.6203 16.2284V23.5923C64.6203 25.301 64.4934 26.4561 64.2388 27.1058C63.9846 27.7555 63.5011 28.1887 62.7887 28.4053V28.5498H72.6598V28.4053C71.8202 28.1887 71.2351 27.7315 70.9298 27.0336Z" fill="black"/>
<path d="M163.281 27.0336C162.95 26.3117 162.798 25.1566 162.798 23.5923V16.2284C162.798 13.0999 162.9 10.8378 163.129 9.46614L163.027 9.3699C160.941 9.99557 158.346 10.3565 155.242 10.4288L155.165 10.5731C155.776 10.8619 156.209 11.4154 156.514 12.2577C156.819 13.0999 156.972 14.4235 156.972 16.2284V23.5923C156.972 25.301 156.845 26.4561 156.591 27.1058C156.336 27.7555 155.853 28.1887 155.14 28.4053V28.5498H165.011V28.4053C164.172 28.1887 163.587 27.7315 163.281 27.0336Z" fill="black"/>
<path d="M104.487 27.0336C103.953 26.3116 103.265 24.8918 102.35 22.7742L94.0809 2.80011H90.7486L82.0222 22.8704C81.3862 24.3865 80.6484 25.6138 79.885 26.6004C79.0963 27.5871 78.3587 28.1647 77.672 28.3572V28.5257H85.7364V28.3572C84.4646 28.1406 83.5487 27.5149 83.0146 26.4801C82.4547 25.4453 82.5057 24.0976 83.1162 22.4612L84.2863 19.7659H94.3866L95.6836 23.0629C96.8544 26.071 96.4983 27.8518 94.5898 28.3572V28.5257H106.166V28.3572C105.581 28.1887 104.995 27.7315 104.487 27.0336ZM84.592 19.0199L89.5273 7.6372L94.0809 19.0199H84.592Z" fill="black"/>
<path d="M115.198 7.32435C115.198 4.86972 115.402 3.18518 115.834 2.2707C116.267 1.35623 116.903 0.898997 117.743 0.898997C119.6 0.898997 120.973 2.92046 121.813 6.98745L121.966 7.01154L123.772 2.12632C123.161 1.57282 122.296 1.13965 121.203 0.778673C120.083 0.417696 118.938 0.249241 117.743 0.249241C115.096 0.249241 113.036 0.826802 111.56 1.95786C110.085 3.11298 109.347 4.8938 109.347 7.32435V9.68274H107.998V10.2844H109.347V23.5683C109.347 25.2769 109.22 26.4321 108.965 27.0817C108.711 27.7315 108.253 28.1647 107.54 28.3813V28.5257H117.335V28.3813C116.572 28.1887 116.013 27.7315 115.681 27.0095C115.351 26.2876 115.198 25.1325 115.198 23.5923V10.2844H119.829V9.68274H115.198V7.32435Z" fill="black"/>
<path d="M131.48 26.095C129.292 26.095 128.198 24.6752 128.198 21.8114V10.2843H133.439V9.68274H128.198V5.73603L128.02 5.66385C127.282 6.33765 126.214 7.13178 124.815 8.0222C123.416 8.91262 122.22 9.53828 121.227 9.92335V10.3083H122.652V22.365C122.652 24.4827 123.187 26.095 124.23 27.202C125.298 28.3091 126.85 28.8625 128.911 28.8625C130.361 28.8625 131.557 28.4775 132.523 27.7315C133.49 26.9855 134.101 26.071 134.304 25.0362L134.202 24.964C133.643 25.7099 132.727 26.095 131.48 26.095Z" fill="black"/>
<path d="M147.534 24.8196C145.55 24.8196 143.871 24.194 142.548 22.9185C141.225 21.6431 140.487 19.8863 140.36 17.6242H151.986C152.063 17.4797 152.088 17.0225 152.088 16.2525C152.088 14.2791 151.376 12.6427 149.951 11.3432C148.526 10.0437 146.644 9.39391 144.278 9.39391C141.53 9.39391 139.24 10.2844 137.409 12.0892C135.577 13.8941 134.661 16.2765 134.661 19.2125C134.661 22.0521 135.577 24.3865 137.434 26.1672C139.292 27.9481 141.581 28.8625 144.329 28.8625C146.568 28.8625 148.374 28.3091 149.722 27.2021C151.071 26.0951 151.936 24.8196 152.292 23.3757L152.19 23.3035C151.045 24.3142 149.493 24.8196 147.534 24.8196ZM140.309 16.8541C140.309 14.8326 140.691 13.1722 141.479 11.8967C142.243 10.6212 143.184 9.99557 144.278 9.99557C145.27 9.99557 146.033 10.4288 146.542 11.295C147.051 12.1614 147.305 13.3888 147.305 14.977C147.305 15.7471 147.254 16.3969 147.127 16.9263H140.334V16.8541H140.309Z" fill="black"/>
<path d="M80.6486 12.9074L77.6974 11.3673L76.069 8.57574L74.4663 11.3673L71.4898 12.9074L74.4663 14.4476L76.069 17.2391L77.6974 14.4476L80.6486 12.9074Z" fill="#793CFB"/>
<path d="M170.049 11.3673L168.421 8.57574L166.818 11.3673L163.841 12.9074L166.818 14.4476L168.421 17.2391L170.049 14.4476L173 12.9074L170.049 11.3673Z" fill="#793CFB"/>
</svg>
