<svg width="120" height="120" viewBox="0 0 120 120" fill="none" xmlns="http://www.w3.org/2000/svg">
<path d="M60.0367 0.469727C27.1744 0.469727 0.533936 27.1102 0.533936 59.9725C0.533936 92.8336 27.1744 119.474 60.0367 119.474C92.899 119.474 119.539 92.8336 119.539 59.9714C119.539 27.1091 92.899 0.469727 60.0367 0.469727Z" fill="white"/>
<path d="M78.6506 44.9042C78.6907 45.0029 78.6907 45.1016 78.6506 45.2004C78.5966 45.2256 78.5025 45.2417 78.4956 45.2762C78.4726 45.3887 78.5759 45.3829 78.6506 45.3967C78.6976 45.5942 78.6976 45.7928 78.6494 45.9903C78.5759 46.0236 78.5748 46.0569 78.6494 46.0913C78.6597 46.2544 78.6793 46.4186 78.6793 46.5816C78.6816 54.6887 78.6839 62.7958 78.6804 70.9028C78.6804 71.245 78.7447 71.5952 78.6023 71.927C78.5541 71.966 78.4772 71.9947 78.4611 72.0441C77.9215 73.6928 76.4656 74.4896 74.9156 74.4896C64.9084 74.4851 54.9011 74.4919 44.8939 74.4816C43.8318 74.4805 42.9328 74.0855 42.2037 73.2646C41.9592 72.989 41.8949 72.5596 41.4988 72.4184C41.2267 71.9121 41.2852 71.3701 41.3208 70.8293C41.5126 70.656 41.4276 70.4263 41.4287 70.2231C41.4333 64.4721 41.4322 58.7221 41.4333 52.9711C41.4333 52.3752 41.4816 52.3269 42.082 52.3235C43.3462 52.3155 44.6045 52.3258 45.8663 52.1432C47.2625 51.94 48.646 51.7081 49.9974 51.2993C50.537 51.1363 50.5359 51.1248 50.5359 51.6725C50.537 56.0561 50.5359 60.4386 50.5393 64.8222C50.5393 65.0117 50.4681 65.2218 50.6357 65.386C50.7862 65.4859 50.9561 65.448 51.1168 65.4491C57.0034 65.4514 62.8911 65.4445 68.7776 65.4618C69.2495 65.4629 69.3414 65.3136 69.3391 64.8773C69.3253 59.7819 69.3299 54.6864 69.331 49.5909C69.331 48.5645 69.331 48.5645 68.3505 48.4818C68.261 48.3521 68.1243 48.3681 67.9934 48.3681C66.9096 48.367 65.8246 48.367 64.7407 48.3681C64.611 48.3681 64.4732 48.3509 64.3837 48.4818C63.1322 48.5243 61.8796 48.5243 60.6281 48.4818C60.4914 48.305 60.2951 48.3727 60.1229 48.3716C59.3008 48.3647 58.4776 48.3739 57.6555 48.3647C57.5051 48.3635 57.2801 48.4623 57.2227 48.2579C57.1813 48.1109 57.3777 48.0329 57.5005 47.9502C57.8542 47.7137 58.2135 47.4841 58.5511 47.2257C60.0127 46.1074 61.3307 44.8307 62.6465 43.5459C64.1885 42.0407 65.4044 40.3093 66.4572 38.4447C66.5686 38.2472 66.5904 38.0578 66.3998 37.9866C65.9865 37.8327 65.8051 37.4286 65.4802 37.207C64.8751 36.7948 65.0588 36.1151 64.8395 35.5778C64.8383 35.5743 64.9463 35.5261 65.0025 35.4985C65.3412 36.0439 65.75 36.525 66.2724 36.905C66.2999 36.9326 66.3275 36.959 66.3562 36.9865C66.3723 37.0072 66.378 37.0302 66.3746 37.0566C66.5158 37.5112 66.9705 37.6639 67.2575 37.9785C68.1289 38.9407 69.0899 39.811 70.0107 40.7215C70.772 41.4735 71.6939 42.0223 72.4356 42.7916C72.6595 43.0235 72.9443 43.2038 73.1682 43.4449C73.5023 43.8042 73.9305 43.5987 74.3152 43.6619C74.6022 43.7089 74.7767 43.6619 74.8582 43.4081C74.9352 43.1659 75.0902 43.1211 75.3072 43.1222C76.1304 43.1268 76.9536 43.1291 77.7768 43.1211C78.0156 43.1188 78.1063 43.1946 78.158 43.446C78.259 43.9466 78.2384 44.5023 78.6506 44.9042Z" fill="#00A051"/>
<path d="M65.0036 35.4949C64.9474 35.5225 64.8394 35.5707 64.8406 35.5742C65.0599 36.1115 64.875 36.7912 65.4813 37.2034C65.8073 37.425 65.9876 37.828 66.4009 37.983C66.5915 38.0541 66.5697 38.2436 66.4583 38.4411C65.4055 40.3045 64.1896 42.0371 62.6476 43.5423C61.3318 44.8271 60.0138 46.1038 58.5522 47.2221C58.2146 47.4804 57.8552 47.7101 57.5016 47.9466C57.3788 48.0293 57.1824 48.1062 57.2238 48.2543C57.2812 48.4587 57.5062 48.3599 57.6566 48.3611C58.4787 48.3703 59.3019 48.3622 60.124 48.368C60.2962 48.3691 60.4914 48.3014 60.6292 48.4782C60.4489 48.4874 60.2687 48.5046 60.0884 48.5046C57.1227 48.5057 54.1571 48.5161 51.1914 48.4931C50.7229 48.4897 50.6277 48.6332 50.6288 49.0729C50.6426 54.5106 50.6368 59.947 50.6357 65.3847C50.4692 65.2205 50.5404 65.0104 50.5392 64.8209C50.5347 60.4373 50.5358 56.0548 50.5358 51.6712C50.5358 51.1235 50.5369 51.135 49.9973 51.298C48.6471 51.7056 47.2624 51.9387 45.8663 52.1419C44.6045 52.3256 43.3461 52.3142 42.082 52.3222C41.4815 52.3268 41.4333 52.3739 41.4333 52.9697C41.4321 58.7208 41.4333 64.4707 41.4287 70.2218C41.4287 70.425 41.5136 70.6547 41.3208 70.828C41.3104 70.6811 41.2921 70.5341 41.2921 70.386C41.2943 55.9492 41.2989 41.5124 41.2966 27.0756C41.2966 26.4154 41.4344 25.8023 41.7502 25.2259C41.8765 25.196 41.9304 25.1191 41.8994 24.9894C41.9132 24.9676 41.927 24.9457 41.9408 24.9239C42.0693 24.9067 42.1268 24.8332 42.1141 24.7046C42.144 24.6679 42.1738 24.63 42.2037 24.5933C42.2703 24.5967 42.3013 24.5657 42.2955 24.498L42.3036 24.4899C42.3713 24.4957 42.4012 24.4658 42.3943 24.3981L42.4012 24.39C42.6124 24.3969 42.7341 24.2936 42.7732 24.0881L42.7927 24.0732C42.8581 24.0961 42.8914 24.0709 42.8972 24.0043C42.9626 23.9664 43.0269 23.9273 43.0923 23.8894C43.1566 23.9113 43.1934 23.8837 43.2129 23.824C43.2382 23.8114 43.2623 23.7976 43.2875 23.7827C43.3495 23.8091 43.3874 23.7838 43.4127 23.7276C43.4391 23.7172 43.4666 23.7069 43.4931 23.6977C44.6619 23.4371 45.8479 23.537 47.0271 23.5312C49.5484 23.5186 52.0697 23.5209 54.5911 23.5209C57.9528 23.522 61.3146 23.5278 64.6764 23.5324C64.689 23.5553 64.6994 23.5794 64.7097 23.6036C64.7005 23.7666 64.6844 23.9308 64.6833 24.0938C64.6821 27.2019 64.6913 30.311 64.6752 33.4191C64.6741 34.1367 64.7315 34.829 65.0036 35.4949Z" fill="#00A55A"/>
<path d="M65.0036 35.495C64.7315 34.8291 64.6741 34.1368 64.6775 33.4215C64.6936 30.3134 64.6833 27.2043 64.6855 24.0962C64.6855 23.9332 64.7028 23.769 64.712 23.606C64.9014 23.6151 64.9887 23.7724 65.1012 23.8838C69.4997 28.2583 73.8972 32.6338 78.2923 37.0129C78.4266 37.1472 78.6195 37.2448 78.6413 37.4687C75.8329 37.4653 73.0234 37.4607 70.215 37.4595C68.9211 37.4584 67.6179 37.5422 66.3756 37.0519C66.3791 37.0267 66.3733 37.0025 66.3573 36.983C66.3297 36.9555 66.3021 36.9291 66.2734 36.9015C65.751 36.5226 65.3423 36.0404 65.0036 35.495Z" fill="#72D1AA"/>
<path d="M78.6505 44.904C78.2383 44.5021 78.2601 43.9464 78.1591 43.4436C78.1086 43.191 78.0179 43.1163 77.7779 43.1186C76.9547 43.1267 76.1315 43.1244 75.3082 43.1198C75.0912 43.1186 74.9362 43.1634 74.8593 43.4057C74.7778 43.6594 74.6021 43.7065 74.3162 43.6594C73.9316 43.5963 73.5033 43.8018 73.1692 43.4424C72.9453 43.2013 72.6595 43.021 72.4367 42.7891C71.695 42.0199 70.773 41.471 70.0118 40.719C69.091 39.8085 68.13 38.9371 67.2585 37.9761C68.5525 38.2172 69.8568 38.2953 71.1737 38.2792C73.183 38.2551 75.1934 38.2769 77.2027 38.27C77.6964 38.2677 78.1867 38.2608 78.6494 38.4698C78.6999 40.6145 78.6976 42.7593 78.6505 44.904Z" fill="#009250"/>
<path d="M28.0516 88.0608C28.6946 88.0608 29.3387 88.0814 29.9805 88.0527C30.3491 88.0355 30.457 88.171 30.488 88.5246C30.7785 91.8324 28.1079 94.1861 24.7484 93.5707C22.6576 93.1872 20.9561 91.4994 20.5829 89.4385C20.2098 87.3811 21.1926 85.2512 23.0193 84.1617C24.8954 83.0422 27.1859 83.1811 28.8645 84.4946C29.163 84.7277 29.2296 84.8792 28.9185 85.172C28.2893 85.7645 28.3065 85.7817 27.5533 85.3419C26.2341 84.5727 24.5762 84.7093 23.389 85.6852C22.203 86.6612 21.7655 88.3616 22.3143 89.8668C22.8367 91.2974 24.1628 92.217 25.7037 92.2193C27.3306 92.2216 28.566 91.372 28.9231 90.0356C29.0299 89.6349 28.9805 89.4649 28.5143 89.4833C27.7072 89.5143 26.8989 89.4822 26.0906 89.4959C25.8001 89.5005 25.691 89.419 25.6853 89.1079C25.6658 88.0631 25.6531 88.063 26.7175 88.063C27.1607 88.0608 27.6061 88.0608 28.0516 88.0608Z" fill="#747474"/>
<path d="M51.715 90.8517C51.6518 91.7978 51.8344 92.9724 51.6243 94.1331C51.3809 95.473 50.5117 96.3537 49.2809 96.5477C47.7723 96.7854 46.4691 96.201 45.8124 95.0184C45.6493 94.7244 45.6884 94.5717 46.0064 94.4753C46.1476 94.4328 46.2866 94.3742 46.4152 94.3019C46.7435 94.1182 46.9456 94.1699 47.1741 94.5109C47.6643 95.2423 48.5036 95.4581 49.3154 95.1412C49.9422 94.8967 50.3762 94.0987 50.328 93.3099C50.312 93.0539 50.2431 93.0424 50.033 93.1618C48.5817 93.9873 47.096 93.7072 46.0856 92.427C45.1109 91.1916 45.1625 89.3407 46.1798 88.1834C47.3015 86.9055 49.01 86.7367 50.0387 87.5347C50.1122 87.591 50.2201 87.7494 50.3039 87.5634C50.3625 87.4325 50.3361 87.2603 50.5508 87.2637C50.8964 87.2706 51.2442 87.2488 51.5852 87.2913C51.7804 87.3154 51.7115 87.5313 51.7127 87.6667C51.7173 88.6553 51.715 89.6439 51.715 90.8517ZM48.6701 92.3156C49.6644 92.3145 50.413 91.4901 50.4233 90.3821C50.4348 89.2765 49.6541 88.3809 48.6713 88.374C47.6643 88.366 46.8515 89.2673 46.8583 90.381C46.8664 91.4866 47.6448 92.3168 48.6701 92.3156Z" fill="#747474"/>
<path d="M67.0875 93.6635C65.6615 93.6911 64.3572 92.8231 63.8968 91.6416C63.7786 91.3385 63.7889 91.141 64.1414 91.0572C64.2206 91.0389 64.3033 91.0124 64.3722 90.97C64.6948 90.7713 64.8601 90.8391 65.0243 91.2065C65.4457 92.1491 66.2563 92.6049 67.1943 92.505C67.9578 92.4235 68.5319 91.978 68.6536 91.373C68.796 90.6623 68.494 90.056 67.7443 89.6863C67.3034 89.4693 66.8269 89.3212 66.3608 89.157C65.8923 88.9917 65.4319 88.8138 65.0312 88.5129C63.7717 87.5703 63.7705 85.8332 65.0255 84.8802C66.3883 83.8446 68.5583 84.2395 69.424 85.6655C69.6353 86.0134 69.6169 86.1833 69.2047 86.3487C68.7937 86.514 68.5641 86.5714 68.2644 86.1076C67.7156 85.2579 66.2769 85.2189 65.6064 85.956C65.1575 86.4497 65.1988 87.103 65.7155 87.5244C66.1059 87.8436 66.5755 88.0043 67.0462 88.1605C67.6249 88.3533 68.2001 88.5543 68.7179 88.8895C69.61 89.467 69.9958 90.2937 69.8925 91.3339C69.7892 92.373 69.1829 93.0447 68.23 93.4178C67.8293 93.5774 67.409 93.6658 67.0875 93.6635Z" fill="#757575"/>
<path d="M37.5847 90.3719C37.5824 92.2296 36.1553 93.6591 34.2964 93.666C32.4146 93.6728 30.9599 92.2331 30.9587 90.3627C30.9587 88.4855 32.402 87.0469 34.2826 87.0503C36.1828 87.0537 37.587 88.4671 37.5847 90.3719ZM34.2723 92.3157C35.3252 92.318 36.122 91.4695 36.1174 90.3501C36.1128 89.2456 35.3389 88.4109 34.309 88.3994C33.2493 88.3867 32.4387 89.2238 32.4318 90.3375C32.4238 91.4489 33.2275 92.3123 34.2723 92.3157Z" fill="#747474"/>
<path d="M58.0826 93.666C56.1686 93.6465 54.7369 92.1275 54.8138 90.1963C54.8873 88.3248 56.3305 86.9539 58.1182 87.0572C59.3731 87.1296 60.527 88.094 60.8496 89.3065C60.9346 89.6234 60.705 89.6348 60.5442 89.7026C59.3892 90.1871 58.2284 90.659 57.0722 91.1389C56.4982 91.3766 56.4844 91.4799 56.954 91.9105C57.5912 92.4949 58.6992 92.4995 59.3375 91.8358C59.6843 91.4753 59.9059 91.496 60.2733 91.7635C60.9415 92.2503 60.9599 92.2515 60.341 92.8072C59.698 93.3824 58.946 93.6729 58.0826 93.666ZM56.2926 90.2227C57.1469 89.8714 57.9529 89.543 58.7554 89.2089C58.8886 89.1538 59.0941 89.1308 59.1102 88.9769C59.1309 88.7806 58.9403 88.6646 58.7876 88.5751C58.2387 88.2536 57.683 88.2777 57.1514 88.6107C56.5808 88.9666 56.2961 89.4867 56.2926 90.2227Z" fill="#747474"/>
<path d="M38.1702 90.3479C38.1714 88.4729 39.6203 87.04 41.5056 87.0503C43.3978 87.0607 44.8031 88.4855 44.7973 90.388C44.7916 92.232 43.3472 93.6637 41.4895 93.666C39.6123 93.6695 38.1691 92.2251 38.1702 90.3479ZM41.4677 92.3158C42.5229 92.3204 43.3151 91.4903 43.3243 90.3708C43.3335 89.264 42.5332 88.388 41.5022 88.3753C40.4769 88.3627 39.6536 89.2307 39.6433 90.3364C39.6318 91.4524 40.4229 92.3101 41.4677 92.3158Z" fill="#747474"/>
<path d="M87.3615 90.621C86.6703 90.621 85.978 90.6302 85.2868 90.6176C85.0113 90.613 84.9447 90.7117 85.0032 90.9712C85.1881 91.7841 85.6577 92.3215 86.474 92.5304C87.2008 92.7164 87.9092 92.45 88.3845 91.822C88.5843 91.5568 88.9746 91.5809 89.4006 91.8932C89.7095 92.1194 89.4362 92.31 89.3283 92.4684C88.6474 93.4708 87.3225 93.899 86.0285 93.558C84.8172 93.2388 83.924 92.1814 83.8034 90.8839C83.6852 89.6118 83.9802 88.4671 85.0618 87.6886C86.0905 86.9469 87.2283 86.9216 88.3282 87.5198C89.4098 88.1077 89.7577 89.1342 89.7956 90.3041C89.8048 90.582 89.6739 90.6302 89.4373 90.6268C88.745 90.6141 88.0527 90.6199 87.3615 90.621ZM86.7438 89.6393C87.2191 89.6393 87.6956 89.6256 88.1698 89.6439C88.5165 89.6566 88.5579 89.5314 88.4373 89.2375C88.1687 88.5853 87.5487 88.2018 86.7404 88.2133C86.0251 88.2237 85.3706 88.6887 85.1422 89.3213C85.0526 89.5693 85.1146 89.6462 85.3672 89.6416C85.8253 89.6325 86.2846 89.6393 86.7438 89.6393Z" fill="#757575"/>
<path d="M80.739 90.621C80.08 90.621 79.421 90.6417 78.7631 90.613C78.3738 90.5958 78.3199 90.7427 78.4106 91.0723C78.6276 91.8587 79.1155 92.3789 79.9135 92.5396C80.6678 92.6911 81.3085 92.4673 81.7735 91.8151C82.1478 91.2893 82.4911 91.7921 82.7919 91.9104C83.1467 92.0505 82.816 92.3054 82.715 92.4546C81.5427 94.1906 78.6861 94.0379 77.6161 92.1917C76.546 90.3478 77.3876 87.8391 79.2717 87.2581C81.3096 86.6301 83.2351 88.1135 83.1777 90.2513C83.1685 90.5751 83.0433 90.6302 82.7655 90.6233C82.0892 90.6107 81.4141 90.6199 80.739 90.621ZM80.1627 89.6394C80.6219 89.6394 81.0812 89.6279 81.5404 89.6428C81.8619 89.6543 81.9538 89.5636 81.8229 89.2455C81.5485 88.5819 80.8998 88.1847 80.08 88.2134C79.367 88.2375 78.7194 88.7254 78.5093 89.3627C78.4255 89.6176 78.5392 89.6428 78.7367 89.6405C79.212 89.6371 79.6873 89.6394 80.1627 89.6394Z" fill="#757575"/>
<path d="M70.8982 88.9642C70.8982 87.6461 70.9303 86.328 70.8833 85.0111C70.8637 84.452 71.1542 84.5151 71.517 84.4933C71.9396 84.4669 72.1026 84.5817 72.0819 85.0352C72.0429 85.8573 72.0647 86.6817 72.0624 87.5049C72.0624 87.6163 72.0199 87.7552 72.1221 87.8275C72.2484 87.9159 72.3276 87.777 72.4103 87.7104C73.2209 87.0629 74.1176 86.9515 75.0556 87.3499C76.0006 87.7517 76.2865 88.6025 76.3221 89.5279C76.368 90.7117 76.3289 91.8989 76.3404 93.0849C76.3427 93.365 76.2371 93.45 75.965 93.4603C75.1578 93.4902 75.1682 93.5005 75.1555 92.6934C75.1383 91.6244 75.2302 90.5521 75.1016 89.4854C75.0143 88.7633 74.6928 88.4004 74.0774 88.2569C73.4012 88.0996 72.7697 88.3453 72.4034 88.9194C72.1761 89.2753 72.0693 89.6646 72.0727 90.0905C72.0796 91.0619 72.0463 92.0355 72.0842 93.0057C72.106 93.5706 71.7478 93.442 71.439 93.4569C71.1232 93.4718 70.8787 93.4867 70.8901 93.016C70.92 91.6658 70.8982 90.3156 70.8982 88.9642Z" fill="#747474"/>
<path d="M97.0266 87.1333C97.9153 87.1436 98.673 87.4192 99.1989 88.185C99.3837 88.4548 99.3458 88.5983 99.029 88.7396C98.634 88.9141 98.3561 88.9933 98.0243 88.5685C97.6787 88.1265 96.7533 88.0771 96.2217 88.3526C95.9703 88.4835 95.8038 88.6707 95.8153 88.9738C95.8256 89.262 96.0013 89.4422 96.247 89.518C96.7499 89.6719 97.2631 89.7924 97.774 89.921C98.8946 90.2035 99.5364 90.8969 99.494 91.7868C99.4503 92.7076 98.7339 93.4217 97.6489 93.6215C96.4055 93.8511 95.2102 93.3563 94.6132 92.3459C94.5213 92.1909 94.2802 92.0118 94.5788 91.8063C95.0173 91.5043 95.3962 91.4802 95.5937 91.7569C96.1253 92.5009 96.8406 92.7753 97.5995 92.5193C97.9646 92.3964 98.2517 92.1955 98.2528 91.7558C98.254 91.3321 97.9704 91.1358 97.6259 91.029C97.2023 90.8969 96.766 90.8085 96.3343 90.7029C95.9462 90.6076 95.5776 90.4664 95.2562 90.2264C94.3032 89.5157 94.3641 88.2241 95.3767 87.5731C95.8222 87.2849 96.3974 87.1322 97.0266 87.1333Z" fill="#757575"/>
<path d="M91.1435 90.2412C91.1435 89.7797 91.124 89.317 91.1493 88.8577C91.1688 88.5041 91.031 88.403 90.6934 88.4122C90.1584 88.426 89.8932 87.9828 90.1171 87.4891C90.2307 87.2388 90.4673 87.3398 90.6406 87.3513C91.0172 87.3766 91.1952 87.2675 91.1493 86.8588C91.1183 86.5821 91.1745 86.295 91.1366 86.0206C91.0712 85.5418 91.2824 85.4385 91.7164 85.4615C92.341 85.4936 92.3422 85.4695 92.3433 86.109C92.3445 87.2905 92.3445 87.3111 93.4835 87.3329C93.914 87.341 93.8681 87.5901 93.8532 87.8519C93.8382 88.0999 93.9863 88.4662 93.4961 88.4203C93.48 88.4191 93.4628 88.4203 93.4467 88.4203C92.3433 88.4524 92.3433 88.4524 92.3433 89.5466C92.3433 90.1896 92.3307 90.8325 92.3479 91.4743C92.3697 92.2895 92.6533 92.5192 93.457 92.4629C94.0116 92.4239 93.875 92.9577 94.0082 93.231C94.1586 93.5399 93.79 93.4916 93.6396 93.5215C92.1367 93.8235 91.1619 93.0186 91.1447 91.4789C91.1401 91.0644 91.1435 90.6534 91.1435 90.2412Z" fill="#747474"/>
<path d="M52.692 88.5866C52.692 87.1377 52.7035 85.6898 52.684 84.2409C52.6794 83.8758 52.7793 83.7529 53.1536 83.7644C54.3247 83.8034 54.1215 83.6197 54.126 84.7174C54.1375 87.466 54.1226 90.2147 54.1387 92.9645C54.141 93.356 54.0273 93.4697 53.6392 93.4628C52.692 93.4456 52.692 93.4639 52.692 92.5362C52.692 91.2193 52.692 89.9035 52.692 88.5866Z" fill="#717171"/>
<path d="M41.4987 72.4182C41.8948 72.5605 41.9591 72.9888 42.2037 73.2643C42.9328 74.0841 43.8318 74.4802 44.8938 74.4814C54.9011 74.4906 64.9083 74.4848 74.9156 74.4894C76.4656 74.4906 77.9214 73.6938 78.461 72.0439C78.4771 71.9945 78.5541 71.9646 78.6023 71.9268C78.4071 73.4584 76.9409 74.7535 75.3496 74.7833C74.5424 74.7983 73.7341 74.7856 72.9258 74.7856C63.5615 74.7856 54.1984 74.7856 44.8341 74.7856C43.2646 74.7845 41.8558 73.7833 41.4987 72.4182Z" fill="#058F57"/>
<path d="M78.6482 38.4699C78.1855 38.2609 77.6964 38.2678 77.2015 38.2701C75.1923 38.277 73.1819 38.2552 71.1727 38.2793C69.8557 38.2954 68.5514 38.2173 67.2575 37.9762C66.9705 37.6616 66.5158 37.5089 66.3746 37.0542C67.6169 37.5433 68.9189 37.4606 70.214 37.4618C73.0223 37.4641 75.8318 37.4687 78.6402 37.471C78.6976 37.8028 78.6941 38.1358 78.6482 38.4699Z" fill="#008350"/>
<path d="M64.6787 23.5348C61.3169 23.5314 57.9551 23.5245 54.5934 23.5233C52.072 23.5222 49.5507 23.521 47.0294 23.5337C45.8491 23.5394 44.663 23.4395 43.4954 23.7002C43.7881 23.4418 44.1544 23.4166 44.5115 23.4166C51.1053 23.4097 57.6991 23.4097 64.2918 23.4108C64.4261 23.412 64.5983 23.3454 64.6787 23.5348Z" fill="#72D1AA"/>
<path d="M42.7743 24.0918C42.7353 24.2973 42.6136 24.4018 42.4023 24.3938C42.4563 24.2066 42.5838 24.109 42.7743 24.0918Z" fill="#72D1AA"/>
<path d="M78.6506 45.3955C78.5771 45.3818 78.4737 45.3887 78.4955 45.275C78.5024 45.2406 78.5966 45.2233 78.6506 45.1992C78.6506 45.2647 78.6506 45.3301 78.6506 45.3955Z" fill="#009250"/>
<path d="M41.9006 24.9917C41.9316 25.1214 41.8776 25.1972 41.7513 25.2282C41.7226 25.0996 41.7766 25.0238 41.9006 24.9917Z" fill="#72D1AA"/>
<path d="M42.1153 24.707C42.1279 24.8356 42.0705 24.9091 41.9419 24.9263C41.9235 24.7931 41.9821 24.7208 42.1153 24.707Z" fill="#72D1AA"/>
<path d="M78.6505 46.0903C78.577 46.057 78.577 46.0226 78.6505 45.9893C78.6505 46.0226 78.6505 46.057 78.6505 46.0903Z" fill="#009250"/>
<path d="M42.2967 24.5005C42.3036 24.5682 42.2726 24.5992 42.2048 24.5958C42.2358 24.5636 42.2657 24.5326 42.2967 24.5005Z" fill="#72D1AA"/>
<path d="M42.3955 24.4019C42.4023 24.4685 42.3725 24.4995 42.3047 24.4937C42.3059 24.434 42.3358 24.403 42.3955 24.4019Z" fill="#72D1AA"/>
<path d="M42.8983 24.0078C42.8926 24.0744 42.8593 24.1008 42.7938 24.0767C42.8294 24.0537 42.8639 24.0308 42.8983 24.0078Z" fill="#72D1AA"/>
<path d="M43.2141 23.8278C43.1945 23.8875 43.1578 23.9151 43.0935 23.8933C43.1142 23.8347 43.1555 23.8141 43.2141 23.8278Z" fill="#72D1AA"/>
<path d="M43.4138 23.731C43.3886 23.7872 43.3495 23.8125 43.2887 23.7861C43.3312 23.7677 43.3725 23.7493 43.4138 23.731Z" fill="#72D1AA"/>
<path d="M50.6345 65.385C50.6357 59.9474 50.6414 54.5109 50.6276 49.0733C50.6265 48.6335 50.7218 48.49 51.1902 48.4934C54.1559 48.5164 57.1216 48.5061 60.0873 48.5049C60.2675 48.5049 60.4478 48.4877 60.628 48.4785C61.8795 48.5221 63.1322 48.521 64.3836 48.4785C65.7052 48.5256 67.0278 48.5244 68.3494 48.4785C69.3299 48.5612 69.3299 48.5612 69.3299 49.5876C69.3299 54.6831 69.3241 59.7786 69.3379 64.8741C69.3391 65.3104 69.2484 65.4608 68.7765 65.4585C62.8899 65.4413 57.0022 65.4482 51.1156 65.4459C50.9549 65.447 50.7849 65.4849 50.6345 65.385ZM64.0438 63.1094C64.8819 63.1094 65.7212 63.0933 66.5594 63.1174C66.9142 63.1278 67.0072 63.0026 66.9968 62.6662C66.975 61.9762 66.975 61.285 66.9957 60.595C67.006 60.2608 66.874 60.1793 66.564 60.1816C64.9026 60.1931 63.2424 60.192 61.581 60.1816C61.2756 60.1793 61.1275 60.2608 61.1344 60.595C61.1504 61.3022 61.1539 62.0095 61.1332 62.7156C61.1229 63.0612 61.2767 63.1197 61.5764 63.114C62.3985 63.0979 63.2217 63.1083 64.0438 63.1094ZM55.8816 63.1083C56.7381 63.1083 57.5946 63.0991 58.45 63.114C58.7324 63.1186 58.822 63.021 58.8163 62.7443C58.8013 62.0198 58.799 61.2953 58.8151 60.5708C58.822 60.2585 58.6877 60.1805 58.4018 60.1816C56.722 60.1908 55.0423 60.1943 53.3625 60.1816C53.0468 60.1793 52.9722 60.3033 52.9791 60.5904C52.994 61.2976 53.002 62.0072 52.9768 62.7144C52.9641 63.0623 53.1099 63.1197 53.4108 63.114C54.2351 63.0979 55.0584 63.1083 55.8816 63.1083ZM55.9034 50.8403C55.0641 50.8403 54.2248 50.8506 53.3855 50.8345C53.0962 50.8288 52.971 50.9011 52.9791 51.2169C52.9986 51.9402 52.9974 52.6658 52.9791 53.3892C52.971 53.7049 53.1019 53.7749 53.3878 53.7738C55.0503 53.7646 56.7128 53.7623 58.3742 53.7761C58.7301 53.7795 58.8266 53.6429 58.8174 53.3111C58.7979 52.6371 58.7956 51.9609 58.8163 51.2869C58.8266 50.9482 58.721 50.8242 58.3708 50.8334C57.5498 50.8552 56.7266 50.8403 55.9034 50.8403ZM55.8735 55.5213C55.0331 55.5213 54.1926 55.5293 53.3533 55.5167C53.0743 55.5121 52.9756 55.6085 52.9813 55.8875C52.9951 56.612 52.9974 57.3377 52.9791 58.0621C52.971 58.3779 53.1053 58.4479 53.3912 58.4468C55.0549 58.4376 56.7186 58.4376 58.3822 58.4479C58.6968 58.4502 58.8266 58.3526 58.8186 58.0242C58.8013 57.3491 58.7967 56.6729 58.8197 55.9989C58.8323 55.6372 58.7175 55.5041 58.3444 55.5144C57.5211 55.5362 56.6968 55.5201 55.8735 55.5213ZM64.0759 55.5213C63.2355 55.5213 62.3939 55.5293 61.5534 55.5167C61.263 55.5121 61.1355 55.6062 61.1413 55.9128C61.155 56.6212 61.155 57.3308 61.1413 58.0392C61.1355 58.3446 61.2618 58.4387 61.5523 58.4387C63.2332 58.433 64.9152 58.4353 66.5961 58.4468C66.8946 58.4491 67.0014 58.3434 66.9945 58.0426C66.9785 57.3342 66.9785 56.6246 66.9934 55.9162C67.0003 55.6177 66.9004 55.5098 66.5973 55.5155C65.758 55.5316 64.9175 55.5213 64.0759 55.5213Z" fill="#D8EAE2"/>
<path d="M68.3505 48.4793C67.0289 48.5252 65.7063 48.5252 64.3848 48.4793C64.4743 48.3495 64.6109 48.3668 64.7418 48.3656C65.8257 48.3645 66.9107 48.3645 67.9945 48.3656C68.1231 48.3656 68.2609 48.3484 68.3505 48.4793Z" fill="#00A55A"/>
<path d="M66.2734 36.9014C66.301 36.9289 66.3285 36.9553 66.3573 36.9829C66.3297 36.9565 66.301 36.9289 66.2734 36.9014Z" fill="#008350"/>
<path d="M64.0438 63.1093C63.2217 63.1093 62.3996 63.0989 61.5775 63.115C61.2779 63.1208 61.124 63.0622 61.1343 62.7166C61.155 62.0105 61.1516 61.3021 61.1355 60.596C61.1275 60.2607 61.2767 60.1804 61.5821 60.1827C63.2435 60.1918 64.9037 60.193 66.5651 60.1827C66.8751 60.1804 67.0072 60.2619 66.9968 60.596C66.9762 61.286 66.9762 61.9772 66.998 62.6672C67.0083 63.0025 66.9153 63.1288 66.5605 63.1185C65.7212 63.0921 64.8819 63.1093 64.0438 63.1093Z" fill="#04A156"/>
<path d="M55.8816 63.1078C55.0584 63.1078 54.2352 63.0975 53.4119 63.1135C53.1111 63.1193 52.9653 63.0607 52.9779 62.714C53.0032 62.0067 52.9951 61.2983 52.9802 60.5899C52.9745 60.3029 53.048 60.1789 53.3637 60.1812C55.0435 60.1927 56.7232 60.1904 58.403 60.1812C58.6888 60.18 58.8232 60.257 58.8163 60.5704C58.8002 61.2949 58.8025 62.0194 58.8174 62.7438C58.8232 63.0205 58.7325 63.1181 58.4512 63.1135C57.5947 63.0986 56.7381 63.1078 55.8816 63.1078Z" fill="#04A156"/>
<path d="M55.9034 50.8399C56.7267 50.8399 57.5499 50.8548 58.372 50.833C58.7221 50.8238 58.8278 50.9478 58.8174 51.2865C58.7968 51.9605 58.7991 52.6367 58.8186 53.3107C58.8278 53.6425 58.7313 53.7791 58.3754 53.7757C56.7129 53.7608 55.0503 53.7642 53.389 53.7734C53.1031 53.7745 52.9722 53.7045 52.9802 53.3888C52.9986 52.6654 52.9997 51.9398 52.9802 51.2165C52.9722 50.9007 53.0973 50.8284 53.3867 50.8341C54.2248 50.8502 55.0641 50.8399 55.9034 50.8399Z" fill="#04A359"/>
<path d="M64.1184 50.8399C64.9416 50.8399 65.7648 50.8548 66.5869 50.833C66.9371 50.8238 67.0427 50.9478 67.0324 51.2865C67.0117 51.9605 67.014 52.6367 67.0336 53.3107C67.0427 53.6425 66.9463 53.7791 66.5904 53.7757C64.9278 53.7608 63.2653 53.7642 61.6039 53.7734C61.318 53.7745 61.1872 53.7045 61.1952 53.3888C61.2136 52.6654 61.2147 51.9398 61.1952 51.2165C61.1872 50.9007 61.3123 50.8284 61.6016 50.8341C62.4386 50.8502 63.2779 50.8399 64.1184 50.8399Z" fill="#04A359"/>
<path d="M55.8736 55.5213C56.6968 55.5213 57.5211 55.5374 58.3444 55.5132C58.7175 55.5029 58.8323 55.6361 58.8197 55.9978C58.7967 56.6729 58.8013 57.3492 58.8186 58.0231C58.8266 58.3515 58.698 58.4491 58.3823 58.4468C56.7186 58.4365 55.0549 58.4365 53.3913 58.4457C53.1054 58.4468 52.9722 58.3768 52.9791 58.061C52.9974 57.3365 52.994 56.6109 52.9814 55.8864C52.9756 55.6074 53.0744 55.511 53.3534 55.5155C54.1927 55.5293 55.0331 55.5213 55.8736 55.5213Z" fill="#06A257"/>
<path d="M64.0759 55.5211C64.9164 55.5211 65.758 55.5314 66.5984 55.5154C66.9015 55.5096 67.0014 55.6175 66.9945 55.9161C66.9784 56.6245 66.9784 57.334 66.9957 58.0424C67.0025 58.3421 66.8958 58.4477 66.5973 58.4466C64.9164 58.4351 63.2343 58.434 61.5534 58.4386C61.263 58.4397 61.1367 58.3444 61.1424 58.039C61.1562 57.3306 61.1573 56.621 61.1424 55.9126C61.1367 55.6049 61.263 55.5119 61.5546 55.5165C62.395 55.528 63.2355 55.5211 64.0759 55.5211Z" fill="#06A257"/>
</svg>
