<svg width="158" height="158" viewBox="0 0 158 158" fill="none" xmlns="http://www.w3.org/2000/svg">
<path d="M-2.93064e-05 79C-1.31209e-05 35.3695 35.3695 -2.52646e-06 79 -1.62757e-06C122.63 -7.2869e-07 158 35.3695 158 79C158 122.63 122.63 158 78.9999 158C35.3694 158 -4.54919e-05 122.63 -2.93064e-05 79Z" fill="white"/>
<path d="M72.3954 57.5248C74.9352 54.8783 78.4715 53.2371 82.3822 53.2371C87.5811 53.2371 92.1167 56.136 94.5321 60.4395C96.6311 59.5015 98.9544 58.9798 101.399 58.9798C110.776 58.9798 118.377 66.6479 118.377 76.1063C118.377 85.566 110.776 93.2341 101.399 93.2341C100.255 93.2341 99.1363 93.1196 98.0547 92.9008C95.9278 96.695 91.8744 99.2584 87.2219 99.2584C85.2744 99.2584 83.4324 98.8087 81.7921 98.0087C79.6359 103.081 74.6121 106.637 68.7571 106.637C62.6596 106.637 57.4632 102.779 55.4686 97.3681C54.5968 97.5532 53.6938 97.6497 52.7671 97.6497C45.5075 97.6497 39.6222 91.7038 39.6222 84.3679C39.6222 79.4518 42.2665 75.1596 46.1951 72.8631C45.3863 71.0019 44.9364 68.9477 44.9364 66.7882C44.9364 58.3517 51.7855 51.5127 60.233 51.5127C65.1929 51.5127 69.6009 53.8709 72.3954 57.5248Z" fill="#00A1E0"/>
<path d="M51.0295 80.0987C50.9802 80.2278 51.0476 80.2547 51.0633 80.2771C51.2113 80.3848 51.3616 80.4622 51.5131 80.5485C52.3163 80.9749 53.0747 81.0995 53.868 81.0995C55.4834 81.0995 56.4864 80.24 56.4864 78.8567V78.8298C56.4864 77.551 55.3543 77.0865 54.2919 76.751L54.1541 76.7062C53.3531 76.4458 52.6618 76.2214 52.6618 75.6943V75.6662C52.6618 75.2152 53.0658 74.8831 53.6919 74.8831C54.3874 74.8831 55.213 75.1142 55.7449 75.4082C55.7449 75.4082 55.9008 75.5092 55.958 75.3577C55.9894 75.2769 56.2586 74.5522 56.2867 74.4736C56.317 74.3883 56.263 74.3256 56.2081 74.2918C55.6013 73.9229 54.762 73.6704 53.8937 73.6704L53.7322 73.6714C52.2536 73.6714 51.2215 74.5644 51.2215 75.8445V75.8714C51.2215 77.2211 52.3601 77.6587 53.427 77.9637L53.5986 78.0164C54.3762 78.2555 55.0459 78.4607 55.0459 79.0082V79.0351C55.0459 79.5355 54.6106 79.9079 53.9083 79.9079C53.6357 79.9079 52.7663 79.9025 51.8272 79.3089C51.714 79.2428 51.6477 79.1945 51.5603 79.1418C51.5143 79.1127 51.3986 79.0622 51.3482 79.2147L51.0295 80.0987Z" fill="white"/>
<path d="M74.6794 80.0987C74.6299 80.2278 74.6973 80.2547 74.713 80.2771C74.861 80.3848 75.0115 80.4622 75.163 80.5485C75.9662 80.9749 76.7245 81.0995 77.5177 81.0995C79.1331 81.0995 80.1361 80.24 80.1361 78.8567V78.8298C80.1361 77.551 79.0043 77.0865 77.9418 76.751L77.8038 76.7062C77.0028 76.4458 76.3117 76.2214 76.3117 75.6943V75.6662C76.3117 75.2152 76.7155 74.8831 77.3416 74.8831C78.0371 74.8831 78.8627 75.1142 79.3946 75.4082C79.3946 75.4082 79.5505 75.5092 79.6078 75.3577C79.6391 75.2769 79.9085 74.5522 79.9364 74.4736C79.9667 74.3883 79.913 74.3256 79.858 74.2918C79.251 73.9229 78.4118 73.6704 77.5436 73.6704L77.3819 73.6714C75.9033 73.6714 74.8712 74.5644 74.8712 75.8445V75.8714C74.8712 77.2211 76.01 77.6587 77.0769 77.9637L77.2485 78.0164C78.0259 78.2555 78.6968 78.4607 78.6968 79.0082V79.0351C78.6968 79.5355 78.2605 79.9079 77.558 79.9079C77.2854 79.9079 76.416 79.9025 75.4769 79.3089C75.3637 79.2428 75.2963 79.1967 75.2112 79.1418C75.1819 79.1226 75.0451 79.0699 74.9981 79.2147L74.6794 80.0987Z" fill="white"/>
<path d="M90.8243 77.3894C90.8243 78.1715 90.6786 78.7874 90.3913 79.2227C90.1074 79.6533 89.6778 79.8633 89.0786 79.8633C88.4786 79.8633 88.051 79.6546 87.7717 79.2227C87.489 78.7884 87.3455 78.1715 87.3455 77.3894C87.3455 76.6086 87.489 75.9939 87.7717 75.5631C88.051 75.1367 88.4786 74.9292 89.0786 74.9292C89.6778 74.9292 90.1074 75.1367 90.3925 75.5631C90.6786 75.9939 90.8243 76.6086 90.8243 77.3894ZM92.1728 75.9401C92.0405 75.4924 91.834 75.0976 91.5592 74.7688C91.2843 74.4389 90.9365 74.1742 90.5236 73.9812C90.1119 73.7894 89.6251 73.6919 89.0786 73.6919C88.5313 73.6919 88.0443 73.7894 87.6326 73.9812C87.2197 74.1742 86.8719 74.4389 86.596 74.7688C86.3224 75.0986 86.1159 75.4936 85.9824 75.9401C85.851 76.3854 85.7849 76.8723 85.7849 77.3894C85.7849 77.9066 85.851 78.3946 85.9824 78.8389C86.1159 79.2854 86.3212 79.6804 86.597 80.0103C86.8719 80.3401 87.2209 80.6036 87.6326 80.7911C88.0455 80.9784 88.5313 81.0737 89.0786 81.0737C89.6251 81.0737 90.1109 80.9784 90.5236 80.7911C90.9353 80.6036 91.2843 80.3401 91.5592 80.0103C91.834 79.6814 92.0405 79.2866 92.1728 78.8389C92.3052 78.3936 92.3713 77.9056 92.3713 77.3894C92.3713 76.8735 92.3052 76.3854 92.1728 75.9401Z" fill="white"/>
<path d="M103.247 79.6539C103.202 79.5226 103.075 79.5721 103.075 79.5721C102.879 79.6472 102.67 79.7168 102.448 79.7515C102.222 79.7863 101.974 79.8042 101.709 79.8042C101.056 79.8042 100.537 79.6102 100.166 79.2266C99.7935 78.8428 99.5848 78.2224 99.587 77.3833C99.5893 76.6194 99.7734 76.0448 100.104 75.6074C100.433 75.1721 100.933 74.9488 101.601 74.9488C102.157 74.9488 102.581 75.0127 103.026 75.153C103.026 75.153 103.132 75.199 103.183 75.0599C103.3 74.7323 103.388 74.4978 103.514 74.1378C103.549 74.0356 103.462 73.9918 103.431 73.9796C103.256 73.9112 102.843 73.8 102.531 73.753C102.239 73.708 101.898 73.6846 101.519 73.6846C100.952 73.6846 100.448 73.7809 100.016 73.9739C99.5848 74.1657 99.2191 74.4306 98.9296 74.7604C98.6403 75.0901 98.4204 75.4851 98.2734 75.9316C98.1276 76.3769 98.0535 76.8661 98.0535 77.3833C98.0535 78.5017 98.3552 79.4059 98.951 80.0679C99.5478 80.732 100.444 81.0698 101.613 81.0698C102.304 81.0698 103.013 80.9295 103.523 80.7286C103.523 80.7286 103.62 80.6815 103.578 80.5683L103.247 79.6539Z" fill="white"/>
<path d="M105.606 76.6406C105.67 76.2063 105.79 75.8451 105.975 75.5635C106.254 75.1362 106.681 74.9016 107.28 74.9016C107.879 74.9016 108.275 75.1372 108.558 75.5635C108.747 75.8451 108.829 76.2222 108.861 76.6406H105.606ZM110.146 75.6859C110.031 75.2538 109.748 74.8175 109.561 74.6178C109.268 74.3016 108.98 74.0805 108.695 73.9571C108.323 73.7978 107.876 73.6924 107.387 73.6924C106.817 73.6924 106.3 73.7877 105.881 73.9852C105.46 74.1825 105.106 74.4518 104.829 74.7872C104.552 75.1215 104.344 75.5198 104.211 75.972C104.078 76.4217 104.01 76.912 104.01 77.4292C104.01 77.9553 104.08 78.4456 104.218 78.8866C104.357 79.3309 104.579 79.7224 104.88 80.0466C105.179 80.373 105.565 80.6289 106.028 80.8073C106.486 80.9844 107.044 81.0764 107.685 81.0754C109.003 81.0709 109.697 80.7769 109.983 80.6187C110.034 80.5906 110.082 80.5413 110.021 80.4L109.723 79.5642C109.678 79.4396 109.551 79.4856 109.551 79.4856C109.225 79.6068 108.76 79.8244 107.678 79.8222C106.97 79.821 106.445 79.6125 106.116 79.2859C105.779 78.9516 105.614 78.4603 105.584 77.767L110.149 77.7715C110.149 77.7715 110.269 77.7692 110.282 77.6526C110.286 77.6031 110.439 76.7145 110.146 75.6859Z" fill="white"/>
<path d="M69.0483 76.6406C69.1134 76.2063 69.2323 75.8451 69.4174 75.5635C69.6968 75.1362 70.1231 74.9016 70.7221 74.9016C71.3211 74.9016 71.7172 75.1372 72.0022 75.5635C72.1895 75.8451 72.2714 76.2222 72.304 76.6406H69.0483ZM73.5875 75.6859C73.4729 75.2538 73.1903 74.8175 73.004 74.6178C72.7102 74.3016 72.4229 74.0805 72.138 73.9571C71.7654 73.7978 71.3189 73.6924 70.8298 73.6924C70.261 73.6924 69.7428 73.7877 69.3231 73.9852C68.9025 74.1825 68.549 74.4518 68.2719 74.7872C67.9948 75.1215 67.7863 75.5198 67.6538 75.972C67.5214 76.4217 67.453 76.912 67.453 77.4292C67.453 77.9553 67.5226 78.4456 67.6605 78.8866C67.7997 79.3309 68.0219 79.7224 68.3224 80.0466C68.6219 80.373 69.008 80.6289 69.4701 80.8073C69.9291 80.9844 70.4866 81.0764 71.1271 81.0754C72.4453 81.0709 73.1398 80.7769 73.4258 80.6187C73.4763 80.5906 73.5246 80.5413 73.4639 80.4L73.1667 79.5642C73.1206 79.4396 72.994 79.4856 72.994 79.4856C72.6674 79.6068 72.2042 79.8244 71.1194 79.8222C70.4124 79.821 69.8875 79.6125 69.5587 79.2859C69.2211 78.9516 69.0562 78.4603 69.0271 77.767L73.592 77.7715C73.592 77.7715 73.7119 77.7692 73.7243 77.6526C73.7288 77.6031 73.8813 76.7145 73.5875 75.6859Z" fill="white"/>
<path d="M59.1808 79.6291C59.0024 79.4865 58.9778 79.4507 58.9171 79.3587C58.8273 79.2184 58.7813 79.0186 58.7813 78.7651C58.7813 78.3634 58.9137 78.0751 59.1885 77.8811C59.1853 77.8823 59.5813 77.539 60.5124 77.5512C61.1664 77.5602 61.7509 77.6567 61.7509 77.6567V79.7323H61.7522C61.7522 79.7323 61.1721 79.8567 60.5191 79.896C59.5903 79.9522 59.1773 79.6278 59.1808 79.6291ZM60.997 76.4216C60.8119 76.4082 60.5718 76.4002 60.2848 76.4002C59.8932 76.4002 59.5151 76.4495 59.1606 76.545C58.8037 76.6403 58.483 76.7895 58.2069 76.987C57.9298 77.1855 57.7067 77.439 57.545 77.7398C57.3835 78.0405 57.3017 78.395 57.3017 78.792C57.3017 79.196 57.3711 79.547 57.5104 79.8343C57.6495 80.1226 57.8502 80.3627 58.106 80.5477C58.3596 80.7328 58.6726 80.8686 59.036 80.9505C59.394 81.0325 59.8 81.0741 60.2442 81.0741C60.7121 81.0741 61.1788 81.0358 61.631 80.9584C62.0785 80.8821 62.6283 80.7711 62.7808 80.7363C62.9323 80.7005 63.1007 80.6544 63.1007 80.6544C63.2139 80.6263 63.2049 80.5052 63.2049 80.5052L63.2027 76.3306C63.2027 75.4152 62.9581 74.7365 62.4768 74.3159C61.9977 73.8962 61.2922 73.6841 60.38 73.6841C60.0378 73.6841 59.487 73.7313 59.1572 73.7975C59.1572 73.7975 58.1599 73.9905 57.7492 74.3114C57.7492 74.3114 57.6594 74.3674 57.7089 74.493L58.032 75.3614C58.0724 75.4736 58.1811 75.4355 58.1811 75.4355C58.1811 75.4355 58.2159 75.4219 58.2564 75.3985C59.1348 74.9204 60.2455 74.9351 60.2455 74.9351C60.739 74.9351 61.1183 75.0338 61.3741 75.2301C61.6231 75.4209 61.7499 75.7092 61.7499 76.3172V76.5102C61.3572 76.4542 60.997 76.4216 60.997 76.4216Z" fill="white"/>
<path d="M97.8146 74.0703C97.8495 73.967 97.7766 73.9178 97.7462 73.9064C97.6689 73.8762 97.2806 73.7942 96.9811 73.7752C96.4077 73.7404 96.0893 73.8369 95.8042 73.9648C95.5216 74.0927 95.2074 74.2991 95.0323 74.5337V73.9782C95.0323 73.9009 94.9773 73.8392 94.9012 73.8392H93.7311C93.6547 73.8392 93.5997 73.9009 93.5997 73.9782V80.7869C93.5997 80.8632 93.6626 80.926 93.7388 80.926H94.9381C95.0144 80.926 95.0761 80.8632 95.0761 80.7869V77.3854C95.0761 76.9287 95.1266 76.4732 95.2276 76.1872C95.3263 75.9046 95.4609 75.678 95.6271 75.5153C95.7942 75.3536 95.9838 75.2404 96.1913 75.1765C96.4032 75.1113 96.6378 75.0899 96.8039 75.0899C97.0428 75.0899 97.3052 75.1518 97.3052 75.1518C97.3928 75.1618 97.4422 75.1081 97.4714 75.0282C97.5499 74.8197 97.7721 74.1949 97.8146 74.0703Z" fill="white"/>
<path d="M86.5583 70.9142C86.4126 70.8692 86.2802 70.8391 86.1073 70.8065C85.9324 70.7752 85.7237 70.7593 85.4869 70.7593C84.6613 70.7593 84.0106 70.9928 83.5541 71.4528C83.0996 71.9105 82.7912 72.607 82.6362 73.5237L82.5802 73.8321H81.5437C81.5437 73.8321 81.418 73.8277 81.391 73.9645L81.2216 74.9147C81.2093 75.0045 81.2486 75.0617 81.3698 75.0617H82.3783L81.3551 80.7743C81.2755 81.2343 81.1835 81.6124 81.0815 81.8995C80.9815 82.1823 80.884 82.3942 80.7628 82.5492C80.6462 82.6972 80.5362 82.8072 80.3454 82.8711C80.1885 82.9238 80.0066 82.9485 79.8081 82.9485C79.6982 82.9485 79.5512 82.9306 79.4424 82.9082C79.3347 82.8868 79.2775 82.8632 79.1955 82.8285C79.1955 82.8285 79.0778 82.7836 79.0305 82.9014C78.9937 82.999 78.7243 83.7383 78.6917 83.8291C78.6604 83.9201 78.7052 83.9907 78.7624 84.0121C78.8972 84.0592 78.9969 84.0905 79.1798 84.1343C79.4333 84.1937 79.6477 84.1972 79.8484 84.1972C80.2681 84.1972 80.6517 84.1377 80.9693 84.0233C81.2877 83.9077 81.5661 83.7069 81.8128 83.4353C82.0788 83.1415 82.2459 82.834 82.4051 82.4134C82.5633 81.9982 82.6991 81.4823 82.8069 80.8808L83.8357 75.0617H85.3389C85.3389 75.0617 85.4656 75.0662 85.4914 74.9282L85.6621 73.9791C85.6733 73.8883 85.635 73.8321 85.5128 73.8321H84.0531C84.0611 73.7996 84.1273 73.2858 84.2944 72.8023C84.3663 72.597 84.5009 72.4299 84.6141 72.3155C84.7263 72.2033 84.8554 72.1237 84.9967 72.0776C85.1414 72.0304 85.3063 72.008 85.4869 72.008C85.6238 72.008 85.7596 72.0237 85.8616 72.0451C86.0031 72.0754 86.0581 72.0911 86.0951 72.1023C86.2442 72.1471 86.2645 72.1033 86.2936 72.0316L86.6424 71.0734C86.6785 70.9702 86.5897 70.9264 86.5583 70.9142Z" fill="white"/>
<path d="M66.1648 80.7865C66.1648 80.8629 66.1098 80.9246 66.0336 80.9246H64.8232C64.7468 80.9246 64.6929 80.8629 64.6929 80.7865V71.0443C64.6929 70.9679 64.7468 70.9062 64.8232 70.9062H66.0336C66.1098 70.9062 66.1648 70.9679 66.1648 71.0443V80.7865Z" fill="white"/>
</svg>
