<svg width="695" height="464" viewBox="0 0 695 464" fill="none" xmlns="http://www.w3.org/2000/svg">
<path d="M453.276 302.807C457.002 303.233 460.623 305.473 463.03 308.245C465.891 311.539 466.697 315.204 465.747 319.379C465.192 321.821 464.249 324.095 462.987 326.244C460.309 330.803 457.157 334.999 453.616 338.954C451.482 341.337 449.485 343.828 447.721 346.514C443.89 352.351 444.656 357.712 449.418 362.219C453.455 366.04 457.667 368.834 462.767 371.093C472.4 375.358 482.453 378.146 492.885 379.602C505.042 381.299 517.275 381.84 529.529 381.998C549.478 382.254 569.416 381.733 589.345 380.922C619.764 379.684 650.194 379.327 680.633 379.498C684.237 379.518 687.841 379.549 691.445 379.614C692.536 379.634 693.691 379.49 694.707 380.375C694.197 381.235 693.286 381.313 692.495 381.525C689.241 382.399 685.91 382.812 682.553 382.94C665.983 383.574 649.401 383.655 632.824 383.923C617.286 384.174 601.758 384.616 586.23 385.229C567.183 385.982 548.125 386.614 529.058 386.248C517.128 386.02 505.208 385.455 493.363 383.91C482.203 382.455 471.413 379.598 461.101 375.045C455.479 372.562 450.853 369.413 446.35 365.254C445.17 364.164 444.157 362.931 443.327 361.546C439.997 355.987 440.163 350.861 443.463 345.242C445.256 342.187 447.467 339.453 449.84 336.851C453.359 332.993 456.628 328.976 459.346 324.531C460.519 322.614 461.493 320.613 462.068 318.425C462.876 315.354 462.355 312.58 460.377 310.076C458.861 308.157 456.185 306.209 453.884 305.385C452.106 304.749 450.437 302.669 453.276 302.807Z" fill="#0C0A0A"/>
<path d="M174.348 280.263C161.364 283.632 121.027 292.414 129.924 304.445C136.709 313.62 165.271 311.904 174.168 309.979C183.064 308.055 196.642 302.741 197.251 294.82C197.973 285.436 166.954 278.94 129.924 285.436C109.758 288.974 83.7571 297.949 94.3371 319.364C98.6263 328.045 129.916 334.159 145.794 333.079C167.55 331.642 203.122 320.883 228.518 305.659C258.439 287.83 279.839 236.697 305.976 240.964" stroke="black" stroke-width="8" stroke-linecap="round"/>
<path d="M166.469 280.449C173.551 278.458 180.685 276.636 187.592 274.077C190.972 272.825 194.258 271.369 197.318 269.422C201.634 266.674 203.738 262.826 204.095 257.68C204.515 251.637 202.028 222.626 201.315 214.085C200.455 203.78 200.082 193.452 199.624 183.128C199.571 181.933 199.203 181.002 198.365 180.14C196.343 178.061 194.112 176.296 191.644 174.75C181.033 168.102 169.31 164.495 157.199 161.896C149.927 160.335 142.701 158.573 135.364 157.304C130.699 156.497 125.983 156.238 121.302 155.621C107.657 153.823 93.9197 152.737 80.3586 150.287C75.236 149.362 70.2846 147.702 65.174 146.751C54.8301 144.827 45.9694 139.791 37.6796 133.634C27.1371 125.804 18.563 116.173 11.7712 104.911C6.71155 96.521 4.23584 87.2952 2.51612 77.7951C-0.231793 62.6144 -0.0177863 47.3332 1.14072 32.0385C1.46726 27.7299 2.11216 23.4436 2.68203 19.1562C3.01819 16.6263 4.10023 15.5614 6.04213 15.5017C6.79283 15.4786 7.15495 15.7274 7.45359 16.4541C8.06674 17.9454 7.91382 19.4454 7.74839 20.9531C7.27661 25.2511 6.57882 29.5336 6.31287 33.8431C5.56266 45.9987 4.9572 58.1577 6.79378 70.294C7.51225 75.0424 8.21006 79.7773 9.24593 84.478C11.3384 93.9748 15.6343 102.353 21.4008 110.088C30.2755 121.991 41.3344 131.238 54.595 137.91C59.3108 140.283 64.4464 141.135 69.4449 142.523C80.4346 145.574 91.6816 147.092 102.975 148.373C112.676 149.474 122.388 150.49 132.068 151.754C139.526 152.727 146.849 154.478 154.173 156.186C160.169 157.584 166.153 159.02 172.054 160.795C181.34 163.588 189.837 167.944 197.677 173.619C198.066 173.9 198.447 174.191 198.84 174.467C198.882 174.496 198.978 174.447 199.049 174.435C199.429 174.3 199.434 173.962 199.434 173.654C199.448 159.394 200.078 145.131 199.187 130.877C198.777 124.321 198.077 117.784 197.925 111.21C197.89 109.684 197.928 108.168 198.151 106.656C198.269 105.849 198.52 105.094 199.012 104.453C199.348 104.015 199.767 103.506 200.397 103.713C200.893 103.875 200.969 104.404 201.028 104.91C201.36 107.768 201.793 110.616 202.058 113.479C202.677 120.173 203.329 126.864 203.692 133.583C204.206 143.117 203.968 152.649 203.919 162.182C203.881 169.875 203.747 177.573 204.093 185.256C204.446 193.096 204.556 200.954 205.387 208.767C205.563 210.428 205.281 212.135 205.843 213.739C206.632 213.889 206.598 213.253 206.74 212.858C211.361 200.055 219.859 190.348 230.618 182.283C240.789 174.659 251.825 168.528 263.065 162.731C277.501 155.286 291.91 147.819 305.717 139.216C317.364 131.959 326.704 122.495 334.229 111.115C342.187 99.0798 348.328 86.2697 352.056 72.2387C355.007 61.1322 357.475 49.9607 358.471 38.5342C359.383 28.0692 359.396 17.5628 357.614 7.14306C357.427 6.0492 357.108 4.93513 356.619 3.94571C356.033 2.76282 356.378 1.93991 357.261 1.21469C358.155 0.479346 359.088 0.770016 359.926 1.33499C360.989 2.05204 361.43 3.18198 361.681 4.3793C362.405 7.83123 362.863 11.3269 363.083 14.8405C364.399 35.8696 361.236 56.2953 355.363 76.4741C350.225 94.1288 341.587 109.789 330.054 123.921C323.781 131.608 316.144 137.782 307.728 143.081C293.551 152.007 278.578 159.438 263.742 167.141C252.801 172.822 242.069 178.84 232.142 186.249C221.942 193.862 214.19 203.241 209.581 215.154C208.861 217.015 208.086 218.857 207.258 220.672C206.644 222.016 206.269 223.386 206.504 224.851C207.013 228.026 209.755 252.953 207.911 261.911C207.189 265.419 205.465 268.292 202.792 270.65C200.302 272.848 197.458 274.449 194.463 275.829C189.499 278.115 184.286 279.665 179.039 281.118C178.902 281.156 167.156 284.266 165.454 284.216C161.506 284.099 163.708 281.226 166.469 280.449Z" fill="#0C0A0A"/>
<path d="M269.014 341.128C265.406 344.172 252.764 354.254 250.166 356.389C249.427 356.996 248.672 357.608 247.706 357.831C246.457 358.119 245.66 357.357 245.916 356.106C246.084 355.289 246.622 354.711 247.223 354.153C257.969 344.173 269.458 335.085 281.24 326.395C286.862 322.249 291.995 319.055 298.044 315.566C299.717 314.602 300.204 315.914 300.458 317.032C300.738 318.262 301.391 318.823 300.089 319.559C287.035 326.933 276.114 335.135 269.014 341.128Z" fill="#0C0A0A"/>
<path d="M335.284 342.048C335.855 344.43 333.936 345.082 333.194 345.352C326.574 347.763 321.012 350.185 314.73 353.358C301.807 359.887 288.955 366.55 276.726 374.339C271.395 377.735 266.106 381.196 260.794 384.622C259.518 385.445 258.27 386.337 256.819 386.831C255.617 387.239 254.717 386.446 255.016 385.229C255.308 384.042 255.92 383.004 256.917 382.247C258.701 380.891 260.428 379.445 262.296 378.217C273.195 371.054 284.072 363.86 295.761 357.992C299.615 356.057 303.297 353.781 307.063 351.67C315.378 347.009 322.793 343.496 331.989 340.834C332.694 340.63 334.692 339.576 335.284 342.048Z" fill="#0C0A0A"/>
<path d="M248.813 376.284C248.541 375.524 248.188 374.815 247.715 374.162C247.161 373.399 246.423 373.261 245.589 373.57C244.768 373.874 244.592 374.542 244.732 375.328C244.843 375.955 244.966 376.582 245.119 377.201C245.697 379.552 245.979 381.933 245.603 384.336C245.387 385.715 245.174 387.144 243.98 388.334C243.435 386.425 243.038 384.635 242.418 382.925C240.268 376.991 238.025 371.091 235.847 365.167C232.536 356.159 229.314 347.111 223.799 339.123C223.997 338.866 224.194 338.609 224.392 338.352C225.257 338.656 225.841 339.339 226.457 339.952C228.282 341.765 229.809 343.812 231.12 346.028C233.156 349.468 235.2 352.904 237.298 356.306C237.683 356.929 237.849 357.85 238.809 357.98C240.524 356.028 240.317 353.95 239.357 351.784C238.483 349.811 237.754 347.768 236.791 345.841C235.066 342.391 232.993 339.167 230.106 336.537C225.534 332.373 220.106 330.785 214.004 330.967C210.738 331.064 209.357 331.879 208.336 334.989C207.604 337.218 207.376 339.528 207.536 341.861C208.023 348.954 209.796 355.746 212.58 362.26C214.529 366.821 216.472 371.383 218.3 375.995C220.072 380.467 222.131 384.794 224.826 388.797C226.904 391.883 229.391 394.569 232.505 396.636C233.911 397.569 235.395 398.348 237.05 398.751C238.77 399.17 240.602 399.11 241.839 397.929C243.34 396.494 245.087 395.392 246.568 393.962C247.385 393.172 247.903 392.189 248.408 391.178C250.861 386.267 250.61 381.302 248.813 376.284ZM240.368 392.912C240.134 394.685 239.467 395.141 237.778 394.653C236.844 394.383 236.027 393.88 235.22 393.354C232.214 391.394 229.889 388.783 227.925 385.81C225.397 381.981 223.53 377.827 221.797 373.6C220.097 369.454 218.4 365.306 216.603 361.202C214.153 355.604 212.427 349.802 211.437 343.78C211.321 343.074 211.367 342.342 211.338 341.622C211.207 339.851 211.344 338.097 211.911 336.408C212.439 334.836 212.932 334.655 214.372 335.558C216.156 336.675 217.589 338.195 218.902 339.821C222.61 344.414 225.266 349.608 227.496 355.035C232.125 366.298 235.937 377.857 239.828 389.385C240.206 390.505 240.53 391.683 240.368 392.912Z" fill="#0C0A0A"/>
<path d="M331.225 441.585C331.308 439.618 332.081 438.302 332.821 436.974C334.349 434.23 336.508 431.963 338.405 429.494C342.696 423.912 346.94 418.29 351.037 412.565C358.742 401.798 367.293 391.747 376.388 382.148C378.259 380.173 380.259 378.319 382.238 376.449C382.873 375.849 383.585 375.293 384.35 374.88C384.837 374.616 385.451 373.932 386.049 374.621C386.519 375.163 386.771 375.841 386.448 376.622C386.137 377.378 385.693 378.007 385.117 378.587C376.929 386.839 369.592 395.809 362.559 405.053C356.075 413.576 349.431 421.977 342.841 430.419C340.132 433.89 337.549 437.45 335.122 441.122C334.857 441.523 334.599 441.928 334.318 442.318C333.811 443.019 333.164 443.473 332.27 443.148C331.373 442.823 331.14 442.086 331.225 441.585Z" fill="#0C0A0A"/>
<path d="M319.758 405.791C319.686 404.969 320.082 404.24 320.341 403.497C322.347 397.749 325.111 392.35 328.067 387.049C332.472 379.15 337.341 371.55 342.679 364.241C347.235 358.004 353.072 353.198 359.31 348.803C360.23 348.155 361.246 347.633 362.419 347.712C363.564 347.789 363.864 348.408 363.364 349.476C362.88 350.51 362.098 351.31 361.35 352.145C359.046 354.715 356.343 356.862 353.889 359.274C346.751 366.287 341.388 374.635 336.017 382.978C331.611 389.822 327.902 397.077 323.655 404.015C323.073 404.967 322.519 405.95 321.69 406.72C321.355 407.031 321.002 407.423 320.439 407.182C319.818 406.916 319.688 406.409 319.758 405.791Z" fill="#0C0A0A"/>
<path d="M326.56 445.269C326.069 444.43 325.358 443.943 324.389 444.144C323.503 444.328 323.501 445.19 323.379 445.876C323.297 446.342 323.399 446.837 323.354 447.313C323.04 450.676 321.573 453.492 319.412 456.218C319.18 455.771 319.052 455.642 319.055 455.515C319.175 449.684 317.742 444.132 316.15 438.586C314.582 433.126 312.67 427.774 311.121 422.315C309.736 417.439 307.983 412.749 305.445 408.358C304.736 407.132 304.067 405.883 303.379 404.644C303.535 404.25 303.87 404.143 304.248 404.108C305.41 405.07 306.47 406.128 307.433 407.299C309.487 409.797 311.058 412.567 312.231 415.566C313.309 418.322 314.327 421.101 315.407 423.856C315.725 424.669 316.043 425.495 316.686 426.145C317.274 426.74 317.953 426.805 318.675 426.551C319.35 426.313 319.645 425.765 319.676 425.06C319.712 424.253 319.649 423.469 319.354 422.701C317.981 419.118 316.79 415.46 315.111 412.003C312.541 406.712 308.965 402.321 303.862 399.202C301.491 397.752 298.982 397.267 296.322 397.273C295.14 397.276 293.609 397.277 293.018 398.342C291.918 400.325 290.51 402.243 290.446 404.686C290.405 406.286 290.28 407.881 290.417 409.485C290.785 413.788 291.066 418.099 291.487 422.396C291.844 426.051 292.255 429.705 292.811 433.334C293.591 438.43 295.888 443.057 297.587 447.865C298.518 450.501 299.915 452.943 301.33 455.362C302.924 458.087 305.255 460.058 308.012 461.393C310.784 462.735 313.829 463.417 316.828 462.156C322.572 459.74 325.94 455.287 327.163 449.235C327.428 447.923 327.288 446.513 326.56 445.269ZM315.049 457.527C314.479 459.05 313.679 459.484 312.07 459.257C308.965 458.819 306.485 457.204 304.713 454.734C302.48 451.621 300.481 448.33 299.658 444.492C298.835 440.662 297.13 437.076 296.528 433.186C295.981 429.644 295.351 426.119 295.118 422.525C294.82 417.905 294.081 413.32 293.899 408.685C293.831 406.992 293.863 405.32 294.364 403.697C294.933 401.854 295.62 401.645 297.01 402.947C298.477 404.319 299.697 405.913 300.688 407.661C303.102 411.915 305.234 416.312 306.54 421.037C308.503 428.138 311.177 435.006 313.246 442.071C314.326 445.757 315.478 449.419 315.705 453.287C315.793 454.749 315.556 456.17 315.049 457.527Z" fill="#0C0A0A"/>
<path d="M337.268 320.965C334.715 321.405 332.176 321.865 329.628 322.279C322.269 323.477 314.866 323.948 307.408 323.596C304.857 323.475 302.376 323.058 299.98 322.189C297.671 321.352 295.623 320.242 295.341 317.604C295.012 315.722 295.76 312.188 298.909 310.539C301.87 308.989 304.981 307.725 308.056 306.396C313.942 303.852 320.197 302.749 326.473 301.695C328.318 301.385 330.148 300.955 332.005 300.757C333.503 300.598 334.221 301.182 334.566 302.426C334.757 303.115 334.699 303.538 333.839 303.867C331.924 304.599 329.91 304.863 327.943 305.343C320.413 307.182 313.148 309.803 305.929 312.556C304.788 312.991 303.647 313.423 302.521 313.892C301.999 314.109 301.463 314.346 301.022 314.685C299.804 315.62 299.834 316.255 301.146 317.049C302.553 317.899 304.11 318.362 305.748 318.576C312.285 319.433 318.781 318.867 325.286 318.139C330.825 317.519 336.212 316.29 341.524 314.684C341.758 314.614 341.992 314.524 342.233 314.499C343.374 314.383 344.596 314.159 345.369 315.272C346.174 316.431 345.794 317.592 345.022 318.615C343.022 321.267 341.418 324.141 340.01 327.121C338.309 330.725 337.432 334.531 337.352 338.498C337.302 340.947 338.451 342.328 340.936 342.902C344.301 343.678 347.603 343.141 350.856 342.285C352.587 341.83 354.309 341.282 355.956 340.593C361.586 338.237 367.183 335.805 372.789 333.393C374.963 332.458 376.948 331.192 378.941 329.944C379.696 329.471 380.402 328.919 381.176 328.479C382.091 327.958 383.062 327.364 384.143 328.032C385.275 328.731 385.265 329.832 385.2 331.015C384.857 337.249 384.565 343.485 384.277 349.722C384.16 352.247 384.677 354.652 385.802 356.934C386.494 358.338 387.511 359.445 388.766 360.39C391.458 362.415 394.273 362.6 397.243 361.052C400.344 359.436 402.716 357.02 404.828 354.341C407.49 350.961 409.351 347.112 411.323 343.34C414.05 338.123 416.49 332.792 417.005 326.833C417.032 326.521 417.133 326.202 417.26 325.912C417.729 324.841 418.8 324.146 419.754 324.377C420.912 324.658 421.524 325.397 421.573 326.621C421.68 329.288 421.338 331.917 420.664 334.473C416.275 351.1 406.671 364.049 391.922 373.33C391.236 373.762 390.539 374.172 389.686 374.245C388.869 374.315 388.202 374.067 387.818 373.371C387.415 372.64 387.703 371.923 388.239 371.391C388.689 370.943 389.301 370.655 389.821 370.27C391.031 369.377 392.45 368.733 393.508 367.472C392.451 366.841 391.342 367.054 390.35 366.747C384.578 364.961 380.382 359.783 379.849 353.848C379.359 348.395 379.758 342.967 380.138 337.535C380.177 336.99 380.459 336.442 380.143 335.895C379.618 335.63 379.211 335.961 378.789 336.163C372.338 339.267 365.742 342.052 359.083 344.691C353.675 346.834 348.106 348.333 342.194 348.251C338.417 348.199 335.047 347.36 332.994 343.875C332.392 342.853 331.012 341.104 331.436 337.564C332.075 332.244 334.283 327.415 336.713 322.684C336.966 322.19 337.354 321.748 337.268 320.965Z" fill="#0C0A0A"/>
<path d="M347.232 294.005C346.351 297.543 345.172 301.077 343.382 304.383C342.849 305.368 341.923 305.591 340.912 305.267C339.873 304.933 339.706 304.008 339.851 303.121C340.03 302.03 340.376 300.963 340.703 299.902C341.36 297.774 342.052 295.657 342.733 293.536C343.03 292.611 343.439 291.78 344.342 291.261C345.832 290.406 346.797 290.797 347.118 292.462C347.207 292.926 347.191 293.41 347.232 294.005Z" fill="#0C0A0A"/>
<path d="M357.149 217.982C357.312 217.122 357.629 216.443 358.62 216.372C359.507 216.308 360.217 216.64 360.565 217.474C360.809 218.058 360.99 218.688 361.074 219.315C361.244 220.584 361.4 221.864 361.433 223.142C361.546 227.383 361.685 231.623 361.708 235.869C361.749 243.099 361.013 250.252 360.113 257.404C359.893 259.15 359.823 260.914 359.338 262.618C359.186 263.153 359.04 263.703 358.792 264.197C358.428 264.924 357.775 265.191 356.98 265.034C356.126 264.865 355.782 264.242 355.809 263.457C355.836 262.66 355.921 261.85 356.112 261.078C356.577 259.192 356.775 257.3 356.571 255.362C356.512 254.81 356.588 254.242 356.618 253.682C357.058 245.44 356.961 237.187 357.156 228.939C357.168 228.459 357.116 227.977 357.134 227.498C357.167 226.579 356.823 219.693 357.149 217.982Z" fill="#0C0A0A"/>
<path d="M364.112 199.864C362.477 199.977 360.958 199.47 359.418 199.025C350.798 196.531 342.03 194.75 333.129 193.622C332.818 193.582 332.488 193.506 332.219 193.89C334.52 201.55 333.768 209.286 332.183 217.295C340.918 218.179 348.252 220.249 356.549 223.35C357.388 223.665 359.172 224.214 358.96 225.339C358.63 227.091 356.449 225.987 355.839 225.855C348.974 224.362 343.269 222.677 336.32 221.578C333.489 221.13 330.618 220.936 327.532 220.601C328.261 222.277 329.47 223.303 330.541 224.409C332.714 226.652 334.937 228.842 336.972 231.22C341.914 236.993 343.25 243.661 341.94 250.985C341.487 253.518 340.697 255.94 339.093 258.029C338.814 258.393 338.536 258.759 338.252 259.12C337.885 259.588 337.51 260.05 337.12 260.5C336.727 260.955 336.32 261.4 335.881 261.811C335.528 262.142 335.149 262.471 334.716 262.693C334.624 262.739 334.545 262.781 334.461 262.838C334.386 262.889 334.38 262.979 334.349 263.06C334.31 263.16 334.271 263.259 334.233 263.359C334.155 263.557 334.075 263.756 333.994 263.953C333.832 264.349 333.662 264.741 333.48 265.128C333.311 265.49 333.131 265.847 332.939 266.198C332.678 266.674 333.428 267.129 333.761 267.558C334.466 268.466 334.729 269.423 334.041 270.428C333.307 271.502 332.287 271.284 331.236 270.97C330.604 270.781 330.073 270.458 329.555 270.074C329.197 269.807 328.788 269.817 328.449 270.088C328.029 270.422 328.301 270.787 328.484 271.132C328.748 271.625 329.065 272.099 329.262 272.618C329.664 273.683 329.139 274.505 328.371 275.143C327.53 275.842 326.493 275.547 326.019 274.844C324.791 273.021 322.716 271.781 320.503 272.646C320.284 272.732 320.063 272.818 319.83 272.852C319.385 272.918 318.913 272.781 318.573 272.485C318.078 272.054 318.154 271.427 317.765 270.951C317.422 270.532 316.969 270.229 316.501 269.965C315.613 269.463 314.585 269.084 313.99 268.203C313.354 267.261 312.991 266.187 312.78 265.09C312.567 263.977 312.384 262.973 311.352 262.199C310.421 261.5 310.248 260.287 310.165 259.148C310.117 258.484 310.085 257.956 309.185 257.81C307.988 257.616 307.65 256.553 307.347 255.531C306.564 252.881 306.858 250.205 307.788 247.74C308.626 245.516 308.151 244.212 306.227 243.028C305.08 242.322 290.483 229.052 287.941 226.498C284.611 223.151 282.136 219.274 281.082 214.601C279.295 206.685 283.922 196.606 290.404 192.419C293.901 190.16 297.766 189.576 301.583 188.629C304.777 187.836 308.06 187.717 311.362 187.952C317.511 188.39 323.677 188.629 329.818 189.153C341.092 190.116 352.114 192.444 362.942 195.702C363.624 195.907 364.257 196.275 364.913 196.567C365.732 198.579 365.711 198.663 364.112 199.864ZM316.965 265.889C317.139 265.819 317.238 265.812 317.276 265.76C317.552 265.379 317.815 264.989 318.086 264.604C320.773 260.787 324.374 258.275 328.902 257.157C329.822 256.93 330.744 256.908 331.664 257.139C332.53 257.357 333.337 257.673 334.205 257.234C334.568 257.05 334.876 256.772 335.162 256.481C336.02 255.608 336.997 254.436 337.294 253.238C337.675 251.698 337.865 250.013 337.969 248.432C338.337 242.885 337.181 237.781 333.228 233.568C328.304 228.319 323.342 223.101 318.958 217.372C318.181 216.358 317.272 215.445 316.452 214.462C315.994 213.912 315.409 213.285 315.958 212.55C316.47 211.866 317.307 212.088 317.961 212.322C318.622 212.558 319.239 212.972 319.804 213.402C320.567 213.982 321.331 214.59 321.97 215.298C322.997 216.435 324.093 216.723 325.692 216.702C328.1 216.671 328.136 216.853 328.656 214.049C329.844 207.637 330.08 201.18 329.239 194.687C329.062 193.313 328.43 193.019 327.218 192.964C323.7 192.807 320.189 192.458 316.671 192.355C310.42 192.172 304.179 192.381 298.003 193.468C291.059 194.689 287.015 199.1 285.402 205.696C283.7 212.659 286.061 218.703 290.783 223.754C296.311 229.666 302.512 234.883 308.699 240.095C309.09 240.424 309.437 240.957 310.169 240.688C310.422 239.305 310.652 237.901 310.957 236.513C311.015 236.254 311.336 235.947 311.599 235.866C311.908 235.77 312.145 236.078 312.319 236.362C312.914 237.333 313.254 238.385 313.345 239.517C313.508 241.539 313.296 243.474 312.454 245.376C311.209 248.191 310.505 251.15 310.547 254.28C311.135 254.243 311.22 253.912 311.358 253.633C312.221 251.889 313.468 250.427 314.804 249.043C315.283 248.546 315.834 247.887 316.637 248.549C317.261 249.063 317.055 249.67 316.731 250.278C316.206 251.264 315.676 252.249 315.204 253.261C314.61 254.538 313.756 255.733 313.721 257.471C314.605 256.888 315.11 256.143 315.955 255.875C316.78 255.612 317.548 255.551 318.165 256.235C318.73 256.863 318.563 257.566 318.197 258.244C317.856 258.877 317.482 259.497 317.184 260.15C316.329 262.026 316.086 263.928 316.965 265.889ZM326.808 264.535C326.833 263.355 327.886 262.464 329.647 262.97C330.746 263.285 330.937 262.795 331.076 262.024C331.287 260.86 330.545 260.168 329.104 260.438C324.803 261.246 321.765 263.824 319.701 267.584C319.102 268.674 319.411 269.513 320.3 269.763C321.306 270.045 321.822 269.772 322.039 268.567C322.29 267.175 323.299 266.738 324.54 267.104C326.912 267.804 326.912 267.804 326.806 265.298C326.803 265.218 326.806 265.138 326.808 264.535Z" fill="#0C0A0A"/>
<path d="M342.862 265.947C342.862 265.947 337.689 267.79 336.097 270.298C334.486 272.836 335.548 279.303 335.548 279.303L348.102 284.323L357.254 277.954L342.862 265.947Z" fill="white"/>
<path d="M348.504 269.496C351.343 267.739 354.268 266.77 357.426 266.445C359.444 266.237 361.374 266.381 363.35 266.903C367.808 268.082 371.877 269.987 375.673 272.611C377.293 273.732 379.197 274.459 381.01 275.281C391.369 279.977 401.987 283.93 413.097 286.485C416.052 287.165 418.969 288.001 422.2 288.064C422.341 287.148 422.224 286.326 422.064 285.476C420.828 278.938 418.902 272.586 416.708 266.325C415.334 262.406 414.26 258.371 412.432 254.612C412.158 254.049 412.018 253.394 411.942 252.767C411.849 251.993 412.157 251.32 412.913 251.007C413.577 250.733 414.157 251.017 414.664 251.476C415.34 252.087 415.661 252.921 416.052 253.704C419.063 259.739 421.375 266.035 423.082 272.556C423.263 273.246 423.47 273.928 423.747 274.905C428.129 272.03 432.606 269.863 437.947 270.673C442.942 271.43 447.766 272.619 451.84 275.838C452.42 274.853 452.101 274.14 452.002 273.452C450.297 261.523 446.582 250.248 440.898 239.626C438.655 235.434 435.677 231.766 432.585 228.179C427.793 222.622 422.406 217.766 416.137 213.918C415.865 213.751 415.595 213.572 415.353 213.366C414.635 212.754 414.153 212.024 414.576 211.055C414.997 210.09 415.857 209.967 416.796 210.028C418.297 210.126 419.543 210.859 420.759 211.627C424.431 213.944 427.81 216.678 430.88 219.709C434.236 223.023 437.377 226.57 440.238 230.346C445.683 237.53 449.091 245.707 451.929 254.164C455.58 265.045 457.182 276.251 457.087 287.705C457.036 293.753 455.938 299.646 454.138 305.412C454.021 305.789 453.073 308.487 452.647 309.571C450.893 314.03 447.497 317.075 443.984 320.211C439.278 324.413 433.845 324.864 428.082 324.747C414.588 324.471 402.092 320.639 390.325 314.186C387.1 312.418 383.699 311.01 380.442 309.289C374.991 306.409 369.674 303.317 364.487 299.998C363.322 299.253 362.183 298.959 360.871 299.354C359.443 299.785 357.996 299.632 356.584 299.373C354.556 299.001 353.015 297.96 352.536 295.794C352.177 294.175 351.649 292.837 349.706 292.426C348.687 292.211 348.08 291.178 347.86 290.087C347.685 289.224 347.509 288.36 347.391 287.489C347.259 286.521 346.891 285.931 345.811 285.706C344.193 285.369 342.904 284.38 341.944 283.038C341.426 282.312 340.902 282.097 339.953 282.174C334.9 282.585 331.911 279.452 332.435 274.43C332.897 270.002 337.01 265.353 341.306 264.406C343.505 263.92 345.423 264.689 346.707 266.609C347.282 267.469 347.803 268.365 348.504 269.496ZM425.086 279.665C425.588 281.608 426.153 283.269 426.48 285.003C426.702 286.179 426.111 287.671 426.928 288.45C427.83 289.311 429.372 288.793 430.627 288.947C432.277 289.149 433.086 289.79 433.158 290.979C433.236 292.27 432.396 293.024 430.63 293.247C430.472 293.266 430.31 293.264 430.151 293.277C426.535 293.562 422.935 293.307 419.409 292.564C410.882 290.766 402.431 288.668 394.275 285.53C385.833 282.283 377.62 278.613 369.965 273.697C363.393 269.477 356.527 268.925 349.667 273.286C347.514 274.655 345.79 276.392 344.892 278.817C344.425 280.078 344.924 281.127 346.145 281.828C347.262 282.468 348.109 282.204 348.75 281.111C348.869 280.909 349.06 280.746 349.229 280.576C351.201 278.603 353.556 277.298 356.253 276.628C357.778 276.249 358.862 276.711 359.249 277.806C359.613 278.836 359.142 279.755 357.84 280.483C357.353 280.755 356.834 280.972 356.326 281.205C355.23 281.709 354.147 282.27 353.282 283.101C351.965 284.367 350.97 285.896 350.493 287.669C350.283 288.446 350.43 289.315 351.396 289.648C352.265 289.947 352.724 289.363 353.134 288.739C354.343 286.898 355.914 285.434 357.805 284.322C358.771 283.755 359.773 283.24 360.935 283.213C361.705 283.195 362.353 283.43 362.727 284.164C363.095 284.887 362.993 285.609 362.496 286.186C361.979 286.786 361.359 287.308 360.737 287.805C359.483 288.807 358.243 289.813 357.266 291.106C356.677 291.885 356.228 292.715 356.098 293.699C355.97 294.67 356.328 295.232 357.348 295.327C358.559 295.439 359.737 295.332 360.896 294.948C362.11 294.546 363.318 294.103 364.562 293.822C366.464 293.391 367.686 294.458 367.186 296.264C366.92 297.224 367.144 297.523 367.867 297.922C371.363 299.853 374.711 302.032 378.25 303.906C383.552 306.714 389.015 309.169 394.423 311.742C401.072 314.906 407.932 317.583 415.177 319.045C420.849 320.189 426.63 320.322 432.398 320.279C433.893 320.267 435.424 319.938 436.871 319.521C439.344 318.806 441.757 317.713 443.55 315.901C446.198 313.224 448.432 310.143 449.719 306.545C452.506 298.758 453.698 290.738 452.935 282.464C452.873 281.799 452.818 281.177 452.159 280.835C450.178 279.805 448.334 278.359 446.104 278.007C439.042 276.894 432.089 277.527 425.086 279.665ZM336.319 274.527C336.106 276.539 336.65 277.265 338.639 277.638C339.029 277.711 339.45 277.728 339.8 277.891C340.717 278.319 341.09 277.845 341.395 277.081C342.145 275.199 343.289 273.564 344.831 272.271C345.778 271.477 345.948 270.84 344.994 269.977C344.524 269.552 344.137 269.035 343.709 268.562C343.17 267.967 342.56 267.865 341.773 268.098C339.267 268.84 336.592 271.945 336.319 274.527Z" fill="#0C0A0A"/>
<path d="M364.741 195.79C366.48 194.804 366.511 194.724 365.955 192.624C366.628 192.26 366.899 191.56 367.304 190.98C368.437 189.355 368.367 189.389 367.175 187.676C365.61 185.426 365.679 182.997 366.925 180.668C368.652 177.439 371.381 175.092 374.227 172.886C374.856 172.399 375.543 171.989 376.202 171.542C376.618 171.759 377.047 171.953 377.448 172.196C381.525 174.67 385.988 175.927 390.698 176.39C392.638 176.581 393.158 176.114 393.352 174.103C396.041 172.783 398.94 172.29 401.879 171.981C407.639 171.376 413.021 172.087 417.267 176.564C417.879 177.21 418.453 177.155 419.185 176.796C420.633 176.085 421.865 175.079 423.115 174.092C423.874 173.492 424.612 172.869 425.688 173.139C426.429 173.656 426.377 174.444 426.494 175.226C426.755 176.982 426.332 178.844 427.288 180.493C425.276 181.281 423.323 182.193 421.468 183.303C420.353 183.971 419.586 184.807 420.1 186.238C419.911 187.324 419.908 188.458 419.379 189.462C418.36 191.396 418.09 193.508 417.869 195.634C417.915 195.759 417.878 195.852 417.758 195.909C417.436 196.542 416.706 196.949 416.724 197.771C414.154 202.232 411.04 206.257 407.232 209.739C406.213 210.671 405.073 211.392 403.836 211.964C401.343 213.118 399.026 212.775 396.862 211.105C395.069 209.721 394.983 209.658 393.374 211.206C391.154 213.343 388.571 214.917 385.906 216.379C382.857 218.052 379.629 219.107 376.096 219.189C371.39 219.298 367.976 217.197 365.628 213.249C363.99 210.493 363.543 207.429 363.415 204.264C363.296 201.331 363.836 198.542 364.741 195.79ZM392.797 190.653C394.729 190.745 396.608 190.549 398.394 189.727C401.743 188.186 404.879 186.301 407.711 183.939C408.439 183.331 409.117 182.633 409.689 181.878C410.521 180.777 410.448 179.631 409.619 178.849C408.697 177.98 407.737 178.143 406.804 178.823C405.838 179.527 404.903 180.275 403.941 180.984C400.454 183.556 396.786 185.768 392.48 186.705C392.017 186.806 391.534 186.925 391.127 187.155C389.841 187.883 389.804 189.156 391.018 190.016C391.547 190.391 392.137 190.625 392.797 190.653Z" fill="#FDD433"/>
<path d="M427.288 180.481C426.332 178.833 426.755 176.97 426.494 175.215C426.377 174.432 426.429 173.645 425.687 173.128C426.17 171.972 425.627 170.913 425.293 169.873C423.527 164.37 421.359 159.052 417.877 154.367C418.252 153.316 418.965 152.451 419.43 151.432C421.049 147.885 421.266 144.068 421.813 140.309C425.88 140.533 429.957 140.641 434.012 141.006C440.723 141.611 447.319 142.856 453.559 145.507C458.244 147.497 462.061 150.6 464.642 155.041C466.92 158.961 466.534 162.402 463.703 165.909C461.554 168.571 458.804 170.488 455.988 172.323C453.644 173.85 451.23 175.268 448.866 176.765C448.406 177.057 448.037 177.491 447.627 177.859C440.741 177.907 433.914 178.42 427.288 180.481Z" fill="#ABC264"/>
<path d="M427.284 180.486C433.911 178.425 440.736 177.911 447.622 177.863C454.949 177.613 462.155 178.438 469.207 180.445C471.676 181.148 473.98 182.292 476.056 183.82C478.203 185.402 478.368 187.334 476.617 189.348C475.981 190.079 475.255 190.719 474.403 191.167C464.832 196.206 455.137 200.871 444.162 202.057C436.225 202.915 428.534 201.973 421.047 199.261C420.081 198.911 419.188 198.355 418.261 197.894C417.815 197.3 417.521 196.667 417.755 195.9C417.875 195.842 417.912 195.751 417.866 195.625C419.717 194.984 421.491 195.499 423.28 195.953C432.17 198.211 441.101 198.822 450.104 196.615C457.7 194.752 464.666 191.334 471.642 187.938C472.13 187.7 472.665 187.464 472.971 186.751C470.785 185.25 468.29 184.455 465.725 183.95C455.892 182.015 446.004 182.187 436.102 183.332C431.875 183.821 427.777 184.854 423.757 186.231C422.554 186.642 421.316 187.117 420.097 186.23C419.583 184.8 420.35 183.963 421.465 183.296C423.32 182.185 425.273 181.273 427.284 180.486Z" fill="#0C0A0A"/>
<path d="M393.358 174.1C393.165 176.111 392.644 176.578 390.704 176.388C385.994 175.924 381.532 174.667 377.454 172.193C377.054 171.95 376.624 171.756 376.208 171.539C373.942 169.428 371.505 167.496 369.56 165.049C368.659 163.916 367.838 162.745 367.204 161.447C366.78 160.578 366.497 159.66 366.48 158.687C366.41 154.679 369.809 152.34 373.489 153.92C375.322 154.707 377.017 155.777 378.674 156.893C379.259 157.287 379.749 157.842 380.614 158.02C386.114 148.842 393.439 142.45 404.955 142.823C406.942 143.898 406.942 143.898 406.119 145.283C404.477 145.604 402.824 145.879 401.193 146.25C393.435 148.016 388.417 153.123 384.687 159.81C384.307 160.49 384.472 160.798 385.073 161.112C388.489 162.901 391.894 164.717 395.976 163.821C396.285 163.754 396.602 163.694 396.917 163.686C397.462 163.672 397.839 164.001 398.025 164.463C398.254 165.033 397.818 165.351 397.406 165.597C396.021 166.421 394.573 167.046 392.914 167.086C390.794 167.135 388.801 166.631 386.841 165.874C383.461 164.568 380.361 162.764 377.403 160.691C375.697 159.495 373.903 158.432 372.014 157.559C370.986 157.085 370.491 157.563 370.69 158.67C370.821 159.401 371.201 160.012 371.611 160.605C375.88 166.771 381.384 171.093 388.99 172.328C390.561 172.584 392.144 172.915 393.358 174.1Z" fill="#0C0A0A"/>
<path d="M406.119 145.278C406.941 143.892 406.942 143.892 404.955 142.817C404.519 141.041 404.049 139.272 403.656 137.487C403.21 135.461 402.755 133.418 403.149 131.326C403.722 128.29 406.324 127.194 408.903 128.872C410.146 129.68 410.964 130.835 411.662 132.118C412.696 134.017 413.158 136.142 414.01 138.1C414.836 137.937 414.96 137.206 415.347 136.732C417.171 134.501 419.905 134.875 421.016 137.563C421.379 138.44 421.557 139.393 421.819 140.311C421.273 144.07 421.056 147.886 419.437 151.434C418.971 152.453 418.258 153.318 417.884 154.369C416.071 154.493 414.509 153.566 412.825 153.15C411.774 152.891 410.972 152.244 410.324 151.394C408.824 149.423 407.211 147.529 406.119 145.278Z" fill="#FDD433"/>
<path d="M392.798 190.652C392.138 190.624 391.548 190.389 391.019 190.015C389.804 189.154 389.843 187.881 391.129 187.153C391.535 186.923 392.018 186.804 392.481 186.703C396.787 185.766 400.455 183.554 403.942 180.982C404.904 180.273 405.839 179.526 406.805 178.821C407.738 178.142 408.697 177.979 409.62 178.848C410.449 179.629 410.522 180.775 409.689 181.876C409.118 182.631 408.439 183.33 407.712 183.937C404.88 186.3 401.744 188.185 398.395 189.725C396.609 190.547 394.73 190.743 392.798 190.652Z" fill="#0C0A0A"/>
<path d="M408.758 169.144C406.662 168.815 405.711 166.863 406.792 165.07C407.601 163.728 408.854 162.845 410.228 162.23C411.798 161.527 413.596 162.633 413.806 164.269C414.111 166.638 411.131 169.516 408.758 169.144Z" fill="#0C0A0A"/>
<path d="M399.98 155.528C399.803 157.357 396.674 159.727 394.867 159.402C392.922 159.053 392.002 156.962 393.185 155.388C394.227 154.002 395.699 153.184 397.435 153.049C398.949 152.932 400.113 154.148 399.98 155.528Z" fill="#0C0A0A"/>
<path d="M453.791 187.671C454.504 187.765 455.227 187.813 455.927 187.968C456.506 188.095 456.927 188.493 456.996 189.117C457.074 189.837 456.721 190.403 456.075 190.64C455.411 190.884 454.692 191.018 453.985 191.097C449.52 191.598 445.044 191.214 440.572 191.212C438.096 191.212 435.62 191.157 433.144 191.107C432.425 191.092 431.707 191.015 430.991 190.95C430.226 190.88 429.469 190.637 429.456 189.757C429.443 188.928 430.141 188.591 430.886 188.396C432.589 187.949 434.325 187.76 436.075 187.589C441.986 187.011 447.89 187.459 453.791 187.671Z" fill="#0C0A0A"/>
<path d="M566.943 299.771C570.338 300.192 573.7 300.132 577.057 300.186C577.942 300.2 578.83 300.174 579.542 300.842C580.098 301.363 580.378 301.982 580.367 302.759C580.26 309.862 581.003 316.93 581.282 324.017C581.587 331.774 582.3 339.525 581.8 347.301C581.642 349.751 581.19 350.252 578.82 350.351C568.981 350.765 559.143 351.26 549.3 351.522C545.955 351.612 542.588 351.177 539.243 350.863C527.289 349.739 515.302 348.953 503.382 347.477C502.905 347.417 502.419 347.403 501.952 347.303C499.95 346.875 499.437 346.181 499.663 344.093C500.484 336.534 501.341 328.98 502.153 321.42C502.708 316.245 503.247 311.068 503.716 305.884C503.883 304.041 504.354 302.446 505.922 301.307C506.885 300.607 506.965 298.946 508.558 298.904C509.757 298.873 510.954 298.757 512.153 298.728C514.231 298.676 514.253 298.69 514.057 296.591C513.804 293.885 513.747 291.164 513.146 288.487C512.693 286.472 513.249 284.507 513.939 282.613C514.424 281.282 515.413 280.571 516.848 280.484C518.845 280.363 520.839 280.099 522.844 280.247C523.812 280.318 524.47 280.292 524.641 279.011C524.929 276.858 526.481 275.908 528.516 275.773C534.193 275.395 539.871 275.137 545.546 275.855C548.368 276.212 550.584 277.439 551.664 280.175C552.084 281.239 552.763 281.338 553.72 281.299C557.478 281.146 561.25 281.183 564.997 280.891C569.274 280.557 570.951 284.428 570.382 287.361C569.713 290.811 568.758 294.199 567.421 297.46C567.148 298.127 566.774 298.744 566.943 299.771ZM504.284 343.426C517.786 344.434 531.154 345.431 544.701 346.442C544.549 343.719 544.374 341.262 544.283 338.803C543.991 330.881 543.786 322.957 544.107 315.031C544.13 314.469 544.152 313.901 544.442 313.4C544.876 312.648 545.519 312.21 546.412 312.294C547.299 312.377 547.905 312.872 548.112 313.742C548.242 314.283 548.293 314.85 548.315 315.408C548.442 318.687 548.659 321.969 548.641 325.248C548.604 332.05 549.374 338.849 548.697 345.652C548.611 346.512 548.59 347.199 549.865 347.137C558.737 346.707 567.611 346.346 576.483 345.936C578.522 345.842 578.501 345.798 578.307 343.636C577.594 335.664 577.158 327.672 576.729 319.68C576.497 315.364 576.18 311.052 575.945 306.736C575.889 305.704 575.649 305.14 574.432 305.14C571.952 305.139 569.467 305.045 566.995 304.852C565.737 304.754 565.273 305.296 565.071 306.396C564.737 308.205 564.431 310.025 563.967 311.802C563.622 313.125 563.75 314.184 564.583 315.336C565.769 316.978 566.113 318.844 565.093 320.762C564.223 322.396 561.841 323.402 560.161 322.852C558.85 322.422 557.96 320.736 558.072 318.882C558.117 318.152 558.376 317.506 558.709 316.847C559.312 315.65 560.071 314.491 560.1 313.075C560.147 310.827 560.485 308.613 560.842 306.398C561.103 304.784 561.074 304.753 559.497 304.704C554.056 304.534 548.615 304.387 543.174 304.221C532.135 303.884 521.093 303.644 510.074 302.824C509.373 302.772 508.656 302.465 508.225 302.709C507.289 316.362 505.812 329.788 504.284 343.426ZM541.478 299.226C544.796 299.192 549.194 299.337 553.592 299.584C555.987 299.719 558.393 299.672 560.793 299.72C561.555 299.736 562.233 299.696 562.433 298.744C563.289 294.673 564.518 290.683 565.11 286.556C565.327 285.042 565.234 284.934 563.623 284.933C560.422 284.931 557.219 285.053 554.02 284.989C552.692 284.963 551.825 285.168 551.232 286.544C550.462 288.332 548.94 289.368 546.971 289.663C541.141 290.536 535.309 290.004 529.486 289.61C527.747 289.492 526.321 288.666 525.507 286.938C524.999 285.861 525.465 284.144 524.387 283.726C523.324 283.314 521.899 283.834 520.633 283.94C520.234 283.973 519.833 283.974 519.435 284.019C517.615 284.222 517.067 284.739 517.454 286.488C518.222 289.953 518.431 293.448 518.487 296.975C518.514 298.692 518.594 298.704 520.232 298.742C526.952 298.9 533.673 299.049 541.478 299.226ZM542.944 279.579C538.688 279.579 534.787 279.565 530.887 279.583C528.507 279.595 528.507 279.618 528.414 281.949C528.408 282.109 528.406 282.268 528.404 282.428C528.379 285.023 528.585 285.451 531.192 286.028C533.913 286.63 536.711 286.751 539.502 286.738C540.651 286.733 541.825 286.845 543.118 286.46C542.008 284.169 541.899 282.01 542.944 279.579ZM546.022 282.881C546.072 283.656 546.228 284.502 546.597 285.304C546.726 285.585 546.761 285.931 547.15 285.972C547.536 286.013 547.685 285.703 547.846 285.439C548.061 285.084 548.09 284.818 547.758 284.425C546.559 283.004 546.564 282.953 547.958 281.674C548.335 281.329 548.41 281.062 548.145 280.704C547.873 280.339 547.483 280.293 547.103 280.542C546.299 281.068 546.041 281.872 546.022 282.881Z" fill="#0C0A0A"/>
<path d="M114.419 207.818C115.336 206.45 116.1 205.255 116.922 204.102C117.525 203.257 118.144 202.409 118.86 201.663C120.159 200.309 121.727 200.499 122.605 202.147C126.064 208.64 123.194 216.941 115.693 218.441C114.19 218.742 113.782 219.401 113.885 220.617C114.172 224.007 113.211 227.3 113.158 230.645C113.088 234.977 112.198 239.239 112.106 243.537C112.019 247.64 111.18 251.646 111.046 255.711C110.912 259.795 110.463 263.835 109.983 267.879C109.927 268.357 109.872 268.834 109.802 269.31C109.706 269.968 109.58 270.626 108.681 270.539C107.864 270.461 107.669 269.811 107.598 269.168C107.537 268.62 107.604 268.052 107.659 267.498C107.82 265.904 107.97 264.309 108.184 262.722C108.933 257.174 109.219 251.574 109.616 246.006C110.027 240.254 110.841 234.561 111.35 228.831C111.618 225.809 111.443 222.757 112 219.755C112.15 218.948 111.822 218.383 111.022 218.059C110.283 217.76 109.548 217.423 108.871 217.005C105.48 214.913 104.189 211.754 104.221 207.885C104.25 204.569 105.85 201.927 107.702 199.388C108.647 198.093 109.523 198.088 110.601 199.356C111.971 200.969 112.8 202.872 113.295 204.919C113.515 205.828 113.713 206.74 114.419 207.818Z" fill="#E6A7E6"/>
<path d="M116.701 243.945C114.249 243.621 113.445 241.8 114.865 239.93C116.135 238.259 117.87 237.018 119.66 236.025C122.506 234.445 125.498 233.116 128.779 232.607C129.755 232.455 130.686 232.449 131.576 232.889C133.146 233.664 133.448 235.14 132.196 236.367C131.289 237.256 130.271 238.052 129.217 238.764C125.962 240.962 122.438 242.618 118.647 243.659C117.974 243.843 117.268 244.116 116.701 243.945Z" fill="#E6A7E6"/>
<path d="M104.686 240.544C104.763 240.557 104.326 240.579 103.985 240.409C100.215 238.523 96.3609 236.749 93.6229 233.352C93.2276 232.861 92.8517 232.322 92.6098 231.746C91.8147 229.851 92.7003 228.57 94.7547 228.658C96.9388 228.751 98.9596 229.398 100.845 230.535C103.621 232.21 105.931 234.359 107.733 237.051C108.15 237.674 108.963 238.21 108.357 239.142C107.772 240.042 107.088 240.798 105.871 240.688C105.633 240.667 105.397 240.631 104.686 240.544Z" fill="#E6A7E6"/>
<path d="M130.145 220.001C131.91 220.148 132.566 221.354 131.771 222.894C131.043 224.303 129.71 225.127 128.473 225.964C124.933 228.363 121.091 229.978 116.721 230.123C115.971 230.148 115.505 229.978 115.122 229.392C114.708 228.76 114.843 228.184 115.267 227.627C115.46 227.374 115.624 227.091 115.849 226.871C119.669 223.125 124.192 220.789 129.52 220.073C129.756 220.042 129.993 220.018 130.145 220.001Z" fill="#E6A7E6"/>
<path d="M99.0082 216.153C99.151 216.197 99.3939 216.235 99.6006 216.344C103.611 218.453 106.968 221.269 109.294 225.228C109.859 226.191 109.751 226.996 109.126 227.87C108.163 229.217 107.69 229.399 106.154 228.692C101.658 226.622 99.1268 222.855 97.48 218.402C96.9413 216.945 97.6498 216.02 99.0082 216.153Z" fill="#E6A7E6"/>
</svg>
