<svg width="1008" height="320" viewBox="0 0 1008 320" fill="none" xmlns="http://www.w3.org/2000/svg">
<path d="M164.458 289.783C164.457 290.795 164.089 291.6 163.092 291.967C162.125 292.325 161.219 292.11 160.603 291.3C160.103 290.641 159.72 289.875 159.381 289.114C157.4 284.663 155.903 280.029 154.249 275.455C151.796 268.672 149.385 261.873 146.991 255.069C146.575 253.888 146.275 252.658 146.028 251.429C145.888 250.733 146.148 250.062 146.917 249.827C147.555 249.632 148.063 249.974 148.448 250.458C149.243 251.454 149.671 252.65 150.196 253.791C154.334 262.794 157.632 272.134 161.211 281.361C162.091 283.627 162.833 285.95 163.989 288.103C164.272 288.631 164.436 289.186 164.458 289.783Z" fill="black"/>
<path d="M64.3361 242.561C63.0988 253.269 62.0263 263.863 59.8772 274.311C59.3536 276.856 59.0008 279.436 58.5426 281.995C58.4408 282.564 58.3032 283.153 58.0467 283.666C57.5397 284.678 56.5917 284.694 55.6451 284.501C54.7379 284.317 54.8473 283.533 54.8463 282.888C54.8392 278.934 55.3458 275.022 55.9904 271.134C57.4303 262.451 58.966 253.783 60.4019 245.099C60.6685 243.486 61.4099 242.09 61.9885 240.615C62.2475 239.955 62.6477 239.362 63.4612 239.55C64.2923 239.742 64.2716 240.525 64.328 241.183C64.3709 241.682 64.3361 242.187 64.3361 242.561Z" fill="black"/>
<path d="M149.83 115.981C149.876 114.881 149.4 114.155 149.082 113.392C146.831 107.996 145.612 102.356 145.087 96.5555C144.989 95.4733 145.03 94.375 145.059 93.2853C145.1 91.7177 145.374 90.2464 147.051 89.5432C148.661 88.8687 149.996 89.5285 151.261 90.4487C152.759 91.5385 153.877 93.0128 154.98 94.3941C155.947 94.0965 155.689 93.3943 155.762 92.875C155.949 91.5463 156.04 90.2038 156.628 88.9618C158.185 85.6766 161.685 85.0486 164.263 87.5909C164.664 87.9857 164.856 88.6117 165.508 88.7395C166.104 88.33 166.23 87.6214 166.588 87.0642C168.764 83.6807 172.729 83.5298 175.162 86.7687C176.386 88.3998 177.175 90.2712 177.737 92.2062C179.03 96.6567 179.845 101.187 179.586 105.854C179.539 106.696 179.441 107.535 179.005 108.28C178.439 109.245 177.736 109.307 177.025 108.46C176.295 107.592 176.027 106.513 175.843 105.444C175.36 102.633 174.954 99.8086 174.513 96.9899C174.147 94.6496 173.482 92.4044 172.3 90.3387C171.979 89.7786 171.696 89.0191 170.853 89.1918C170.188 89.3283 170.062 90.0253 169.901 90.5729C169.15 93.1185 169.408 95.7292 169.451 98.326C169.47 99.4982 169.552 100.681 169.438 101.842C169.291 103.332 168.488 104.17 167.344 104.292C166.199 104.416 165.306 103.797 164.724 102.375C164.085 100.814 163.838 99.1428 163.442 97.5132C162.932 95.4176 162.494 93.2876 161.257 91.2641C160.144 92.0845 160.307 93.1444 160.268 94.0595C160.15 96.8301 160.345 99.594 160.594 102.355C160.677 103.27 160.73 104.203 160.652 105.115C160.522 106.646 159.81 107.531 158.694 107.691C157.431 107.871 156.609 107.208 156.059 106.166C155.628 105.351 155.256 104.504 154.879 103.661C153.951 101.591 152.941 99.5635 151.703 97.6577C151.211 96.9009 150.726 96.1315 149.835 95.424C149.228 96.4682 149.503 97.3772 149.598 98.2187C149.993 101.725 150.622 105.19 151.584 108.592C152.086 110.368 152.426 112.199 153.049 113.929C153.847 116.141 153.002 118 152.1 119.879C151.617 120.887 150.695 121.047 149.737 120.737C149.028 120.507 148.371 120.105 147.705 119.753C146.667 119.205 145.668 118.576 144.601 118.093C143.85 117.754 142.869 117.377 142.261 118.109C141.7 118.786 142.474 119.5 142.813 120.13C143.691 121.755 144.659 123.327 145.775 124.805C149.151 129.277 151.63 134.175 152.989 139.639C153.664 142.35 154.078 145.08 153.933 147.86C153.585 154.577 152.902 161.249 150.848 167.705C150.671 168.263 150.522 168.831 150.396 169.402C150.366 169.538 150.483 169.706 150.542 169.89C151.303 170.255 151.977 169.714 152.692 169.618C155.175 169.283 157.155 170.079 158.613 172.118C159.754 173.713 160.471 175.494 160.853 177.412C161.038 178.336 161.425 178.703 162.421 178.244C167.101 176.088 168.402 177.844 169.661 182.29C169.999 183.482 170.055 184.753 170.289 186.307C171.477 184.509 171.991 182.747 172.48 181.01C175.758 169.368 178.45 157.593 180.092 145.6C180.878 139.86 181.172 134.071 181.638 128.299C181.739 127.048 181.936 125.803 182.144 124.564C182.213 124.16 182.458 123.762 182.968 123.76C183.448 123.759 183.742 124.084 183.882 124.492C184.489 126.263 184.518 128.115 184.588 129.958C184.966 139.91 183.88 149.741 181.984 159.488C179.48 172.362 176.272 185.045 170.911 197.076C166.365 207.279 161.3 217.21 155.281 226.65C151.716 232.24 148.266 237.902 144.426 243.312C143.553 244.543 142.644 245.75 141.723 246.946C141.313 247.477 140.824 247.951 140.19 248.224C138.677 248.877 137.434 247.964 137.605 246.337C137.689 245.547 138.151 244.946 138.59 244.329C143.451 237.486 148.281 230.62 152.775 223.53C155.648 218.999 158.42 214.403 160.432 209.385C161.553 206.586 162.946 203.898 164.213 201.157C164.749 199.997 164.948 198.845 164.769 197.512C164.488 195.423 165.18 193.36 165.419 191.284C165.689 188.94 165.73 186.597 165.743 184.249C165.746 183.662 165.759 182.966 165.115 182.725C164.484 182.488 164.024 183.022 163.596 183.415C162.468 184.446 161.561 185.645 160.937 187.046C160.698 187.582 160.521 188.15 160.242 188.664C159.668 189.722 158.771 190.318 157.55 190.06C156.333 189.803 155.708 188.912 155.646 187.704C155.612 187.046 155.759 186.376 155.839 185.713C156.172 182.961 156.539 180.204 155.828 177.459C154.893 173.853 153.444 173.288 150.518 175.505C147.626 177.695 145.139 180.186 143.491 183.573C140.691 189.325 137.029 194.56 132.936 199.483C132.722 199.741 132.515 200.006 132.286 200.251C131.622 200.962 130.837 201.607 129.886 200.933C128.768 200.142 129.624 199.264 130.065 198.525C132.558 194.347 135.351 190.351 137.592 186.017C138.674 183.926 143.15 174.182 143.329 173.813C147.75 164.73 149.945 155.149 149.203 145.057C148.731 138.64 146.155 132.889 142.351 127.717C140.852 125.677 139.551 123.531 138.478 121.248C138.126 120.497 137.859 119.68 137.709 118.865C137.234 116.294 138.231 114.852 140.764 114.296C143.245 113.752 145.593 114.041 147.816 115.326C148.369 115.646 148.932 116.062 149.83 115.981Z" fill="black"/>
<path d="M72.3885 87.3972C73.138 87.4471 73.4583 87.1466 73.8071 86.9301C75.1413 86.1027 76.5456 85.4427 78.0375 86.4036C79.5406 87.3719 79.442 88.9679 79.2856 90.4931C79.1487 91.8265 78.9258 93.1507 78.7406 94.4793C78.6612 95.0486 78.3663 95.5998 78.6626 96.3942C79.4979 96.4421 80.0717 95.7373 80.7715 95.4173C82.6345 94.5661 84.5704 93.6072 86.4494 95.0972C88.2851 96.5527 87.6437 98.6281 87.2338 100.493C86.6689 103.062 85.3754 105.335 84.063 107.591C83.4912 108.574 82.6677 109.459 82.5102 110.676C83.4655 111.241 84.2366 110.701 85.0099 110.553C87.8809 110.005 90.5153 110.362 92.8153 112.331C95.1486 114.328 95.2324 117.037 92.9161 119.027C91.4463 120.291 89.7726 121.272 88.0298 122.115C83.5528 124.281 79.2851 126.764 75.5653 130.109C74.926 130.683 74.1943 131.252 73.3378 130.583C72.3703 129.827 72.8502 128.896 73.2857 128.085C74.2127 126.357 75.5554 124.97 77.0929 123.773C79.619 121.806 82.3356 120.147 85.2083 118.731C86.4111 118.138 87.5589 117.435 88.7272 116.773C89.0948 116.565 89.5129 116.298 89.4553 115.845C89.3814 115.264 88.8153 115.12 88.3374 114.975C87.5026 114.721 86.6711 114.884 85.8486 115.066C84.7012 115.32 83.5678 115.652 82.4104 115.842C79.5837 116.307 77.3839 113.866 78.1335 111.059C78.5671 109.436 79.3436 107.936 80.0877 106.427C80.9041 104.772 81.6488 103.081 82.3989 101.395C82.5633 101.025 82.6208 100.607 82.7596 100.092C81.8783 99.8464 81.4351 100.416 80.9734 100.812C78.5421 102.894 76.4325 105.288 74.3405 107.698C73.9559 108.141 73.6074 108.626 73.1724 109.013C72.3575 109.738 71.4278 110.05 70.4135 109.407C69.4246 108.781 69.2022 107.812 69.4824 106.762C69.6747 106.042 70.0203 105.355 70.3548 104.682C71.968 101.434 73.1836 98.0453 73.9921 94.5112C74.1198 93.9528 74.4041 93.3937 74.0699 92.7969C73.3438 92.5388 73.0327 93.1695 72.6331 93.5142C70.8432 95.0586 69.3096 96.8323 68.0257 98.8211C67.5255 99.5961 67.0479 100.414 66.2242 100.893C65.2795 101.442 64.2936 101.519 63.4146 100.764C62.6269 100.088 62.4457 99.1976 62.8575 98.2534C63.158 97.5649 63.5564 96.9177 63.9243 96.2599C65.8271 92.8584 67.1911 89.2704 67.692 85.3857C67.7536 84.9091 67.9479 84.3209 67.3886 84.0351C66.8394 83.7547 66.433 84.2273 66.0809 84.5501C62.6508 87.6936 59.7522 91.2753 57.4804 95.3321C56.3339 97.3797 55.2141 99.4683 54.3534 101.646C50.3993 111.649 47.0037 121.831 44.9402 132.415C44.8283 132.989 44.7314 133.576 44.7296 134.158C44.6906 145.17 45.7789 155.959 51.106 165.897C51.4504 166.539 53.9935 169.944 53.5181 170.734C52.8763 171.801 52.3219 172.984 51.3175 173.752C50.7388 174.194 48.6404 170.725 48.43 170.289C46.5714 166.43 44.8717 162.514 43.7039 158.373C41.6535 151.102 41.3754 143.717 41.4652 136.196C41.6426 121.367 46.4977 107.898 52.6643 94.7573C54.9668 89.8503 58.352 85.6607 62.2523 81.9019C63.4053 80.7909 64.6482 79.7828 66.1774 79.2198C69.5946 77.9618 72.2467 79.7399 72.4751 83.3728C72.5586 84.7011 72.0075 86.0192 72.3885 87.3972Z" fill="black"/>
<path d="M71.6281 143.867C71.5105 142.6 71.5892 141.348 71.9355 140.128C72.1043 139.535 72.493 139.077 73.193 139.112C73.7603 139.14 74.0953 139.544 74.2984 140.013C74.4625 140.392 74.5632 140.812 74.6148 141.224C74.998 144.267 76.2103 147.02 77.5556 149.73C78.4738 151.579 79.4781 154.355 77.5726 155.234C77.3444 155.339 77.1076 155.428 76.8858 155.546C75.9656 156.033 74.3159 153.099 73.9037 152.066C72.8452 149.413 71.91 146.731 71.6281 143.867Z" fill="black"/>
<path d="M76.5259 153.52C77.4109 153.078 83.8126 150.886 85.8002 150.643C87.998 150.375 91.7018 150.071 93.456 151.595C96.6295 154.354 102.111 164.959 103.951 194.561C104.022 195.703 104.641 198.187 102.539 200.744C100.98 202.643 98.3686 206.863 99.0029 212.888C96.6277 213.416 94.7587 213.449 93.5269 211.22C92.8415 209.979 92.0974 208.77 91.3309 207.577C91.1055 207.226 90.6499 206.975 90.2493 207.263C89.8621 207.542 89.951 208.001 90.1624 208.398C91.422 210.762 92.2918 213.27 93.0535 215.835C93.8934 218.663 93.034 220.93 91.0316 222.895C89.8833 224.021 89.697 223.99 88.6767 222.781C86.5742 220.289 84.5271 217.754 81.7819 215.89C80.4039 214.954 79.4779 214.764 78.9608 215.569C78.4618 216.347 78.7987 217.584 80.0002 218.324C84.6155 221.168 86.7923 225.782 88.9373 230.418C89.6536 231.966 89.101 234.142 87.6112 235.41C83.1501 239.204 77.6865 241.453 72.4352 238.619C41.3567 221.847 41.1672 197.717 40.8063 195.068C40.1339 190.132 42.1218 185.756 43.6324 181.284C50.0599 162.253 75.8432 153.861 76.5259 153.52Z" fill="#ABC264"/>
<path d="M140.333 175.792C139.771 177.226 137.372 176.462 136.169 176.133C133.466 175.394 132.272 172.981 133.175 170.2C134.136 167.239 134.879 164.232 135.5 161.19C135.927 159.099 135.869 157.01 135.211 154.972C134.746 153.527 134.265 153.398 133.075 154.4C131.432 155.784 130.355 157.572 129.568 159.552C129.166 160.565 128.841 161.626 128.304 162.564C127.186 164.515 125.232 164.666 123.762 162.967C123.271 162.398 122.906 161.723 122.45 161.121C121.743 160.186 121.057 159.227 120.272 158.359C119.035 156.99 117.807 155.583 115.697 155.577C114.961 155.574 114.447 155.052 114.299 154.33C114.149 153.604 114.501 153.007 115.079 152.592C116.168 151.811 117.373 151.618 118.668 151.991C119.906 152.348 120.984 152.997 121.903 153.875C122.93 154.856 123.891 155.907 124.775 156.818C125.99 156.547 126.126 155.702 126.49 155.103C127.502 153.442 128.637 151.895 130.164 150.665C134.244 147.377 138.076 148.525 139.644 153.539C140.484 156.224 139.273 167.212 138.515 169.88C138.269 170.744 137.844 171.605 138.351 172.482C138.987 172.627 141.045 173.976 140.333 175.792Z" fill="black"/>
<path d="M107.04 143.139C107.815 143.499 108.514 143.009 109.248 142.949C111.996 142.723 114.147 144.451 114.531 147.199C114.85 149.48 114.105 151.499 113.041 153.446C111.549 156.176 109.52 158.338 106.571 159.513C105.617 159.893 104.58 160.284 103.844 159.216C103.133 158.183 103.775 157.287 104.44 156.507C105.092 155.742 105.831 155.052 106.514 154.313C107.95 152.759 109.129 151.034 109.856 149.034C110.027 148.565 110.187 147.968 109.708 147.641C109.215 147.305 108.753 147.717 108.398 148.063C107.054 149.374 106.255 151.051 105.371 152.668C105.05 153.256 104.815 153.895 104.454 154.456C103.903 155.315 103.071 155.664 102.064 155.441C101.021 155.21 100.559 154.458 100.439 153.453C100.337 152.603 100.564 151.793 100.718 150.968C101.258 148.087 102.098 145.254 102.221 142.305C102.261 141.349 102.661 139.904 101.655 139.616C100.581 139.308 100.223 140.783 99.7935 141.623C98.2021 144.737 97.4999 148.085 97.4099 151.568C97.3928 152.238 97.4312 152.911 97.3879 153.58C97.3424 154.288 97.1003 154.932 96.2942 155.059C95.5217 155.181 95.0111 154.71 94.6993 154.076C94.0599 152.775 93.7726 151.353 93.7878 149.931C93.832 145.763 94.6577 141.769 96.833 138.14C97.4842 137.054 98.2683 136.07 99.3101 135.325C102.095 133.333 105.014 134.249 106.117 137.482C106.497 138.595 106.702 139.75 106.752 140.935C106.783 141.673 106.618 142.446 107.04 143.139Z" fill="black"/>
<path d="M97.2551 212.232C97.0349 207.836 98.8095 204.106 101.234 200.602C101.463 200.27 101.817 199.982 102.175 199.79C102.897 199.402 103.708 198.801 104.476 199.529C105.251 200.263 104.472 200.907 104.092 201.506C102.397 204.171 101.389 207.079 100.929 210.189C100.466 213.323 101.151 216.052 103.845 217.984C106.723 220.048 109.835 220.981 113.327 219.672C114.551 219.213 115.48 218.392 116.182 217.302C118.317 213.984 118.959 210.514 117.272 206.796C116.96 206.11 116.644 205.414 116.452 204.691C116.244 203.908 116.457 203.156 117.178 202.705C117.97 202.208 118.804 202.293 119.512 202.893C119.886 203.21 120.2 203.629 120.454 204.055C123.646 209.42 122.459 217.182 117.82 221.409C116.612 222.51 115.187 223.223 113.623 223.605C111.131 224.212 108.632 224.167 106.166 223.403C100.656 221.697 97.732 218.012 97.2551 212.232Z" fill="black"/>
<path d="M125.322 176.947C125.358 178.887 123.54 180.04 121.896 178.981C120.049 177.791 118.73 176.044 117.779 174.076C117.371 173.232 117.506 172.272 117.981 171.429C118.49 170.525 119.228 170.16 120.281 170.482C122.145 171.052 125.287 175.052 125.322 176.947Z" fill="black"/>
<path d="M109.061 206.433C109.64 206.479 109.863 206.765 109.942 207.076C110.49 209.253 110.723 211.507 111.793 213.553C112.112 214.161 111.714 214.859 111.116 215.296C110.511 215.738 109.878 215.727 109.229 215.383C106.927 214.159 106.341 208.516 108.352 206.814C108.592 206.611 108.917 206.508 109.061 206.433Z" fill="black"/>
<path d="M341.196 285.461C341.233 285.213 341.277 284.795 341.358 284.385C344.585 268.213 349.077 252.414 355.599 237.247C358.32 230.917 361.622 224.869 366.026 219.501C366.822 218.53 367.611 217.535 368.729 216.893C369.181 216.633 369.685 216.456 370.145 216.784C370.757 217.22 370.557 217.819 370.301 218.367C370.124 218.745 369.905 219.108 369.673 219.456C362.62 230.046 358.063 241.756 354.361 253.827C351.31 263.774 348.384 273.761 346.516 284.02C346.351 284.923 346.121 285.834 345.77 286.679C345.222 287.999 344.103 288.603 343.005 288.327C341.875 288.042 341.202 287.039 341.196 285.461Z" fill="black"/>
<path d="M440.085 286.66C440.067 288.35 439.39 289.337 438.136 289.618C436.807 289.916 435.557 289.226 435.028 287.702C434.618 286.522 434.371 285.277 434.147 284.043C433.083 278.19 432.046 272.333 431.014 266.474C430.766 265.065 430.727 263.641 430.873 262.215C430.936 261.599 431.162 261.062 431.804 260.853C432.554 260.608 433.133 260.945 433.524 261.547C433.84 262.034 434.11 262.571 434.294 263.121C436.774 270.527 438.224 278.193 439.996 285.778C440.072 286.101 440.065 286.444 440.085 286.66Z" fill="black"/>
<path d="M418.394 273.334C418.433 274.802 417.282 276.049 415.797 276.146C414.365 276.239 413.214 275.192 413.173 273.759C413.131 272.302 414.307 271.034 415.775 270.954C417.234 270.874 418.354 271.892 418.394 273.334Z" fill="black"/>
<path d="M418.999 284.155C418.99 285.598 418.076 286.617 416.741 286.668C415.271 286.726 414.194 285.632 414.261 284.15C414.323 282.795 415.344 281.782 416.678 281.755C418.046 281.726 419.007 282.72 418.999 284.155Z" fill="black"/>
<path d="M479.222 145.474C490.57 112.949 511.386 88.2952 530.499 76.9874C567.532 55.0777 597.434 54.0187 616.408 53.6039C629.322 53.3217 642.569 55.3881 655.178 58.1663C667.228 60.8215 678.37 64.2934 689.336 69.874C691.204 70.8245 692.75 72.2909 694.181 73.832C694.699 74.3888 695.101 75.0449 695.29 75.7867C695.482 76.5446 695.464 77.2965 694.809 77.8735C694.225 78.3886 693.584 78.3286 692.932 78.0212C691.795 77.486 690.568 77.0829 689.54 76.3864C684.843 73.203 679.619 71.0729 674.417 68.971C658.687 62.6148 622.972 53.8179 587.48 60.6911C567.433 64.5734 548.708 71.7001 531.469 82.4637C515.609 92.367 497.567 114.649 490.082 131.947C488.216 136.258 485.605 142.3 483.693 146.592C483.41 147.227 482.37 150.883 480.693 150.652C479.378 150.47 478.653 147.106 479.222 145.474Z" fill="black"/>
<path d="M474.86 147.857C472.815 146.918 475.154 140.137 475.503 138.345C476.818 131.593 478.744 124.962 479.717 118.147C481.032 108.925 482.576 88.5563 470.448 64.5338C464.298 52.3551 454.939 39.4579 442.784 33.2907C431.19 27.4088 414.713 23.43 393.29 24.9514C382.736 25.7007 368.869 29.2148 359.446 33.8651C332.691 47.0695 309.159 66.0019 295.896 76.029C288.458 81.652 282.257 85.8597 273.901 90.1694C265.006 94.7567 255.557 96.4368 245.611 95.6915C241.587 95.3896 225.036 94.3667 202.325 80.8773C200.662 79.8896 199.206 78.5995 197.85 77.2131C197.26 76.6099 196.707 75.976 196.533 75.1107C196.378 74.3352 196.388 73.5697 197.078 73.0491C197.773 72.524 198.354 73.0627 198.9 73.4114C200.527 74.4506 202.129 75.529 203.748 76.5822C209.965 80.6293 216.533 84.0495 223.516 86.5037C234.749 90.4511 246.407 92.6079 258.213 90.4087C276.193 87.0601 290.522 74.3008 297.112 69.2223C309.221 59.891 318.011 54.2098 330.585 45.5153C339.95 39.0409 348.166 34.0163 357.444 30.1657C385.275 18.6155 409.83 19.952 418.586 21.1896C443.483 24.7067 462.141 38.4963 472.335 56.9133C484.106 78.2077 486.534 99.2709 485.795 107.979C484.873 118.834 482.37 134.404 478.269 144.123C477.809 145.214 476.345 148.539 474.86 147.857Z" fill="black"/>
<path d="M462.239 138.622L453.817 159.394L489.97 167.573L490.988 159.653L485.648 147.717L462.239 138.622Z" fill="white"/>
<path d="M479.927 141.892C480.919 142.205 484.173 143.725 485.312 144.541C491.27 148.805 493.245 154.915 492.932 161.931C492.843 163.928 492.612 165.951 491.962 167.88C491.42 169.488 490.68 170.991 489.424 172.166C488.915 172.642 488.276 172.913 487.594 172.449C486.884 171.967 486.998 171.329 487.317 170.671C489.094 167.009 488.941 163.146 488.274 159.314C487.359 154.061 484.881 149.878 479.596 147.86C474.656 145.973 469.74 144.022 464.793 142.156C462.947 141.46 462.892 141.556 462.467 143.439C461.409 148.126 459.855 152.63 457.517 156.847C456.675 158.366 456.701 158.421 458.347 158.799C459.329 159.025 460.338 159.171 461.204 159.723C461.858 160.141 462.466 160.679 462.236 161.556C461.987 162.508 461.141 162.292 460.4 162.433C455.983 163.274 451.56 162.595 447.147 162.54C441.205 162.465 435.452 163.479 429.75 164.991C428.78 165.249 427.785 165.485 426.789 165.56C425.679 165.644 424.823 165.124 424.528 163.974C424.26 162.923 424.772 162.152 425.635 161.668C426.285 161.303 427.012 161.027 427.739 160.862C432.076 159.879 436.332 158.54 440.748 157.916C441.826 157.763 442.443 157.465 442.738 156.163C443.405 153.217 444.868 150.528 446.142 147.797C446.514 146.999 447.307 146.384 447.953 145.731C448.383 145.298 448.93 145.049 449.548 145.371C450.147 145.682 450.315 146.244 450.264 146.862C450.119 148.619 449.949 150.371 449.28 152.033C448.749 153.357 448.271 154.702 447.741 156.026C447.379 156.928 447.538 157.43 448.606 157.58C450.13 157.793 451.424 157.634 452.278 156.134C452.775 155.263 453.481 154.509 453.961 153.63C455.816 150.234 457.248 146.644 458.544 143.009C459.361 140.715 459.149 140.536 456.786 139.999C449.88 138.428 442.818 138.117 435.807 137.395C434.553 137.266 433.288 137.189 432.095 136.75C431.004 136.349 430.117 135.656 430.208 134.378C430.298 133.101 431.27 132.496 432.413 132.304C433.483 132.125 434.59 132.013 435.67 132.069C443.89 132.496 452.089 133.084 460.155 134.919C464.852 135.986 478.299 141.378 479.927 141.892Z" fill="black"/>
<path d="M474.307 168.886C474.429 167.903 473.971 167.036 472.968 166.329C472.236 165.814 471.994 164.975 472.352 164.076C472.752 163.074 473.582 162.689 474.571 162.791C475.82 162.919 477.067 163.133 478.29 163.417C479.49 163.696 480.016 164.717 480.369 165.762C480.693 166.722 479.954 167.04 479.221 167.376C477.373 168.227 477.349 168.376 478.177 171.15C478.568 172.46 479.076 172.653 480.928 172.36C481.971 172.194 482.77 171.639 483.604 171.055C484.919 170.135 485.998 170.166 486.786 170.996C487.628 171.883 487.522 173.183 486.493 174.4C486.277 174.655 486.051 174.931 485.769 175.095C484.544 175.805 483.82 176.631 484.766 178.085C484.921 178.324 484.923 178.792 484.798 179.062C484.247 180.248 484.639 180.795 485.752 181.487C487.184 182.377 486.953 184.367 485.301 185.155C483.962 185.794 483.521 186.513 483.469 187.979C483.406 189.714 481.782 190.266 480.355 189.171C479.767 188.719 479.34 188.062 478.8 187.539C477.68 186.455 476.214 186.766 475.623 188.198C475.528 188.429 475.502 188.687 475.421 188.925C475.069 189.97 474.444 190.739 473.239 190.622C472.124 190.512 471.635 189.658 471.643 188.676C471.655 187.273 470.961 186.893 469.701 186.636C466.915 186.068 465.955 184.758 466.343 181.998C466.668 179.688 467.026 177.307 468.947 175.626C469.837 174.847 469.591 174.254 468.815 173.586C468.311 173.153 467.869 172.632 467.468 172.1C466.884 171.324 466.684 170.431 466.943 169.479C467.311 168.133 468.521 167.775 469.35 168.9C470.286 170.172 471.468 171.045 472.82 171.726C474.262 172.453 474.59 172.207 474.496 170.6C474.467 170.098 474.388 169.599 474.307 168.886ZM481.078 180.972C478.912 179.832 476.464 179.351 473.973 179.021C473.297 178.931 472.619 178.972 472.01 179.288C471.024 179.799 470.467 180.726 470.575 181.751C470.7 182.954 471.842 182.499 472.605 182.599C472.852 182.631 473.107 182.607 473.358 182.606C476.015 182.593 478.681 182.632 481.078 180.972Z" fill="black"/>
<path d="M474.59 182.718L467.086 184.602L465.611 191.554L461.47 193.862L485.561 197.217L485.363 184.73L474.59 182.718Z" fill="white"/>
<path d="M483.029 189.369C483.384 188.931 483.31 188.412 483.318 187.919C483.362 185.393 482.808 184.754 480.324 184.62C477.296 184.458 474.286 184.793 471.279 185.081C470.702 185.136 470.129 185.328 469.578 185.521C468.879 185.767 468.398 186.294 468.553 187.045C468.724 187.875 469.443 187.556 469.996 187.525C470.58 187.493 471.169 187.416 471.748 187.457C472.683 187.524 473.329 188.036 473.518 188.971C473.704 189.895 473.322 190.643 472.53 191.104C472.032 191.394 471.461 191.589 470.899 191.732C464.223 193.43 458.011 196.044 452.827 200.739C452.273 201.24 451.601 201.622 450.951 202.003C450.326 202.37 449.653 202.448 449.122 201.837C448.596 201.231 448.786 200.573 449.17 199.98C449.443 199.559 449.78 199.179 450.104 198.795C453.072 195.273 456.59 192.481 460.873 190.709C461.881 190.292 462.881 189.85 463.908 189.485C464.842 189.153 465.141 188.612 465.088 187.588C464.883 183.64 465.879 182.286 469.691 181.364C473.645 180.408 477.696 180.366 481.71 180.688C485.493 180.991 487.448 183.188 487.561 186.979C487.62 188.939 488.131 191.024 486.664 192.79C486.195 193.355 486.671 193.901 486.884 194.426C487.58 196.135 488.336 197.822 488.976 199.551C489.86 201.942 490.191 204.418 489.972 206.975C489.545 211.984 487.009 215.6 482.746 218.109C481.399 218.902 479.942 219.262 478.396 219.051C477.111 218.876 476.811 219.473 476.809 220.616C476.778 235.587 480.135 250.747 485.56 265.937C488.341 273.722 494.932 283.759 499.673 290.508C499.721 290.577 499.774 290.642 499.821 290.711C501.032 292.476 501.027 294.063 499.808 294.97C498.676 295.813 497.205 295.473 495.834 293.995C495.265 293.381 494.737 292.72 494.256 292.035C484.022 277.466 475.403 256.577 472.788 238.868C471.877 232.701 471.833 226.492 472.109 220.277C472.12 220.026 472.157 219.775 472.167 219.524C472.24 217.635 472.149 217.557 470.424 218.101C469.063 218.529 467.72 219.021 466.346 219.398C465.217 219.706 464.059 219.938 462.901 220.106C462.074 220.227 461.096 220.309 460.868 219.19C460.655 218.146 461.497 217.733 462.282 217.39C462.896 217.122 463.537 216.915 464.167 216.679C467.469 215.44 470.725 214.097 473.893 212.537C475.256 211.865 476.624 211.274 477.424 209.85C477.833 209.121 478.565 208.868 479.383 209.121C480.234 209.384 480.485 210.078 480.52 210.889C480.57 212.057 480.179 213.006 479.238 213.749C478.835 214.066 478.061 214.36 478.705 215.103C479.204 215.68 479.783 215.437 480.294 215.114C481.865 214.119 483.35 212.987 484.33 211.387C485.171 210.015 485.613 208.446 485.622 206.831C485.648 202.376 483.834 198.527 481.46 194.905C480.905 194.059 479.945 193.602 479.059 193.109C478.475 192.785 477.896 192.432 477.382 192.01C476.667 191.423 476.451 190.621 476.732 189.739C477.029 188.804 477.807 188.502 478.688 188.421C479.542 188.343 480.346 188.597 481.15 188.855C481.769 189.053 482.296 189.606 483.029 189.369Z" fill="black"/>
<path d="M433.969 222.438C433.606 221.343 432.643 220.268 434.172 218.563C435.912 216.621 438.597 213.386 440.116 211.322C441.338 209.661 442.603 209.954 443.793 210.328C445.582 210.89 445.886 212.101 446.302 213.421C448.156 219.306 451.947 223.842 456.342 227.963C456.862 228.45 457.926 228.969 457.924 229.958C457.921 230.884 457.824 231.371 457.332 232.21C457.289 232.283 457.251 232.362 457.194 232.42C455.827 233.827 455.117 235.664 454.031 237.255C452.378 239.677 450.765 242.025 448.621 244.17C441.602 251.192 433.917 257.181 424.973 261.498C413.681 266.947 401.855 269.495 389.29 267.778C384.841 267.171 380.626 265.806 376.603 263.83C375.849 263.459 375.084 263.097 374.506 262.463C373.75 261.635 373.554 260.677 374.072 259.677C374.603 258.651 375.538 258.33 376.631 258.565C377.199 258.686 377.761 258.899 378.287 259.151C388.121 263.875 398.354 264.216 408.793 261.821C422.32 258.718 433.883 252.026 443.797 242.394C444.218 241.985 444.62 241.555 445.032 241.137C445.532 240.628 445.543 240.128 445.039 239.606C442.632 237.116 440.745 234.235 438.888 231.338C437.081 228.52 435.377 225.638 433.969 222.438ZM442.206 212.933C442.046 212.993 441.823 213.003 441.752 213.113C440.347 215.295 438.995 217.515 437.067 219.304C436.386 219.937 436.843 220.506 437.198 221.079C439.403 224.648 441.718 228.143 444.483 231.307C445.694 232.693 447.061 233.941 448.337 235.271C449.088 236.054 449.709 236.011 450.4 235.163C453.453 231.412 453.476 232.375 450.439 228.983C450.327 228.858 450.211 228.738 450.094 228.618C446.318 224.724 443.871 220.135 442.822 214.803C442.697 214.165 442.692 213.462 442.206 212.933Z" fill="black"/>
<path d="M406.392 239.289C401.106 239.073 395.737 238.198 390.48 236.669C388.483 236.088 387.641 235.053 387.955 233.804C388.299 232.435 389.606 231.853 391.706 232.314C394.984 233.032 398.269 233.696 401.576 234.27C407.949 235.378 414.098 234.62 420.127 232.396C420.915 232.106 421.968 231.123 422.593 232.061C423.295 233.114 422.067 233.847 421.341 234.458C417.079 238.045 411.995 239.178 406.392 239.289Z" fill="black"/>
<path d="M391.15 156.511C387.478 159.65 383.541 162.518 380.122 165.909C375.271 170.721 370.33 175.484 366.324 181.093C364.9 183.087 364.297 185.342 361.865 186.35C360.628 186.864 359.324 187.488 357.989 187.386C353.583 187.048 348.344 188.111 346.386 192.844C344.897 196.442 346.475 201.471 348.98 202.489C350.165 202.97 350.783 204.927 350.329 205.308C349.237 206.226 349.458 209.039 349.378 210.353C349.252 212.43 348.312 214.206 347.212 215.869C346.056 217.617 343.898 218.054 342.416 216.501C330.621 204.129 331.5 190.44 331.341 188.326C330.966 183.34 331.79 178.521 333.051 173.734C333.346 172.613 333.288 171.396 333.574 170.286C342.189 136.856 370.195 135.311 376.172 134.502C383.13 133.561 389.844 134.793 396.318 137.425C401.041 139.599 404.593 142.522 403.94 145.298C403.163 148.597 391.699 156.041 391.15 156.511Z" fill="#8236FE"/>
<path d="M412.67 124.785L404.098 129.068L396.676 140.485L394.458 156.516L404.782 149.603L413.385 132.694L412.67 124.785Z" fill="white"/>
<path d="M430.494 225.491C422.285 232.224 413.328 233.87 403.397 231.807C393.907 229.835 386.02 224.856 379.31 217.951C378.43 217.046 377.66 216.033 377.223 214.833C376.884 213.903 376.312 213.58 375.32 213.61C370.295 213.757 366.536 211.162 363.249 207.761C361.503 205.954 361.752 202.745 363.653 200.357C364.592 201.2 365.336 202.169 365.997 203.238C367.827 206.198 370.686 207.71 373.904 208.644C374.973 208.954 376.063 208.689 377.146 208.505C379.851 208.047 380.678 208.615 381.344 211.433C381.585 212.452 382.002 213.337 382.727 214.065C390.326 221.686 399.145 226.756 410.18 227.265C416.223 227.544 421.628 225.99 426.315 222.073C428.503 220.244 430.812 218.56 432.743 216.434C434.808 214.159 436.236 211.518 437.326 208.677C437.658 207.814 437.873 206.918 437.862 205.977C437.789 199.611 436.81 193.438 433.874 187.703C433.372 186.723 433.043 185.75 433.317 184.5C430.713 184.766 428.35 185.366 425.923 185.449C424.483 185.498 423.068 185.489 421.694 185.019C420.669 184.668 419.375 184.422 419.374 183.074C419.372 181.783 420.612 181.426 421.608 180.976C422.937 180.376 424.356 180.222 425.78 180.113C429.307 179.843 432.774 179.234 436.186 178.311C440.043 177.267 442.762 174.729 445.006 171.579C445.512 170.868 445.69 170.056 445.559 169.186C445.417 168.23 444.958 167.671 443.891 167.727C442.793 167.784 441.729 167.975 440.669 168.256C432.853 170.325 424.901 170.361 416.915 169.79C415.232 169.669 413.584 169.309 412.054 168.577C411.38 168.255 410.729 167.842 410.16 167.36C409.556 166.848 409.215 166.141 409.611 165.338C410.038 164.473 410.817 164.515 411.571 164.768C413.674 165.476 415.854 165.558 418.037 165.627C418.448 165.641 418.862 165.585 419.252 165.562C419.658 164.787 419.012 164.458 418.688 164.04C417.507 162.513 416.292 161.012 415.097 159.496C414.786 159.101 414.477 158.699 414.21 158.274C413.309 156.834 413.315 155.762 414.201 155.128C415.113 154.475 416.216 154.772 417.195 156.067C418.106 157.27 418.922 158.546 419.768 159.797C420.756 161.257 421.786 162.692 422.695 164.199C423.291 165.188 424.028 165.547 425.173 165.475C430.116 165.163 435.079 165.056 439.876 163.596C441.331 163.153 442.842 163.002 444.357 162.993C447.221 162.975 449.085 164.396 449.892 167.17C450.691 169.914 450.329 172.421 448.637 174.809C445.564 179.144 441.697 182.293 436.435 183.542C435.951 183.656 435.491 183.875 435.025 184.059C434.978 184.078 434.967 184.192 434.899 184.365C437.577 186.617 439.169 189.633 440.184 192.939C441.916 198.58 443.464 204.305 441.771 210.233C440.307 215.359 438.074 219.275 430.494 225.491Z" fill="black"/>
<path d="M412.62 139.81C413.487 140.204 414.257 139.631 415.074 139.592C418.502 139.427 420.393 142.04 419.112 145.233C418.987 145.543 418.849 145.855 418.667 146.134C415.943 150.313 412.777 154.082 408.579 156.878C407.885 157.34 407.173 157.803 406.278 157.793C405.013 157.778 404.448 156.983 404.887 155.786C405.182 154.979 405.79 154.387 406.35 153.762C408.589 151.263 410.825 148.762 413.035 146.239C413.563 145.635 414.198 145.068 414.397 144.219C413.639 143.844 413.17 144.304 412.696 144.582C410.504 145.868 408.586 147.474 407.051 149.518C406.549 150.185 406.106 150.912 405.373 151.371C404.604 151.854 403.793 151.987 403.007 151.469C402.137 150.897 401.896 150.039 402.123 149.047C402.317 148.203 402.89 147.568 403.353 146.872C406.758 141.75 409.511 136.311 411.324 130.418C411.545 129.699 411.715 128.961 411.865 128.223C411.909 128.005 411.801 127.755 411.747 127.42C410.606 127.386 409.861 128.102 409.089 128.665C404.633 131.912 401.597 136.3 399.233 141.188C397.157 145.48 396.287 150.078 395.993 154.804C395.947 155.557 395.911 156.313 395.81 157.059C395.719 157.725 395.592 158.46 394.745 158.555C393.938 158.646 393.491 158.068 393.311 157.398C392.619 154.822 392.448 152.051 392.826 149.294C393.262 146.123 393.859 143.569 394.927 140.562C395.29 139.538 397.842 135.077 398.689 133.834C401.318 129.979 404.369 126.573 408.509 124.27C409.695 123.61 410.903 123.066 412.285 122.995C414.391 122.888 415.597 123.786 416.08 125.847C416.375 127.109 416.185 128.348 415.912 129.583C415.312 132.296 414.312 134.874 413.281 137.446C412.981 138.194 412.39 138.887 412.62 139.81Z" fill="black"/>
<path d="M343.801 197.706C343.389 191.499 347.996 185.858 353.675 185.078C354.511 184.964 355.35 184.945 356.166 185.224C357.383 185.64 357.914 186.473 357.844 187.697C357.77 188.97 356.829 188.728 356.026 188.86C352.07 189.512 349.163 192.888 349.221 196.711C349.259 199.222 350.564 200.599 353.077 200.737C355.039 200.845 356.693 200.146 358.033 198.718C358.549 198.168 358.999 197.551 359.543 197.032C360.183 196.422 360.958 196.086 361.84 196.496C362.836 196.959 362.996 197.851 362.916 198.828C362.846 199.687 362.531 200.462 362.03 201.152C359.731 204.319 356.638 205.816 352.711 205.555C351.374 205.466 350.112 204.938 348.742 204.974C347.856 204.997 347.213 204.337 346.617 203.743C344.809 201.939 343.998 199.692 343.801 197.706Z" fill="black"/>
<path d="M398.175 197.349C400.654 194.451 403.239 191.954 406.298 189.987C408.143 188.801 410.038 187.742 412.193 187.227C413.265 186.971 414.345 186.84 415.43 187.13C415.915 187.26 416.421 187.427 416.533 188.015C416.651 188.631 416.22 188.914 415.753 189.143C415.377 189.328 414.988 189.485 414.608 189.66C409.397 192.071 405.161 195.682 401.612 200.154C400.918 201.029 400.53 202.031 400.12 203.043C399.617 204.285 399.056 205.506 398.491 206.723C398.079 207.611 397.462 208.307 396.38 208.202C395.158 208.083 394.69 207.148 394.542 206.112C394.364 204.872 394.341 203.609 394.273 202.355C394.222 201.435 394.276 200.504 394.156 199.594C393.997 198.383 393.548 198.132 392.461 198.702C391.502 199.205 390.626 199.87 389.733 200.492C389.114 200.923 388.531 201.406 387.926 201.858C387.647 202.066 387.324 202.191 387.007 201.98C386.575 201.694 386.612 201.248 386.803 200.865C387.063 200.345 387.342 199.809 387.726 199.382C388.566 198.447 389.425 197.518 390.368 196.691C393.464 193.977 395.273 194.092 398.175 197.349Z" fill="black"/>
<path d="M401.707 175.473C401.928 180.35 397.312 187.002 392.772 188.456C389.235 189.589 385.995 188.366 384.158 185.239C383.65 184.375 383.375 183.513 384.143 182.715C384.96 181.865 385.998 181.863 386.867 182.554C388.018 183.469 389.165 184.258 390.715 183.992C392.462 183.691 393.717 182.579 394.856 181.331C396.573 179.451 397.975 177.397 398.248 174.768C398.355 173.74 398.483 172.683 399.776 172.512C400.672 172.394 401.398 173.358 401.638 174.829C401.678 175.076 401.691 175.327 401.707 175.473Z" fill="black"/>
<path d="M418.724 208.889C415.948 209.003 413.488 208.634 411.293 207.205C409.99 206.357 408.989 205.253 408.763 203.632C408.653 202.844 408.771 202.073 409.523 201.653C410.335 201.2 410.942 201.645 411.464 202.28C413.362 204.59 415.958 204.757 418.577 204.314C421.25 203.862 423.684 202.712 425.718 200.845C425.78 200.788 425.837 200.726 425.901 200.672C427.406 199.4 428.534 199.253 429.404 200.214C430.236 201.133 430.107 202.461 428.861 203.816C426.081 206.838 422.612 208.526 418.724 208.889Z" fill="black"/>
<path d="M388.229 165.391C390.234 165.301 391.331 165.918 391.725 167.081C392.177 168.414 391.722 169.67 390.109 170.306C385.877 171.976 383.516 175.347 381.692 179.209C381.246 180.151 380.737 180.558 379.792 180.348C378.845 180.137 378.373 179.418 378.407 178.495C378.464 176.967 378.953 175.528 379.614 174.162C380.984 171.323 383.043 169 385.284 166.836C386.213 165.938 387.379 165.464 388.229 165.391Z" fill="black"/>
<path d="M934.674 285.08C934.644 286.249 934.17 287.175 933.039 287.657C931.889 288.146 930.873 287.803 930.074 286.937C929.628 286.455 929.286 285.849 929 285.251C922.094 270.807 915.163 256.375 908.739 241.708C908.202 240.481 907.745 239.217 907.32 237.946C906.939 236.808 907.118 235.767 908.228 235.094C909.122 234.553 910.203 234.849 911.095 235.928C912.171 237.229 912.905 238.75 913.638 240.257C917.71 248.623 921.785 256.986 925.812 265.374C928.497 270.966 931.108 276.592 933.741 282.208C934.167 283.116 934.628 284.021 934.674 285.08Z" fill="black"/>
<path d="M847.93 286.738C848.34 283.003 849.121 279.149 849.833 275.285C850.166 273.476 850.52 271.671 850.896 269.871C851.049 269.136 851.241 268.397 851.913 267.917C853.092 267.072 854.718 267.577 855.179 268.969C855.475 269.862 855.377 270.787 855.256 271.706C854.678 276.101 854.045 280.49 853.563 284.896C853.388 286.505 852.514 287.672 851.712 288.934C851.163 289.798 850.423 290.279 849.396 290.021C848.342 289.756 848.014 288.897 847.934 287.918C847.907 287.586 847.93 287.25 847.93 286.738Z" fill="black"/>
<path d="M906.453 213.62C907.362 213.635 908.034 213.614 908.701 213.664C910.901 213.829 911.834 214.986 911.477 217.176C911.343 217.997 911.055 218.793 910.829 219.597C910.054 222.347 909.545 225.123 909.699 228.007C909.8 229.896 909.035 230.997 907.647 231.245C906.362 231.475 905.296 230.756 904.573 229.202C903.984 227.936 903.856 226.643 904.233 225.293C904.773 223.362 904.861 221.327 905.567 219.432C905.981 218.321 905.5 217.845 904.406 217.881C902.735 217.936 901.065 218.032 899.395 218.096C898.561 218.129 897.724 218.173 896.893 218.131C896.165 218.094 895.606 217.72 895.468 216.952C895.331 216.187 895.746 215.628 896.379 215.324C897.126 214.965 897.918 214.657 898.724 214.468C901.34 213.852 904.01 213.665 906.453 213.62Z" fill="black"/>
<path d="M911.841 185.415C911.697 184.948 910.762 183.248 910.513 182.818C906.816 176.422 904.084 169.622 902.609 162.399C902.255 160.664 902.131 158.848 901.632 157.11C901.176 155.521 900.545 153.998 899.974 152.457C898.836 149.385 897.997 146.241 897.738 142.847C897.486 139.529 896.877 136.081 895.5 132.924C895.248 132.349 895.199 131.813 895.197 131.235C895.191 129.726 895.16 128.216 895.202 126.708C895.291 123.571 896.349 122.485 899.532 122.562C948.76 123.761 959.328 150.292 963.148 156.078C967.614 162.84 972.739 184.668 971.917 187.986C971.066 191.426 968.554 192.745 965.762 193.478C961.756 194.529 957.666 194.267 953.633 193.051C951.271 192.339 942.822 193.717 937.734 187.474C937.36 187.123 937.612 186.592 937.257 186.141C935.374 183.747 936.426 173.328 934.62 175.013C933.521 177.904 933.042 180.739 932.61 183.557C932.371 185.117 932.008 186.659 931.892 188.256C931.766 190 930.661 190.818 928.894 191.012C928.398 191.067 925.775 191.622 925.523 191.195C922.212 185.583 918.647 184.011 911.841 185.415Z" fill="#E6A7E6"/>
<path d="M894.514 160.723C893.248 160.622 892.393 161.213 891.473 161.509C889.866 162.027 888.255 162.488 886.542 162.329C883.962 162.091 882.433 160.445 882.393 157.848C882.359 155.663 883.322 153.784 884.318 151.935C884.909 150.839 885.598 149.796 886.247 148.723C885.548 148.04 884.927 148.453 884.335 148.616C881.416 149.419 878.468 150.061 875.436 150.246C873.409 150.369 871.396 150.252 869.463 149.611C866.462 148.615 865.453 146.451 866.538 143.489C867.035 142.134 867.802 140.934 868.723 139.833C872.123 135.768 876.42 132.882 881.101 130.517C881.922 130.103 882.808 129.774 883.759 129.893C884.377 129.97 884.911 130.292 885.018 130.949C885.115 131.546 884.626 131.802 884.161 132.035C879.747 134.248 876.177 137.534 872.784 141.032C872.147 141.689 871.6 142.454 871.117 143.234C869.844 145.292 870.11 145.842 872.439 146.11C874.287 146.322 876.121 146.207 877.956 145.912C882.201 145.232 886.238 143.775 890.356 142.622C891.082 142.419 891.809 142.153 892.551 142.09C894.35 141.939 895.377 143.323 894.793 145.03C894.543 145.762 894.014 146.315 893.518 146.883C891.745 148.912 890.194 151.101 888.848 153.43C888.346 154.298 887.896 155.21 887.546 156.147C887.147 157.213 887.471 157.629 888.534 157.445C889.354 157.302 890.16 157.024 890.943 156.732C892.672 156.085 894.374 155.368 896.104 154.724C897.472 154.215 898.887 153.814 900.092 155.059C901.194 156.198 900.88 157.528 900.442 158.839C899.911 160.43 899.302 161.998 898.85 163.611C897.641 167.924 899.151 170.561 903.458 171.778C903.696 171.845 903.966 171.808 904.205 171.877C905.181 172.157 905.325 172.695 904.617 173.471C903.394 174.81 901.81 174.903 900.194 174.589C896.591 173.888 893.681 170.391 893.542 166.704C893.504 165.689 893.65 164.702 893.892 163.717C894.125 162.767 894.293 161.8 894.514 160.723Z" fill="black"/>
<path d="M840.207 180.081C830.858 179.633 822.785 175.514 815.205 170.16C814.104 169.382 813.112 168.474 812.386 167.314C811.221 165.452 810.801 163.501 811.353 161.305C811.887 159.178 813.166 157.965 815.261 157.54C817.175 157.153 819.116 157.206 821.033 157.42C825.616 157.931 830.196 158.482 834.763 159.116C840.976 159.978 846.984 159.172 852.863 157.122C854.29 156.625 855.697 156.071 857.123 155.573C857.755 155.352 858.404 155.149 859.062 155.037C859.803 154.911 860.653 154.776 861.028 155.671C861.404 156.566 860.77 157.054 860.093 157.475C852.668 162.086 844.682 164.394 835.873 163.517C830.693 163.001 825.554 162.199 820.4 161.496C819.227 161.336 818.056 161.238 816.886 161.402C815.303 161.623 814.75 162.606 815.326 164.085C815.574 164.722 815.981 165.261 816.498 165.701C817.008 166.135 817.529 166.569 818.091 166.929C827.847 173.182 838.224 176.909 850.047 174.756C850.951 174.592 851.88 174.482 852.797 174.486C854.236 174.491 854.529 174.973 854.131 176.393C853.729 177.831 852.774 178.677 851.345 179C847.734 179.817 844.11 180.53 840.207 180.081Z" fill="black"/>
<path d="M867.364 113.434C874.449 113.56 881.156 115.257 887.561 118.207C888.624 118.696 889.735 119.142 890.439 120.159C890.851 120.753 890.949 121.425 890.576 122.058C890.174 122.74 889.585 122.408 889.018 122.258C886.424 121.568 883.811 120.948 881.227 120.224C874.68 118.389 868.044 117.824 861.297 118.729C859.882 118.919 858.483 119.233 857.186 119.853C856.49 120.185 856.362 120.722 857.078 121.16C857.788 121.595 858.549 121.969 859.326 122.271C862.807 123.623 866.425 124.247 870.161 124.227C871.248 124.221 872.349 124.144 873.415 124.445C874.585 124.776 875.338 125.521 875.338 126.776C875.338 128.047 874.544 128.744 873.375 129.061C873.133 129.127 872.884 129.19 872.635 129.205C866.415 129.597 860.401 128.869 854.818 125.871C853.779 125.312 852.815 124.636 852.029 123.743C850.078 121.525 850.24 118.788 852.452 116.837C853.87 115.585 855.587 114.925 857.386 114.438C860.661 113.55 864.023 113.538 867.364 113.434Z" fill="black"/>
<path d="M909.437 209.969C906.887 210.061 903.821 209.083 901.033 207.185C900.618 206.902 900.17 206.649 899.814 206.303C898.952 205.464 898.639 204.446 899.213 203.334C899.798 202.203 900.825 201.944 902.003 202.19C903.09 202.417 903.998 203.047 904.959 203.558C910.051 206.268 917.408 204.987 921.135 200.687C923.575 197.871 924.495 194.736 922.838 191.157C921.529 188.331 919.04 186.925 915.91 187.271C913.943 187.489 912.177 188.244 910.579 189.368C909.208 190.331 907.882 191.36 906.568 192.401C905.943 192.896 905.313 193.393 904.564 192.803C903.869 192.255 904 191.46 904.28 190.72C904.397 190.41 904.544 190.096 904.744 189.835C908.118 185.436 912.247 182.408 918.108 182.64C922.313 182.806 925.248 185.005 926.937 188.709C930.234 195.938 927.404 203.792 920.235 207.818C917.13 209.561 913.761 210.025 909.437 209.969Z" fill="black"/>
<path d="M842.732 194.285C842.768 192.107 842.793 189.929 842.846 187.751C842.885 186.137 843.289 184.6 843.987 183.15C844.398 182.298 844.945 181.414 846.05 181.698C847.09 181.965 847.019 182.982 846.926 183.801C846.539 187.225 846.617 190.663 846.511 194.096C846.193 204.398 848.483 214.034 853.808 222.906C853.937 223.121 854.08 223.33 854.195 223.552C854.644 224.42 854.891 225.307 854.078 226.092C853.418 226.729 852.359 226.54 851.436 225.53C849.728 223.661 848.359 221.542 847.355 219.223C843.909 211.268 842.015 203.009 842.732 194.285Z" fill="black"/>
<path d="M867.577 169.408C867.752 166.079 868.846 163.212 870.521 160.542C870.697 160.261 870.928 160.007 871.163 159.772C871.602 159.332 872.124 159.041 872.741 159.349C873.388 159.673 873.379 160.242 873.202 160.864C872.881 161.992 872.594 163.13 872.287 164.262C871.845 165.891 871.569 167.534 871.748 169.232C871.857 170.257 872.166 171.19 872.846 171.988C874.009 173.353 875.219 173.657 876.881 172.955C877.98 172.492 878.888 171.758 879.741 170.937C880.526 170.182 881.324 169.431 882.181 168.763C882.982 168.139 883.931 168.041 884.732 168.722C885.565 169.43 885.521 170.404 884.947 171.23C883.518 173.287 882.163 175.389 879.885 176.718C874.584 179.811 868.681 177.076 867.741 171.01C867.651 170.432 867.62 169.845 867.577 169.408Z" fill="black"/>
<path d="M861.559 203.49C860.722 203.518 859.878 203.628 859.071 203.291C858.219 202.935 857.722 202.32 857.714 201.368C857.706 200.355 858.28 199.847 859.218 199.661C859.876 199.531 860.535 199.401 861.192 199.264C865.171 198.435 868.609 196.646 871.326 193.571C871.602 193.258 871.857 192.904 872.192 192.671C872.863 192.203 873.611 192.171 874.338 192.559C875.012 192.919 875.183 193.585 875.205 194.27C875.24 195.34 874.667 196.183 874.069 197.006C871.187 200.972 866.646 203.326 861.559 203.49Z" fill="black"/>
<path d="M914.566 193.062C916.085 193.116 917.674 194.146 918.129 195.413C918.43 196.249 918.409 197.075 917.708 197.72C916.984 198.386 916.062 198.386 915.433 197.766C914.199 196.549 913.029 196.441 911.685 197.49C911.215 197.858 910.688 198.168 910.128 197.626C909.571 197.085 909.614 196.431 909.851 195.771C910.399 194.243 912.588 192.992 914.566 193.062Z" fill="black"/>
<path d="M824.715 248.921C823.789 243.775 825.392 241.438 830.411 240.337C831.569 240.083 832.733 240.022 833.914 240.029C834.545 240.033 835.249 240.342 835.807 239.761C835.836 238.946 835.131 238.644 834.721 238.156C833.688 236.926 832.772 235.636 832.257 234.092C831.114 230.67 832.249 228.355 835.654 227.204C836.2 227.02 836.757 226.869 837.43 226.666C836.929 225.63 836.009 225.346 835.274 224.886C828.043 220.361 821.399 215.128 815.838 208.625C811.103 203.088 807.439 196.927 805.139 189.966C803.982 186.463 802.581 183.039 801.234 179.603C800.907 178.77 800.676 177.84 799.77 177.136C798.803 177.74 798.737 178.776 798.711 179.708C798.674 181.043 798.84 182.384 798.909 183.723C799.004 185.59 798.676 186.072 797.298 186.75C795.956 187.41 795.276 186.518 794.503 185.759C792.091 183.393 790.026 180.768 788.408 177.789C787.287 175.723 786.092 173.696 784.625 171.848C784.262 171.389 783.886 170.921 783.437 170.552C782.728 169.97 782.191 170.227 782.091 171.15C781.999 172.006 782.194 172.832 782.484 173.618C783.181 175.506 783.93 177.375 784.654 179.253C784.895 179.878 785.194 180.492 785.335 181.14C785.509 181.94 785.208 182.66 784.506 183.095C783.78 183.546 782.971 183.399 782.405 182.853C781.749 182.222 781.269 181.411 780.697 180.691C779.364 179.01 778.277 177.059 776.083 176.305C775.519 176.917 775.781 177.487 775.98 178.025C776.734 180.072 777.516 182.109 778.279 184.152C778.483 184.7 778.716 185.248 778.822 185.817C778.934 186.416 778.761 186.985 778.232 187.378C777.62 187.833 776.973 187.803 776.344 187.443C775.374 186.89 774.745 185.971 773.997 185.182C772.74 183.856 771.537 182.463 769.426 181.658C769.028 184.477 770.952 186.834 770.262 189.524C768.854 189.169 767.752 188.414 767.013 187.312C765.668 185.305 765.036 183.035 765.35 180.613C765.733 177.65 767.365 176.613 770.268 177.347C770.581 177.426 770.897 177.497 771.137 177.554C771.695 177.197 771.467 176.751 771.498 176.36C771.722 173.475 773.335 171.873 776.246 172.043C777.612 172.123 778.115 171.807 778.066 170.499C778.057 170.253 778.135 170.001 778.193 169.757C779.147 165.722 782.645 164.555 785.831 167.27C787.641 168.812 788.888 170.834 790.065 172.87C791.157 174.758 792.13 176.715 793.204 178.614C793.557 179.238 793.765 180.028 794.693 180.345C794.952 179.183 795.189 178.06 795.456 176.945C795.732 175.79 796.2 174.71 796.935 173.775C798.608 171.647 801.048 171.66 802.648 173.824C803.092 174.425 803.414 175.124 803.749 175.798C805.769 179.865 807.438 184.084 808.903 188.371C811.701 196.559 816.245 203.637 822.423 209.629C834.242 221.091 848.401 228.242 864.391 231.845C869.073 232.9 873.838 233.364 878.653 232.793C879.315 232.715 879.995 232.752 880.663 232.792C881.276 232.829 881.884 233.043 882.01 233.713C882.159 234.506 881.602 234.94 880.942 235.214C880.478 235.407 880.002 235.582 879.515 235.707C876.15 236.567 872.737 236.852 869.275 236.511C862.721 235.865 856.402 234.231 850.231 231.981C849.208 231.608 848.229 231.211 847.069 231.468C846.146 231.673 845.273 231.155 844.39 230.897C842.196 230.256 839.972 229.832 837.684 230.223C835.555 230.587 835.128 231.428 835.981 233.373C836.573 234.724 837.598 235.706 838.714 236.611C841.199 238.628 843.948 240.255 846.649 241.951C847.288 242.351 847.943 242.746 848.512 243.233C849.188 243.811 849.557 244.577 849.212 245.481C848.841 246.453 848.054 246.929 847.044 246.88C846.386 246.848 845.727 246.654 845.087 246.466C841.774 245.489 838.407 244.817 834.954 244.609C833.437 244.518 831.925 244.544 830.485 245.116C829.019 245.699 828.812 246.201 829.634 247.599C830.794 249.57 832.253 251.29 834.197 252.561C835.461 253.387 836.731 254.201 837.531 255.565C838.038 256.431 839.026 256.609 839.872 256.942C848.903 260.5 858.277 261.26 867.845 260.256C870.684 259.958 873.517 259.624 876.372 259.524C877.127 259.498 877.886 259.432 878.62 259.677C879.465 259.959 880.165 260.418 880.215 261.402C880.267 262.443 879.739 263.16 878.776 263.532C878.387 263.681 877.974 263.804 877.562 263.852C873.394 264.333 869.235 265.007 865.053 265.218C857.635 265.594 850.315 264.852 843.151 262.704C837.004 260.86 831.205 258.24 825.587 255.199C813.665 248.746 803.329 240.283 793.882 230.595C787.438 223.986 782.188 216.558 777.34 208.782C776.142 206.86 774.62 205.153 773.578 203.124C773.078 202.149 772.601 201.168 772.483 200.062C772.42 199.461 772.443 198.819 773.07 198.528C773.832 198.175 774.052 198.877 774.386 199.336C778.338 204.761 782.315 210.165 786.243 215.607C790.149 221.02 795.04 225.522 799.78 230.145C806.648 236.842 814.128 242.802 822.305 247.856C822.877 248.209 823.456 248.55 824.045 248.872C824.17 248.94 824.355 248.899 824.715 248.921Z" fill="black"/>
<path d="M813.461 179.873C812.888 180.922 813.19 181.875 813.016 182.765C812.805 183.844 812.297 184.693 811.098 184.75C809.914 184.807 809.215 184.062 808.973 182.986C808.414 180.5 808.792 178.136 810.272 176.04C811.245 174.662 812.494 174.394 814.03 175.051C816.539 176.123 818.79 177.435 819.545 180.366C819.749 181.159 820.3 181.856 820.638 182.622C824.208 190.7 829.641 197.272 836.696 202.545C837.432 203.095 838.135 203.7 838.792 204.341C839.302 204.84 839.508 205.483 839.12 206.17C838.749 206.828 838.13 207.075 837.415 206.983C835.706 206.765 834.262 205.907 832.839 205.011C826.149 200.798 821.022 195.185 817.619 188.031C816.576 185.838 815.564 183.631 814.53 181.434C814.292 180.929 814.216 180.312 813.461 179.873Z" fill="black"/>
</svg>
