<svg width="128" height="128" viewBox="0 0 128 128" fill="none" xmlns="http://www.w3.org/2000/svg">
<path d="M-1.61125e-05 64C-3.00021e-06 28.6538 28.6538 -2.04675e-06 64 -1.31854e-06C99.3462 -5.90331e-07 128 28.6538 128 64C128 99.3462 99.3462 128 64 128C28.6537 128 -2.92248e-05 99.3462 -1.61125e-05 64Z" fill="white"/>
<path d="M62.7461 49.8196V67.7673H47.714L62.7461 49.8196ZM62.7461 43.3813C62.7461 47.4828 59.3859 50.8052 55.2381 50.8052C51.0902 50.8052 47.714 47.4828 47.714 43.3813H62.7461ZM65.2218 67.7673C65.2218 63.6659 68.582 60.3433 72.7299 60.3433C76.8777 60.3433 80.2379 63.6659 80.2379 67.7673H65.2218ZM65.2218 61.3291V43.3813H80.2539L65.2218 61.3291ZM73.6302 83.1078C74.4018 83.1237 75.1575 82.8375 75.7201 82.313L76.749 83.4099C76.0739 84.1092 75.1253 84.6179 73.6462 84.6179C71.1222 84.6179 69.4984 82.9647 69.4984 80.7233C69.4501 78.609 71.1543 76.8763 73.2764 76.8286H73.405C75.9131 76.8286 77.3279 78.7044 77.1992 81.3274H71.299C71.508 82.4243 72.2796 83.1237 73.6302 83.1078ZM75.4308 80.1033C75.27 79.0859 74.6592 78.3387 73.4372 78.3387C72.2958 78.3387 71.508 78.9746 71.299 80.1033H75.4308ZM34.8041 83.0283L39.3539 78.45H34.9166V77.0193H41.46V78.4819L36.9102 83.0602H41.5243V84.4909H34.8041V83.0283ZM46.6369 83.1078C47.4085 83.1237 48.1641 82.8375 48.7108 82.313L49.7397 83.4099C49.0644 84.1092 48.116 84.6179 46.6369 84.6179C44.1127 84.6179 42.4889 82.9647 42.4889 80.7233C42.4408 78.609 44.1448 76.8763 46.2671 76.8286H46.3957C48.9038 76.8286 50.3185 78.7044 50.1899 81.3274H44.3057C44.5147 82.4243 45.2863 83.1237 46.6369 83.1078ZM48.4375 80.1033C48.2766 79.0859 47.6658 78.3387 46.4439 78.3387C45.3024 78.3387 44.5147 78.9746 44.3057 80.1033H48.4375ZM60.045 80.7392C60.045 78.3547 61.8456 76.8603 63.8392 76.8603C64.8038 76.8444 65.7203 77.2578 66.3634 77.9732V73.5697H67.971V84.4749H66.3634V83.4417C65.7363 84.1887 64.8038 84.6339 63.8232 84.6179C61.894 84.6179 60.045 83.1078 60.045 80.7392ZM66.4437 80.7233C66.4116 79.4198 65.3023 78.3864 63.984 78.4182C62.6656 78.45 61.6206 79.5469 61.6528 80.8505C61.685 82.1381 62.7461 83.1555 64.0482 83.1555C65.4309 83.1555 66.4437 82.0744 66.4437 80.7233ZM78.2603 82.8853L79.7234 82.1381C80.1092 82.8375 80.8648 83.2508 81.6686 83.235C82.5851 83.235 83.0512 82.774 83.0512 82.2494C83.0512 81.6452 82.1671 81.5181 81.2185 81.3274C79.9324 81.057 78.598 80.6438 78.598 79.1017C78.598 77.9255 79.7394 76.8286 81.524 76.8444C82.9387 76.8444 83.9837 77.4008 84.5787 78.291L83.2281 79.0222C82.8422 78.4659 82.1993 78.148 81.524 78.1638C80.6559 78.1638 80.2217 78.5772 80.2217 79.0541C80.2217 79.5946 80.913 79.7376 82.0063 79.9761C83.2442 80.2463 84.659 80.6438 84.659 82.2016C84.659 83.235 83.7425 84.6179 81.5883 84.6021C80.0127 84.6179 78.9034 83.9981 78.2603 82.8853ZM89.0159 81.1525L87.7458 82.5355V84.4749H86.1381V73.5697H87.7458V80.7073L91.1542 77.0034H93.1156L90.1574 80.1986L93.1959 84.4749H91.3792L89.0159 81.1525ZM55.1898 76.8444C53.2767 76.8444 51.669 78.0685 51.669 80.1033V84.4749H53.3087V80.31C53.3087 79.0859 54.0162 78.3547 55.2381 78.3547C56.4599 78.3547 57.0547 79.0859 57.0547 80.31V84.4749H58.6784V80.1033C58.6946 78.0685 57.0869 76.8444 55.1898 76.8444Z" fill="#03363D"/>
</svg>
