<svg width="957" height="880" viewBox="0 0 957 880" fill="none" xmlns="http://www.w3.org/2000/svg">
<path d="M896.368 698.545C892.49 696.624 888.403 695.944 884.026 696.119C876.45 696.422 869.153 698.072 861.938 700.095C854.685 702.129 847.681 704.815 840.692 707.553C836.227 709.303 831.939 711.363 827.653 713.441C827.631 713.438 827.606 713.441 827.573 713.456C819.7 717.177 803.604 728.025 797.433 731.084C796.381 731.605 791.14 736.689 790.104 736.483C788.836 737.107 787.997 738.127 786.877 738.915C784.724 740.431 782.668 742.067 780.7 743.789C778.807 745.445 776.839 747.154 775.302 749.096C774.754 749.789 774.023 750.398 773.417 751.051C772.768 751.75 772.169 752.492 771.536 753.199C770.953 753.851 770.632 754.482 770.241 755.251C769.634 756.442 769.763 758.003 770.453 758.379C771.458 758.927 772.642 758.672 773.778 757.657C774.017 757.443 774.253 757.222 774.469 756.988C780.807 750.155 787.919 744.128 795.793 738.885C797.02 738.068 797.964 736.914 799.338 736.243C799.796 736.019 823.961 721.701 826.129 720.015C827.082 719.55 828.036 719.085 828.983 718.611C841.509 712.333 854.528 707.215 868.251 703.776C873.366 702.494 878.546 701.534 883.852 701.269C887.385 701.093 890.787 701.415 893.886 703.121C895.161 703.823 896.211 704.678 896.919 706.018C898.115 708.28 897.921 710.407 896.946 712.655C895.83 715.226 894.289 717.718 892.771 720.086C891.693 721.764 890.598 723.432 889.478 725.087C887.529 727.968 885.269 730.666 882.775 733.151C881.543 734.379 880.294 735.592 879.026 736.788C878.303 737.469 877.671 738.165 877.076 738.933C876.416 739.785 875.316 740.46 874.455 741.13C869.405 745.054 864.078 748.632 858.797 752.29C853.184 756.179 847.424 759.863 841.757 763.674C839.824 764.975 837.881 766.261 835.936 767.545C834.953 768.194 833.969 768.843 832.986 769.491C831.663 770.365 830.267 771.139 828.968 772.042C826.374 773.847 823.8 775.678 821.213 777.491C820.167 778.225 819.615 779.976 820.129 780.998C820.74 782.217 822.055 782.675 823.694 782.23C824.884 781.907 826.055 781.51 827.259 781.251C836.624 779.238 846.093 778.905 855.612 779.619C857.834 779.786 860.046 780.13 862.184 780.717C865.222 781.551 868.141 782.654 870.054 785.202C870.6 785.929 871.095 786.71 871.384 787.562C871.697 788.486 871.716 792.57 868.598 797.085C866.626 799.94 864.629 802.752 861.834 805.108C859.524 807.054 857.236 809.031 854.766 810.799C852.295 812.566 849.611 814.21 846.852 815.55C844.119 816.878 841.484 818.441 838.639 819.555C833.893 821.414 829.448 823.892 824.584 825.528C823.443 825.911 822.223 826.601 821.389 827.6C820.67 828.462 820.39 829.401 821.024 830.399C821.628 831.35 822.568 831.795 823.737 831.625C824.378 831.532 825.003 831.281 825.61 831.042C827.441 830.322 829.26 829.57 831.085 828.835C839.934 825.278 848.497 821.209 856.511 816.168C860.94 813.382 864.99 810.17 868.422 806.325C872.185 802.109 875.2 797.509 876.598 792.094C877.684 787.884 876.495 784.295 873.48 781.16C870.913 778.491 867.607 776.939 863.997 775.992C856.843 774.114 849.497 773.993 842.123 774.327C839.892 774.428 837.665 774.623 835.436 774.774C836.154 773.915 836.938 773.36 837.742 772.833C846.304 767.217 854.893 761.637 863.429 755.986C875.297 748.13 885.978 739.129 894.345 727.864C897.781 723.239 900.73 718.402 902.663 713.075C904.794 707.202 902.186 701.428 896.368 698.545Z" fill="#0B0A0A"/>
<path d="M638.069 686.755C642.4 688.402 646.559 690.521 650.532 692.823C655.091 695.464 659.412 698.469 663.415 701.814C663.455 701.847 663.495 701.882 663.535 701.915C673.936 710.638 683.672 719.986 692.1 730.437C697.592 737.249 703.1 744.086 706.753 752.002C707.179 752.925 707.618 753.852 707.916 754.812C708.124 755.481 708.138 756.245 707.304 756.635C706.606 756.961 706.034 756.646 705.539 756.172C704.197 754.889 703.042 753.511 702.052 751.933C700.372 749.252 698.626 746.598 696.639 744.083C691.32 737.35 685.975 730.637 680.022 724.379C678.148 722.409 676.306 720.409 674.338 718.52C672.301 716.566 670.121 714.757 668.035 712.84C666.892 711.789 665.608 710.785 664.562 709.648C663.719 708.732 662.657 708.001 661.687 707.188C658.664 704.654 655.64 702.181 652.336 699.967C650.543 698.765 648.713 697.613 646.838 696.527C642.342 693.925 637.58 691.716 632.571 690.14C627.94 688.682 623.184 688.147 618.406 689.15C613.028 690.279 609.74 694.407 609.837 699.612C609.918 703.944 611.032 708.1 613.107 711.939C618.706 722.299 625.138 732.142 633.9 740.521C644.068 750.243 654.399 759.799 665.346 768.756C665.904 769.212 666.417 769.734 666.868 770.284C667.536 771.097 667.588 772.011 667.082 772.907C666.561 773.828 665.653 774.193 664.597 774.09C663.783 774.011 662.982 773.773 662.185 773.57C654.838 771.697 647.457 769.978 639.886 769.133C636.016 768.7 632.151 768.475 628.28 769.102C625.098 769.616 622.344 770.834 620.02 772.956C618.59 774.262 618.361 775.723 619.008 777.407C619.29 778.144 619.698 778.824 620.25 779.413C623.786 783.189 627.774 786.392 632.859 788.216C633.704 788.519 634.548 788.878 635.301 789.342C636.186 789.886 636.652 790.687 636.346 791.737C636.014 792.874 635.117 793.37 633.97 793.429C633.061 793.476 632.196 793.129 631.333 792.844C626.636 791.294 622.598 788.773 619.076 785.498C617.856 784.364 616.611 783.252 615.602 781.931C614.117 779.988 613.24 777.713 613.182 775.325C613.126 773.024 614.291 771.106 615.956 769.478C617.318 768.147 618.819 766.914 620.577 766.061C623.115 764.83 625.892 764.164 628.772 763.9C636.446 763.196 643.917 764.45 651.366 766.013C652.4 766.23 653.404 766.673 654.52 766.569C654.468 766.392 654.476 766.198 654.378 766.112C650.209 762.449 646.016 758.811 641.864 755.131C640.85 754.232 639.984 753.186 639.02 752.233C635.227 748.481 631.361 744.793 627.639 740.981C622.778 736.002 618.702 730.479 614.942 724.728C613.425 722.408 611.78 720.109 610.427 717.744C608.299 714.026 606.447 710.127 605.441 706.005C604.802 703.392 604.695 700.835 604.663 698.188C604.633 695.747 605.262 693.183 606.755 691.165C608.023 689.452 609.449 687.773 611.289 686.565C613.125 685.36 615.251 684.598 617.439 684.162C622.556 683.141 627.6 683.651 632.605 684.912C634.436 685.374 636.303 686.084 638.069 686.755Z" fill="#0B0A0A"/>
<path d="M694.938 773.215C694.938 773.215 724.577 799.625 774.394 770.868C774.394 770.868 784.46 775.109 792.524 782.019C805.409 793.059 813.455 841.77 813.455 841.77L782.614 843.902L785.331 860.135L705.516 860.543L685.567 799.563L676.966 799.625C676.966 799.625 674.443 778.057 694.938 773.215Z" fill="#E6A7E6"/>
<path d="M823.003 723.113C822.702 725.124 822.289 727.112 821.668 729.013C820.3 733.201 818.873 737.306 817.315 741.446C816.963 742.384 816.283 743.213 815.791 744.11C815.135 745.309 814.079 745.409 812.855 745.174C811.726 744.958 811.22 744.252 811.069 743.25C810.92 742.258 810.783 741.265 810.608 740.041C809.715 741.172 808.994 742.184 808.615 743.448C807.876 745.917 806.851 748.288 805.332 750.446C804.462 751.683 803.504 752.935 801.891 753.268C799.278 753.806 796.731 751.633 796.747 749.058C796.761 746.912 796.946 744.731 796.937 742.612C796.936 742.29 797.086 737.357 797.008 737.343C795.908 737.154 795.364 737.754 794.778 738.474C794.176 739.214 793.327 739.781 792.38 740.055C791.1 740.425 789.66 740.255 788.528 739.598C788.109 739.354 787.73 739.047 787.433 738.679C786.902 738.021 786.649 737.188 786.611 736.36C786.583 735.737 786.637 735.042 786.836 734.442C786.968 734.045 787.241 733.725 787.397 733.337C787.879 732.144 788.354 730.994 789.044 729.886C791.845 725.382 793.069 720.451 793.162 715.314C793.226 711.763 792.066 708.615 788.625 706.647C787.714 706.127 787.127 705.219 786.092 704.865C786.101 704.56 786.084 704.25 786.124 703.948C786.603 700.385 786.454 696.853 785.638 693.357C785.33 692.037 784.88 690.803 783.2 690.518C784.02 689.297 785.351 688.623 786.493 687.738C790.299 684.789 794.792 683.128 799.363 681.715C805.359 679.861 810.825 681.281 815.886 684.473C817.676 685.602 819.151 687.048 820.507 688.583C823.752 692.256 827.629 695.125 832.287 697.056C832.436 697.118 832.592 697.169 832.735 697.242C834.803 698.305 835.68 699.705 835.263 701.271C834.858 702.792 832.671 704.318 830.74 704.337C828.333 704.359 826.074 703.933 824.186 701.669C824.231 703.443 824.192 704.716 824.309 705.974C824.642 709.571 824.028 712.981 823.716 716.559C823.527 718.717 823.331 720.928 823.003 723.113Z" fill="#FFDB5D"/>
<path d="M715.329 691.688C712.74 689.678 714.284 685.576 715.832 683.342C728.422 665.157 743.157 667.672 752.537 667.812C757.347 667.884 761.478 669.62 765.358 671.982C768.315 673.782 771.022 675.91 773.666 678.107C777.394 681.204 780.204 684.794 780.915 689.575C781 690.143 781.179 690.618 781.674 690.964C781.398 691.782 781.346 692.613 781.443 693.459C781.748 696.113 782.06 698.765 781.896 701.451C781.831 702.519 781.996 703.581 782.364 704.602C781.538 705.146 781.332 705.953 781.212 706.83C780.549 711.694 778.072 715.577 773.912 718.546C773.32 718.969 772.759 719.428 772.183 719.87C770.269 718.861 768.358 717.911 766.075 717.748C763.073 717.533 760.485 718.554 757.975 719.921C757.934 719.853 757.908 719.742 757.85 719.725C754.758 718.806 753.754 716.415 753.124 713.767C750.192 701.438 755.122 692.258 756.453 689.479C757.146 688.034 755.918 686.813 754.285 687.192C753.484 687.378 752.704 687.663 751.934 687.949C746.794 689.86 741.386 691.004 735.939 691.753C730.405 692.515 724.719 693.193 719.103 692.79C718.069 692.716 717.009 692.604 716.091 692.157C715.805 692.017 715.552 691.86 715.329 691.688Z" fill="#FFDB5D"/>
<path d="M782.545 704.708C782.182 703.691 782.018 702.634 782.083 701.57C782.244 698.896 781.936 696.255 781.634 693.613C781.537 692.77 781.589 691.942 781.861 691.128C782.213 690.911 782.565 690.695 782.915 690.48C784.58 690.765 785.027 691.996 785.333 693.314C786.143 696.804 786.292 700.331 785.817 703.887C785.777 704.189 785.795 704.498 785.785 704.803C784.686 705.231 783.587 705.623 782.545 704.708Z" fill="#0B0A0A"/>
<path d="M715.214 691.858C715.289 691.77 715.364 691.682 715.441 691.596C716.092 690.86 716.652 690.045 717.295 689.295C717.725 688.792 718.323 688.465 719.02 688.674C719.88 688.932 719.576 689.665 719.563 690.234C719.541 690.71 719.442 691.167 719.285 691.62C719.139 692.043 719.033 692.466 718.88 692.89C718.188 694.803 717.334 696.658 716.588 698.555C715.833 700.475 715.136 702.414 714.496 704.37C713.857 706.317 713.274 708.28 712.744 710.255C712.562 710.934 712.345 711.61 712.239 712.299C712.137 712.953 711.572 713.786 712.316 714.233C712.926 714.599 713.746 714.17 714.413 713.897C716.078 713.216 717.686 712.428 719.181 711.437C720.135 710.805 721.153 710.139 722.35 710.721C722.915 710.995 722.483 712.79 721.665 713.954C720.183 716.062 717.968 717.25 715.633 718.281C714.066 718.973 712.472 719.611 710.924 720.34C710.38 720.596 709.594 720.834 709.76 721.644C709.905 722.352 710.635 722.533 711.239 722.69C712.355 722.98 713.513 722.922 714.653 722.723C717.333 722.257 719.907 721.484 722.351 720.305C724.56 719.239 725.829 719.402 726.634 720.764C727.384 722.034 726.785 723.343 724.646 724.455C720.844 726.433 716.819 727.713 712.428 727.652C710.529 727.626 710.484 727.678 710.631 729.427C710.885 732.447 711.406 735.419 712.477 738.276C712.722 738.929 712.977 739.584 713.297 740.205C717.626 748.586 723.037 749.651 730.348 748.838C734.345 748.394 738.2 747.201 741.776 745.312C742.419 744.973 743.104 744.665 743.808 744.478C744.873 744.195 745.799 744.55 746.324 745.44C746.857 746.342 746.635 747.272 745.83 747.983C745.357 748.403 744.767 748.715 744.199 749.025C739.779 751.436 735.006 752.856 729.993 753.437C728.342 753.628 723.64 754.212 721.158 753.448C714.867 751.512 711.154 747.281 708.508 741.811C706.454 737.566 706.073 733.067 705.863 728.519C705.796 727.074 705.797 725.662 705.106 724.348C705.141 724.308 705.21 724.235 705.203 724.229C705.136 724.163 705.057 724.106 704.982 724.048C703.795 721.889 704.234 719.908 705.727 717.988C706.294 717.26 706.792 716.49 706.919 715.519C707.334 712.362 708.438 709.334 709.143 706.235C710.091 702.075 711.915 698.234 713.603 694.332C713.987 693.446 714.574 692.612 715.214 691.858Z" fill="#0B0A0A"/>
<path d="M758.31 719.818C760.812 718.447 763.39 717.422 766.378 717.631C768.649 717.79 770.549 718.736 772.451 719.742C779.218 725.779 774.992 736.905 765.387 739.545C762.775 740.263 760.184 740.223 757.661 739.292C757.062 739.071 756.469 738.763 755.973 738.381C754.931 737.579 754.674 736.466 755.2 735.491C755.742 734.486 756.826 734.014 758.13 734.297C758.763 734.434 759.352 734.733 759.978 734.91C764.668 736.232 770.417 732.63 770.988 728.023C771.419 724.541 769.112 721.992 765.391 721.881C763.727 721.831 762.129 722.188 760.587 722.797C759.83 723.097 759.091 723.461 758.242 723.472C756.908 723.49 756.47 722.91 756.88 721.7C757.144 720.923 757.746 720.386 758.31 719.818Z" fill="#0B0A0A"/>
<path d="M743.723 693.226C746.856 693.336 749.13 694.548 750.752 696.809C751.403 697.717 751.798 698.735 751.814 699.863C751.836 701.395 751.109 702.516 749.892 702.811C748.63 703.118 747.542 702.538 746.739 701.133C745.151 698.352 744.005 697.893 740.803 698.826C739.936 699.078 739.122 699.494 738.258 699.757C736.684 700.236 735.627 699.415 735.847 697.888C736.04 696.551 736.965 695.64 738.07 694.899C739.824 693.723 741.835 693.331 743.723 693.226Z" fill="#0B0A0A"/>
<path d="M730.359 733.763C729.974 733.704 729.537 733.714 729.174 733.565C728.486 733.283 727.895 732.874 727.819 732.065C727.752 731.345 728.177 730.887 728.755 730.535C729.17 730.282 729.63 730.095 730.067 729.875C733.042 728.377 735.524 726.377 737.339 723.655C738.51 721.897 739.672 721.435 740.924 722.096C742.321 722.832 742.614 724.24 741.569 725.938C739.46 729.364 736.418 731.811 732.544 733.326C732.164 733.475 731.765 733.591 731.364 733.675C731.046 733.741 730.711 733.735 730.359 733.763Z" fill="#0B0A0A"/>
<path d="M722.134 697.227C721.715 697.329 721.276 697.314 720.849 697.26C720.558 697.223 720.263 697.165 720.012 697.024C719.597 696.789 719.35 696.342 719.289 695.887C719.227 695.432 719.33 694.967 719.49 694.531C719.661 694.066 719.936 693.741 720.265 693.37C720.602 692.989 720.95 692.613 721.356 692.296C722.534 691.376 723.957 690.682 725.509 690.725C726.328 690.747 727.123 690.968 727.855 691.299C728.242 691.474 728.581 691.7 728.939 691.911C729.302 692.125 729.655 692.388 729.824 692.774C730.038 693.261 730.302 693.728 730.434 694.246C730.648 695.086 730.586 695.918 729.753 696.556C728.776 697.304 728.094 696.643 727.363 696.198C727.162 696.075 727.005 695.889 726.829 695.735C726.686 695.612 726.598 695.421 726.453 695.292C726.342 695.192 726.215 695.105 726.071 695.05C725.813 694.953 725.539 694.989 725.293 695.108C725.017 695.243 724.724 695.387 724.49 695.58C724.149 695.862 723.816 696.151 723.49 696.448C723.115 696.791 722.647 697.103 722.134 697.227Z" fill="#0B0A0A"/>
<path d="M743.898 704.09C743.647 705.525 743.357 706.727 742.452 707.706C741.507 708.728 740.239 709.123 739.178 708.73C737.998 708.294 737.161 707.078 737.278 705.792C737.4 704.456 737.948 703.253 738.899 702.229C739.976 701.071 741.253 700.683 742.365 701.171C743.469 701.655 744.046 702.852 743.898 704.09Z" fill="#0B0A0A"/>
<path d="M725.179 703.27C724.848 704.547 724.35 705.871 723.07 706.749C721.51 707.818 719.463 707.046 719.071 705.284C718.731 703.76 719.73 701.606 721.142 700.828C722.072 700.315 722.996 700.23 723.921 700.814C724.808 701.372 725.246 702.139 725.179 703.27Z" fill="#0B0A0A"/>
<path d="M780.314 846.251C778.265 838.985 776.569 831.61 774.769 824.257C773.627 819.591 772.547 814.911 771.448 810.236C771.324 809.711 771.162 809.171 771.18 808.642C771.217 807.55 771.723 806.707 772.957 806.414C774.181 806.123 775.185 806.596 775.761 807.767C775.966 808.184 776.099 808.639 776.21 809.088C779.001 820.38 781.824 831.665 784.264 843.029C784.508 844.162 784.778 845.328 784.929 846.469C785.168 848.275 785.29 850.258 783.546 850.359C781.491 850.479 780.157 846.345 780.314 846.251Z" fill="#0B0A0A"/>
<path d="M722.703 844.103L709.011 853.058L706.41 861.187L708.162 864.55L712.77 863.035L714.774 868.024L720.129 865.928L726.365 868.473L734.327 861.035L778.222 873.862C778.222 873.862 793.562 879.181 804.319 876.511C817.219 873.308 816.722 863.213 816.722 863.213L790.139 850.168L755.853 843.48L722.703 844.103Z" fill="white"/>
<path d="M706.486 853.751C707.664 852.079 708.669 850.341 710.122 848.865C714.003 844.924 718.833 842.867 724.429 842.03C732.432 840.833 740.494 841.105 748.53 841.183C757.59 841.271 766.525 842.595 775.357 844.493C776.885 844.822 789.404 847.723 790.731 848.382C791.238 848.634 791.729 848.93 792.18 849.262C792.688 849.637 792.8 850.168 792.583 850.725C792.384 851.237 791.892 851.32 791.376 851.367C788.943 851.587 786.553 851.18 784.219 850.7C777.417 849.301 770.589 848.013 763.719 846.982C757.579 846.061 751.357 845.706 745.124 845.741C742.053 845.759 738.981 845.827 735.91 845.798C731.912 845.759 727.948 846.032 724.033 846.78C716.486 848.221 711.817 852.622 709.426 859.284C709.188 859.947 708.9 860.577 708.606 861.212C708.464 861.519 708.483 861.832 708.742 862.067C709.028 862.327 709.396 862.241 709.604 862.004C710.687 860.764 712.37 860.074 713.053 858.425C713.455 857.454 714.321 856.635 715.054 855.804C715.414 855.397 715.906 855.052 716.409 854.804C716.926 854.548 717.551 854.479 718.035 854.917C718.583 855.413 718.269 855.904 717.917 856.359C716.632 858.021 715.94 859.912 715.498 861.89C715.228 863.099 715.025 864.322 715.471 865.591C716.53 865.752 716.861 864.96 717.302 864.353C718.788 862.305 720.137 860.181 721.352 857.982C722.363 856.151 723.501 855.548 724.778 856.108C726.041 856.663 726.286 857.882 725.523 859.776C724.971 861.146 724.132 862.423 723.906 863.898C723.791 864.651 723.534 865.564 724.299 866.07C725.209 866.671 726.266 866.357 727.085 865.786C728.28 864.951 729.173 863.824 730.015 862.681C731.658 860.451 733.073 858.095 734.426 855.704C735.429 853.932 736.459 853.404 737.655 853.93C739.007 854.525 739.309 855.828 738.315 857.528C736.216 861.12 734.224 864.78 730.976 867.663C729.816 868.693 728.635 869.646 727.046 869.994C724.328 870.59 721.906 870.234 720.223 867.773C718.543 868.85 717.098 870.226 715.021 869.835C712.915 869.438 712.093 867.718 711.203 866.137C710.429 866.54 705.051 867.229 704.385 862.998C704.106 861.229 705.091 855.796 706.486 853.751Z" fill="#0B0A0A"/>
<path d="M807.6 878.378C802.635 880.081 797.643 879.645 792.616 878.959C790.735 878.702 788.883 878.254 787.019 877.888C783.871 877.27 764.86 872.263 764.399 872.092C759.17 870.146 753.771 868.631 748.568 866.606C746.133 865.658 743.531 865.088 741.029 864.282C739.974 863.942 738.635 863.737 738.691 862.279C738.722 861.466 739.804 860.988 741.608 861.168C744.155 861.423 746.748 861.6 749.145 862.529C755.806 865.111 762.71 867.036 769.575 869.046C776.686 871.129 783.908 872.878 791.225 874.228C794.482 874.829 797.803 875.096 801.13 874.871C807.933 874.41 812.546 870.687 813.523 864.301C814.403 858.547 814.244 852.931 812.336 847.365C811.177 843.986 810.167 840.562 809.099 837.156C808.798 836.195 808.418 835.238 808.538 834.214C808.681 833.003 809.516 832.055 810.613 831.876C811.84 831.676 812.676 832.268 813.303 833.171C813.526 833.493 813.728 833.842 813.853 834.205C815.964 840.306 818.112 846.412 819.186 852.755C820.007 857.601 819.673 862.468 818.486 867.262C818.071 868.938 817.298 870.486 816.257 871.893C813.123 876.132 810.757 877.295 807.6 878.378Z" fill="#0B0A0A"/>
<path d="M728.869 754.761C728.262 757.4 727.658 760.044 727.115 762.697C726.833 764.072 726.333 765.361 725.846 766.676C725.325 768.083 724.362 768.663 722.894 768.691C713.766 768.864 705.395 771.894 696.968 774.68C694.946 775.349 692.994 776.239 691.082 777.158C685.627 779.779 681.578 783.569 679.813 789.204C679.442 790.389 678.98 791.548 678.254 792.601C677.935 793.064 677.595 793.505 677.04 793.726C676.226 794.051 675.214 793.599 675.196 792.793C675.12 789.285 674.937 785.696 677.149 782.619C678.806 780.315 680.567 778.08 683.007 776.326C686.357 773.917 690.001 772.121 693.899 770.623C698.164 768.984 702.629 767.876 707.054 766.683C707.931 766.446 708.744 766.183 709.644 766.009C713.152 765.331 716.573 764.526 720.181 764.345C721.194 764.297 721.676 763.986 721.815 763.059C722.271 760.012 723.08 757.022 723.495 753.966C724.269 748.284 730.251 748.748 728.869 754.761Z" fill="#0B0A0A"/>
<path d="M781.219 771.871C781.449 772.005 781.681 772.136 781.915 772.264C783.967 773.384 785.938 774.632 787.807 776.001C789.641 777.344 791.377 778.803 793 780.364C794.623 781.924 796.132 783.585 797.525 785.327C798.939 787.096 800.233 788.949 801.411 790.862C801.662 791.27 801.907 791.681 802.148 792.094C802.499 792.698 802.791 793.349 802.836 794.063C802.892 794.956 802.787 795.827 801.821 796.243C800.748 796.705 799.884 796.194 799.207 795.441C798.839 795.031 798.573 794.539 798.288 794.07C793.049 785.458 785.802 778.76 776.397 774.096C772.952 772.387 769.433 770.859 765.702 769.764C763.723 769.183 761.884 768.294 760.033 767.423C755.188 765.143 753.313 761.159 752.984 756.472C752.658 751.82 753.716 747.256 754.698 742.714C754.879 741.88 755.221 741.093 755.755 740.386C756.182 739.819 756.758 739.555 757.471 739.717C758.171 739.877 758.595 740.36 758.757 741.006C758.911 741.622 758.737 742.229 758.664 742.843C758.204 746.753 757.739 750.664 757.347 754.58C757.239 755.647 757.237 756.758 757.431 757.81C757.82 759.926 758.762 761.774 760.922 762.875C763.004 763.937 764.986 765.124 767.324 765.769C769.986 766.503 772.513 767.59 774.993 768.738C776.189 769.292 777.401 769.814 778.583 770.394C779.495 770.84 780.35 771.369 781.219 771.871Z" fill="#0B0A0A"/>
<path d="M562.134 799.306L587.057 877.596L642.256 877.989L711.027 876.625L684.986 799.152L562.134 799.306Z" fill="white"/>
<path d="M710.797 870.123C710.893 871.144 710.878 872.294 709.583 872.617C708.464 872.897 707.733 872.083 707.272 871.224C705.824 868.524 684.292 803.147 684.181 801.387C684.122 800.44 683.476 800.197 682.457 800.204C643.947 800.464 565.45 800.174 564.619 800.564C565.524 803.234 590.167 876.706 589.772 877.694C589.383 878.669 587.378 879.51 585.968 878.342C584.557 877.172 560.339 802.591 559.961 801.141C558.993 797.428 559.94 796.281 564.149 796.241C573.444 796.151 682.172 796.115 684.658 796.092C686.875 796.073 687.981 797.095 688.564 798.952C689.612 802.291 710.71 869.201 710.797 870.123Z" fill="#0B0A0A"/>
<path d="M631.5 874.923C635.488 874.891 645.259 875.356 646.091 875.783C646.785 876.14 647.338 876.566 647.291 877.375C647.246 878.164 646.629 878.529 645.973 878.908C643.752 880.19 631.266 879.826 625.87 879.84C598.885 879.91 571.899 879.93 544.914 879.967C544.748 879.967 544.581 879.98 544.416 879.974C542.572 879.903 541.509 879.061 541.584 877.732C541.652 876.511 542.669 875.735 544.396 875.707C552.365 875.578 560.334 875.445 568.304 875.368C573.613 875.317 618.88 875.026 631.5 874.923Z" fill="#0B0A0A"/>
<path d="M903.894 871.954C910.286 872.13 916.674 871.913 923.063 871.804C932.775 871.639 942.487 871.5 952.2 871.369C952.939 871.358 953.708 871.4 954.413 871.585C955.454 871.857 956.152 872.561 956.16 873.599C956.168 874.716 955.522 875.544 954.337 875.794C953.375 875.997 952.367 876.066 951.377 876.085C938.262 876.329 925.146 876.51 912.033 876.792C880.908 877.462 849.781 877.986 818.651 878.373C815.745 878.409 718.683 878.187 689.223 878.864C685.489 878.95 681.753 878.943 678.017 878.969C677.103 878.975 676.191 878.929 675.313 878.643C674.385 878.342 673.663 877.854 673.687 876.846C673.711 875.847 674.557 875.335 675.37 875.016C676.023 874.759 676.836 874.835 677.581 874.797C689.022 874.223 700.477 874.082 711.93 873.846C729.91 873.477 818.862 873.562 820.571 873.532C831.777 873.335 842.983 873.124 854.188 872.923C859.248 872.832 864.312 872.849 869.361 872.459C872.507 872.464 875.653 872.52 878.797 872.465C887.163 872.32 895.528 872.128 903.894 871.954Z" fill="#0B0A0A"/>
<path d="M903.894 871.954C895.528 872.128 887.163 872.32 878.797 872.466C875.653 872.52 872.507 872.465 869.361 872.46C869.241 870.914 869.29 869.376 869.545 867.842C869.633 867.31 869.708 866.766 869.688 866.231C869.306 856.506 869.948 846.788 869.934 837.066C869.934 836.68 869.92 836.29 869.973 835.909C870.204 834.244 870.857 833.634 872.701 833.499C875.263 833.312 877.833 833.34 880.402 833.144C884.695 832.816 889.011 832.706 893.319 832.583C896.303 832.498 899.26 832.014 902.26 832.156C904.617 832.268 905.01 832.552 905.038 834.741C905.057 836.208 905 837.676 904.948 839.142C904.916 840.07 905.307 840.382 906.31 840.186C907.114 840.028 907.955 839.959 908.778 839.967C912.284 840 914.674 841.795 915.74 844.863C917.231 849.158 916.51 853.115 913.825 856.771C911.959 859.311 909.243 860.734 906.033 861.359C904.058 861.744 903.987 861.735 903.997 863.506C904.008 865.341 904.246 870.998 903.894 871.954ZM904.436 852.986C904.436 854.228 904.416 854.922 904.441 855.615C904.497 857.157 904.855 857.368 906.39 856.652C909.354 855.27 910.959 853.043 911.38 849.951C911.934 845.891 910.393 844.57 906.238 845.69C905.299 845.943 904.895 846.399 904.85 847.315C904.749 849.389 904.553 851.459 904.436 852.986Z" fill="#AAC164"/>
<path d="M877.239 825.244C877.894 821.298 880.04 818.839 883.251 817.139C886.736 815.293 890.189 813.371 893.275 810.967C895.042 809.589 896.209 807.711 897.084 805.578C897.823 803.775 898.31 801.926 898.99 800.122C899.519 798.719 900.291 798.142 901.445 798.231C902.661 798.326 903.465 799.174 903.524 800.669C903.631 803.381 902.772 805.925 901.455 808.313C898.984 812.793 895.107 815.909 890.468 818.227C889.373 818.774 888.207 819.194 887.137 819.781C884.132 821.429 881.649 823.56 880.357 826.731C880.239 827.021 880.07 827.298 879.896 827.564C879.507 828.157 879.016 828.458 878.254 828.185C876.484 827.801 877.229 825.52 877.239 825.244Z" fill="#0B0A0A"/>
<path d="M891.765 828.023C891.66 827.705 891.61 827.361 891.59 827.118C891.484 825.875 891.917 824.621 892.375 823.466C892.739 822.548 893.687 821.392 894.84 820.783C896.288 820.018 897.701 819.039 899.26 818.664C900.901 818.269 901.892 817.289 902.607 816.144C903.869 814.121 905.666 812.409 906.407 810.06C906.828 808.726 908.123 808.268 909.373 808.572C910.523 808.851 911.088 809.648 911.077 811.052C911.065 812.567 910.582 813.976 909.695 815.231C907.05 818.97 904.194 822.479 899.325 823.857C897.391 824.404 896.251 825.805 895.315 827.457C894.963 828.078 894.491 828.927 893.667 829.038C893.261 829.092 892.597 828.978 892.257 828.769C892.024 828.626 891.868 828.337 891.765 828.023Z" fill="#0B0A0A"/>
<path d="M565.478 739.488C486.207 741.344 434.164 686.329 426.63 614.213C423.14 580.807 434.607 530.233 446.977 505.657C461.86 476.089 477.593 447.604 488.202 416.093C499.918 381.295 497.04 351.106 472.248 348.12C470.662 347.929 469.135 347.864 467.673 347.911" stroke="black" stroke-width="11" stroke-linecap="round"/>
<path d="M487.255 395.995C487.255 395.995 489.281 392.712 485.331 388.301C467.884 368.817 430.581 332.277 430.581 332.277L438.443 366.825L412.853 375.841L487.255 395.995Z" fill="white"/>
<path d="M433.869 337.919C435.415 343.454 436.974 348.984 438.502 354.524C439.453 357.97 440.387 361.42 441.271 364.884C442.114 368.186 441.689 368.841 438.33 369.819C432.249 371.589 426.17 373.368 420.092 375.142C419.551 375.111 419.019 375.098 418.601 375.873C437.287 380.663 455.719 385.802 474.306 390.564C473.384 389.765 472.6 388.87 471.398 388.509C465.624 384.614 459.835 380.739 454.088 376.808C452.638 375.817 451.313 374.663 449.959 373.553C449.532 373.203 449.16 372.779 448.829 372.345C448.367 371.739 448.24 371.01 448.669 370.369C449.088 369.741 449.851 369.926 450.48 370.013C451.895 370.21 453.058 370.956 454.241 371.63C458.926 374.303 463.319 377.376 467.76 380.381C474.324 384.822 480.83 389.34 487.368 393.816C488.506 394.595 489.773 395.307 489.258 396.952C488.902 398.084 487.942 398.337 485.672 398.241C482.843 398.123 480.225 397.187 477.511 396.63C477.513 396.63 477.372 396.467 477.372 396.467L477.166 396.541C476.48 396.358 475.795 396.174 475.11 395.991C475.039 395.797 474.935 395.692 474.727 395.873C474.194 395.728 473.662 395.583 473.131 395.438C472.918 395.199 472.686 395.006 472.319 395.191C471.793 395.061 471.268 394.931 470.743 394.801C470.678 394.606 470.571 394.53 470.381 394.697C464.531 393.12 458.682 391.542 452.833 389.964C452.77 389.771 452.664 389.707 452.484 389.868C451.94 389.715 451.395 389.562 450.853 389.41C450.64 389.181 450.406 389.018 450.061 389.194C447.277 388.441 444.493 387.688 441.71 386.936C441.645 386.743 441.538 386.675 441.355 386.837C440.812 386.685 440.271 386.533 439.73 386.382C439.517 386.154 439.283 385.981 438.934 386.159C438.4 386.02 437.866 385.881 437.333 385.742C437.131 385.482 436.9 385.29 436.522 385.467C436.155 385.378 435.787 385.288 435.422 385.198C435.173 384.966 434.9 384.802 434.524 384.942C434.01 384.807 433.496 384.671 432.983 384.536C432.774 384.287 432.543 384.09 432.168 384.272C431.645 384.145 431.123 384.018 430.602 383.892C430.534 383.693 430.431 383.584 430.217 383.768C429.69 383.625 429.163 383.482 428.637 383.34C428.639 383.34 428.508 383.177 428.508 383.177L428.308 383.251C426.972 382.874 425.636 382.497 424.301 382.12C424.237 381.927 424.129 381.856 423.944 382.018C423.406 381.864 422.868 381.709 422.332 381.556C422.127 381.308 421.9 381.115 421.53 381.292C420.358 380.972 419.186 380.652 418.016 380.332C417.953 380.139 417.847 380.072 417.665 380.233C417.124 380.078 416.584 379.924 416.044 379.77C415.837 379.531 415.609 379.34 415.245 379.516C413.5 378.92 411.756 378.324 410.012 377.728C408.899 377.348 408.27 376.643 408.316 375.47C408.359 374.35 408.911 373.548 409.982 373.053C411.032 372.568 412.157 372.329 413.267 372.017C420.709 369.921 428.133 367.764 435.578 365.677C436.785 365.339 436.834 364.831 436.531 363.805C433.22 352.622 429.964 341.422 426.702 330.225C426.463 329.407 426.219 328.578 426.12 327.736C426.014 326.839 426.303 326 427.263 325.576C428.267 325.134 429.197 325.308 429.965 326.048C431.255 327.29 432.569 328.512 433.807 329.799C438.453 334.63 443.096 339.463 447.694 344.334C453.055 350.015 458.373 355.733 463.7 361.444C469.834 368.019 475.957 374.604 482.083 381.187C482.46 381.592 482.87 381.981 483.175 382.432C483.872 383.462 483.782 384.481 482.998 385.203C482.27 385.875 480.954 386.019 480.035 385.386C479.385 384.939 478.852 384.33 478.314 383.755C464.1 368.562 449.891 353.364 435.677 338.171C435.358 337.83 434.978 337.54 434.626 337.226C434.5 336.861 434.214 336.44 433.85 336.627C433.14 336.992 433.727 337.484 433.869 337.919Z" fill="#0B0A0A"/>
<path d="M142.206 205.165C142.206 205.165 155.735 163.788 156.253 162.262C158.367 156.037 161.137 150.081 164.505 144.361C164.739 143.963 164.679 143.44 165.123 143.138C166.908 143.827 168.186 143.152 169.09 141.754C169.897 140.506 170.576 139.187 171.321 137.905C175.158 131.306 180.413 126.079 187.926 123.032C188.756 122.695 189.577 122.325 190.362 121.906C191.255 121.43 191.633 120.727 191.186 119.776C197.006 117.469 202.884 115.311 208.949 113.616C209.258 113.53 209.555 113.249 209.84 113.27C212.899 113.495 213.831 111.557 214.77 109.375C215.838 106.895 216.975 104.417 218.686 102.224C218.925 101.918 220.476 100.552 222.505 101.211C225.111 102.059 228.645 102.009 230.416 104.096C237.053 111.92 259.862 111.92 269.512 112.732C273.909 113.102 279.948 113.994 283.035 114.441C287.287 115.057 291.495 115.94 295.719 116.721C299.472 117.415 302.485 119.472 305.556 121.406C307.131 122.398 308.674 123.439 310.182 124.518C313.314 126.757 315.736 129.617 317.876 132.649C321.57 137.883 324.655 143.433 327.088 149.282C327.411 150.06 331.188 160.765 331.125 161.659C333.773 165.973 313.208 197.872 291.931 206.689C290.707 207.457 289.318 207.491 287.911 207.495C281.442 207.511 274.973 207.482 268.506 207.577C248.941 207.866 229.374 207.838 209.807 207.899C203.401 207.616 142.206 205.165 142.206 205.165ZM247.545 144.688C247.593 142.931 246.381 141.67 244.613 141.64C242.951 141.612 241.646 142.968 241.652 144.717C241.657 146.225 242.831 147.445 244.336 147.507C246.073 147.579 247.5 146.326 247.545 144.688ZM234.919 191.015C234.935 189.522 234.431 188.826 233.334 188.341C232.224 187.849 231.428 188.299 230.726 189.026C230.344 189.421 229.974 189.847 229.704 190.312C228.896 191.702 229.476 193.3 230.986 193.981C232.448 194.639 233.805 194.074 234.488 192.472C234.727 191.911 234.837 191.302 234.919 191.015ZM239.926 168.805C239.917 167.101 238.864 166.028 237.274 166.102C235.782 166.172 234.735 167.479 234.723 169.286C234.713 170.864 235.904 172.054 237.433 171.994C238.942 171.934 239.935 170.664 239.926 168.805Z" fill="#AAC164"/>
<path d="M191.186 119.776C191.633 120.727 191.255 121.43 190.362 121.906C189.577 122.325 188.756 122.695 187.926 123.032C180.413 126.079 175.158 131.306 171.322 137.905C170.577 139.187 169.897 140.506 169.09 141.754C168.186 143.152 166.908 143.827 165.123 143.138C163.669 141.856 164.156 140.193 164.732 138.949C165.871 136.495 167.217 134.041 168.958 131.93C172.594 127.521 176.374 123.157 182.042 120.779C183.892 120.004 185.853 119.533 187.848 119.243C188.99 119.077 190.161 119.125 191.186 119.776Z" fill="#0B0A0A"/>
<path d="M234.637 139.957C234.388 141.216 234.1 143.052 233.659 144.856C229.015 163.84 223.829 182.699 218.503 201.525C218.335 202.121 218.16 202.727 217.884 203.283C217.255 204.546 216.153 205.077 214.891 204.805C213.529 204.511 212.71 203.451 212.868 202.01C212.96 201.171 213.212 200.343 213.435 199.52C215.908 190.39 218.34 181.249 220.883 172.135C223.698 162.051 226.404 151.938 229.651 141.963C230.035 140.784 230.485 139.618 230.987 138.477C231.386 137.573 232.057 136.869 233.246 137.003C234.238 137.113 234.677 137.912 234.637 139.957Z" fill="#0B0A0A"/>
<path d="M224.656 122.49C223.535 124.716 222.683 126.454 221.789 128.173C221.139 129.425 220.47 130.676 219.436 131.704C218.713 132.424 217.857 132.855 216.767 132.453C215.635 132.035 215.469 131.121 215.518 130.156C215.57 129.142 215.911 128.177 216.339 127.256C217.853 123.996 219.397 120.748 220.947 117.503C221.182 117.013 221.46 116.525 221.809 116.101C223.222 114.385 225.306 114.287 226.954 115.835C227.186 116.053 227.43 116.286 227.573 116.556C229.413 120.014 231.417 123.413 232.339 127.22C232.538 128.038 232.597 128.907 232.564 129.748C232.537 130.427 232.367 131.168 231.467 131.382C230.74 131.555 230.202 131.219 229.704 130.757C228.867 129.981 228.294 129.049 227.762 128.083C226.82 126.373 225.867 124.669 224.656 122.49Z" fill="#0B0A0A"/>
<path d="M238.649 130.823C238.882 128.46 239.217 126.247 240.149 124.159C241.529 121.069 244.219 119.996 247.406 121.58C250.178 122.958 252.947 124.348 255.709 125.748C256.206 126 256.677 126.369 257.031 126.781C257.694 127.55 257.899 128.443 257.414 129.377C256.969 130.236 256.126 130.575 255.181 130.628C254.264 130.679 253.388 130.408 252.534 130.087C250.377 129.277 248.302 128.334 246.372 127.107C244.81 126.115 244.671 126.175 243.969 127.868C243.523 128.947 243.163 130.056 242.722 131.137C242.489 131.711 242.202 132.272 241.877 132.806C241.474 133.466 240.859 133.807 240.009 133.638C239.239 133.485 238.959 132.911 238.81 132.303C238.684 131.783 238.69 131.235 238.649 130.823Z" fill="#0B0A0A"/>
<path d="M2.10793 114.97L25.5217 209.337L211.253 209.588L208.386 203.59L198.664 197.79L157.409 193.615L141.953 116.362L2.10793 114.97Z" fill="white"/>
<path d="M21.4076 201.161C21.4076 201.161 21.4195 201.21 21.4195 201.209C21.1369 201.371 21.5806 201.438 21.3094 201.265C21.1847 201.186 21.2615 201.091 21.4076 201.161Z" fill="#AAC164"/>
<path d="M2.91858 128.786C2.91858 128.786 2.949 128.925 2.949 128.923C2.62193 128.978 3.05519 129.154 2.81887 128.939C2.7027 128.833 2.773 128.747 2.91858 128.786Z" fill="#AAC164"/>
<path d="M153.923 162.05C154.806 166.904 155.697 171.757 156.569 176.613C157.36 181.023 158.137 185.436 158.906 189.85C159.199 191.532 159.181 191.543 161.091 191.621C169.29 191.956 177.414 192.945 185.553 193.871C191.15 194.508 196.725 195.109 202.113 196.734C202.27 196.781 202.435 196.806 202.594 196.849C206.262 197.832 208.955 199.744 209.807 203.409C209.199 204.078 208.46 204.871 207.608 203.908C204.865 200.806 200.921 200.408 197.115 199.743C190.425 198.574 183.619 198.218 176.878 197.396C172.192 196.824 167.472 196.494 162.764 196.089C161.443 195.975 160.111 195.956 158.784 195.928C156.748 195.885 155.126 194.921 155.052 193.16C154.906 189.64 153.597 186.362 152.863 182.977C151.977 178.888 151.372 174.763 150.538 170.67C148.002 158.234 145.603 145.774 143.17 133.32C142.266 128.689 141.384 124.053 140.567 119.408C140.391 118.406 140.147 117.983 138.893 118.011C125.695 118.31 112.494 118.159 99.2953 118.089C68.9924 117.928 38.6901 117.676 8.38777 117.45C6.47979 117.436 4.56582 117.405 2.66682 117.253C0.909401 117.112 0.00451711 116.25 0.0449047 115.017C0.0847903 113.81 1.14222 112.941 2.75905 112.831C3.42013 112.786 4.08671 112.81 4.75079 112.812C17.7851 112.854 30.8199 112.897 43.8527 112.94C47.713 113.388 51.5973 113.18 55.4711 113.25C57.3576 113.283 59.2611 113.52 61.1402 113.121C76.9719 113.21 92.8036 113.3 108.633 113.39C113.061 113.698 117.493 113.874 121.932 113.567C126.071 113.63 130.21 113.704 134.349 113.749C136.837 113.776 139.31 113.97 141.78 114.215C143.889 114.425 144.441 114.859 144.86 116.873C145.615 120.502 146.344 124.135 147.057 127.771C149.241 138.907 151.412 150.046 153.596 161.182C153.655 161.479 153.812 161.761 153.923 162.05Z" fill="#0B0A0A"/>
<path d="M2.91859 128.786C2.61248 127.116 2.35223 125.438 1.9828 123.781C1.76244 122.792 1.69463 122.042 3.03426 121.725C4.24476 121.437 5.18952 121.602 5.73694 122.587C6.15074 123.332 6.41498 124.159 6.66525 124.972C8.81204 131.943 10.6113 138.999 12.4415 146.045C17.1918 164.335 21.8827 182.638 26.5961 200.936C26.7312 201.46 26.9216 201.982 26.968 202.514C27.0892 203.909 26.3817 204.897 25.1443 205.172C23.857 205.458 22.7672 204.938 22.1913 203.639C21.8473 202.862 21.6713 202.021 21.4201 201.209C21.4201 201.21 21.4076 201.161 21.4076 201.161C18.5573 190.14 15.6797 179.126 12.8638 168.097C9.53096 155.045 6.25145 141.981 2.949 128.923C2.949 128.925 2.91859 128.786 2.91859 128.786Z" fill="#0B0A0A"/>
<path d="M82.0756 149.631C82.454 149.737 82.8329 149.843 83.2098 149.949C83.4955 150.068 83.7822 150.187 84.0693 150.305C89.4438 151.879 93.2947 155.109 95.5496 159.858C99.0834 167.3 94.1262 175.409 85.4493 176.52C77.9565 177.479 72.0865 174.876 67.2201 169.606C63.8578 165.964 64.0707 161.786 64.2606 157.508C65.3311 156.255 65.9358 154.719 67.1149 153.527C69.5015 151.116 72.3906 149.671 75.9364 149.437C76.6817 149.388 77.4266 149.329 78.1699 149.274C78.4735 149.484 78.7811 149.482 79.0908 149.284C79.9677 149.376 80.8447 149.467 81.7201 149.559C81.7186 149.559 81.8732 149.713 81.8732 149.713L82.0756 149.631ZM82.4994 171.73C82.9137 171.73 83.3305 171.754 83.7428 171.726C89.6138 171.334 92.8829 166.657 90.8807 161.524C89.0115 156.732 82.6948 153.365 77.0312 154.141C70.1387 155.085 67.3502 161.131 71.4319 166.406C74.1326 169.897 77.9371 171.53 82.4994 171.73Z" fill="#0B0A0A"/>
<path d="M349.006 133.272C349.006 133.272 289.72 195.423 296.686 206.452C303.653 217.481 326.602 213.861 330.189 209.03C333.775 204.2 375.326 145.977 375.326 145.977L349.006 133.272Z" fill="white"/>
<path d="M375.223 141.759C377.417 140.152 378.68 141.797 378.757 142.336C378.915 143.446 377.947 144.557 377.781 144.811C367.466 160.572 356.147 175.715 345.213 191.096C342.09 195.491 334.863 205.357 334.333 205.837C333.528 206.566 332.519 206.64 331.584 206.146C330.626 205.64 330.255 204.793 330.626 203.768C330.985 202.78 334.033 197.999 334.958 196.485C335.07 196.383 335.182 196.28 335.295 196.176C335.487 196.054 335.783 195.971 335.856 195.804C336.587 194.131 373.512 143.012 375.223 141.759Z" fill="#0B0A0A"/>
<path d="M304.696 186.483C302.385 185.102 302.11 184.093 303.791 182.01C306.73 178.368 347.972 129.964 349.136 128.628C350.199 127.408 351.508 126.515 352.638 125.414C353.353 124.717 354.255 124.68 355.085 125.291C355.875 125.872 355.764 126.607 355.416 127.387C354.802 128.766 353.837 129.938 352.905 131.123C346.657 139.068 340.112 146.798 333.562 154.525C325.208 164.382 316.81 174.207 308.431 184.045C307.442 185.206 306.485 186.408 304.696 186.483Z" fill="#0B0A0A"/>
<path d="M376.791 140.559C373.807 138.701 370.4 137.283 367.918 134.908C367.919 134.909 367.975 134.787 367.975 134.787L367.84 134.743C367.56 134.219 367.593 133.696 367.804 133.173C368.05 133.175 368.128 133.042 368.104 132.829C368.455 132.689 368.807 132.549 369.158 132.409C369.482 132.57 369.786 132.55 370.069 132.337C371.989 132.495 373.737 133.184 375.456 133.98C379.491 135.847 383.269 138.074 386.719 140.845C391.151 144.404 395.674 147.862 400.19 151.327C402.245 152.904 404.327 154.466 406.855 155.433C406.904 154.104 406.242 152.3 405.002 150.411C402.391 146.43 399.138 143 395.177 140.173C394.317 139.559 393.508 138.88 392.706 138.197C392.148 137.722 391.685 137.152 391.417 136.483C390.767 134.859 391.311 134.014 393.146 133.779C393.467 133.737 393.801 133.779 394.128 133.782C394.126 133.782 394.286 133.942 394.286 133.942L394.503 133.889C399.821 137.453 404.728 141.446 408.183 146.748C409.524 148.808 411.586 149.558 413.641 150.465C414.243 150.73 414.963 150.863 415.425 150.245C415.823 149.712 415.813 149.081 415.513 148.467C413.243 143.826 410.194 139.723 406.106 136.33C404.381 134.898 402.948 133.168 401.061 131.897C400.805 131.724 400.682 131.384 400.454 131.159C399.513 130.226 399.064 129.093 399.592 127.946C400.089 126.869 401.332 127.079 402.375 127.093C402.374 127.092 402.528 127.257 402.528 127.257L402.746 127.208C406.268 129.486 409.105 132.474 411.956 135.415C414.004 137.528 416.446 138.699 419.295 139.28C419.635 139.566 420.013 139.587 420.207 139.205C420.404 138.816 420.381 138.381 419.823 138.174C416.941 133.395 412.611 129.932 408.115 126.622C402.165 122.242 395.786 118.574 388.817 115.878C388.135 115.615 387.515 115.206 386.844 114.91C385.902 114.495 385.59 113.816 385.76 112.895C385.927 111.992 386.592 111.588 387.466 111.509C388.107 111.451 388.767 111.545 389.417 111.572C389.469 111.756 389.591 111.834 389.79 111.798C391.232 112.359 392.713 112.845 394.106 113.503C395.597 114.208 397 114.014 398.312 113.361C401.09 111.978 403.159 109.779 405.273 107.655C405.59 107.336 405.746 106.841 405.879 106.399C406.181 105.402 405.824 104.913 404.723 104.83C403.81 104.761 402.913 104.925 402.062 105.208C401.217 105.489 400.381 105.81 399.582 106.189C395.284 108.225 390.682 108.594 385.926 108.28C381.723 108.002 377.569 108.094 373.522 109.371C368.151 111.066 364.352 114.236 362.431 119.336C361.91 120.719 361.439 122.134 360.49 123.321C359.522 124.53 358.406 124.886 357.323 124.38C356.227 123.868 355.713 122.737 356.163 121.364C356.84 119.297 357.49 117.2 358.43 115.241C361.021 109.839 365.411 106.376 371.486 104.775C376.277 103.512 381.21 103.264 386.133 103.456C390.495 103.626 394.635 103.161 398.664 101.717C400.345 101.115 402.072 100.654 403.89 100.507C406.374 100.306 408.414 101.078 409.903 103.035C411.398 105.002 411.098 107.008 410.089 109.008C409.266 110.643 408.01 111.953 406.607 113.137C405.026 114.472 403.326 115.663 401.334 116.62C401.7 117.486 402.543 117.712 403.199 118.117C409.339 121.905 415.308 125.889 420.148 131.206C421.4 132.583 422.549 134.022 423.549 135.57C424.296 136.727 424.807 137.957 424.958 139.304C425.285 142.23 423.741 143.887 420.637 143.929C420.152 143.936 419.656 143.755 419.168 143.997C419.191 144.878 419.806 145.576 420.066 146.385C420.53 147.827 420.742 149.294 420.588 150.784C420.3 153.583 417.83 155.557 414.855 155.364C414.13 155.317 413.41 155.159 412.689 155.052C412.133 155.658 412.488 156.303 412.456 156.882C412.314 159.426 410.772 160.852 408.057 160.845C406.376 160.841 404.826 160.332 403.332 159.593C400.514 158.201 398.034 156.349 395.594 154.446C391.228 151.041 386.889 147.605 382.53 144.193C381.831 143.646 379.076 141.861 376.791 140.559Z" fill="#0B0A0A"/>
<path d="M291.931 206.689C288.765 203.878 287.191 200.427 287.151 196.364C287.144 195.706 286.985 195.253 286.23 194.919C282.114 193.098 280.535 190.003 281.667 185.866C282.115 184.228 282.806 182.641 283.459 181.057C283.769 180.305 283.812 179.646 283.586 178.837C282.013 173.232 280.373 167.651 277.981 162.287C277.629 161.5 277.39 160.689 277.422 159.814C277.463 158.686 277.995 157.897 279.131 157.496C280.284 157.088 281.242 157.449 282.063 158.223C282.664 158.79 282.927 159.536 283.225 160.254C284.687 163.786 286.193 167.304 287.154 170.995C287.265 171.421 287.459 171.829 287.659 172.363C288.682 172.015 288.943 171.232 289.397 170.641C290.363 169.387 291.166 168.012 292.419 166.972C293.525 166.053 294.663 165.89 295.603 166.426C296.527 166.953 296.853 167.997 296.536 169.319C296.275 170.411 295.547 171.268 294.908 172.165C291.825 176.497 289.171 181.029 287.365 185.965C287.043 186.845 286.717 187.723 286.894 188.678C287.043 189.487 287.426 190.054 288.393 189.594C289.914 188.869 291.425 188.56 292.741 189.817C293.972 190.994 293.446 192.396 293.04 193.752C292.325 196.145 292.513 198.512 293.542 200.784C293.976 201.741 294.403 202.82 295.767 203.032C295.767 203.033 295.846 203.069 295.847 203.069C295.643 203.538 295.941 203.685 296.357 203.756C296.903 204.671 297.999 205.023 298.719 205.755C299.161 206.205 299.594 206.682 299.914 207.209C300.234 207.734 300.526 208.333 299.936 208.904C299.443 209.381 298.891 209.187 298.333 209.046C296.102 208.486 293.909 207.841 291.931 206.689Z" fill="#0B0A0A"/>
<path d="M255.984 98.946L232.679 107.047C232.679 107.047 243.778 118.385 255.466 120.161C269.22 122.251 277.175 110.316 277.175 110.316L255.984 98.946Z" fill="white"/>
<path d="M241.075 26.1634C241.62 26.1117 242.166 26.0596 242.71 26.0078C243.048 26.2346 243.317 26.0824 243.571 25.8453C245.085 25.8486 246.286 25.0335 247.635 24.3514C247.142 22.9409 245.747 22.5773 244.624 21.8992C243.755 21.375 242.385 21.1797 242.948 19.6016C243.476 18.1219 244.315 17.4066 246.053 17.5258C248.894 17.7206 251.718 18.0749 254.555 18.307C257.717 18.5654 260.885 18.772 264.053 18.9777C264.616 19.0142 265.205 19.0071 265.757 18.8929C266.477 18.7438 266.721 18.2562 266.241 17.6965C265.369 16.6809 264.276 15.8858 263.13 15.1662C260.226 13.3429 257.166 11.8091 253.793 10.873C252.367 10.4772 251.02 9.98253 250.348 8.58662C250.325 7.82262 250.859 7.08727 250.559 6.30287C254.458 4.96261 257.754 6.71821 260.944 8.18278C274.168 14.2546 280.32 24.7356 280.691 38.5909C280.843 44.2702 280.476 49.9507 278.979 55.5279C278.728 56.4631 278.966 56.9546 279.739 57.446C281.209 58.3809 282.623 59.3952 284.059 60.3757C284.047 60.5903 284.137 60.6792 284.366 60.5928C284.739 60.8539 285.113 61.1151 285.485 61.3757C285.455 61.5508 285.535 61.6505 285.724 61.674C286.834 62.3082 287.892 63.0084 288.732 63.957C290.944 66.4539 289.994 69.3642 286.632 70.3005C285.204 70.6983 283.727 70.7777 282.251 70.6888C281.633 70.6516 281.014 70.6204 280.018 70.5658C282.282 74.0047 283.313 77.4407 283.589 81.1163C283.69 82.4503 283.628 83.7703 283.254 85.0567C282.825 86.5315 281.721 87.2346 280.351 87.0535C279.145 86.8939 278.434 86.0049 278.4 84.5151C278.386 83.8965 278.503 83.2729 278.541 82.6506C278.654 80.8038 278.44 79.0967 277.733 77.2932C276.932 75.2475 276.336 73.1381 275.2 71.2107C274.602 70.1946 273.866 69.5406 272.629 69.3667C269.802 68.9696 267.14 68.0125 264.428 67.2393C262.895 66.8024 261.33 66.3497 260.326 64.969C259.7 64.1071 259.759 63.5142 260.717 62.9681C261.803 62.3494 262.926 62.472 264.036 62.7308C269.162 63.9272 274.341 64.8798 279.601 65.4597C280.297 65.5363 281.004 65.5423 281.972 65.5954C281.492 64.6843 280.738 64.3821 280.145 63.9569C275.892 60.91 271.313 58.2795 267.288 54.9424C266.437 54.2366 265.561 53.5543 264.746 52.812C264.225 52.3373 263.722 51.8167 263.339 51.2379C262.523 50.0016 262.641 48.8865 263.571 48.0532C264.504 47.2173 265.696 47.1396 266.903 48.0333C268.685 49.3527 270.362 50.7976 272.12 52.147C272.979 52.8063 273.741 53.632 274.907 53.9305C275.302 53.0411 275.258 52.199 275.224 51.2472C274.211 51.0842 273.145 51.0394 272.177 50.7334C269.491 49.8847 268.266 47.6976 267.218 45.4316C266.851 44.6384 268.624 43.0253 269.678 43.0695C270.477 43.103 271.054 43.5109 271.553 44.0154C272.05 44.5164 272.433 45.1219 272.944 45.6073C273.563 46.1962 274.23 46.9745 275.218 46.6515C276.241 46.3169 275.824 45.3075 275.871 44.6064C275.97 43.1327 275.827 41.65 275.933 40.1772C276.015 39.0272 275.393 38.7525 274.403 38.5612C272.828 38.2566 271.308 38.4768 269.82 38.9552C268.531 39.3691 267.277 39.4913 265.998 39.103C266.109 38.8272 265.909 38.8397 265.727 38.8367C265.746 38.7397 265.746 38.644 265.724 38.5495C265.724 38.5504 265.796 38.4488 265.796 38.4488L265.689 38.3862C265.684 35.6271 266.106 35.1173 268.793 34.2313C270.838 33.5568 272.918 33.3824 275.341 33.6302C274.09 28.8869 272.475 24.6308 269.467 20.8232C266.88 22.9114 263.959 23.1302 260.997 23.0348C258.082 22.941 255.174 22.7299 252.129 22.5628C252.738 26.0536 250.815 27.8916 248.022 29.2395C246.15 30.1431 244.133 30.4978 242.108 30.7507C238.537 31.1966 234.948 31.4158 231.358 31.3906C229.328 31.3763 228.527 30.9397 228.42 29.9539C228.296 28.8123 229.151 28.0321 231.041 27.451C233.409 26.7229 235.86 26.7353 238.28 26.4717C238.928 26.4008 239.577 26.3444 240.225 26.2815C240.544 26.5264 240.813 26.378 241.075 26.1634Z" fill="#0B0A0A"/>
<path d="M244.453 116.389C242.662 116.763 241.083 116.26 239.531 115.506C235.638 113.611 232.87 110.675 230.869 107.045C230.267 105.951 229.75 105.124 228.129 105.466C226.715 105.764 225.415 105.13 224.266 104.348C223.414 103.769 222.569 103.183 221.72 102.601C219.145 100.508 217.828 97.5695 216.111 94.8992C214.576 92.5106 213.736 89.8126 212.573 87.261C211.864 85.7037 212.145 83.9449 212.427 82.2678C212.538 81.6068 212.617 80.8284 213.601 80.6946C214.629 80.5549 215.576 80.6359 216.21 81.5225C216.677 82.1766 216.767 82.9572 216.947 83.7132C218.111 88.6009 220.127 93.1248 223.122 97.2186C224.179 98.6638 225.366 99.9953 227.015 100.914C227.501 100.247 227.111 99.6391 227.18 99.0472C227.332 97.7439 227.892 97.0129 229.002 96.8494C230.2 96.6729 231.137 97.0834 231.55 98.1652C232.272 100.061 233.29 101.816 234.175 103.635C235.595 106.552 237.662 108.987 240.112 111.148C240.081 111.364 240.171 111.458 240.403 111.409C241.674 112.501 242.945 113.593 244.215 114.684C244.162 114.898 244.28 114.995 244.48 115.034C244.673 115.484 244.566 115.937 244.453 116.389Z" fill="#0B0A0A"/>
<path d="M274.911 117.151C273.004 118.204 271.407 119.76 269.21 120.346C267.111 120.907 266.155 120.632 264.887 118.955C265.109 118.522 264.156 118.268 264.881 117.602C265.712 116.839 266.441 116.078 267.539 115.624C270.602 114.357 272.729 111.897 275.217 109.896C275.899 109.348 275.918 108.526 276.338 107.865C279.433 102.995 280.928 97.7039 281.135 92.0874C281.157 91.4691 281.272 90.8511 281.36 90.2346C281.452 89.5934 281.6 89.041 282.482 88.9596C283.306 88.8834 283.961 89.0628 284.292 89.7773C284.549 90.3315 284.697 90.9438 284.821 91.5459C285.802 96.3117 284.961 100.931 283.349 105.529C281.714 110.196 278.894 114.038 274.911 117.151Z" fill="#0B0A0A"/>
<path d="M230.775 63.9938C231.616 63.6644 232.245 63.0092 232.897 62.4281C234.577 60.929 236.478 60.613 238.462 61.424C240.453 62.2377 240.871 64.0046 240.779 65.894C240.652 68.4901 240.12 71.0217 238.757 73.336C238.206 74.2703 237.607 75.4993 236.183 75.0821C234.839 74.6886 234.926 73.4617 235.032 72.3365C235.206 70.4948 235.357 68.6514 235.547 66.4831C233.411 68.0801 232.076 70.0229 230.613 71.8528C230.112 72.4788 229.687 73.1758 229.106 73.7231C228.166 74.6093 226.899 74.7638 225.947 74.2098C224.93 73.6173 224.465 72.6613 224.85 71.6177C225.691 69.3411 225.842 67.0442 225.715 64.6963C225.665 63.7724 226.086 62.9528 227.01 62.588C227.98 62.2046 228.929 62.3718 229.735 63.067C230.079 63.3643 230.199 63.8856 230.775 63.9938Z" fill="#0B0A0A"/>
<path d="M249.359 31.627C252.019 31.7668 254.256 32.478 256.398 33.4732C257.399 33.9385 258.141 34.6419 258.266 35.7688C258.411 37.071 257.335 38.2633 255.918 38.3268C255.095 38.3636 254.288 38.2247 253.534 37.8657C250.042 36.2054 246.385 36.3657 242.704 37.3578C240.476 37.9585 238.297 38.7401 236.092 39.4256C235.23 39.6937 234.382 40.0346 233.441 39.9245C231.802 39.7331 231.395 38.7767 232.224 37.309C232.851 36.2001 233.914 35.5522 234.947 35.0435C239.554 32.7767 244.436 31.5584 249.359 31.627Z" fill="#0B0A0A"/>
<path d="M244.934 54.1305C240.939 53.7389 238.062 51.7817 236.075 48.5434C235.339 47.3419 235.874 46.1213 236.146 44.9621C236.311 44.2617 238.003 44.316 238.704 45.0366C239.198 45.5432 239.562 46.1627 240.012 46.7106C240.762 47.6225 241.527 48.5192 242.68 49.0181C245.561 50.2651 249.254 49.0989 251.183 46.3284C251.709 45.5735 252.052 44.7179 253.179 44.448C255.324 43.9349 256.607 44.9868 256.141 47.0296C256.036 47.4853 255.837 47.9329 255.621 48.3573C253.954 51.6439 248.686 54.4847 244.934 54.1305Z" fill="#0B0A0A"/>
<path d="M261.269 87.3572C257.162 86.8357 253.262 85.0055 250.39 81.4374C249.638 80.5029 249.073 79.4661 248.948 78.2844C248.866 77.5155 248.951 76.5887 249.768 76.2067C250.483 75.8725 251.409 75.8069 252.116 76.3158C252.757 76.7765 253.351 77.3161 253.88 77.8923C256.534 80.7858 259.88 82.2793 263.965 82.3243C264.293 82.3281 264.624 82.3104 264.948 82.3471C266.378 82.5085 267.133 83.1322 267.318 84.2811C267.507 85.4564 266.816 86.491 265.477 87.0379C264.803 87.3133 263.185 87.4682 261.269 87.3572Z" fill="#0B0A0A"/>
<path d="M257.35 62.6244C257.261 63.3339 256.831 63.8146 256.255 64.1527C253.922 65.5229 251.685 66.9962 249.881 69.006C249.443 69.4934 248.81 69.7417 248.138 69.8298C247.333 69.9359 246.674 69.6446 246.217 69.0564C245.646 68.3211 245.502 67.4676 246.066 66.6575C246.744 65.6827 247.369 64.5915 248.29 63.8673C249.929 62.5774 251.744 61.444 253.833 60.9222C254.518 60.7511 255.309 60.8109 256.008 60.9457C256.902 61.1185 257.306 61.7886 257.35 62.6244Z" fill="#0B0A0A"/>
<path d="M199.8 9.03315C201.949 10.3157 204.085 10.4945 206.166 10.8029C207.299 10.9711 208.467 10.9451 209.605 11.0906C210.81 11.2446 211.797 11.7568 212.078 12.9886C212.309 14.0042 211.714 14.8714 210.245 15.446C208.332 16.194 206.361 16.8026 204.432 17.516C202.722 18.1486 201.104 18.9609 199.839 20.2651C198.77 21.3679 198.923 22.2395 200.424 22.7178C202.044 23.2339 203.757 23.4968 205.428 23.877C205.981 24.003 206.56 24.0878 207.072 24.3034C207.799 24.6088 208.186 25.1762 208.133 25.975C208.084 26.7131 207.528 27.0449 206.935 27.352C205.941 27.8665 204.839 27.7611 203.783 27.8469C201.43 28.0377 199.175 27.6166 197.104 26.6096C193.351 24.7846 192.537 20.394 195.701 17.2163C196.921 15.9907 198.331 14.9863 199.916 14.0702C198.722 13.4659 197.587 13.0208 196.679 12.2119C194.751 10.4924 194.167 7.21344 197.667 4.93569C200.606 3.0223 203.918 2.97711 207.146 2.60006C212.312 1.99716 217.503 1.89831 222.684 2.38159C223.764 2.48241 224.754 2.74186 225.697 3.18822C226.068 3.36339 226.352 3.67385 226.276 4.11668C226.203 4.54836 225.855 4.79258 225.441 4.8805C223.752 5.23833 222.05 5.48801 220.321 5.60474C215.226 5.94842 210.124 6.27952 205.083 7.16169C203.338 7.46704 201.493 7.64236 199.8 9.03315Z" fill="#0B0A0A"/>
<path d="M249.816 6.19116C250.12 6.97355 249.589 7.70461 249.615 8.46585C245.32 8.48363 241.156 9.24016 237.174 10.8132C232.076 12.8276 228.482 16.1691 226.468 21.1888C225.306 24.0848 223.697 26.8308 222.747 29.8264C221.273 34.473 220.45 39.2056 220.19 44.0268C220.133 45.0758 220.48 45.9919 220.87 46.9321C223.436 53.1163 223.974 59.508 222.303 66.0231C221.763 68.1283 220.521 70.0328 218.738 71.5311C217.775 72.3405 216.624 72.8243 215.391 72.901C210.507 73.2053 207.246 72.1448 204.71 67.3048C203.544 65.0789 203.048 62.6436 203.258 60.1053C203.519 56.9388 203.602 53.7681 205.006 50.7487C205.957 48.7054 207.276 46.9323 208.901 45.3858C210.025 44.3165 210.588 43.1906 210.739 41.7091C211.321 35.9879 212.608 30.4063 214.376 24.8682C215.238 22.1671 216.838 19.9061 217.939 17.392C219.437 13.9692 222.426 11.94 225.008 9.45275C227.618 6.93819 230.901 5.84453 234.169 4.78362C239.575 3.02855 244.812 3.92946 249.816 6.19116ZM218.061 60.9536C218.49 56.8603 217.405 53.7266 215.13 51.472C212.757 49.1206 210.22 49.3615 208.606 52.3039C206.09 56.8891 205.931 61.5287 208.771 65.9807C210.762 69.1011 214.513 68.9554 216.388 65.7125C217.38 63.995 217.927 62.1182 218.061 60.9536Z" fill="#8236FE"/>
</svg>
