<svg width="325" height="288" viewBox="0 0 325 288" fill="none" xmlns="http://www.w3.org/2000/svg">
<path d="M4.51855 93.9275C24.658 93.3412 59.0709 96.0999 75.065 112.984" stroke="black" stroke-width="9" stroke-linecap="round"/>
<path d="M213.494 173.67C213.13 167.515 212.12 162.689 210.916 158.118C209.928 154.33 208.724 148.795 207.343 144.868C207.09 144.149 207.622 143.161 208.238 142.68C208.844 142.207 209.359 142.397 209.96 142.794C211.571 143.855 212.127 145.566 212.745 147.209C215.477 154.474 218.318 163.831 218.673 171.491C219.095 180.599 219.386 188.761 215.677 199.088C212.918 206.982 210.421 211.018 206.456 218.421C206.007 219.267 205.612 220.178 204.911 220.889C203.988 221.824 202.561 222.235 201.66 221.667C200.572 220.98 200.493 219.919 200.719 218.735C201.09 216.798 202.431 215.066 203.221 213.301C204.175 211.09 205.051 209.277 206.565 205.949C207.7 203.395 208.654 201.342 209.524 198.989C210.558 196.232 211.007 194.933 211.977 192.163C212.853 189.68 213.288 187.142 213.528 184.58C213.953 180.084 213.379 176.34 213.494 173.67Z" fill="#090909"/>
<path d="M197.137 223.372L207.224 223.508C207.224 223.508 211.177 224.598 210.359 227.187C209.541 229.777 208.314 230.049 208.314 230.049C208.314 230.049 233.395 233.592 234.485 237.953C235.575 242.314 225.898 243.132 213.767 241.36C201.635 239.588 191.412 238.362 191.685 235.636C191.957 232.911 193.866 230.867 193.866 230.867C193.866 230.867 191.821 228.005 192.23 226.233C192.639 224.462 194.275 223.099 197.137 223.372Z" fill="#8236FE"/>
<path d="M214.604 142.622C213.456 144.314 212.751 146.237 211.805 148.035C209.697 152.04 207.605 156.057 205.675 160.149C204.487 162.667 203.316 165.203 202.216 167.755C201.324 169.826 200.767 172.055 199.693 174.067C199.129 175.121 198.319 176.013 197.469 176.826C196.234 178.007 193.028 177.487 191.941 175.848C190.362 173.464 188.636 171.196 186.906 168.926C184.333 165.552 180.503 159.191 176.679 154.82C170.914 148.229 160.732 137.713 158.874 135.904C155.778 132.567 136.737 116.154 128.922 111.605C124.171 108.839 101.82 100.687 101.203 100.481C101.166 100.149 103.822 97.9889 103.969 97.8996C107.339 95.8541 109.938 92.6279 113.039 90.1898C124.599 81.1011 133.201 72.5596 142.607 61.3139C148.09 54.7581 155.923 43.9557 160.548 36.7758C164.442 30.7315 171.923 18.8548 172.796 17.2138C174.388 14.2235 175.838 11.1579 177.346 8.12286C178.42 5.96209 180.425 4.73983 182.54 4.36224C184.336 4.04196 185.804 5.58661 186.699 7.20208C188.089 9.70953 189.381 12.2722 190.675 14.8318C193.162 19.7523 196.084 24.4153 199.17 28.9696C203.125 34.8043 207.431 40.3691 211.939 45.8009C217.659 52.6928 223.87 59.0832 230.379 65.209C235.952 70.4542 241.856 75.2979 248.098 79.7197C252.823 83.0675 257.66 86.2513 262.98 88.6153C263.197 88.7116 264.378 90.0859 264.393 90.3312C263.817 90.9913 241.061 106.069 223.532 129.505C220.298 133.988 215.84 137.169 214.604 142.622Z" fill="#FDD433"/>
<path d="M127.459 113.525C122.804 110.903 118.012 108.552 112.936 106.879C110.351 106.027 107.659 105.462 105.014 104.778C102.446 104.113 99.7871 103.888 97.272 103.031C96.5606 102.788 95.8819 103.204 95.1175 102.989C94.0019 102.674 93.3861 101.941 93.3787 100.984C93.3706 99.9623 93.9091 99.0399 95.0684 98.6714C96.6226 98.1775 98.2024 97.7858 99.699 97.0845C105.055 94.5753 109.785 91.1143 114.294 87.3718C123.068 80.0899 131.063 72.0024 138.508 63.3713C143.371 57.7349 147.912 51.8389 152.196 45.7608C154.999 41.7838 157.52 37.6066 160.001 33.4093C162.151 29.7722 164 26.0003 165.748 22.1673C165.784 22.0896 165.787 21.997 165.826 21.9215C166.32 20.9509 166.909 19.9389 168.1 19.9326C169.355 19.9261 169.667 21.0639 169.994 22.051C167.981 29.0063 164.576 35.2937 160.682 41.3379C156.057 48.5178 150.984 55.3635 145.501 61.9192C136.095 73.1649 126.086 83.7889 114.526 92.8776C111.425 95.3156 108.208 97.5733 104.838 99.6188C104.691 99.7081 104.516 99.7376 104.553 100.069C105.17 100.275 105.768 100.618 106.497 100.734C109.934 101.279 113.297 102.076 116.627 103.152C121.901 104.857 126.871 107.207 131.622 109.972C139.437 114.522 146.428 120.13 152.355 127.018C153.974 128.899 155.595 130.771 157.099 132.747C157.868 133.757 158.419 134.815 158.214 136.134C157.607 138.01 155.42 138.276 153.975 136.589C152.085 134.382 150.215 132.166 148.246 130.021C144.735 126.195 140.934 122.727 136.851 119.545C135.864 118.775 127.855 113.748 127.459 113.525Z" fill="#090909"/>
<path d="M214.606 142.624C215.841 137.171 218.481 132.393 221.716 127.909C229.383 117.283 238.424 107.938 248.502 99.6032C252.538 96.2656 256.639 92.9817 261.21 90.3538C261.931 89.9393 262.785 89.7328 263.361 89.0728C263.968 88.8812 264.612 88.7639 265.173 88.4816C266.239 87.9456 267.067 88.1631 267.702 89.1194C268.315 90.0416 267.638 90.7671 267.143 91.3758C266.061 92.7083 264.503 93.4545 263.098 94.3947C255.968 99.165 249.436 104.673 243.464 110.814C237.491 116.957 231.677 123.256 226.533 130.132C223.67 133.959 221.097 137.968 218.823 142.175C218.368 143.018 217.752 143.801 217.094 144.503C216.308 145.343 215.382 145.044 215.065 143.949C214.935 143.5 214.76 143.065 214.606 142.624Z" fill="#090909"/>
<path d="M218.671 97.9828C217.72 109.41 213.597 119.4 204.92 127.193C201.67 130.112 197.902 132.259 193.633 133.236C190.174 134.027 186.717 133.829 183.284 132.557C175.959 129.845 171.982 124.212 169.357 117.27C168.912 116.091 168.893 114.841 168.499 113.656C168.104 112.466 168.886 111.732 169.894 111.47C171.738 110.99 173.6 110.571 175.451 110.111C180.854 108.767 186.151 107.186 191.242 104.857C196.942 102.249 202.353 99.0964 207.974 96.3413C209.856 95.4188 211.469 93.9514 213.214 92.7454C214.04 92.1748 214.811 91.5474 215.943 91.5939C218.164 91.685 218.693 92.0933 218.812 94.3713C218.875 95.5695 218.725 96.7784 218.671 97.9828Z" fill="#090909"/>
<path d="M181.841 85.2807C180.956 92.8397 178.226 99.3778 171.289 103.387C165.257 106.872 158.134 105.462 153.97 100.244C151.831 97.5655 150.521 94.5484 150.196 91.0814C150.097 90.0199 149.885 88.9675 149.954 87.8938C150.043 86.5204 150.875 85.5033 152.059 85.4795C153.242 85.4558 153.839 86.0709 154.23 87.2843C154.603 88.4446 154.566 89.6254 154.854 90.7834C155.759 94.4366 157.396 97.4937 160.811 99.321C163.42 100.717 166.121 100.413 168.64 99.1691C172.886 97.0719 175.418 93.4783 176.954 89.079C177.949 86.2268 178.132 83.276 178.256 80.3055C178.28 79.7456 178.299 79.184 178.362 78.628C178.415 78.1628 178.453 77.6611 179.051 77.5142C179.699 77.3551 180.107 77.676 180.467 78.1619C181.018 78.9029 181.335 79.8072 181.421 80.6399C181.579 82.1726 182.07 83.6912 181.841 85.2807Z" fill="#090909"/>
<path d="M214.573 71.671C214.77 70.3372 214.326 69.0431 214.002 67.7155C213.432 65.3889 214.097 63.6265 216.405 63.9958C217.716 64.2053 218.174 65.3154 218.462 66.3574C220.366 73.2434 218.112 80.1206 212.406 84.3944C209.433 86.6205 206.008 87.5615 202.281 86.895C197.617 86.0605 193.221 82.2459 191.972 77.5208C191.687 76.4449 191.646 75.4264 191.676 74.3604C191.693 73.7998 191.978 73.4341 192.508 73.3847C193.005 73.3385 193.483 73.3568 193.809 73.9494C194.851 75.8441 195.634 77.8864 197.171 79.4995C202.036 84.6062 210.497 83.1939 213.457 76.4333C214.116 74.9294 214.539 73.3797 214.573 71.671Z" fill="#090909"/>
<path d="M205.02 256.3C198.032 256.3 191.042 256.394 184.056 256.274C177.072 256.154 170.107 255.593 163.144 255.026C156.656 254.497 150.217 253.585 143.763 252.784C138.403 252.119 133.339 250.423 128.411 248.291C124.359 246.54 120.453 244.517 116.954 241.789C112.458 238.285 110.601 233.65 111.711 228.113C112.563 223.869 115.336 220.901 119.188 218.908C122.984 216.943 127.122 216.685 131.238 216.425C138.477 215.966 145.722 216.27 152.965 216.463C162.626 216.72 172.286 216.757 181.94 216.201C182.669 216.159 183.391 216.012 184.117 215.92C186.216 215.651 187.887 216.535 188.113 218.03C188.377 219.781 187.024 221.314 184.813 221.506C182.11 221.742 179.417 222.128 176.692 222.116C168.109 222.081 159.522 222.277 150.943 221.977C146.675 221.828 142.413 221.654 138.142 221.688C133.916 221.722 129.685 221.813 125.532 222.632C121.724 223.382 118.175 225.22 117.18 229.646C116.48 232.76 117.81 235.134 120.05 237.107C122.88 239.6 126.25 241.213 129.629 242.785C132.669 244.198 135.804 245.394 139.028 246.299C142.13 247.17 145.334 247.563 148.529 247.961C152.07 248.401 155.613 248.822 159.147 249.302C161.284 249.592 163.44 249.753 165.579 249.883C173.318 250.351 181.043 251.133 188.812 251.08C194.764 251.04 200.718 251.065 206.67 251.083C218.871 251.12 231.062 251.057 243.245 250.146C249.215 249.701 255.184 249.248 261.102 248.41C266.351 247.666 271.617 246.795 276.614 244.886C278.735 244.076 280.696 242.86 281.782 240.816C283.207 238.137 282.205 235.651 280.494 233.482C277.829 230.105 274.217 228.1 270.205 226.704C267.643 225.813 265.094 224.888 262.527 224.007C259.778 223.063 256.954 222.407 254.169 221.608C250.035 220.421 245.791 219.779 241.512 219.356C234.433 218.655 227.349 218.056 220.226 218.067C219.367 218.069 218.504 217.992 217.651 217.885C216.924 217.795 216.348 217.438 216.213 216.639C216.068 215.782 216.35 215.155 217.178 214.759C219.048 213.866 221.048 213.637 223.075 213.569C231.851 213.273 240.558 214.082 249.221 215.376C253.003 215.941 256.661 217.123 260.361 218.08C264.594 219.173 268.731 220.594 272.827 222.102C278.058 224.027 282.639 226.928 285.735 231.727C287.486 234.439 288.039 237.481 287.49 240.634C287.094 242.906 285.858 244.806 284.187 246.413C281.254 249.233 277.589 250.613 273.761 251.572C268.619 252.859 263.405 253.886 258.122 254.321C246.696 255.261 235.26 256.126 223.783 256.126C217.529 256.126 211.274 256.126 205.02 256.126C205.02 256.184 205.02 256.242 205.02 256.3Z" fill="#090909"/>
<path d="M238.222 275.215C235.398 271.048 236.925 265.965 241.675 263.572C245.964 261.412 252.615 263.398 254.921 267.265C257.524 271.627 255.592 277.466 250.635 279.084C246.402 280.466 242.803 279.467 239.471 276.855C238.947 276.445 238.633 275.768 238.222 275.215Z" fill="#090909"/>
<path d="M149.113 273.28C147.141 270.409 146.934 267.441 149.094 264.679C150.74 262.575 153.081 261.361 155.816 261.195C159.817 260.952 163.189 262.18 165.431 265.686C167.958 269.638 166.422 274.53 162.225 276.627C158.145 278.666 153.808 277.852 150.36 274.924C149.848 274.49 149.524 273.834 149.113 273.28Z" fill="#090909"/>
<path d="M199.909 215.814C196.428 224.13 191.088 230.358 184.499 235.574C177.509 241.109 169.868 245.597 161.828 249.425C161.041 249.8 160.232 250.049 159.366 250.154C157.938 250.327 156.914 249.827 156.494 248.707C155.999 247.388 156.359 246.218 157.676 245.486C160.032 244.177 162.45 242.977 164.826 241.7C171.572 238.076 178.031 234.021 183.78 228.917C186.621 226.394 189.092 223.556 191.178 220.364C193.189 217.285 194.791 214.06 195.963 210.552C197.861 204.869 197.469 199.388 195.388 193.869C193.001 187.537 188.89 182.381 184.531 177.355C181.991 174.426 178.933 171.996 176.565 168.91C175.949 168.107 175.411 167.262 175.086 166.296C174.966 165.941 174.711 165.531 175.109 165.247C175.498 164.969 175.898 164.73 176.49 164.914C177.85 165.337 178.818 166.359 179.928 167.124C181.839 168.443 183.662 169.933 185.341 171.541C193.147 179.02 199.697 187.283 202.063 198.215C203.436 204.563 202.196 210.485 199.909 215.814Z" fill="#090909"/>
<path d="M151.815 261.778C151.815 261.778 154.022 263.901 155.59 261.606C157.159 259.311 157.708 257.323 154.955 252.303C152.202 247.283 148.593 243.232 146.36 244.652C144.127 246.072 144.942 249.381 144.942 249.381C144.942 249.381 140.96 246.208 139.47 250.757C137.979 255.307 140.277 263.835 144.036 270.32C147.796 276.804 154.825 287.787 157.256 286.599C159.686 285.411 159.552 282.244 157.896 279.171C156.241 276.098 151.815 261.778 151.815 261.778Z" fill="#8236FE"/>
<path d="M296.375 124.991L278.682 149.937L277.156 167.059L287.578 170.618L298.92 173.373L302.997 169.737L312.198 164.811L313.546 155.885L305.373 155.172L306.972 139.153L309.509 136.133L303.093 132.299L302.613 125.391L296.375 124.991Z" fill="white"/>
<path d="M267.673 81.3023C275.56 80.3247 283.232 80.0991 290.729 82.4584C295.959 84.1042 300.345 87.1676 304.297 90.9461C307.708 94.2074 310.708 97.7491 312.625 102.086C313.792 104.727 314.618 107.504 314.967 110.382C315.57 115.358 315.485 120.301 314.071 125.165C313.404 127.461 312.377 129.593 311.219 131.662C310.805 132.401 310.874 132.81 311.452 133.433C313.038 135.14 313.086 136.809 311.766 138.749C311.188 139.598 310.617 140.451 310.01 141.279C309.716 141.682 309.388 142.299 309.006 142.358C307.276 142.622 307.716 143.631 308.051 144.682C308.847 147.174 308.629 149.695 307.837 152.095C307.41 153.391 307.946 153.192 308.7 153.041C310.111 152.758 311.557 152.782 312.904 153.12C314.845 153.606 315.911 155.294 316.022 157.553C316.244 162.086 314.4 165.656 310.864 168.391C309.428 169.502 307.789 170.207 305.975 170.477C305.392 170.563 304.919 170.707 304.532 171.321C301.287 176.471 293.844 177.541 289.154 173.528C288.422 172.901 287.816 172.691 286.861 172.939C282.235 174.142 277.064 171.089 275.001 167.054C273.21 163.552 273.203 159.869 274.293 156.178C275.408 152.403 277.078 148.89 279.754 145.94C280.741 144.851 281.889 144.038 283.487 144.068C284.288 144.083 284.487 144.283 284.18 145.044C283.373 147.041 282.142 148.816 281.232 150.754C279.602 154.222 278.103 157.712 278.259 161.7C278.387 164.972 281.285 168.033 284.107 168.357C285.538 168.521 285.746 168.355 285.435 166.99C284.925 164.745 284.8 162.489 285.439 160.248C285.617 159.626 285.819 158.803 286.664 158.933C287.348 159.038 287.572 159.702 287.776 160.402C288.624 163.312 289.267 166.3 291.088 168.851C293.03 171.57 296.551 171.808 299.198 170.214C299.825 169.837 299.658 169.712 299.197 169.383C298.046 168.56 297.023 167.617 296.252 166.393C295.717 165.543 295.581 164.631 295.587 163.701C295.594 162.704 296.324 162.465 297.219 163.011C298.401 163.731 299.19 164.906 300.475 165.54C302.987 166.778 305.388 166.537 307.647 165.128C310.047 163.631 311.308 161.358 311.383 158.498C311.406 157.634 310.709 157.603 310.106 157.613C308.679 157.636 307.285 157.95 305.876 158.143C304.407 158.344 303.253 158.954 302.242 160.033C301.871 160.429 301.183 160.618 300.608 160.713C299.26 160.937 298.538 159.871 299.207 158.535C299.787 157.377 300.509 156.272 301.29 155.235C303.605 152.167 304.872 148.876 303.848 144.979C303.526 143.755 304.07 142.894 305.253 142.513C305.83 142.327 305.769 142.065 305.532 141.679C304.607 140.174 303.493 138.86 301.945 137.943C301.334 137.581 301.091 138.004 300.786 138.35C299.308 140.026 297.697 141.57 295.683 142.562C293.826 143.477 291.871 144.06 289.767 143.271C287.331 142.357 286.379 139.671 286.687 137.49C287.59 131.094 291.131 126.395 296.447 122.965C297.808 122.087 299.371 121.526 301.083 121.684C304.805 122.028 306.152 125.155 305.869 128.168C305.802 128.887 305.769 129.358 306.455 129.788C307.365 130.359 307.858 130.127 308.276 129.206C311.442 122.234 311.759 115.01 309.775 107.742C308.549 103.25 305.968 99.4749 302.531 96.2154C298.519 92.4111 294.289 89.0317 288.929 87.397C285.054 86.215 281.042 85.7782 276.997 85.754C270.483 85.7146 264.125 86.7943 257.88 88.5866C256.808 88.8946 255.76 89.3 254.723 89.7169C253.918 90.0411 253.109 90.3224 252.242 90.3939C251.077 90.4899 250.047 89.8154 249.785 88.8112C249.397 87.3214 249.822 86.3137 251.059 85.7276C254.394 84.1476 257.982 83.3884 261.543 82.5762C263.639 82.0977 265.711 81.4589 267.673 81.3023ZM290.738 138.115C290.908 139.404 291.54 139.811 292.744 139.35C293.338 139.122 293.932 138.859 294.464 138.516C298.198 136.115 300.298 132.605 301.259 128.35C301.633 126.698 300.799 125.941 299.181 126.437C298.776 126.561 298.394 126.729 298.013 126.942C295.224 128.498 293.333 130.898 291.883 133.631C291.165 134.986 290.54 136.475 290.738 138.115Z" fill="#090909"/>
<path d="M182.653 154.806L173.771 163.954L161.039 167.076L156.316 161.561L147.223 167.26L146.535 178.434L152.814 179.353L153.11 183.078L160.47 191.659L166.911 204.944L170.554 201.221L171.262 191.494L178.075 190.795L178.378 183.495L183.467 180.539L178.255 174.811L186.629 162.428L182.653 154.806Z" fill="white"/>
<path d="M175.568 156.992C176.337 156.586 176.619 155.748 177.192 155.162C178.583 153.737 180.291 152.846 182.226 152.853C184.715 152.862 186.2 154.55 187.131 156.673C189.3 161.622 188.318 166.152 185.14 170.344C184.993 170.537 184.704 170.656 184.795 170.979C183.47 172.038 182.305 173.285 180.862 174.209C180.381 174.518 180.352 174.844 181.006 175.225C182.611 176.159 184.083 177.194 184.597 179.233C184.962 180.683 184.422 181.626 183.518 182.528C182.717 183.328 181.723 183.865 180.637 184.149C179.525 184.44 179.585 185.086 179.794 185.995C180.212 187.817 179.955 189.634 178.948 191.185C177.803 192.949 175.971 193.346 173.962 193.129C172.384 192.958 172.33 193.034 172.631 194.598C173.289 198.015 172.601 201.17 170.665 204.027C169.504 205.742 167.96 206.232 166.34 205.482C165.398 205.046 164.878 204.149 164.316 203.313C162.816 201.083 162.037 198.522 161.115 196.05C160.299 193.861 159.026 192.163 157.133 190.889C153.427 188.395 151.206 184.87 150.66 180.527C150.352 178.075 150.81 175.5 152.865 173.633C153.157 173.368 153.543 173.014 153.969 173.331C154.314 173.587 154.664 173.913 154.619 174.441C154.512 175.672 154.719 176.902 154.501 178.144C153.896 181.6 155.517 184.263 157.792 186.587C159.606 188.44 161.902 189.835 163.1 192.263C164.132 194.352 164.509 196.655 165.235 198.844C165.739 200.36 166.344 201.803 167.508 202.952C169.603 200.086 169.842 195.183 168.345 192.503C167.986 191.859 167.234 191.74 166.661 191.431C165.857 190.998 165.164 190.448 164.474 189.881C163.732 189.27 163.457 188.427 163.958 187.618C164.426 186.863 165.304 187.027 166.032 187.253C168.619 188.057 171.151 189.059 173.874 189.351C174.87 189.457 175.971 189.97 176.73 188.878C177.478 187.801 177.307 186.599 177.02 185.405C176.883 184.833 176.387 184.915 175.999 184.795C174.527 184.339 172.99 184.097 171.638 183.266C170.728 182.707 170.417 181.943 170.748 181C171.067 180.092 171.879 179.909 172.747 180.07C173.717 180.25 174.676 180.433 175.58 180.909C177.377 181.855 179.096 181.284 180.715 180.389C181.619 179.889 180.95 179.276 180.537 178.978C178.968 177.846 177.348 176.788 175.639 175.864C174.352 175.168 173.109 174.382 171.891 173.569C171.287 173.165 170.982 172.494 171.381 171.803C171.767 171.132 172.447 171.036 173.154 171.3C173.388 171.387 173.591 171.556 173.82 171.666C174.888 172.181 175.789 172.467 176.908 171.433C178.564 169.902 180.596 168.794 181.922 166.873C183.606 164.434 184.156 161.804 183.383 158.939C183.215 158.316 183.092 157.567 182.207 157.432C181.375 157.305 180.823 157.745 180.349 158.306C179.437 159.384 178.851 160.672 178.117 161.866C175.88 165.509 172.306 167.201 168.401 168.304C166.243 168.914 163.992 168.904 161.752 168.877C160.658 168.864 159.598 169.195 158.558 169.572C157.708 169.881 156.842 170.011 156.334 168.95C155.952 168.152 156.748 167.423 156.991 167.261C158.569 166.21 157.337 165.426 156.832 164.66C156.21 163.716 155.138 163.865 154.331 164.211C151.633 165.367 149.815 167.411 149.003 170.242C148.698 171.304 148.392 172.375 148.301 173.513C148.198 174.797 148.129 175.846 149.4 176.725C150.329 177.366 150.009 178.765 149.005 179.379C146.841 180.703 144.72 179.852 144.068 177.358C143.57 175.454 143.565 173.525 144.028 171.611C144.202 170.896 144.143 170.542 143.261 170.431C139.41 169.943 135.578 169.323 131.902 168.023C125.96 165.922 120.128 163.635 115.205 159.489C109.985 155.092 108.251 147.485 110.653 141.209C112.038 137.589 114.717 134.948 117.939 132.844C122.754 129.7 128.076 127.83 133.644 126.595C135.935 126.087 138.26 125.756 140.596 125.505C141.004 125.461 149.599 124.189 150.545 126.544C151.896 129.907 147.784 129.795 146.337 129.969C141.588 130.539 136.814 130.929 132.226 132.375C127.25 133.943 122.416 135.822 118.498 139.455C114.722 142.957 113.926 147.874 116.403 152.317C118.794 156.605 123.138 158.37 127.247 160.382C128.876 161.18 130.617 161.754 132.29 162.454C134.646 163.44 137.093 164.142 139.47 165.053C141.095 165.676 142.8 166.086 144.379 166.854C144.897 167.107 145.434 167.345 145.895 166.547C147.605 163.58 149.848 161.159 153.276 160.204C155.212 159.664 157.146 159.601 158.892 160.909C159.787 161.579 160.029 162.514 160.154 163.545C160.246 164.316 160.254 165.323 161.468 164.996C163.056 164.568 164.693 164.66 166.296 164.371C170.738 163.569 173.912 161.255 175.568 156.992Z" fill="#090909"/>
</svg>
