<svg width="535" height="395" viewBox="0 0 535 395" fill="none" xmlns="http://www.w3.org/2000/svg">
<path d="M251.931 251.032C251.412 250.345 251.077 249.641 250.437 249.01C250.292 248.867 235.055 233.069 232.376 230.733C221.591 222.559 209.701 217.262 196.909 212.881C190.303 210.353 179.794 208.434 173.255 206.754C174.259 205.29 180.022 201.023 181.312 199.613C202.882 179.851 219.287 156.109 226.182 127.723C227.933 119.817 230.273 112.103 230.748 103.929C231.757 100.563 231.187 89.0659 236.915 93.2385C248.93 106.592 257.948 122.618 271.318 134.874C278.841 141.723 286.825 147.92 295.133 153.776C306.854 161.022 322.893 166.995 335.078 173.014C332.108 175.308 321.452 187.874 312.699 200.309C299.351 220.645 284.07 246.125 273.426 268.148C272.505 270.51 270.181 276.004 267.277 275.629C264.291 275.243 263.459 269.633 260.989 265.45C258.663 260.282 255.491 255.577 252.003 251.125C251.978 251.093 251.954 251.063 251.931 251.032Z" fill="#FDD433"/>
<path d="M211.183 165.434C209.635 167.98 208.148 170.565 206.529 173.065C199.648 183.696 191.404 193.181 182.151 201.805C180.998 202.881 179.695 203.794 178.507 204.834C178.235 205.072 177.646 205.12 177.737 205.626C177.834 206.173 178.397 205.95 178.731 206.013C181.311 206.498 183.921 206.835 186.481 207.403C190.508 208.295 194.509 209.325 198.413 210.655C204.491 212.727 210.395 215.228 216.108 218.169C222.45 221.433 228.502 225.162 234.174 229.485C239.369 233.444 244.248 237.751 248.38 242.846C248.72 243.267 249.044 243.675 249.292 244.176C249.926 245.46 249.813 246.183 248.675 247.098C247.191 247.325 246.216 246.618 245.274 245.523C240.22 239.649 234.286 234.771 227.909 230.403C224.915 228.351 221.856 226.398 218.654 224.695C215.392 222.96 212.136 221.217 208.708 219.791C206.179 218.739 203.763 217.334 201.135 216.596C198.139 215.754 195.389 214.265 192.356 213.557C190.903 213.218 189.396 212.947 188.018 212.487C186.496 211.978 184.957 211.641 183.417 211.263C180.633 210.581 177.798 210.169 174.965 209.756C173.427 209.531 171.868 209.44 170.338 209.176C169.483 209.028 168.712 208.623 168.577 207.574C168.43 206.44 168.916 205.671 169.899 205.189C170.821 204.736 171.79 204.369 172.692 203.88C175.357 202.437 177.695 200.54 179.922 198.507C182.301 196.336 184.68 194.164 186.884 191.811C188.196 190.41 189.543 189.037 190.779 187.571C195.559 181.899 200.143 176.067 204.156 169.828C205.527 167.697 207.08 165.664 208.194 163.37C209.808 160.045 211.695 156.833 212.527 153.18C212.766 152.133 213.534 151.7 214.412 151.797C215.324 151.898 215.616 152.73 215.576 153.613C215.469 155.995 214.461 158.109 213.572 160.253C212.961 161.727 212.273 163.169 211.62 164.625C211.544 164.73 211.469 164.835 211.398 164.933C211.33 165.095 211.257 165.264 211.183 165.434Z" fill="#090909"/>
<path d="M310.626 204.296C307.96 203.741 308.309 202.127 309.219 200.102C310.579 197.075 312.598 194.442 314.456 191.711C318.642 185.559 323.522 180.005 328.858 174.838C329.981 173.75 331.357 172.929 332.264 171.61C332.709 171.614 332.951 171.233 333.306 171.063C334.476 170.504 335.587 170.647 336.321 171.579C337.054 172.51 336.936 173.49 336.31 174.434C335.601 175.503 334.554 176.245 333.629 177.096C329.257 181.118 325.401 185.611 321.749 190.27C318.616 194.268 315.649 198.397 312.623 202.478C312.072 203.221 311.446 203.859 310.626 204.296Z" fill="#090909"/>
<path d="M239.214 167.059C243.473 167.029 247.195 168.781 250.899 170.603C252.986 171.629 255.014 172.74 256.748 174.314C257.13 174.661 257.546 175.011 257.807 175.443C258.213 176.116 258.641 176.845 258.139 177.672C257.666 178.451 256.964 178.829 256.053 178.798C253.93 178.728 251.809 178.825 249.757 179.374C245.217 180.589 241.332 183.045 237.708 185.949C236.109 187.23 234.569 188.584 232.983 189.881C232.363 190.388 231.777 190.91 230.911 191.095C230.402 191.205 230.109 191.324 229.68 190.908C229.193 190.437 229.283 189.907 229.492 189.496C229.969 188.557 230.454 187.619 231.198 186.823C235.522 182.193 240.734 178.892 246.574 176.548C247.7 176.096 248.936 175.918 250.122 175.618C250.41 175.545 250.828 175.678 250.88 175.222C250.923 174.843 250.519 174.836 250.308 174.716C247.663 173.22 244.853 172.118 241.937 171.277C239.379 170.539 236.768 170.276 234.114 170.385C233.915 170.393 233.715 170.364 233.515 170.367C232.849 170.376 232.339 170.112 232.142 169.459C231.942 168.794 232.438 168.41 232.883 168.101C234.059 167.287 235.421 167.002 236.821 166.948C237.616 166.917 238.416 167.017 239.214 167.059Z" fill="#090909"/>
<path d="M281.074 160.403C276.985 161.593 273.921 164.337 270.895 167.143C269.19 168.723 267.565 170.369 266.355 172.374C266.089 172.816 265.791 173.269 265.665 173.758C265.469 174.519 265.267 175.34 265.986 175.989C266.662 176.6 267.443 176.761 268.307 176.471C270.321 175.795 272.38 175.282 274.504 175.221C279.201 175.085 283.628 176.326 287.932 178.071C289.83 178.841 291.694 179.698 293.585 180.486C294.324 180.794 295.036 181.127 295.918 181.057C296.438 181.016 296.752 181.046 297.045 180.525C297.376 179.934 297.138 179.452 296.82 179.118C296.094 178.355 295.36 177.596 294.419 177.045C288.949 173.847 283.009 172.176 276.743 171.601C275.535 171.49 274.299 171.674 273.077 171.727C272.78 171.739 272.418 171.985 272.237 171.564C272.087 171.213 272.472 171.091 272.641 170.915C274.746 168.724 277.122 166.864 279.674 165.223C281.913 163.785 284.339 162.785 286.913 162.13C287.106 162.081 287.29 161.996 287.482 161.941C288.123 161.759 288.536 161.36 288.537 160.678C288.538 159.984 287.953 159.757 287.438 159.589C286.077 159.145 284.692 159.262 283.335 159.611C282.564 159.809 281.826 160.135 281.074 160.403Z" fill="#090909"/>
<path d="M244.285 205.187C243.563 204.579 243.086 203.803 243.558 202.887C244.075 201.885 245.028 202.067 245.848 202.434C248.556 203.647 252.062 204.536 259.905 204.088C267.312 203.665 272.622 198.782 273.174 198.624C274.026 198.379 274.922 198.192 275.581 199.04C276.196 199.83 276.314 200.661 275.784 201.591C274.605 203.661 267.069 207.358 260.324 207.978C249.4 208.981 245.168 205.931 244.285 205.187Z" fill="#090909"/>
<path d="M36.6192 314.464C36.6192 314.464 60.03 304.864 88.1241 318.934C114.475 332.13 103.726 354.591 94.365 354.064C64.5934 352.386 78.1159 313.058 107.689 303.91C137.945 294.551 181.049 295.868 233.499 308.973C241.542 310.983 270.944 321.569 289.47 315.768C304.009 311.216 319.493 296.692 319.503 274.374" stroke="black" stroke-width="9" stroke-linecap="round"/>
<path d="M367.121 198.989C378.397 191.299 396.885 159.86 403.136 125.54C407.56 101.257 409.88 85.6856 421.405 68.4061C430.978 54.0507 449.013 29.7721 470.383 19.2053" stroke="black" stroke-width="9" stroke-linecap="round"/>
<path d="M252.118 250.024C249.02 250.391 251.678 255.602 252.298 267.542C252.778 276.782 254.339 294.54 252.358 314.398C251.639 321.61 249.047 327.736 251.818 327.656C253.919 327.596 254.497 324.478 255.18 320.397C257.941 303.899 257.341 283.201 256.08 268.382C254.928 254.839 255.66 249.604 252.118 250.024Z" fill="black"/>
<path d="M289.944 244.512C289.287 244.762 289.764 246.372 289.835 248.055C289.968 251.167 292.465 255.611 293.486 263.41C294.88 274.061 295.887 298.086 293.906 317.944C293.187 325.157 290.664 331.863 293.846 331.923C296.683 331.976 297.028 325.264 298.048 315.785C300.184 295.949 298.871 279.395 297.268 264.61C295.947 252.431 291.292 243.999 289.944 244.512Z" fill="black"/>
<path d="M304.406 209.283C303.668 218.899 312.629 231.911 326.078 232.097C342.746 232.324 353.095 224.427 356.35 220.107" stroke="black" stroke-width="9" stroke-linecap="round"/>
<path d="M361.259 188.82L357.591 192.654L358.774 204.175L356.07 205.73L355.101 211.008L361.217 215.997L367.519 216.847L369.027 212.17L377.442 205.283L378.172 198.625L373.498 193.518L365.996 192.367L361.259 188.82Z" fill="white"/>
<path d="M359.412 196.324C359.154 197.771 359.688 199.186 359.815 200.642C359.854 201.093 360.086 201.716 359.338 201.939C358.646 202.145 358.064 201.957 357.667 201.397C356.686 200.014 356.313 198.433 356.189 196.759C356.021 194.486 356.213 192.303 357.145 190.171C358.484 187.111 362.286 185.703 365.23 188.333C365.965 188.989 366.632 189.735 367.008 190.642C367.252 191.229 367.577 191.303 368.101 191.23C368.495 191.175 368.91 191.205 369.294 191.166C373.262 190.759 375.882 192.788 376.598 193.469C379.811 196.526 380.501 200.998 378.602 205.014C377.187 208.006 375.283 210.606 372.188 211.862C370.508 212.543 370.248 213.541 370.051 215.053C369.746 217.382 367.779 218.977 365.309 218.891C362.081 218.779 358.961 217.958 356.515 215.775C354.144 213.661 352.719 210.945 353.104 207.606C353.372 205.285 355.002 203.005 357.481 202.66C358.683 202.493 359.809 202.353 360.992 202.708C361.855 202.967 362.485 203.401 362.433 204.337C362.379 205.283 361.66 205.767 360.815 205.967C360.279 206.093 359.702 206.058 359.143 206.072C357.067 206.124 356.147 207.641 356.905 209.569C357.973 212.284 360.121 213.617 362.743 214.422C363.121 214.539 363.495 214.671 363.873 214.788C365.788 215.38 366.867 214.63 366.944 212.628C366.983 211.591 367.011 210.549 366.972 209.512C366.939 208.649 367.407 208.102 368.116 207.947C368.848 207.786 369.428 208.362 369.566 209.028C369.779 210.06 370.151 209.807 370.779 209.402C372.882 208.045 374.745 206.558 375.878 204.172C377.778 200.176 375.262 194.177 369.55 194.673C369.011 194.72 368.261 194.45 368.018 195.258C367.787 196.031 368.237 196.546 368.825 196.942C369.649 197.497 370.47 198.065 371.335 198.549C372.339 199.111 372.784 199.89 372.474 201.011C372.187 202.05 371.312 202.035 370.47 202.041C370.031 202.044 369.616 202.139 369.186 202.234C367.977 202.501 368.241 203.022 368.828 203.68C369.145 204.036 369.464 204.392 369.754 204.768C370.261 205.424 370.364 206.087 369.8 206.793C369.168 207.586 368.301 207.53 367.642 207.121C366.04 206.128 364.579 204.257 364.746 202.054C364.807 201.241 365.193 200.609 365.757 200.093C366.182 199.705 366.19 199.422 365.814 199.004C364.717 197.784 364.559 196.304 364.712 194.75C364.808 193.782 363.103 190.998 362.211 190.664C361.189 190.282 360.195 190.929 359.87 192.17C359.517 193.517 359.214 194.869 359.412 196.324Z" fill="#090909"/>
<path d="M226.685 235.198C227.165 242.52 231.416 261.021 266.751 269.139C290.395 274.571 304.335 273.197 311.783 270.097" stroke="black" stroke-width="9" stroke-linecap="round"/>
<path d="M321.318 249.598L315.185 253.182L316.305 260.864L311.315 263.61L312.734 271.773L319.268 275.33L329.116 274.457L332.797 267.087L331.977 259.346L329.164 256.218L328.938 250.998L321.318 249.598Z" fill="white"/>
<path d="M308.507 266.314C308.568 263.402 310.806 260.46 313.615 259.762C314.764 259.477 314.524 259.019 314.225 258.276C313.92 257.518 313.575 256.781 313.445 255.939C312.984 252.962 313.783 251.242 316.48 249.861C319.419 248.357 322.546 247.689 325.836 248.085C327.088 248.236 328.322 248.628 329.397 249.339C331.568 250.777 331.592 253.057 330.757 255.363C330.455 256.196 330.476 256.574 331.288 257.007C332.471 257.639 333.414 258.565 334.101 259.759C334.83 261.024 334.726 262.227 333.856 263.3C333.415 263.844 333.448 264.213 333.72 264.768C334.708 266.785 334.41 268.535 332.753 270.058C332.376 270.405 332.396 270.711 332.413 271.097C332.538 273.79 330.909 275.541 328.187 275.924C326.084 276.22 323.51 276.256 321.391 276.343C319.818 276.408 317.707 276.34 316.776 275.795C315.916 275.291 315.953 274.07 317.621 273.356C319.035 272.75 325.394 274.296 329.14 272.454C329.826 272.117 329.888 271.104 328.287 270.492C326.437 269.785 323.244 270.331 322.673 269.194C322.11 268.069 323.328 267.635 323.64 267.539C327.516 266.353 330.271 268.79 331.076 268.064C331.259 267.899 332.262 265.346 329.624 264.495C327.539 263.821 324.278 265.055 323.459 263.481C322.694 262.011 325.841 260.982 327.517 261.046C329.962 261.14 330.626 262.098 330.856 261.819C331.462 261.084 329.842 259.988 328.884 259.638C326.156 258.64 320.297 261.054 319.789 264.884C319.257 268.895 317.964 269.3 316.544 268.894C315.797 268.68 315.373 267.965 315.206 266.936C315.073 266.119 315.304 264.941 315.484 264.383C315.763 263.517 315.552 263.195 315.027 263.323C313.984 263.575 312.66 265.179 312.886 266.673C313.281 269.285 316.582 269.474 315.614 271.845C315.014 273.313 313.201 273.619 311.787 272.589C309.585 270.985 308.489 267.142 308.507 266.314ZM324.274 251.665C322.073 251.588 320.211 252.253 318.412 253.092C317.232 253.642 317.124 254.241 317.475 255.506C317.74 256.46 318.267 257.314 318.452 258.276C318.576 258.923 318.74 258.95 319.255 258.6C321.272 257.228 323.4 256.157 325.896 255.896C327.534 255.725 327.948 255.053 327.902 253.376C327.883 252.71 327.532 252.326 326.997 252.189C326.051 251.947 325.143 251.437 324.274 251.665Z" fill="black"/>
<path d="M257.213 339.29C257.213 339.29 260.376 338.727 260.723 336.302C261.069 333.877 259.466 332.274 257.256 331.841C255.046 331.408 252.273 330.845 249.456 331.235C246.639 331.625 245.426 332.274 245.426 334.093C245.426 335.912 247.939 337.644 247.939 337.644C247.939 337.644 243.65 339.679 243.476 342.841C243.303 346.002 245.903 347.691 249.023 347.735C252.143 347.778 256.91 347.691 258.513 346.089C260.116 344.487 259.9 341.801 258.643 340.805C257.386 339.81 257.213 339.29 257.213 339.29Z" fill="#8236FE"/>
<path d="M298.335 339.377C298.335 339.377 299.376 337.644 298.509 336.388C297.642 335.132 294.999 334.96 293.179 335.219C291.358 335.479 287.069 336.345 287.675 339.16C288.282 341.975 289.365 341.758 289.365 341.758C289.365 341.758 287.936 344.876 289.669 346.695C291.402 348.514 295.692 348.904 298.856 349.034C302.019 349.164 315.842 349.77 316.622 346.219C317.402 342.668 314.585 340.286 309.342 339.766C304.099 339.246 298.335 339.377 298.335 339.377Z" fill="#8236FE"/>
<path d="M194.341 251.343C194.091 247.284 197.151 244.952 200.26 245.008C203.499 245.066 206.179 247.376 206.11 251.051C206.043 254.661 203.232 257.027 200.199 257.063C197.019 257.099 194.322 254.892 194.341 251.343ZM202.047 251.087C202.057 249.882 201.111 248.938 199.901 248.946C198.657 248.953 197.585 249.8 197.551 250.801C197.514 251.878 198.765 253.074 199.956 253.1C201.218 253.127 202.036 252.339 202.047 251.087Z" fill="#090909"/>
<path d="M323.333 151.155C320.424 151.283 317.413 148.93 317.459 145.354C317.509 141.533 320.099 139.045 323.617 138.992C326.887 138.943 329.578 141.707 329.589 144.989C329.6 148.369 326.786 151.335 323.333 151.155ZM320.788 145.192C320.789 146.708 321.89 147.895 323.321 147.92C324.617 147.943 325.764 146.799 325.768 145.479C325.773 144.023 324.644 142.939 323.122 142.938C321.622 142.937 320.788 143.743 320.788 145.192Z" fill="#090909"/>
</svg>
